<?xml version="1.0" encoding="utf-8" ?><svg version="1.1" xmlns = 'http://www.w3.org/2000/svg'><defs><font id='web' horiz-adv-x="1000">
<font-face font-family="web" descent="-467" cap-height="1446" units-per-em="2048" bbox="-268,-479,2537,1949" x-height="1053" ascent="1581" />
<missing-glyph horiz-adv-x="1024" d="M 1024 1446 L 1024 0 L 0 0 L 0 1446 L 1024 1446 Z M 59 55 L 963 55 L 963 1391 L 59 1391 L 59 55 Z" /><glyph horiz-adv-x="469" d="" unicode=" " />
<glyph horiz-adv-x="510" d="M 322 1446 L 322 1257 L 303 475 L 254 475 L 233 1257 L 233 1446 L 322 1446 Z M 322 219 L 322 0 L 233 0 L 233 219 L 322 219 Z" unicode="!" />
<glyph horiz-adv-x="588" d="M 231 1446 L 209 1280 L 166 954 L 115 954 L 133 1280 L 143 1446 L 231 1446 Z M 524 1446 L 502 1280 L 461 954 L 408 954 L 426 1280 L 436 1446 L 524 1446 Z" unicode="&#x22;" />
<glyph horiz-adv-x="1616" d="M 416 371 L 104 371 L 104 428 L 426 428 L 541 1057 L 215 1057 L 215 1114 L 551 1114 L 629 1532 L 688 1532 L 612 1114 L 1141 1114 L 1219 1532 L 1278 1532 L 1202 1114 L 1513 1114 L 1513 1057 L 1192 1057 L 1079 428 L 1403 428 L 1403 371 L 1069 371 L 987 -86 L 924 -86 L 1006 371 L 479 371 L 397 -86 L 334 -86 L 416 371 Z M 489 428 L 1016 428 L 1130 1057 L 602 1057 L 489 428 Z" unicode="#" />
<glyph horiz-adv-x="1237" d="M 950 1270 C 906 1286 857 1301 804 1313 C 751 1325 695 1331 635 1331 C 584 1331 537 1325 493 1315 C 449 1305 411 1289 379 1267 C 347 1245 321 1218 303 1185 C 285 1151 276 1112 276 1067 C 276 1021 285 984 303 955 C 321 925 345 901 377 881 C 408 861 444 845 486 832 C 528 818 573 805 621 793 C 679 777 734 759 786 741 C 837 723 882 700 920 674 C 958 648 989 616 1011 579 C 1033 541 1044 496 1044 442 C 1044 394 1035 351 1017 311 C 999 271 974 235 941 205 C 907 175 866 150 817 130 C 767 110 711 96 649 90 L 649 -211 L 590 -211 L 590 86 L 553 86 C 523 86 492 87 460 90 C 428 93 397 98 365 104 C 333 110 303 117 273 127 C 243 136 216 147 190 160 L 213 221 C 237 208 264 197 292 187 C 320 177 349 169 379 163 C 409 157 439 152 469 149 C 499 146 529 145 557 145 C 620 145 677 151 728 165 C 779 178 823 197 859 222 C 895 246 922 276 942 312 C 961 347 971 387 971 432 C 971 476 960 514 940 546 C 920 577 892 604 858 627 C 823 649 783 668 738 684 C 693 700 646 714 596 727 C 548 739 500 753 453 768 C 406 783 364 803 328 828 C 291 852 261 883 239 920 C 216 957 205 1004 205 1061 C 205 1113 214 1158 233 1197 C 252 1236 279 1269 313 1297 C 347 1324 387 1345 435 1360 C 482 1375 534 1385 590 1389 L 590 1620 L 649 1620 L 649 1391 C 713 1389 772 1383 824 1371 C 876 1359 925 1345 969 1331 L 950 1270 Z" unicode="$" />
<glyph horiz-adv-x="1843" d="M 1366 1446 L 545 0 L 485 0 L 1307 1446 L 1366 1446 Z M 440 1458 C 502 1458 554 1447 597 1426 C 640 1404 675 1375 702 1339 C 729 1303 749 1260 761 1212 C 773 1164 780 1113 780 1059 C 780 993 772 934 758 882 C 744 830 722 786 694 750 C 666 714 630 686 588 667 C 546 648 496 639 440 639 C 376 639 322 651 279 675 C 235 699 201 730 175 769 C 149 808 130 853 119 903 C 107 953 102 1005 102 1057 C 102 1191 130 1292 187 1358 C 243 1424 328 1458 440 1458 Z M 440 1407 C 391 1407 349 1399 314 1383 C 279 1367 250 1344 228 1314 C 205 1284 188 1247 178 1204 C 167 1160 162 1111 162 1057 C 162 1014 166 971 174 928 C 182 884 197 845 218 810 C 239 774 268 745 304 723 C 340 701 385 690 440 690 C 490 690 532 699 568 717 C 603 735 632 761 655 794 C 677 826 694 865 705 910 C 715 955 721 1005 721 1059 C 721 1103 716 1147 707 1189 C 697 1231 682 1268 660 1300 C 638 1332 610 1358 574 1378 C 538 1397 493 1407 440 1407 Z M 1401 807 C 1463 807 1515 796 1558 775 C 1601 753 1636 724 1663 688 C 1690 652 1710 609 1722 561 C 1734 513 1741 462 1741 408 C 1741 342 1733 283 1719 231 C 1705 179 1683 135 1655 99 C 1627 63 1591 35 1549 16 C 1506 -2 1457 -12 1401 -12 C 1337 -12 1283 0 1240 24 C 1196 48 1162 79 1136 118 C 1110 157 1091 202 1080 252 C 1068 302 1063 354 1063 406 C 1063 540 1091 641 1148 707 C 1204 773 1289 807 1401 807 Z M 1401 756 C 1352 756 1310 748 1275 732 C 1239 716 1210 693 1188 663 C 1165 633 1148 596 1138 553 C 1127 509 1122 460 1122 406 C 1122 363 1126 320 1135 277 C 1143 233 1158 194 1179 159 C 1200 123 1229 94 1265 72 C 1301 50 1346 39 1401 39 C 1449 39 1491 48 1527 66 C 1562 84 1591 110 1614 143 C 1637 175 1654 214 1665 259 C 1675 304 1681 354 1681 408 C 1681 452 1676 496 1667 538 C 1657 580 1642 617 1620 649 C 1598 681 1570 707 1534 727 C 1498 746 1454 756 1401 756 Z" unicode="%" />
<glyph horiz-adv-x="1399" d="M 1309 -18 C 1280 -11 1253 -2 1227 10 C 1201 22 1175 37 1149 56 C 1123 74 1096 96 1068 122 C 1040 148 1009 178 977 213 C 909 137 836 79 758 38 C 680 -2 592 -23 494 -23 C 430 -23 372 -14 320 3 C 268 21 224 46 188 80 C 151 113 123 154 103 202 C 83 250 74 305 74 367 C 74 427 83 479 101 524 C 119 569 145 609 179 643 C 213 677 253 708 300 734 C 346 760 398 785 455 809 C 433 833 412 858 392 883 C 372 907 354 933 339 960 C 323 987 311 1016 302 1046 C 293 1076 289 1109 289 1145 C 289 1191 297 1234 313 1274 C 329 1313 352 1347 382 1376 C 412 1404 447 1427 489 1443 C 531 1459 577 1468 627 1468 C 667 1468 705 1461 742 1449 C 778 1437 811 1419 839 1395 C 867 1371 889 1341 906 1305 C 923 1269 932 1228 932 1182 C 932 1130 922 1085 903 1047 C 884 1009 858 975 824 945 C 790 915 751 888 705 864 C 659 840 609 817 555 795 C 587 756 620 718 653 680 C 685 642 719 604 753 565 C 787 525 823 485 860 443 C 896 401 935 357 977 311 C 1025 369 1072 436 1118 512 C 1164 587 1209 668 1255 756 L 1325 741 C 1277 651 1228 566 1178 485 C 1128 404 1075 330 1020 264 C 1050 232 1078 204 1104 180 C 1130 156 1154 135 1178 117 C 1202 99 1225 84 1248 72 C 1270 60 1294 49 1319 41 L 1309 -18 Z M 500 35 C 586 35 664 54 735 92 C 805 130 872 185 936 256 C 859 339 784 423 711 508 C 637 592 563 678 489 766 C 437 744 390 721 348 697 C 306 673 270 645 240 614 C 210 583 187 548 171 509 C 155 469 147 424 147 373 C 147 319 155 271 172 229 C 188 187 212 152 243 123 C 273 94 310 72 354 57 C 397 42 446 35 500 35 Z M 360 1149 C 360 1121 364 1093 372 1067 C 380 1040 392 1014 406 988 C 420 962 437 937 457 912 C 476 886 497 860 520 834 C 572 856 619 878 661 900 C 703 921 740 944 770 970 C 800 996 823 1025 839 1058 C 855 1090 864 1130 864 1176 C 864 1214 857 1248 844 1278 C 831 1308 814 1333 792 1353 C 770 1373 745 1389 717 1399 C 688 1409 658 1415 627 1415 C 587 1415 551 1408 518 1394 C 485 1380 457 1362 434 1338 C 410 1314 392 1286 379 1254 C 366 1222 360 1187 360 1149 Z" unicode="&#x26;" />
<glyph horiz-adv-x="291" d="M 231 1446 L 209 1280 L 166 954 L 115 954 L 133 1280 L 143 1446 L 231 1446 Z" unicode="'" />
<glyph horiz-adv-x="635" d="M 553 -326 C 523 -303 491 -274 458 -240 C 425 -205 393 -165 361 -121 C 329 -76 299 -27 271 27 C 242 81 217 138 195 200 C 173 262 156 327 144 395 C 131 463 125 534 125 608 C 125 681 131 752 144 820 C 156 888 173 953 195 1014 C 217 1075 242 1132 271 1186 C 299 1240 329 1289 361 1333 C 393 1377 425 1417 458 1451 C 490 1485 522 1513 553 1536 L 606 1536 L 606 1518 C 574 1494 542 1464 510 1430 C 478 1395 446 1355 416 1311 C 386 1266 357 1217 330 1165 C 303 1112 280 1056 260 996 C 240 936 224 874 212 809 C 200 743 195 676 195 608 C 195 539 200 472 212 406 C 224 340 240 278 260 218 C 280 158 303 102 330 48 C 357 -5 386 -54 416 -99 C 446 -143 478 -183 510 -219 C 542 -254 574 -283 606 -307 L 606 -326 L 553 -326 Z" unicode="(" />
<glyph horiz-adv-x="635" d="M 29 -326 L 29 -307 C 59 -283 91 -254 124 -219 C 156 -183 188 -143 218 -99 C 248 -54 277 -5 304 48 C 331 102 355 158 375 218 C 395 278 410 340 422 406 C 434 472 440 539 440 608 C 440 676 434 743 422 809 C 410 874 395 936 375 996 C 355 1056 331 1112 304 1165 C 277 1217 248 1266 218 1311 C 188 1355 156 1395 124 1430 C 91 1464 59 1494 29 1518 L 29 1536 L 82 1536 C 112 1513 143 1485 176 1451 C 209 1417 241 1377 273 1333 C 305 1289 335 1240 364 1186 C 392 1132 417 1075 439 1014 C 461 953 478 888 491 820 C 503 752 510 681 510 608 C 510 534 503 463 491 395 C 478 327 461 262 439 200 C 417 138 392 81 364 27 C 335 -27 305 -76 273 -121 C 241 -165 209 -205 176 -240 C 143 -274 112 -303 82 -326 L 29 -326 Z" unicode=")" />
<glyph horiz-adv-x="815" d="M 170 1223 L 389 1124 L 397 1133 L 377 1368 L 377 1415 L 444 1415 L 444 1368 L 424 1133 L 430 1124 L 647 1221 L 692 1235 L 715 1167 L 670 1151 L 436 1100 L 434 1092 L 592 913 L 621 877 L 563 834 L 535 872 L 414 1077 L 403 1077 L 281 872 L 254 834 L 197 877 L 225 915 L 383 1094 L 381 1102 L 147 1153 L 104 1169 L 127 1237 L 170 1223 Z" unicode="*" />
<glyph horiz-adv-x="1167" d="M 618 1141 L 618 602 L 1153 602 L 1153 541 L 618 541 L 618 0 L 549 0 L 549 541 L 14 541 L 14 602 L 549 602 L 549 1141 L 618 1141 Z" unicode="+" />
<glyph horiz-adv-x="381" d="M 334 219 L 94 -274 L 35 -274 L 244 219 L 334 219 Z" unicode="," />
<glyph horiz-adv-x="629" d="M 535 606 L 535 541 L 94 541 L 94 606 L 535 606 Z" unicode="-" />
<glyph horiz-adv-x="313" d="M 201 219 L 201 0 L 113 0 L 113 219 L 201 219 Z" unicode="." />
<glyph horiz-adv-x="813" d="M 813 1446 L 63 -236 L 0 -236 L 745 1446 L 813 1446 Z" unicode="/" />
<glyph horiz-adv-x="1245" d="M 623 1468 C 686 1468 743 1458 793 1440 C 843 1422 886 1396 924 1364 C 962 1331 994 1292 1021 1247 C 1047 1201 1069 1152 1085 1098 C 1101 1044 1113 987 1121 927 C 1129 867 1133 805 1133 743 C 1133 611 1121 497 1098 401 C 1075 305 1042 227 999 165 C 955 103 902 58 839 28 C 775 -1 703 -16 623 -16 C 557 -16 499 -6 449 13 C 398 33 354 60 316 95 C 278 130 247 172 221 220 C 195 268 174 320 158 376 C 142 432 130 491 123 553 C 116 615 113 679 113 743 C 113 867 124 975 146 1067 C 168 1158 201 1233 245 1293 C 288 1352 341 1396 405 1425 C 468 1453 541 1468 623 1468 Z M 623 1409 C 546 1409 480 1393 425 1363 C 369 1333 324 1289 288 1232 C 252 1175 226 1105 209 1023 C 192 941 184 847 184 743 C 184 688 186 633 192 577 C 197 521 206 468 219 416 C 232 364 249 315 271 270 C 293 224 320 185 353 151 C 385 117 424 91 468 72 C 512 52 564 43 623 43 C 699 43 764 58 820 90 C 875 122 920 168 956 228 C 992 288 1018 361 1035 448 C 1052 534 1061 633 1061 743 C 1061 796 1058 850 1052 904 C 1046 958 1037 1009 1023 1059 C 1009 1108 992 1154 970 1197 C 948 1239 920 1276 888 1308 C 856 1339 818 1364 774 1382 C 730 1400 679 1409 623 1409 Z" unicode="0" />
<glyph horiz-adv-x="782" d="M 440 0 L 440 1333 L 446 1376 L 440 1376 L 66 1221 L 66 1288 L 465 1446 L 520 1446 L 512 1321 L 512 0 L 440 0 Z" unicode="1" />
<glyph horiz-adv-x="1200" d="M 1075 0 L 162 0 L 162 63 L 784 705 C 808 729 831 754 854 781 C 877 807 898 836 916 866 C 934 896 948 929 960 963 C 971 997 977 1034 977 1073 C 977 1117 969 1159 954 1199 C 938 1239 916 1275 886 1306 C 856 1337 819 1362 775 1381 C 731 1399 680 1409 623 1409 C 573 1409 527 1401 485 1387 C 443 1373 405 1353 371 1328 C 337 1303 308 1274 282 1240 C 256 1206 235 1171 217 1133 L 158 1155 C 174 1194 196 1232 224 1270 C 252 1308 285 1341 324 1371 C 363 1400 408 1423 458 1441 C 508 1459 565 1468 629 1468 C 697 1468 758 1457 811 1435 C 863 1413 907 1384 942 1348 C 977 1311 1004 1269 1022 1222 C 1040 1174 1049 1125 1049 1073 C 1049 1027 1042 985 1029 947 C 1016 909 999 873 979 839 C 958 805 935 774 910 746 C 885 717 860 690 836 666 L 242 61 L 1075 61 L 1075 0 Z" unicode="2" />
<glyph horiz-adv-x="1174" d="M 111 1239 C 137 1267 166 1294 198 1322 C 229 1350 263 1374 301 1396 C 338 1417 379 1434 424 1448 C 469 1461 519 1468 573 1468 C 630 1468 684 1460 734 1444 C 784 1428 827 1406 864 1377 C 901 1348 930 1313 951 1272 C 972 1231 983 1185 983 1135 C 983 1091 975 1051 959 1015 C 943 979 922 947 895 919 C 868 891 836 867 800 848 C 763 828 724 814 682 805 L 682 797 C 730 793 775 783 818 766 C 860 749 898 726 930 696 C 962 666 987 631 1006 589 C 1024 547 1034 499 1034 446 C 1034 385 1024 331 1004 283 C 984 235 956 192 920 156 C 884 119 842 87 794 61 C 745 35 692 13 634 -3 C 576 -19 515 -31 451 -39 C 387 -47 322 -51 256 -51 C 239 -51 225 -50 213 -50 C 201 -50 190 -49 181 -49 C 172 -48 164 -47 158 -46 C 151 -45 145 -44 139 -43 L 135 16 C 145 14 161 13 181 12 C 201 10 225 10 254 10 C 350 10 440 18 526 34 C 612 50 687 76 752 112 C 816 148 868 193 906 249 C 944 304 963 371 963 449 C 963 500 952 545 932 583 C 911 621 884 653 851 679 C 817 704 780 723 738 735 C 696 747 655 754 614 754 C 606 754 596 753 584 752 C 571 750 555 748 536 746 C 516 743 493 739 465 735 C 437 731 405 725 367 719 L 354 778 L 518 803 C 580 811 635 825 683 845 C 731 865 772 889 806 917 C 840 945 865 976 883 1012 C 900 1048 909 1086 909 1128 C 909 1169 900 1207 883 1242 C 866 1276 842 1306 812 1331 C 781 1355 745 1374 703 1388 C 661 1402 616 1409 567 1409 C 524 1409 485 1403 449 1393 C 413 1383 378 1369 346 1351 C 314 1333 283 1311 253 1287 C 223 1262 192 1235 162 1206 L 111 1239 L 111 1239 Z" unicode="3" />
<glyph horiz-adv-x="1237" d="M 848 1446 L 848 412 L 1182 412 L 1182 352 L 848 352 L 848 0 L 776 0 L 776 352 L 72 352 L 72 426 L 776 1446 L 848 1446 Z M 131 412 L 776 412 L 776 1266 L 782 1343 L 776 1346 L 131 412 Z" unicode="4" />
<glyph horiz-adv-x="1227" d="M 330 10 C 424 10 512 18 595 36 C 677 53 749 81 811 121 C 873 161 922 213 958 278 C 994 342 1012 422 1012 518 C 1012 568 1005 615 993 661 C 981 706 961 746 933 781 C 905 815 869 843 825 864 C 781 884 727 895 664 895 C 632 895 601 892 571 886 C 541 880 509 870 477 856 C 444 841 408 821 370 795 C 332 769 288 737 240 698 L 193 719 L 242 1446 L 1038 1446 L 1038 1384 L 305 1384 L 260 770 C 310 809 354 841 392 865 C 430 889 464 908 496 922 C 527 935 556 944 584 949 C 611 953 639 956 668 956 C 741 956 804 944 856 922 C 908 899 951 868 985 829 C 1019 790 1043 744 1059 692 C 1075 639 1083 582 1083 522 C 1083 448 1073 383 1054 326 C 1035 269 1009 219 975 177 C 941 134 901 98 855 69 C 808 40 757 17 701 -1 C 645 -19 586 -31 524 -39 C 461 -47 397 -51 332 -51 C 296 -51 266 -50 244 -49 C 222 -48 206 -46 197 -43 L 193 16 C 203 14 219 13 242 12 C 265 10 294 10 330 10 Z" unicode="5" />
<glyph horiz-adv-x="1237" d="M 850 1503 C 876 1503 898 1502 915 1500 C 932 1498 949 1496 967 1493 L 969 1434 C 951 1436 932 1437 912 1438 C 891 1439 870 1440 850 1440 C 761 1440 680 1426 608 1399 C 535 1371 472 1329 418 1272 C 359 1209 312 1129 278 1031 C 243 933 220 822 209 696 C 233 726 262 755 296 783 C 329 811 365 835 404 856 C 442 876 483 893 526 905 C 568 917 612 924 657 924 C 725 924 787 913 843 892 C 899 871 948 841 988 801 C 1028 761 1060 713 1082 657 C 1104 600 1116 536 1116 465 C 1116 386 1104 317 1080 257 C 1056 197 1022 146 980 106 C 937 66 886 35 828 15 C 769 -5 705 -16 637 -16 C 495 -16 380 24 293 104 C 267 128 244 154 224 184 C 204 213 188 246 175 284 C 161 322 151 364 145 411 C 138 458 135 511 135 569 C 135 645 139 719 148 791 C 157 863 171 931 190 995 C 209 1059 233 1118 263 1173 C 292 1227 327 1276 367 1319 C 426 1381 496 1428 577 1458 C 657 1488 748 1503 850 1503 Z M 213 631 C 209 615 207 600 207 584 C 207 568 207 552 207 535 C 207 451 217 378 237 315 C 257 251 290 198 338 154 C 374 118 417 91 468 72 C 519 52 577 43 641 43 C 700 43 754 52 804 70 C 853 88 895 114 931 150 C 966 185 993 229 1013 281 C 1032 333 1042 394 1042 463 C 1042 525 1032 580 1014 630 C 996 679 969 721 935 755 C 900 789 858 816 809 834 C 760 852 705 862 645 862 C 600 862 556 855 514 842 C 472 829 432 812 394 790 C 356 768 322 744 291 716 C 260 688 234 660 213 631 Z" unicode="6" />
<glyph horiz-adv-x="1057" d="M 1030 1446 L 1030 1389 C 1013 1370 987 1341 953 1302 C 918 1262 879 1213 836 1154 C 792 1095 747 1026 699 948 C 651 870 605 782 562 686 C 519 589 480 483 446 369 C 412 254 387 131 371 0 L 293 0 C 307 120 330 234 362 343 C 394 451 430 553 471 647 C 512 741 556 828 602 908 C 648 988 693 1059 737 1122 C 781 1184 821 1238 858 1282 C 895 1326 925 1360 948 1384 L 74 1384 L 74 1446 L 1030 1446 Z" unicode="7" />
<glyph horiz-adv-x="1284" d="M 485 766 C 455 771 423 781 388 796 C 353 811 320 832 290 858 C 259 884 233 917 213 957 C 192 997 182 1044 182 1100 C 182 1146 192 1192 213 1236 C 233 1280 263 1319 302 1353 C 341 1387 389 1415 446 1436 C 503 1457 568 1468 641 1468 C 713 1468 778 1457 835 1436 C 892 1415 940 1387 979 1353 C 1018 1319 1048 1280 1069 1236 C 1089 1192 1100 1146 1100 1100 C 1100 1044 1089 997 1069 957 C 1048 917 1022 884 992 858 C 961 832 928 811 893 796 C 857 781 825 771 797 766 L 797 758 C 837 752 878 740 920 723 C 961 706 998 683 1031 654 C 1064 624 1091 588 1112 546 C 1132 504 1143 455 1143 399 C 1143 326 1129 263 1102 211 C 1075 159 1039 116 993 82 C 947 48 893 24 833 8 C 772 -8 708 -16 641 -16 C 573 -16 508 -8 448 8 C 387 24 334 48 288 82 C 242 116 205 159 179 211 C 152 263 139 326 139 399 C 139 455 149 504 170 546 C 190 588 217 624 250 654 C 283 683 320 706 362 723 C 403 740 444 752 485 758 L 485 766 Z M 254 1096 C 254 1054 261 1015 277 979 C 293 942 316 910 348 882 C 380 854 420 831 469 815 C 517 799 575 791 641 791 C 707 791 764 799 813 815 C 861 831 902 854 934 882 C 966 910 990 942 1006 979 C 1022 1015 1030 1054 1030 1096 C 1030 1136 1021 1174 1004 1212 C 986 1249 961 1282 928 1312 C 895 1341 854 1364 806 1382 C 758 1400 703 1409 641 1409 C 579 1409 524 1400 476 1382 C 428 1364 387 1341 354 1312 C 321 1282 296 1249 279 1212 C 262 1174 254 1136 254 1096 Z M 641 43 C 703 43 761 50 814 65 C 866 80 911 102 949 132 C 987 162 1016 199 1037 243 C 1058 287 1069 339 1069 399 C 1069 443 1061 486 1045 526 C 1029 566 1004 602 970 632 C 936 662 891 686 837 704 C 783 722 717 731 641 731 C 564 731 498 722 444 704 C 390 686 345 662 311 632 C 277 602 252 566 236 526 C 220 486 213 443 213 399 C 213 339 223 287 244 243 C 265 199 294 162 332 132 C 370 102 415 80 467 65 C 519 50 577 43 641 43 Z" unicode="8" />
<glyph horiz-adv-x="1237" d="M 387 -51 C 355 -51 331 -50 314 -48 C 297 -46 282 -45 270 -43 L 268 16 C 285 14 304 13 326 12 C 347 10 367 10 387 10 C 475 10 556 23 630 50 C 703 77 767 120 821 178 C 879 240 926 320 961 418 C 995 516 1018 628 1028 754 C 1002 723 973 694 940 667 C 907 639 871 615 833 595 C 794 574 753 558 711 546 C 668 534 624 528 580 528 C 512 528 449 538 393 559 C 337 580 288 610 248 650 C 208 690 176 738 154 794 C 132 850 121 914 121 985 C 121 1063 133 1133 157 1193 C 181 1253 214 1304 257 1345 C 299 1385 350 1416 408 1437 C 466 1457 530 1468 600 1468 C 670 1468 734 1457 792 1437 C 850 1416 900 1386 944 1346 C 970 1322 992 1295 1012 1266 C 1032 1236 1048 1203 1062 1165 C 1075 1127 1085 1085 1092 1038 C 1098 991 1102 939 1102 881 C 1102 804 1097 730 1088 658 C 1078 586 1064 519 1045 455 C 1026 391 1002 331 973 277 C 944 222 910 173 870 131 C 810 68 740 22 660 -7 C 579 -36 488 -51 387 -51 Z M 1024 819 C 1027 834 1029 849 1029 865 C 1029 881 1030 897 1030 915 C 1030 998 1020 1071 1000 1135 C 980 1198 946 1252 899 1296 C 863 1331 819 1359 768 1379 C 717 1399 660 1409 596 1409 C 536 1409 482 1399 433 1381 C 383 1363 341 1336 306 1301 C 270 1265 243 1221 224 1169 C 204 1116 195 1055 195 987 C 195 925 204 870 222 821 C 240 772 267 730 302 696 C 336 662 378 635 427 617 C 475 599 530 590 592 590 C 636 590 680 596 723 609 C 765 622 805 639 843 661 C 880 682 914 706 945 734 C 976 761 1002 789 1024 819 Z" unicode="9" />
<glyph horiz-adv-x="436" d="M 262 219 L 262 0 L 174 0 L 174 219 L 262 219 Z M 262 1053 L 262 834 L 174 834 L 174 1053 L 262 1053 Z" unicode=":" />
<glyph horiz-adv-x="467" d="M 350 219 L 111 -274 L 51 -274 L 260 219 L 350 219 Z M 262 1053 L 262 834 L 174 834 L 174 1053 L 262 1053 Z" unicode=";" />
<glyph horiz-adv-x="1167" d="M 1110 1090 L 1110 1016 L 285 637 L 139 575 L 139 563 L 285 506 L 1110 129 L 1110 55 L 57 545 L 57 596 L 1110 1090 Z" unicode="&#x3C;" />
<glyph horiz-adv-x="1167" d="M 1110 829 L 1110 766 L 57 766 L 57 829 L 1110 829 Z M 1110 373 L 1110 311 L 57 311 L 57 373 L 1110 373 Z" unicode="=" />
<glyph horiz-adv-x="1167" d="M 1110 596 L 1110 545 L 57 55 L 57 129 L 883 506 L 1028 563 L 1028 575 L 883 637 L 57 1016 L 57 1090 L 1110 596 Z" unicode="&#x3E;" />
<glyph horiz-adv-x="897" d="M 104 1284 C 122 1308 144 1331 171 1353 C 197 1375 227 1394 260 1410 C 292 1426 328 1438 366 1448 C 404 1457 443 1462 483 1462 C 529 1462 572 1455 614 1441 C 655 1427 691 1408 722 1382 C 753 1356 778 1323 796 1285 C 814 1247 823 1203 823 1153 C 823 1117 818 1084 809 1056 C 799 1027 785 999 767 971 C 749 943 725 915 697 887 C 669 859 636 827 598 793 C 578 775 558 756 538 738 C 518 719 499 698 482 674 C 465 650 451 622 440 590 C 429 558 424 519 424 475 L 360 475 C 360 517 363 554 371 585 C 379 616 390 645 406 671 C 421 697 440 721 464 745 C 487 769 515 795 547 825 C 579 855 609 883 635 908 C 661 933 683 958 701 983 C 719 1007 733 1033 743 1059 C 753 1085 758 1114 758 1147 C 758 1189 750 1227 734 1259 C 718 1291 698 1318 672 1339 C 646 1360 617 1376 583 1387 C 549 1397 515 1403 479 1403 C 446 1403 414 1399 382 1392 C 350 1384 320 1374 292 1360 C 264 1346 237 1330 212 1311 C 187 1292 165 1271 147 1249 L 104 1284 Z M 440 219 L 440 0 L 352 0 L 352 219 L 440 219 Z" unicode="?" />
<glyph horiz-adv-x="2091" d="M 1501 1010 L 1290 324 C 1286 314 1284 305 1283 297 C 1282 289 1282 280 1282 272 C 1282 226 1295 190 1323 164 C 1351 138 1389 125 1438 125 C 1470 125 1505 131 1541 144 C 1577 157 1613 176 1649 201 C 1684 226 1718 257 1750 293 C 1782 329 1810 369 1834 415 C 1858 461 1877 511 1891 565 C 1905 619 1913 678 1913 741 C 1913 836 1895 925 1859 1007 C 1823 1089 1772 1160 1706 1221 C 1640 1281 1560 1329 1468 1363 C 1375 1397 1272 1415 1159 1415 C 1075 1415 993 1405 914 1385 C 834 1365 759 1337 689 1300 C 618 1263 553 1218 494 1164 C 435 1110 384 1050 342 982 C 299 914 266 840 242 759 C 218 677 207 590 207 498 C 207 404 219 317 243 239 C 267 161 299 90 341 28 C 382 -33 430 -88 486 -134 C 541 -180 600 -219 663 -250 C 725 -280 790 -303 856 -319 C 922 -334 987 -342 1051 -342 C 1103 -342 1158 -337 1216 -329 C 1274 -320 1329 -309 1383 -296 C 1436 -282 1485 -267 1531 -250 C 1576 -233 1613 -217 1642 -201 L 1663 -244 C 1633 -261 1595 -279 1549 -297 C 1503 -315 1452 -331 1396 -345 C 1340 -359 1283 -371 1223 -381 C 1163 -390 1105 -395 1049 -395 C 981 -395 912 -386 841 -370 C 769 -354 700 -329 633 -296 C 566 -263 503 -222 443 -173 C 383 -123 331 -66 287 0 C 243 66 208 140 182 223 C 156 305 143 396 143 496 C 143 594 155 686 181 772 C 206 858 241 938 287 1010 C 333 1082 387 1146 451 1203 C 514 1259 583 1307 659 1347 C 734 1386 814 1416 899 1437 C 984 1457 1071 1468 1161 1468 C 1282 1468 1392 1449 1492 1412 C 1592 1375 1677 1324 1748 1259 C 1818 1194 1873 1117 1912 1029 C 1950 941 1970 845 1970 743 C 1970 675 1961 611 1945 551 C 1929 491 1907 437 1880 387 C 1852 337 1820 293 1784 255 C 1748 216 1709 183 1669 156 C 1628 129 1586 109 1544 95 C 1502 81 1461 74 1423 74 C 1395 74 1368 77 1344 85 C 1320 93 1299 105 1281 121 C 1263 137 1250 157 1241 182 C 1231 206 1227 236 1229 270 C 1177 203 1121 154 1063 123 C 1005 91 945 76 885 76 C 847 76 810 82 775 96 C 739 110 708 131 680 160 C 652 189 630 226 614 270 C 598 314 590 366 590 428 C 590 486 597 542 613 595 C 629 648 650 697 676 743 C 702 788 733 829 768 866 C 803 902 840 933 879 959 C 917 985 957 1005 997 1019 C 1037 1033 1076 1040 1114 1040 C 1150 1040 1184 1033 1214 1021 C 1244 1009 1270 992 1292 971 C 1314 950 1333 926 1347 899 C 1361 872 1370 844 1376 815 L 1438 1010 L 1501 1010 Z M 897 133 C 953 133 1009 149 1065 181 C 1121 213 1176 264 1231 332 L 1354 739 C 1349 770 1340 800 1327 830 C 1314 859 1297 885 1277 908 C 1256 930 1232 948 1204 962 C 1176 976 1146 983 1112 983 C 1080 983 1047 976 1013 964 C 978 952 944 934 910 911 C 876 888 844 860 814 828 C 783 796 756 759 733 719 C 709 678 691 634 677 586 C 663 538 657 487 657 434 C 657 382 663 337 676 299 C 689 261 707 229 729 205 C 751 180 776 162 805 150 C 834 138 865 133 897 133 Z" unicode="@" />
<glyph horiz-adv-x="1237" d="M 954 381 L 274 381 L 143 0 L 74 0 L 575 1446 L 664 1446 L 1159 0 L 1083 0 L 954 381 Z M 639 1307 L 621 1372 L 612 1372 L 594 1307 L 295 440 L 936 440 L 639 1307 Z" unicode="A" />
<glyph horiz-adv-x="1337" d="M 686 1446 C 723 1446 760 1443 798 1438 C 836 1432 872 1424 907 1413 C 942 1401 975 1386 1005 1368 C 1035 1350 1062 1328 1084 1302 C 1106 1276 1124 1246 1137 1212 C 1150 1178 1157 1139 1157 1096 C 1157 1056 1151 1019 1139 984 C 1127 949 1109 918 1087 890 C 1065 862 1038 838 1006 819 C 974 799 939 786 901 778 L 901 770 C 941 764 981 753 1021 735 C 1060 717 1095 694 1126 664 C 1157 634 1182 599 1202 557 C 1221 515 1231 466 1231 412 C 1231 328 1217 260 1189 207 C 1161 154 1123 112 1075 81 C 1026 50 969 29 904 17 C 838 5 768 0 692 0 L 205 0 L 205 1446 L 686 1446 Z M 276 795 L 748 795 C 798 795 844 802 885 817 C 925 831 960 852 989 878 C 1017 904 1039 936 1055 972 C 1071 1008 1079 1047 1079 1090 C 1079 1138 1068 1181 1047 1218 C 1026 1255 997 1286 961 1311 C 925 1336 882 1355 834 1367 C 785 1379 733 1386 678 1386 L 276 1386 L 276 795 Z M 276 59 L 711 59 C 769 59 824 64 878 74 C 932 84 979 103 1020 129 C 1061 155 1094 192 1118 238 C 1142 284 1155 342 1155 414 C 1155 460 1145 502 1126 542 C 1107 581 1081 615 1047 643 C 1013 671 972 694 925 710 C 877 726 825 735 768 735 L 276 735 L 276 59 Z" unicode="B" />
<glyph horiz-adv-x="1343" d="M 1217 86 C 1168 55 1107 30 1033 10 C 959 -10 873 -20 774 -20 C 668 -20 574 -1 492 34 C 410 70 342 121 286 187 C 230 252 188 330 160 420 C 131 510 117 609 117 717 C 117 785 123 850 136 914 C 149 978 168 1037 194 1093 C 220 1149 251 1200 289 1246 C 327 1292 370 1331 420 1364 C 470 1397 525 1423 586 1441 C 647 1459 714 1468 786 1468 C 882 1468 965 1458 1037 1438 C 1108 1418 1168 1392 1217 1362 L 1200 1296 C 1176 1311 1149 1325 1120 1339 C 1091 1353 1059 1365 1025 1375 C 991 1385 953 1394 913 1400 C 873 1406 830 1409 784 1409 C 686 1409 600 1390 526 1354 C 452 1317 390 1267 340 1205 C 290 1142 253 1069 228 985 C 202 901 190 813 190 719 C 190 625 202 536 226 454 C 250 372 287 300 336 238 C 384 176 445 128 519 92 C 592 56 678 39 776 39 C 870 39 953 49 1023 70 C 1093 91 1152 118 1200 150 L 1217 86 Z" unicode="C" />
<glyph horiz-adv-x="1489" d="M 647 1446 C 747 1446 840 1432 927 1406 C 1013 1380 1089 1338 1153 1281 C 1217 1223 1268 1149 1305 1059 C 1341 969 1360 860 1360 733 C 1360 598 1341 484 1304 391 C 1267 298 1216 223 1152 165 C 1088 107 1012 65 926 39 C 839 13 746 0 647 0 L 205 0 L 205 1446 L 647 1446 Z M 276 1386 L 276 59 L 653 59 C 747 59 833 72 911 100 C 989 127 1055 168 1111 224 C 1167 280 1210 350 1240 435 C 1270 519 1286 619 1286 733 C 1286 839 1271 933 1241 1015 C 1211 1097 1168 1165 1113 1220 C 1057 1274 991 1316 913 1344 C 835 1372 749 1386 653 1386 L 276 1386 Z" unicode="D" />
<glyph horiz-adv-x="1307" d="M 1147 1446 L 1147 1386 L 276 1386 L 276 784 L 1055 784 L 1055 725 L 276 725 L 276 59 L 1167 59 L 1167 0 L 205 0 L 205 1446 L 1147 1446 Z" unicode="E" />
<glyph horiz-adv-x="1176" d="M 1098 1446 L 1098 1386 L 276 1386 L 276 784 L 1008 784 L 1008 725 L 276 725 L 276 0 L 205 0 L 205 1446 L 1098 1446 Z" unicode="F" />
<glyph horiz-adv-x="1448" d="M 1239 1317 C 1213 1331 1184 1343 1152 1355 C 1120 1366 1086 1376 1050 1384 C 1014 1392 976 1398 938 1402 C 900 1406 861 1409 823 1409 C 723 1409 633 1391 555 1356 C 476 1321 410 1273 356 1211 C 302 1149 260 1077 232 993 C 204 909 190 819 190 721 C 190 631 202 545 227 463 C 251 381 289 308 340 245 C 390 182 454 132 532 95 C 610 57 702 39 809 39 C 841 39 876 40 913 44 C 949 47 986 52 1023 59 C 1059 66 1094 75 1128 86 C 1162 97 1192 110 1219 125 L 1219 637 L 786 637 L 786 694 L 1284 694 L 1284 90 C 1258 73 1226 58 1188 44 C 1150 30 1109 19 1065 10 C 1021 0 977 -6 932 -12 C 887 -17 845 -20 807 -20 C 727 -20 655 -10 591 8 C 526 26 468 52 417 86 C 365 119 321 159 283 205 C 245 251 214 301 190 356 C 165 410 147 468 135 530 C 123 592 117 655 117 719 C 117 824 133 922 165 1014 C 197 1105 243 1184 304 1252 C 364 1319 438 1372 526 1410 C 614 1448 713 1468 825 1468 C 864 1468 904 1466 945 1462 C 985 1458 1024 1453 1062 1446 C 1100 1438 1135 1429 1168 1419 C 1201 1408 1230 1396 1255 1382 L 1239 1317 Z" unicode="G" />
<glyph horiz-adv-x="1446" d="M 276 1446 L 276 762 L 1169 762 L 1169 1446 L 1241 1446 L 1241 0 L 1169 0 L 1169 705 L 276 705 L 276 0 L 205 0 L 205 1446 L 276 1446 Z" unicode="H" />
<glyph horiz-adv-x="481" d="M 276 1446 L 276 0 L 205 0 L 205 1446 L 276 1446 Z" unicode="I" />
<glyph horiz-adv-x="973" d="M 92 152 C 111 136 133 121 158 107 C 182 93 208 81 235 71 C 262 61 290 53 318 47 C 346 41 373 39 401 39 C 456 39 504 47 544 64 C 584 80 616 103 642 133 C 668 163 687 198 699 238 C 711 278 717 321 717 367 L 717 1446 L 786 1446 L 786 356 C 786 302 778 252 762 206 C 746 160 723 120 691 86 C 659 52 620 26 572 8 C 524 -10 467 -20 403 -20 C 373 -20 342 -17 312 -12 C 282 -6 252 0 224 10 C 196 19 169 30 144 43 C 118 55 96 69 76 84 L 92 152 Z" unicode="J" />
<glyph horiz-adv-x="1331" d="M 276 1446 L 276 535 L 1159 1446 L 1249 1446 L 702 885 L 1329 0 L 1239 0 L 653 834 L 276 451 L 276 0 L 205 0 L 205 1446 L 276 1446 Z" unicode="K" />
<glyph horiz-adv-x="1061" d="M 276 1446 L 276 59 L 1044 59 L 1044 0 L 205 0 L 205 1446 L 276 1446 Z" unicode="L" />
<glyph horiz-adv-x="1741" d="M 328 1446 L 868 96 L 877 96 L 1415 1446 L 1534 1446 L 1534 0 L 1464 0 L 1464 1264 L 1466 1380 L 1460 1380 L 907 0 L 831 0 L 281 1380 L 272 1380 L 274 1264 L 274 0 L 205 0 L 205 1446 L 328 1446 Z" unicode="M" />
<glyph horiz-adv-x="1470" d="M 205 1446 L 307 1446 L 1137 184 L 1196 68 L 1204 68 L 1196 195 L 1196 1446 L 1266 1446 L 1266 0 L 1165 0 L 334 1262 L 274 1376 L 266 1376 L 274 1249 L 274 0 L 205 0 L 205 1446 Z" unicode="N" />
<glyph horiz-adv-x="1542" d="M 770 1468 C 862 1468 948 1452 1028 1422 C 1108 1391 1177 1345 1236 1283 C 1294 1221 1340 1144 1374 1051 C 1408 958 1425 849 1425 725 C 1425 601 1408 493 1374 400 C 1340 307 1294 229 1235 167 C 1176 105 1107 58 1027 27 C 947 -4 862 -20 770 -20 C 677 -20 591 -4 511 27 C 431 58 362 105 304 167 C 246 229 200 307 167 400 C 133 493 117 601 117 725 C 117 849 133 957 167 1050 C 201 1143 247 1220 306 1282 C 364 1344 433 1390 513 1421 C 592 1452 678 1468 770 1468 Z M 770 1409 C 684 1409 605 1393 534 1363 C 462 1333 401 1289 350 1231 C 299 1173 260 1101 232 1016 C 204 931 190 834 190 725 C 190 617 204 521 232 437 C 260 352 299 280 350 221 C 401 162 462 117 534 86 C 605 54 684 39 770 39 C 856 39 935 54 1007 84 C 1079 114 1140 158 1191 216 C 1242 274 1282 345 1310 431 C 1338 516 1352 614 1352 725 C 1352 833 1338 929 1310 1014 C 1282 1098 1242 1170 1191 1229 C 1140 1287 1079 1332 1007 1363 C 935 1393 856 1409 770 1409 Z" unicode="O" />
<glyph horiz-adv-x="1278" d="M 276 657 L 717 657 C 757 657 793 659 825 663 C 857 667 885 674 910 682 C 935 690 957 701 976 713 C 995 725 1012 738 1028 754 C 1061 786 1085 824 1101 870 C 1116 916 1124 968 1124 1026 C 1124 1076 1117 1122 1104 1165 C 1090 1208 1069 1246 1040 1278 C 1008 1312 966 1338 915 1357 C 864 1376 798 1386 717 1386 L 276 1386 L 276 657 Z M 711 1446 C 807 1446 885 1434 947 1412 C 1009 1390 1058 1359 1096 1319 C 1130 1281 1156 1238 1173 1188 C 1189 1138 1198 1084 1198 1026 C 1198 961 1188 902 1169 848 C 1149 794 1120 749 1081 711 C 1063 693 1042 677 1020 663 C 997 649 971 637 941 627 C 911 617 878 610 840 605 C 802 600 759 598 711 598 L 276 598 L 276 0 L 205 0 L 205 1446 L 711 1446 Z" unicode="P" />
<glyph horiz-adv-x="1542" d="M 1102 66 C 1054 36 1001 15 945 1 C 889 -13 830 -20 770 -20 C 674 -20 587 -4 507 27 C 427 58 358 105 300 167 C 242 229 197 307 165 400 C 133 493 117 601 117 725 C 117 849 133 957 167 1050 C 201 1143 247 1220 306 1282 C 364 1344 433 1390 513 1421 C 592 1452 678 1468 770 1468 C 862 1468 948 1452 1028 1422 C 1108 1391 1177 1345 1236 1283 C 1294 1221 1340 1144 1374 1051 C 1408 958 1425 849 1425 725 C 1425 651 1418 583 1406 520 C 1393 457 1375 400 1352 348 C 1328 296 1300 249 1267 207 C 1234 165 1197 130 1157 100 L 1333 -109 L 1264 -127 L 1102 66 Z M 770 1409 C 684 1409 605 1393 534 1363 C 462 1333 401 1289 350 1231 C 299 1173 260 1101 232 1016 C 204 931 190 834 190 725 C 190 617 204 521 232 437 C 260 352 299 280 350 221 C 401 162 462 117 534 86 C 605 54 684 39 770 39 C 882 39 981 63 1065 111 L 731 512 L 782 549 L 1118 147 C 1191 203 1248 279 1290 376 C 1331 472 1352 589 1352 725 C 1352 833 1338 929 1310 1014 C 1282 1098 1242 1170 1191 1229 C 1140 1287 1079 1332 1007 1363 C 935 1393 856 1409 770 1409 Z" unicode="Q" />
<glyph horiz-adv-x="1362" d="M 737 1446 C 784 1446 827 1443 865 1437 C 903 1431 938 1423 969 1413 C 1000 1402 1028 1389 1052 1373 C 1076 1357 1097 1340 1116 1321 C 1151 1283 1177 1240 1194 1192 C 1210 1143 1219 1090 1219 1032 C 1219 972 1211 919 1195 873 C 1179 826 1155 786 1125 752 C 1094 718 1057 690 1013 670 C 969 649 920 635 864 629 L 1278 0 L 1196 0 L 788 618 L 276 618 L 276 0 L 205 0 L 205 1446 L 737 1446 Z M 276 678 L 766 678 C 821 678 872 684 919 697 C 965 710 1005 731 1039 759 C 1073 787 1099 823 1118 868 C 1137 913 1147 968 1147 1032 C 1147 1148 1112 1236 1043 1296 C 973 1356 872 1386 739 1386 L 276 1386 L 276 678 Z" unicode="R" />
<glyph horiz-adv-x="1108" d="M 940 1339 C 890 1357 834 1374 774 1388 C 713 1402 648 1409 580 1409 C 522 1409 470 1403 422 1391 C 374 1379 332 1360 297 1336 C 262 1312 235 1281 215 1243 C 195 1205 186 1161 186 1110 C 186 1071 191 1037 202 1008 C 213 979 228 954 248 932 C 267 910 289 892 314 876 C 339 860 366 847 395 836 C 423 824 452 814 482 806 C 512 797 541 789 569 782 C 633 764 693 745 750 723 C 807 701 857 674 899 642 C 941 610 975 571 1000 526 C 1025 481 1038 427 1038 365 C 1038 305 1026 251 1003 203 C 979 154 945 112 901 78 C 857 43 802 16 738 -2 C 674 -21 600 -31 518 -31 C 483 -31 447 -29 410 -26 C 372 -23 335 -18 299 -12 C 262 -6 226 2 191 12 C 156 22 124 35 94 49 L 111 111 C 139 97 171 85 205 75 C 239 65 274 56 310 49 C 346 42 382 37 418 34 C 454 30 490 29 524 29 C 590 29 650 36 704 50 C 758 64 805 85 844 113 C 883 140 913 174 935 214 C 956 254 967 300 967 352 C 967 408 954 457 930 497 C 906 537 874 571 834 599 C 794 627 749 650 699 668 C 648 686 597 703 545 717 C 515 725 484 733 452 742 C 419 751 387 762 355 776 C 323 789 293 805 264 823 C 234 841 209 863 187 889 C 165 915 147 945 134 979 C 121 1013 115 1054 115 1100 C 115 1160 126 1214 149 1260 C 171 1306 203 1344 245 1375 C 286 1405 335 1428 393 1444 C 450 1460 514 1468 584 1468 C 658 1468 726 1461 787 1447 C 848 1433 904 1418 956 1401 L 940 1339 Z" unicode="S" />
<glyph horiz-adv-x="1141" d="M 1094 1446 L 1094 1386 L 608 1386 L 608 0 L 532 0 L 532 1386 L 47 1386 L 47 1446 L 1094 1446 Z" unicode="T" />
<glyph horiz-adv-x="1401" d="M 254 1446 L 254 483 C 254 447 255 411 259 375 C 262 339 269 304 280 271 C 290 238 306 207 326 179 C 346 151 372 126 406 106 C 439 85 480 69 528 57 C 576 45 634 39 702 39 C 769 39 827 45 875 57 C 923 69 963 85 996 106 C 1029 126 1056 151 1076 179 C 1096 207 1111 238 1121 271 C 1131 304 1138 339 1142 375 C 1145 411 1147 447 1147 483 L 1147 1446 L 1219 1446 L 1219 477 C 1219 437 1216 398 1212 358 C 1208 318 1199 279 1187 243 C 1174 206 1156 172 1133 140 C 1109 108 1078 80 1040 56 C 1002 32 955 14 900 0 C 844 -13 778 -20 702 -20 C 625 -20 559 -13 504 0 C 448 14 401 32 363 56 C 324 80 293 108 269 140 C 245 172 227 206 214 243 C 201 279 192 318 188 358 C 184 398 182 437 182 477 L 182 1446 L 254 1446 Z" unicode="U" />
<glyph horiz-adv-x="1184" d="M 131 1446 L 573 143 L 590 76 L 600 76 L 616 143 L 1059 1446 L 1137 1446 L 637 0 L 549 0 L 51 1446 L 131 1446 Z" unicode="V" />
<glyph horiz-adv-x="1872" d="M 166 1446 L 477 139 L 494 68 L 506 68 L 520 139 L 879 1446 L 981 1446 L 1339 139 L 1356 68 L 1368 68 L 1382 139 L 1708 1446 L 1784 1446 L 1413 0 L 1309 0 L 950 1305 L 934 1378 L 922 1378 L 907 1305 L 551 0 L 446 0 L 90 1446 L 166 1446 Z" unicode="W" />
<glyph horiz-adv-x="1165" d="M 582 803 L 1018 1446 L 1098 1446 L 625 756 L 1110 0 L 1018 0 L 580 707 L 137 0 L 55 0 L 539 756 L 66 1446 L 154 1446 L 582 803 Z" unicode="X" />
<glyph horiz-adv-x="1116" d="M 111 1446 L 561 604 L 1012 1446 L 1092 1446 L 594 537 L 594 0 L 522 0 L 522 537 L 25 1446 L 111 1446 Z" unicode="Y" />
<glyph horiz-adv-x="1260" d="M 1153 1446 L 1153 1393 L 186 59 L 1163 59 L 1163 0 L 96 0 L 96 53 L 1063 1386 L 170 1386 L 170 1446 L 1153 1446 Z" unicode="Z" />
<glyph horiz-adv-x="647" d="M 522 1536 L 522 1483 L 221 1483 L 221 -272 L 522 -272 L 522 -326 L 156 -326 L 156 1536 L 522 1536 Z" unicode="[" />
<glyph horiz-adv-x="813" d="M 68 1446 L 813 -236 L 750 -236 L 0 1446 L 68 1446 Z" unicode="\" />
<glyph horiz-adv-x="647" d="M 492 1536 L 492 -326 L 125 -326 L 125 -272 L 428 -272 L 428 1483 L 125 1483 L 125 1536 L 492 1536 Z" unicode="]" />
<glyph horiz-adv-x="1167" d="M 575 1446 L 1081 496 L 999 496 L 627 1223 L 557 1366 L 545 1366 L 473 1223 L 102 496 L 20 496 L 524 1446 L 575 1446 Z" unicode="^" />
<glyph horiz-adv-x="1167" d="M 1178 -360 L 1178 -414 L -10 -414 L -10 -360 L 1178 -360 Z" unicode="_" />
<glyph horiz-adv-x="840" d="M 252 1530 L 498 1255 L 498 1231 L 465 1231 L 182 1499 L 182 1530 L 252 1530 Z" unicode="`" />
<glyph horiz-adv-x="1065" d="M 852 0 L 852 211 C 824 169 794 134 761 105 C 727 76 692 53 656 35 C 620 17 582 4 544 -4 C 506 -12 468 -16 432 -16 C 380 -16 333 -9 291 4 C 249 18 214 37 185 63 C 156 88 134 119 119 155 C 103 191 96 233 96 279 C 96 313 100 345 110 375 C 120 405 136 432 158 458 C 180 483 210 506 248 526 C 286 546 332 563 388 577 C 444 591 509 602 585 610 C 661 618 748 622 848 623 L 848 700 C 848 756 841 804 829 844 C 817 883 798 915 773 940 C 748 964 717 982 680 993 C 642 1004 599 1010 549 1010 C 511 1010 475 1007 440 1002 C 405 996 372 989 342 981 C 312 973 284 963 259 953 C 234 942 213 932 195 922 L 168 975 C 183 985 203 995 229 1007 C 254 1018 283 1028 317 1037 C 350 1046 386 1054 426 1060 C 466 1066 507 1069 551 1069 C 609 1069 661 1062 707 1049 C 752 1036 790 1015 821 985 C 851 955 875 917 891 869 C 907 821 915 763 915 694 L 915 0 L 852 0 Z M 440 39 C 483 39 523 44 561 54 C 598 64 632 78 662 95 C 692 111 719 130 742 150 C 765 170 784 191 800 212 C 816 232 828 252 836 270 C 844 288 848 303 848 315 L 848 578 C 756 575 675 570 605 562 C 535 554 475 544 425 532 C 375 519 333 504 300 487 C 266 470 240 451 220 430 C 200 409 186 386 178 362 C 170 337 166 311 166 283 C 166 206 189 146 237 103 C 285 60 352 39 440 39 Z" unicode="a" />
<glyph horiz-adv-x="1151" d="M 184 0 L 184 1507 L 252 1507 L 252 870 C 292 932 342 980 402 1016 C 462 1051 532 1069 612 1069 C 688 1069 754 1054 809 1026 C 863 998 908 959 942 911 C 976 863 1002 806 1018 742 C 1034 678 1042 609 1042 537 C 1042 496 1039 454 1034 411 C 1028 368 1019 326 1007 285 C 994 244 977 205 955 169 C 933 132 907 100 875 73 C 843 45 805 24 761 8 C 717 -8 666 -16 608 -16 C 574 -16 539 -12 505 -6 C 471 0 438 10 407 25 C 376 40 347 60 320 84 C 293 108 270 138 250 174 L 250 0 L 184 0 Z M 604 1010 C 564 1010 528 1005 496 996 C 463 986 434 974 408 959 C 382 944 359 927 340 909 C 320 891 304 873 291 856 C 278 838 268 822 262 808 C 255 793 252 782 252 774 L 252 276 C 252 268 254 256 260 242 C 265 228 273 212 285 195 C 296 177 311 160 329 142 C 347 124 368 107 394 93 C 419 78 448 66 481 57 C 514 47 552 43 594 43 C 645 43 690 50 728 64 C 766 78 800 97 828 121 C 856 145 879 173 897 205 C 915 237 930 272 941 308 C 952 344 960 382 964 421 C 968 460 971 499 971 537 C 971 599 965 658 953 715 C 941 772 920 822 892 866 C 864 910 826 945 779 971 C 732 997 674 1010 604 1010 Z" unicode="b" />
<glyph horiz-adv-x="983" d="M 889 66 C 849 40 804 19 755 5 C 705 -8 648 -16 582 -16 C 500 -16 430 -2 371 24 C 311 50 262 87 224 135 C 185 182 156 238 137 303 C 118 368 109 439 109 516 C 109 596 119 671 139 739 C 159 807 190 865 230 914 C 270 962 319 1000 379 1028 C 438 1055 507 1069 586 1069 C 648 1069 704 1061 754 1047 C 804 1032 849 1012 889 987 L 870 928 C 832 953 789 973 742 988 C 695 1002 643 1010 586 1010 C 518 1010 458 997 407 973 C 356 949 314 915 280 871 C 246 827 220 776 203 716 C 186 656 178 590 178 518 C 178 452 185 391 200 333 C 215 275 239 225 272 182 C 304 139 346 105 398 80 C 450 55 512 43 586 43 C 644 43 697 50 743 64 C 789 78 831 98 870 125 L 889 66 Z" unicode="c" />
<glyph horiz-adv-x="1147" d="M 897 0 L 897 180 C 851 115 798 66 737 33 C 675 0 606 -16 530 -16 C 450 -16 384 -1 330 29 C 276 59 232 99 199 149 C 165 199 141 256 127 320 C 113 384 106 450 106 518 C 106 562 109 606 115 650 C 121 694 130 737 144 778 C 158 818 176 856 198 892 C 220 928 248 959 281 985 C 313 1011 351 1031 395 1046 C 438 1061 488 1069 545 1069 C 581 1069 616 1065 650 1058 C 684 1051 716 1040 746 1024 C 776 1008 803 988 829 964 C 854 940 876 911 895 877 L 895 1507 L 963 1507 L 963 0 L 897 0 Z M 545 43 C 603 43 654 53 698 73 C 742 93 778 116 807 143 C 836 169 858 196 873 222 C 887 248 895 267 895 279 L 895 774 C 895 782 892 793 887 808 C 881 822 873 838 862 856 C 850 873 836 891 818 909 C 800 927 778 944 753 959 C 727 974 698 986 665 996 C 631 1005 594 1010 553 1010 C 501 1010 456 1003 418 989 C 380 975 347 956 319 932 C 291 908 267 880 249 848 C 231 816 216 781 205 745 C 194 709 186 671 182 632 C 178 593 176 555 176 518 C 176 455 182 395 194 338 C 206 280 226 230 255 186 C 283 142 321 108 369 82 C 416 56 475 43 545 43 Z" unicode="d" />
<glyph horiz-adv-x="1114" d="M 178 530 L 178 514 C 178 448 186 387 202 330 C 218 273 243 223 278 181 C 313 138 358 104 413 80 C 467 55 534 43 612 43 C 681 43 743 53 798 74 C 852 95 904 124 954 162 L 981 106 C 931 66 876 35 817 15 C 757 -5 689 -16 612 -16 C 524 -16 449 -2 386 23 C 323 49 271 86 230 133 C 188 180 158 236 138 300 C 118 364 109 434 109 510 C 109 592 120 667 142 735 C 164 803 195 862 236 912 C 277 962 327 1000 387 1028 C 446 1055 513 1069 588 1069 C 656 1069 717 1057 770 1035 C 823 1013 867 981 903 941 C 939 901 966 853 984 797 C 1002 741 1012 680 1012 614 C 1012 602 1011 591 1011 580 C 1011 569 1009 552 1006 530 L 178 530 Z M 586 1012 C 528 1012 476 1001 429 981 C 381 961 340 932 306 895 C 271 858 243 813 222 761 C 201 709 188 650 182 586 L 942 586 C 945 646 940 702 926 754 C 912 806 890 851 860 889 C 830 927 792 957 746 979 C 700 1001 646 1012 586 1012 Z" unicode="e" />
<glyph horiz-adv-x="502" d="M 496 1462 C 490 1464 481 1465 469 1467 C 456 1469 445 1470 436 1470 C 406 1470 380 1464 358 1454 C 336 1443 317 1428 303 1408 C 289 1388 278 1365 271 1338 C 263 1310 260 1280 260 1247 L 260 1053 L 506 1053 L 506 999 L 260 999 L 260 0 L 193 0 L 193 999 L 18 999 L 18 1053 L 193 1053 L 193 1245 C 193 1285 198 1322 208 1356 C 218 1390 234 1420 254 1446 C 274 1472 298 1492 328 1506 C 357 1520 391 1528 430 1528 C 448 1528 465 1527 479 1525 C 493 1523 502 1520 508 1516 L 496 1462 Z" unicode="f" />
<glyph horiz-adv-x="1147" d="M 963 -25 C 963 -90 955 -150 939 -204 C 923 -258 899 -304 866 -343 C 833 -382 791 -412 740 -434 C 688 -456 627 -467 555 -467 C 489 -467 425 -460 365 -448 C 305 -436 249 -417 197 -393 L 215 -336 C 261 -358 312 -376 368 -389 C 424 -401 487 -408 555 -408 C 669 -408 754 -375 810 -309 C 866 -243 895 -146 895 -18 L 895 178 C 853 115 801 67 739 34 C 677 0 607 -16 530 -16 C 451 -16 385 -1 331 29 C 277 59 233 99 200 149 C 166 199 142 256 128 320 C 113 384 106 450 106 518 C 106 561 109 605 115 649 C 121 693 130 736 144 777 C 158 818 176 856 198 892 C 220 927 248 958 281 984 C 313 1010 351 1031 395 1046 C 439 1061 489 1069 547 1069 C 582 1069 616 1065 650 1058 C 684 1051 716 1040 746 1024 C 776 1008 803 988 829 964 C 855 939 877 909 897 874 L 897 1053 L 963 1053 L 963 -25 Z M 545 43 C 603 43 654 53 698 73 C 742 93 778 116 807 143 C 836 169 858 196 873 222 C 887 248 895 267 895 279 L 895 774 C 895 782 892 793 887 808 C 881 823 873 839 862 857 C 850 874 836 892 818 910 C 800 928 778 945 753 960 C 727 974 698 986 665 996 C 631 1005 594 1010 553 1010 C 501 1010 456 1003 418 989 C 380 975 347 956 319 932 C 291 908 267 880 249 848 C 231 816 216 781 205 745 C 194 708 186 670 182 631 C 178 592 176 554 176 516 C 176 454 182 394 194 337 C 206 280 226 230 255 186 C 283 142 321 108 369 82 C 416 56 475 43 545 43 Z" unicode="g" />
<glyph horiz-adv-x="1133" d="M 915 0 L 915 684 C 915 738 908 785 896 824 C 884 863 864 896 838 924 C 810 950 777 971 739 987 C 700 1002 654 1010 602 1010 C 564 1010 528 1005 496 997 C 464 988 435 977 409 963 C 383 949 361 934 341 917 C 321 899 305 882 292 865 C 278 848 268 832 262 817 C 255 801 252 789 252 780 L 252 0 L 184 0 L 184 1507 L 252 1507 L 252 872 C 270 904 293 932 319 957 C 345 981 374 1002 406 1019 C 437 1035 470 1048 505 1056 C 540 1064 576 1069 612 1069 C 672 1069 726 1060 772 1042 C 818 1024 857 999 889 967 C 921 935 944 895 960 848 C 975 801 983 744 983 676 L 983 0 L 915 0 Z" unicode="h" />
<glyph horiz-adv-x="436" d="M 258 1507 L 258 1321 L 178 1321 L 178 1507 L 258 1507 Z M 252 1053 L 252 0 L 184 0 L 184 1053 L 252 1053 Z" unicode="i" />
<glyph horiz-adv-x="436" d="M 258 1507 L 258 1321 L 178 1321 L 178 1507 L 258 1507 Z M -35 -393 C -31 -394 -24 -395 -15 -396 C -5 -396 2 -397 8 -397 C 38 -397 64 -391 86 -381 C 108 -370 126 -355 140 -335 C 154 -315 165 -292 173 -265 C 180 -237 184 -207 184 -174 L 184 1053 L 252 1053 L 252 -172 C 252 -212 246 -249 236 -283 C 226 -317 211 -347 191 -373 C 171 -399 146 -419 116 -433 C 86 -447 52 -455 14 -455 C 4 -455 -5 -454 -15 -453 C -25 -452 -33 -451 -39 -449 L -35 -393 Z" unicode="j" />
<glyph horiz-adv-x="1010" d="M 252 1507 L 252 442 L 881 1053 L 967 1053 L 539 643 L 991 0 L 905 0 C 875 44 842 92 806 143 C 770 193 734 245 698 297 C 661 349 625 400 589 451 C 553 502 519 550 489 596 L 252 371 L 252 0 L 184 0 L 184 1507 L 252 1507 Z" unicode="k" />
<glyph horiz-adv-x="436" d="M 252 1507 L 252 0 L 184 0 L 184 1507 L 252 1507 Z" unicode="l" />
<glyph horiz-adv-x="1743" d="M 846 0 L 846 731 C 846 772 840 810 830 844 C 819 878 802 908 780 932 C 758 956 729 975 694 989 C 659 1003 617 1010 569 1010 C 535 1010 503 1005 474 997 C 445 988 419 977 396 963 C 372 949 352 934 334 917 C 316 899 301 882 289 865 C 277 848 267 832 261 817 C 255 801 252 789 252 780 L 252 0 L 184 0 L 184 1053 L 250 1053 L 250 870 C 268 903 289 932 314 957 C 338 982 365 1003 394 1019 C 422 1035 453 1048 485 1056 C 517 1064 549 1069 582 1069 C 622 1069 659 1064 694 1056 C 728 1048 759 1034 787 1016 C 815 998 839 974 859 945 C 879 916 894 881 905 840 C 920 878 940 912 964 941 C 988 969 1014 993 1044 1012 C 1073 1031 1104 1045 1138 1055 C 1172 1064 1206 1069 1241 1069 C 1297 1069 1346 1061 1388 1045 C 1430 1029 1465 1005 1493 975 C 1521 946 1542 910 1556 868 C 1570 826 1577 775 1577 717 L 1577 0 L 1507 0 L 1507 727 C 1507 769 1501 808 1491 843 C 1480 877 1463 907 1441 932 C 1419 956 1390 975 1355 989 C 1319 1003 1277 1010 1229 1010 C 1189 1010 1150 1002 1112 987 C 1074 972 1041 951 1012 925 C 982 898 959 867 941 831 C 923 795 915 757 915 717 L 915 0 L 846 0 Z" unicode="m" />
<glyph horiz-adv-x="1133" d="M 915 0 L 915 684 C 915 738 908 785 896 824 C 884 863 864 896 838 924 C 810 950 777 971 739 987 C 700 1002 654 1010 602 1010 C 564 1010 528 1005 496 997 C 464 988 435 977 409 963 C 383 949 361 934 341 917 C 321 899 305 882 292 865 C 278 848 268 832 262 817 C 255 801 252 789 252 780 L 252 0 L 184 0 L 184 1053 L 250 1053 L 250 868 C 268 900 290 929 317 954 C 343 979 372 1000 404 1017 C 436 1034 469 1047 505 1056 C 540 1064 576 1069 612 1069 C 672 1069 726 1060 772 1042 C 818 1024 857 999 889 967 C 921 935 944 895 960 848 C 975 801 983 744 983 676 L 983 0 L 915 0 Z" unicode="n" />
<glyph horiz-adv-x="1143" d="M 573 1069 C 645 1069 709 1055 766 1029 C 823 1002 871 965 911 917 C 951 869 981 812 1002 746 C 1023 680 1034 607 1034 528 C 1034 454 1023 384 1003 318 C 983 252 953 195 914 145 C 875 95 827 56 770 27 C 712 -1 647 -16 573 -16 C 501 -16 436 -2 379 23 C 321 49 273 86 233 134 C 193 182 162 239 141 306 C 119 372 109 446 109 528 C 109 603 119 673 139 739 C 159 805 189 862 229 911 C 269 960 317 999 375 1027 C 433 1055 499 1069 573 1069 Z M 573 1010 C 507 1010 450 997 401 972 C 352 947 311 913 278 870 C 244 826 219 775 203 717 C 186 658 178 595 178 528 C 178 458 186 394 203 335 C 220 275 245 224 279 181 C 312 137 353 103 402 79 C 451 55 508 43 573 43 C 638 43 695 55 744 81 C 793 107 834 142 867 186 C 899 230 924 282 940 341 C 956 399 965 462 965 528 C 965 596 956 659 939 718 C 922 777 897 828 864 871 C 831 914 790 948 742 973 C 693 997 637 1010 573 1010 Z" unicode="o" />
<glyph horiz-adv-x="1151" d="M 250 1053 L 250 868 C 294 934 345 984 404 1018 C 462 1052 532 1069 612 1069 C 688 1069 754 1054 809 1026 C 863 998 908 960 942 912 C 976 864 1002 807 1018 743 C 1034 679 1042 611 1042 539 C 1042 498 1039 456 1034 412 C 1028 368 1019 326 1006 285 C 993 244 976 205 955 169 C 933 132 906 100 874 73 C 842 45 804 24 760 8 C 716 -8 665 -16 608 -16 C 573 -16 538 -12 504 -6 C 470 0 437 10 406 25 C 375 39 346 59 320 83 C 293 107 270 136 252 172 L 252 -451 L 184 -451 L 184 1053 L 250 1053 Z M 604 1010 C 564 1010 528 1005 496 996 C 463 986 434 974 408 959 C 382 944 359 927 340 909 C 320 891 304 873 291 856 C 278 838 268 822 262 808 C 255 793 252 782 252 774 L 252 276 C 252 268 254 256 260 242 C 265 227 273 211 285 194 C 297 176 312 159 330 141 C 348 123 369 106 394 92 C 419 78 448 66 480 57 C 512 47 549 43 590 43 C 642 43 687 49 726 63 C 765 77 799 95 827 119 C 855 143 878 171 897 203 C 915 235 930 269 941 305 C 952 341 960 379 964 418 C 968 457 971 496 971 535 C 971 597 965 656 953 714 C 941 771 920 822 892 866 C 864 910 826 945 779 971 C 732 997 674 1010 604 1010 Z" unicode="p" />
<glyph horiz-adv-x="1147" d="M 963 1053 L 963 -451 L 895 -451 L 895 178 C 853 115 801 67 739 34 C 677 0 607 -16 530 -16 C 451 -16 385 -1 331 29 C 277 59 233 99 200 149 C 166 199 142 256 128 320 C 113 384 106 450 106 518 C 106 561 109 605 115 649 C 121 693 130 736 144 777 C 158 818 176 856 198 892 C 220 927 248 958 281 984 C 313 1010 351 1031 395 1046 C 438 1061 488 1069 545 1069 C 581 1069 615 1065 649 1058 C 683 1051 715 1040 745 1024 C 775 1008 803 988 829 964 C 855 939 877 909 897 874 L 897 1053 L 963 1053 Z M 549 43 C 586 43 620 47 652 57 C 684 66 712 78 738 93 C 764 107 786 124 806 142 C 826 160 842 177 855 195 C 868 213 878 229 885 244 C 891 258 895 270 895 279 L 895 774 C 895 782 892 793 887 808 C 881 823 873 839 862 857 C 850 874 836 892 818 910 C 800 928 778 945 753 960 C 727 974 698 986 665 996 C 631 1005 594 1010 553 1010 C 501 1010 456 1003 418 989 C 380 975 347 956 319 932 C 291 908 267 880 249 848 C 231 816 216 781 205 745 C 194 708 186 670 182 631 C 178 592 176 554 176 516 C 176 452 182 392 194 335 C 206 278 226 228 255 185 C 284 141 322 107 370 81 C 418 55 477 43 549 43 Z" unicode="q" />
<glyph horiz-adv-x="627" d="M 606 983 C 590 988 577 991 566 993 C 554 994 541 995 526 995 C 481 995 442 986 408 969 C 374 951 345 931 322 908 C 299 884 282 860 270 836 C 258 812 252 792 252 778 L 252 0 L 184 0 L 184 1053 L 250 1053 L 250 870 C 264 899 281 926 301 950 C 321 974 343 994 367 1011 C 391 1028 417 1041 445 1051 C 472 1060 500 1065 530 1065 C 545 1065 560 1064 574 1062 C 588 1060 602 1058 616 1055 L 606 983 Z" unicode="r" />
<glyph horiz-adv-x="889" d="M 115 90 C 126 83 142 76 164 68 C 185 60 209 53 237 47 C 264 41 293 35 325 31 C 356 27 387 25 418 25 C 460 25 501 29 539 38 C 577 47 610 61 639 81 C 667 100 690 124 707 154 C 724 183 733 218 733 260 C 733 299 725 332 709 359 C 693 385 670 408 642 428 C 613 447 579 464 539 478 C 499 492 454 507 406 522 C 372 532 339 544 305 559 C 271 573 241 592 214 614 C 187 636 165 663 148 695 C 131 727 123 765 123 809 C 123 851 131 889 147 921 C 163 953 186 981 216 1003 C 246 1025 282 1041 324 1052 C 366 1063 413 1069 465 1069 C 488 1069 512 1067 538 1065 C 564 1063 589 1059 614 1055 C 638 1050 662 1044 684 1037 C 706 1030 727 1022 745 1014 L 729 954 C 691 971 649 985 601 997 C 553 1008 506 1014 461 1014 C 421 1014 384 1009 351 1001 C 317 993 288 980 264 964 C 240 948 221 927 208 902 C 194 877 188 848 188 815 C 188 781 194 751 207 726 C 220 701 238 679 262 661 C 286 643 314 627 348 613 C 381 599 418 585 459 573 C 499 561 539 548 579 534 C 619 520 656 502 689 480 C 722 458 749 430 770 396 C 790 362 801 320 801 268 C 801 216 790 171 770 134 C 749 96 721 65 686 41 C 651 16 611 -1 565 -13 C 519 -25 470 -31 420 -31 C 386 -31 352 -28 318 -24 C 284 -19 252 -13 223 -7 C 193 -1 168 5 146 13 C 124 20 109 27 100 33 L 115 90 Z" unicode="s" />
<glyph horiz-adv-x="571" d="M 272 1333 L 272 1053 L 510 1053 L 510 999 L 272 999 L 272 244 C 272 214 273 186 276 162 C 279 138 286 117 297 100 C 308 82 324 69 346 59 C 367 49 396 45 432 45 L 514 45 L 510 -6 C 502 -10 492 -12 480 -14 C 468 -15 449 -16 424 -16 C 376 -16 338 -9 310 3 C 281 16 259 34 244 57 C 228 79 218 106 213 137 C 207 167 205 200 205 236 L 205 999 L 33 999 L 33 1053 L 205 1053 L 205 1333 L 272 1333 Z" unicode="t" />
<glyph horiz-adv-x="1133" d="M 231 1053 L 231 369 C 231 261 257 181 309 129 C 335 102 368 81 408 66 C 447 50 493 43 545 43 C 583 43 618 47 650 56 C 682 64 711 75 737 89 C 763 103 785 118 805 136 C 825 153 841 170 855 187 C 868 204 878 220 885 235 C 891 250 895 262 895 272 L 895 1053 L 963 1053 L 963 0 L 897 0 L 897 184 C 879 151 856 122 830 97 C 804 72 775 51 743 35 C 711 18 678 5 642 -3 C 606 -11 571 -16 535 -16 C 475 -16 421 -7 375 11 C 329 29 290 54 258 86 C 226 118 202 157 187 204 C 171 251 164 309 164 377 L 164 1053 L 231 1053 Z" unicode="u" />
<glyph horiz-adv-x="864" d="M 90 1053 L 420 131 L 434 76 L 440 76 L 457 131 L 780 1053 L 854 1053 L 477 0 L 395 0 L 14 1053 L 90 1053 Z" unicode="v" />
<glyph horiz-adv-x="1395" d="M 113 1053 L 362 152 L 375 90 L 383 90 L 399 152 L 651 1053 L 737 1053 L 991 152 L 1006 90 L 1014 90 L 1028 152 L 1290 1053 L 1364 1053 L 1053 0 L 971 0 L 713 913 L 698 973 L 690 973 L 676 913 L 418 0 L 336 0 L 39 1053 L 113 1053 Z" unicode="w" />
<glyph horiz-adv-x="866" d="M 432 592 L 737 1053 L 815 1053 L 473 549 L 827 0 L 741 0 L 430 500 L 115 0 L 35 0 L 391 545 L 49 1053 L 131 1053 L 432 592 Z" unicode="x" />
<glyph horiz-adv-x="879" d="M 82 1053 L 426 127 L 440 72 L 446 72 L 463 127 L 791 1053 L 866 1053 L 426 -152 C 412 -190 396 -228 380 -264 C 363 -300 344 -333 322 -361 C 300 -389 274 -412 246 -429 C 218 -446 185 -455 147 -455 C 127 -455 114 -452 106 -446 L 100 -397 C 139 -397 172 -391 200 -379 C 227 -367 250 -350 270 -328 C 289 -306 305 -281 319 -252 C 333 -222 346 -190 358 -156 L 410 -16 L 6 1053 L 82 1053 Z" unicode="y" />
<glyph horiz-adv-x="907" d="M 823 1053 L 823 1008 L 158 53 L 840 53 L 840 0 L 76 0 L 76 47 L 741 999 L 125 999 L 125 1053 L 823 1053 Z" unicode="z" />
<glyph horiz-adv-x="754" d="M 565 -326 C 548 -326 530 -324 511 -320 C 491 -316 472 -311 453 -304 C 434 -296 416 -287 398 -276 C 380 -265 364 -252 350 -238 C 325 -212 306 -182 294 -148 C 282 -114 276 -80 276 -45 C 276 -24 277 -7 280 5 C 282 17 285 29 287 41 L 344 342 C 348 362 350 378 350 391 C 350 415 347 439 339 463 C 331 486 320 507 306 526 C 292 544 275 559 255 571 C 235 582 214 588 190 588 L 78 588 L 78 649 L 190 649 C 212 649 233 654 253 664 C 273 674 290 688 305 706 C 319 724 331 744 339 767 C 347 790 352 814 352 840 C 352 847 351 854 350 862 C 349 869 347 879 344 893 L 287 1169 C 285 1177 282 1189 280 1204 C 277 1218 276 1235 276 1253 C 276 1291 283 1326 297 1359 C 311 1392 330 1420 354 1444 C 368 1458 385 1471 403 1483 C 421 1494 439 1504 457 1512 C 475 1520 494 1526 513 1530 C 531 1534 549 1536 565 1536 L 653 1536 L 653 1483 L 580 1483 C 548 1483 517 1476 486 1463 C 454 1450 427 1431 403 1407 C 383 1387 369 1364 359 1338 C 349 1312 344 1282 344 1249 C 344 1229 345 1212 347 1196 C 349 1180 352 1165 356 1153 L 410 903 C 411 893 412 882 414 870 C 415 857 416 846 416 836 C 416 817 412 797 404 775 C 396 753 386 732 372 712 C 358 692 340 673 320 657 C 300 641 277 629 252 623 L 252 616 C 278 606 302 593 323 576 C 343 559 360 541 374 521 C 388 501 398 480 405 459 C 412 438 416 419 416 401 C 416 391 415 381 414 369 C 412 357 411 347 410 340 L 356 59 C 352 39 349 23 347 9 C 345 -5 344 -21 344 -41 C 344 -71 348 -99 356 -127 C 364 -155 378 -179 397 -201 C 419 -225 447 -243 481 -255 C 515 -266 548 -272 580 -272 L 653 -272 L 653 -326 L 565 -326 Z" unicode="{" />
<glyph horiz-adv-x="791" d="M 434 1720 L 434 -348 L 356 -348 L 356 1720 L 434 1720 Z" unicode="|" />
<glyph horiz-adv-x="754" d="M 100 -272 L 174 -272 C 206 -272 238 -266 272 -255 C 305 -243 333 -225 356 -201 C 374 -179 388 -155 397 -127 C 405 -99 410 -71 410 -41 C 410 -21 409 -5 407 9 C 405 23 401 39 397 59 L 342 340 C 340 347 339 357 339 369 C 338 381 338 391 338 401 C 338 419 341 438 348 459 C 355 480 365 501 379 521 C 393 541 410 559 430 576 C 450 593 474 606 502 616 L 502 623 C 476 629 452 641 432 657 C 412 673 395 692 381 712 C 367 732 356 753 349 775 C 341 797 338 817 338 836 C 338 846 338 857 339 870 C 340 882 342 893 344 903 L 397 1153 C 400 1165 403 1180 406 1196 C 408 1212 410 1229 410 1249 C 410 1314 390 1367 350 1407 C 326 1431 299 1450 268 1463 C 236 1476 205 1483 174 1483 L 100 1483 L 100 1536 L 188 1536 C 221 1536 257 1528 296 1512 C 334 1496 369 1474 399 1444 C 422 1420 441 1392 455 1359 C 469 1326 477 1291 477 1253 C 477 1235 475 1218 473 1204 C 470 1189 468 1177 467 1169 L 410 893 C 406 879 404 869 403 862 C 401 854 401 847 401 840 C 401 814 405 790 413 767 C 421 744 433 724 448 706 C 462 688 479 674 499 664 C 519 654 540 649 563 649 L 676 649 L 676 588 L 563 588 C 539 588 518 582 498 571 C 478 559 461 544 447 526 C 433 507 422 486 414 463 C 406 439 402 415 403 391 C 403 385 403 377 405 369 C 406 361 408 352 410 342 L 467 41 C 469 29 471 17 473 5 C 475 -7 477 -24 477 -45 C 477 -80 471 -114 459 -148 C 447 -182 428 -212 403 -238 C 389 -252 373 -265 355 -276 C 337 -287 318 -296 299 -304 C 280 -311 261 -316 242 -320 C 222 -324 204 -326 188 -326 L 100 -326 L 100 -272 Z" unicode="}" />
<glyph horiz-adv-x="1167" d="M 88 530 C 110 558 134 583 160 605 C 186 627 212 645 239 661 C 265 676 292 688 319 696 C 345 704 371 709 397 709 C 426 709 452 703 474 693 C 496 683 517 670 536 655 C 554 639 572 622 589 604 C 606 586 624 569 642 554 C 660 538 680 525 702 515 C 724 505 749 500 778 500 C 819 500 860 512 900 538 C 940 564 978 599 1016 643 L 1065 606 C 1019 552 971 511 921 481 C 870 451 820 436 770 436 C 738 436 710 441 686 451 C 662 461 641 474 622 490 C 603 505 585 521 569 539 C 552 557 535 573 518 589 C 500 604 481 617 461 627 C 440 637 416 643 389 643 C 369 643 349 639 327 633 C 305 626 284 616 262 604 C 240 591 218 575 197 557 C 175 539 155 518 137 496 L 88 530 Z" unicode="~" />
<glyph horiz-adv-x="469" d="" unicode="" />
<glyph horiz-adv-x="510" d="M 219 0 L 219 188 L 240 971 L 289 971 L 307 188 L 307 0 L 219 0 Z M 219 1227 L 219 1446 L 307 1446 L 307 1227 L 219 1227 Z" unicode="" />
<glyph horiz-adv-x="1167" d="M 643 -16 C 624 -16 606 -15 590 -13 C 574 -11 558 -10 543 -8 L 489 -332 L 430 -328 L 487 4 C 433 19 386 42 346 74 C 306 106 273 144 247 188 C 221 232 201 281 189 337 C 176 393 170 452 170 516 C 170 596 180 671 200 739 C 220 807 251 865 291 914 C 331 962 380 1000 440 1028 C 500 1055 569 1069 647 1069 L 664 1069 L 713 1366 L 772 1362 L 723 1065 C 768 1059 809 1050 846 1036 C 883 1022 918 1006 950 987 L 928 932 C 890 956 849 975 803 989 C 757 1003 705 1010 647 1010 C 579 1010 520 997 469 973 C 418 949 375 915 341 871 C 307 827 281 776 264 716 C 246 656 238 590 238 518 C 238 452 245 391 260 333 C 275 275 299 225 332 182 C 365 139 407 105 459 80 C 511 55 573 43 647 43 C 705 43 757 49 803 63 C 849 77 890 96 928 121 L 950 66 C 910 40 865 19 816 5 C 766 -8 709 -16 643 -16 Z" unicode="" />
<glyph horiz-adv-x="1237" d="M 874 717 L 463 717 C 475 691 486 666 498 640 C 510 614 520 588 529 562 C 538 535 545 508 551 480 C 556 452 559 423 559 393 C 559 313 540 241 504 178 C 554 138 610 107 673 84 C 735 60 806 49 885 49 C 933 49 978 57 1021 75 C 1064 93 1103 113 1137 137 L 1137 72 C 1125 61 1110 50 1092 40 C 1074 30 1053 21 1031 13 C 1009 5 985 -1 960 -6 C 934 -11 909 -14 883 -14 C 803 -14 730 -1 663 23 C 596 48 533 83 473 129 C 443 83 405 49 360 26 C 314 3 264 -8 209 -8 C 184 -8 162 -6 144 -4 C 126 -1 110 4 98 14 L 98 74 C 111 67 127 62 147 58 C 167 54 187 53 209 53 C 255 53 296 61 332 79 C 368 97 397 121 421 151 C 444 181 462 217 474 258 C 486 298 492 341 492 387 C 492 416 489 445 483 473 C 477 501 469 528 459 556 C 449 583 437 610 425 637 C 412 663 399 690 385 717 L 98 717 L 98 772 L 356 772 C 344 796 332 821 321 847 C 309 873 299 899 291 925 C 282 951 275 978 270 1006 C 264 1034 262 1062 262 1092 C 262 1146 271 1196 290 1242 C 309 1288 337 1327 375 1361 C 413 1395 459 1421 515 1440 C 571 1458 635 1468 709 1468 C 746 1468 783 1465 820 1459 C 857 1453 893 1446 927 1436 C 961 1426 992 1415 1021 1402 C 1049 1388 1074 1374 1096 1358 L 1069 1303 C 1045 1319 1019 1333 991 1347 C 962 1360 932 1371 901 1380 C 869 1389 837 1396 804 1401 C 770 1406 737 1409 705 1409 C 644 1409 591 1401 545 1385 C 499 1369 460 1348 429 1320 C 397 1292 374 1258 358 1220 C 342 1181 334 1138 334 1092 C 334 1063 336 1035 342 1008 C 348 980 355 953 365 927 C 374 900 385 874 397 848 C 409 822 421 797 434 772 L 874 772 L 874 717 Z" unicode="" />
<glyph horiz-adv-x="1167" d="M 272 182 C 228 222 197 273 177 335 C 157 396 147 473 147 565 L 147 766 C 147 803 148 840 152 877 C 156 914 163 950 173 984 C 183 1018 198 1049 216 1079 C 234 1108 257 1133 285 1155 L 104 1446 L 170 1446 L 332 1188 C 364 1207 402 1222 444 1233 C 486 1243 533 1249 584 1249 C 690 1249 776 1226 842 1182 L 1008 1446 L 1075 1446 L 889 1149 C 935 1105 969 1053 989 992 C 1009 931 1020 856 1020 766 L 1020 565 C 1020 475 1010 400 991 341 C 971 281 941 232 901 193 L 1083 -115 L 1014 -115 L 854 156 C 818 132 779 114 735 101 C 691 88 640 82 584 82 C 530 82 481 87 437 99 C 393 110 354 128 319 152 L 164 -115 L 96 -115 L 272 182 Z M 584 141 C 644 141 696 149 740 166 C 784 182 821 206 852 236 C 886 270 910 314 926 368 C 942 422 950 492 952 578 L 952 754 C 952 797 951 836 947 871 C 943 906 937 937 929 965 C 921 993 911 1017 899 1039 C 887 1060 872 1079 856 1096 C 825 1126 787 1150 743 1166 C 699 1182 646 1190 584 1190 C 463 1190 371 1158 309 1094 C 277 1062 254 1019 238 965 C 222 911 215 840 215 754 L 215 578 C 215 490 222 420 238 366 C 254 312 277 269 309 238 C 371 173 463 141 584 141 Z" unicode="" />
<glyph horiz-adv-x="1237" d="M 236 1446 L 627 633 L 1018 1446 L 1096 1446 L 836 926 L 1149 926 L 1149 872 L 809 872 L 668 590 L 1149 590 L 1149 535 L 659 535 L 659 0 L 588 0 L 588 535 L 86 535 L 86 590 L 573 590 L 434 872 L 86 872 L 86 926 L 408 926 L 152 1446 L 236 1446 Z" unicode="" />
<glyph horiz-adv-x="791" d="M 434 1567 L 434 840 L 356 840 L 356 1567 L 434 1567 Z M 434 530 L 434 -195 L 356 -195 L 356 530 L 434 530 Z" unicode="" />
<glyph horiz-adv-x="1372" d="M 354 -219 C 379 -228 406 -236 434 -244 C 462 -251 491 -257 521 -263 C 550 -268 579 -272 608 -275 C 636 -277 664 -279 690 -279 C 740 -279 784 -274 824 -264 C 864 -254 897 -239 924 -221 C 951 -202 972 -179 986 -153 C 1000 -127 1008 -98 1008 -66 C 1008 -27 1000 6 984 34 C 968 62 946 86 918 106 C 889 126 854 143 814 157 C 774 171 729 183 680 193 C 638 201 596 210 553 221 C 510 232 468 245 428 260 C 387 275 349 293 313 314 C 277 334 246 359 220 387 C 193 415 172 447 156 483 C 140 519 133 560 133 606 C 133 653 142 695 160 733 C 178 771 202 804 233 832 C 264 860 300 883 342 901 C 383 919 427 933 475 942 C 450 954 427 969 407 986 C 387 1002 369 1021 355 1042 C 340 1063 329 1086 321 1112 C 313 1138 309 1166 309 1198 C 309 1237 317 1273 334 1306 C 350 1339 375 1368 407 1392 C 439 1416 478 1434 525 1448 C 572 1461 626 1468 688 1468 C 714 1468 743 1466 774 1464 C 804 1461 835 1457 866 1452 C 897 1447 927 1441 957 1434 C 986 1426 1012 1418 1036 1409 L 1020 1352 C 995 1361 968 1369 940 1377 C 912 1384 883 1390 854 1395 C 824 1400 795 1404 766 1407 C 737 1409 710 1411 684 1411 C 634 1411 590 1406 552 1396 C 514 1386 481 1371 455 1353 C 429 1334 409 1312 395 1286 C 381 1260 375 1232 375 1200 C 375 1160 382 1127 398 1099 C 413 1071 435 1046 464 1026 C 492 1006 527 989 567 975 C 607 961 652 950 702 940 C 743 932 785 922 828 911 C 871 900 913 887 954 872 C 994 857 1032 839 1068 819 C 1104 798 1135 774 1162 746 C 1188 718 1209 686 1225 650 C 1241 614 1249 574 1249 528 C 1249 480 1240 438 1222 400 C 1204 362 1179 328 1148 300 C 1116 272 1080 248 1038 230 C 996 211 951 198 903 190 C 927 178 950 163 971 147 C 991 131 1009 112 1024 91 C 1039 70 1051 47 1060 21 C 1068 -4 1073 -32 1073 -63 C 1073 -102 1064 -138 1047 -172 C 1030 -205 1005 -234 972 -258 C 939 -282 899 -300 851 -314 C 803 -327 748 -334 686 -334 C 659 -334 630 -332 600 -330 C 570 -327 539 -323 508 -318 C 477 -313 447 -307 418 -300 C 388 -293 362 -285 338 -276 L 354 -219 Z M 569 905 C 520 902 473 894 429 880 C 385 866 346 847 312 823 C 278 798 251 768 231 732 C 211 696 201 654 201 608 C 201 549 215 500 244 460 C 273 420 312 387 360 361 C 408 334 463 312 525 294 C 587 276 652 260 719 246 L 803 227 C 852 229 899 236 945 250 C 991 264 1031 283 1066 308 C 1101 333 1129 364 1150 400 C 1171 436 1182 478 1182 526 C 1182 584 1167 633 1137 673 C 1107 712 1068 745 1019 772 C 970 799 914 821 851 839 C 787 856 722 872 655 887 L 569 905 Z" unicode="" />
<glyph horiz-adv-x="840" d="M 242 1446 L 242 1272 L 168 1272 L 168 1446 L 242 1446 Z M 672 1446 L 672 1272 L 598 1272 L 598 1446 L 672 1446 Z" unicode="" />
<glyph horiz-adv-x="1839" d="M 901 -143 C 824 -143 750 -133 679 -113 C 608 -93 542 -66 480 -30 C 418 5 362 48 311 98 C 260 148 216 204 180 265 C 144 326 116 392 96 463 C 76 533 66 607 66 684 C 66 760 76 833 96 903 C 116 973 144 1039 180 1100 C 216 1161 260 1217 311 1267 C 362 1317 418 1359 480 1395 C 542 1431 608 1458 679 1478 C 750 1497 824 1507 901 1507 C 977 1507 1051 1497 1123 1478 C 1194 1458 1261 1431 1323 1395 C 1385 1359 1442 1317 1494 1267 C 1545 1217 1589 1161 1626 1100 C 1662 1039 1691 973 1711 903 C 1731 833 1741 760 1741 684 C 1741 607 1731 533 1711 463 C 1691 392 1662 326 1626 265 C 1589 204 1545 148 1494 98 C 1442 48 1385 5 1323 -30 C 1261 -66 1194 -93 1123 -113 C 1051 -133 977 -143 901 -143 Z M 1192 1010 C 1152 1026 1111 1038 1068 1048 C 1025 1058 982 1063 938 1063 C 878 1063 825 1053 777 1034 C 729 1014 689 988 656 954 C 622 920 596 881 578 835 C 560 789 551 739 551 686 C 551 632 561 583 582 539 C 602 495 630 458 666 428 C 702 398 743 374 791 358 C 839 342 890 334 944 334 C 998 334 1045 338 1085 346 C 1124 354 1160 363 1194 375 L 1217 322 C 1183 308 1144 297 1102 289 C 1059 280 1006 276 944 276 C 880 276 821 285 765 304 C 709 323 661 350 619 386 C 577 422 543 465 519 515 C 495 565 483 622 483 686 C 483 747 493 804 515 857 C 536 910 566 956 606 995 C 645 1034 693 1065 749 1087 C 805 1109 868 1120 938 1120 C 986 1120 1034 1114 1082 1104 C 1130 1094 1174 1080 1214 1063 L 1192 1010 Z M 901 -90 C 972 -90 1041 -80 1107 -62 C 1173 -44 1234 -18 1292 15 C 1350 49 1402 89 1450 136 C 1498 183 1538 235 1572 293 C 1606 350 1632 412 1651 478 C 1669 544 1679 612 1679 684 C 1679 754 1669 823 1651 889 C 1632 955 1606 1016 1572 1073 C 1538 1130 1498 1182 1450 1229 C 1402 1276 1350 1316 1292 1350 C 1234 1384 1173 1410 1107 1428 C 1041 1446 972 1456 901 1456 C 830 1456 762 1446 696 1428 C 630 1410 569 1384 512 1350 C 454 1316 402 1276 355 1229 C 307 1182 267 1130 233 1073 C 199 1016 173 955 155 889 C 136 823 127 754 127 684 C 127 612 136 544 155 478 C 173 412 199 350 233 293 C 267 235 307 183 355 136 C 402 89 454 49 512 15 C 569 -18 630 -44 696 -62 C 762 -80 830 -90 901 -90 Z" unicode="" />
<glyph horiz-adv-x="844" d="M 340 633 C 258 633 195 653 150 694 C 104 735 82 791 82 862 C 82 900 90 936 108 968 C 125 1000 155 1027 199 1050 C 242 1073 300 1091 374 1104 C 448 1117 541 1124 655 1126 L 655 1188 C 655 1272 636 1331 599 1367 C 562 1403 506 1421 432 1421 C 402 1421 374 1418 347 1414 C 320 1410 295 1404 271 1397 C 247 1390 226 1382 206 1374 C 186 1366 170 1358 156 1350 L 131 1393 C 143 1401 159 1410 179 1420 C 199 1429 222 1438 248 1446 C 274 1454 302 1460 334 1465 C 365 1470 398 1473 434 1473 C 479 1473 519 1468 555 1458 C 590 1448 620 1431 644 1408 C 668 1385 687 1355 700 1319 C 712 1282 719 1237 719 1184 L 719 645 L 659 645 L 659 805 C 639 773 616 747 591 725 C 566 703 540 686 512 672 C 484 658 456 648 427 642 C 397 636 368 633 340 633 Z M 350 682 C 399 682 443 690 481 706 C 519 722 550 742 576 765 C 602 787 621 810 635 834 C 648 858 655 877 655 891 L 655 1087 C 554 1083 471 1076 405 1065 C 339 1053 286 1038 248 1019 C 209 1000 182 977 166 951 C 150 925 143 895 143 862 C 143 805 161 761 198 729 C 234 697 285 682 350 682 Z" unicode="" />
<glyph horiz-adv-x="1004" d="M 414 887 L 113 580 L 414 268 L 340 268 L 59 555 L 59 602 L 338 887 L 414 887 Z M 807 887 L 506 580 L 807 268 L 733 268 L 453 555 L 453 602 L 731 887 L 807 887 Z" unicode="" />
<glyph horiz-adv-x="1167" d="M 1067 877 L 1067 264 L 999 264 L 999 815 L 57 815 L 57 877 L 1067 877 Z" unicode="" />
<glyph horiz-adv-x="629" d="M 535 606 L 535 541 L 94 541 L 94 606 L 535 606 Z" unicode="" />
<glyph horiz-adv-x="1073" d="M 522 530 C 454 530 391 542 333 566 C 275 590 224 624 182 666 C 139 708 105 758 81 816 C 57 873 45 935 45 1001 C 45 1064 57 1124 81 1181 C 105 1237 139 1287 182 1329 C 224 1371 275 1405 333 1430 C 391 1455 454 1468 522 1468 C 590 1468 653 1455 712 1430 C 770 1405 821 1371 865 1329 C 909 1287 943 1237 968 1181 C 993 1124 1006 1064 1006 1001 C 1006 935 993 873 968 816 C 943 758 909 708 865 666 C 821 624 770 590 712 566 C 653 542 590 530 522 530 Z M 338 776 L 338 1249 L 592 1249 C 613 1249 633 1245 652 1239 C 671 1232 688 1223 702 1212 C 716 1200 727 1186 735 1170 C 743 1154 748 1136 748 1118 C 748 1085 737 1056 715 1032 C 693 1008 663 993 627 987 L 752 776 L 698 776 L 578 983 L 383 983 L 383 776 L 338 776 Z M 383 1210 L 383 1024 L 594 1024 C 628 1024 654 1033 673 1052 C 692 1070 702 1092 702 1118 C 702 1144 691 1166 670 1184 C 648 1201 622 1210 592 1210 L 383 1210 Z M 522 567 C 583 567 641 578 695 601 C 749 623 796 654 836 693 C 876 732 907 778 930 831 C 953 884 965 941 965 1001 C 965 1059 953 1115 930 1167 C 907 1219 876 1264 836 1304 C 796 1343 749 1374 695 1397 C 641 1420 583 1432 522 1432 C 460 1432 403 1420 350 1397 C 296 1374 250 1343 211 1304 C 172 1264 141 1219 119 1167 C 97 1115 86 1059 86 1001 C 86 941 97 884 119 831 C 141 778 172 732 211 693 C 250 654 296 623 350 601 C 403 578 460 567 522 567 Z" unicode="" />
<glyph horiz-adv-x="840" d="M 676 1343 L 676 1286 L 164 1286 L 164 1343 L 676 1343 Z" unicode="" />
<glyph horiz-adv-x="774" d="M 387 1473 C 441 1473 488 1464 526 1446 C 564 1428 594 1403 618 1373 C 642 1342 659 1306 670 1265 C 680 1224 686 1181 686 1135 C 686 1021 660 933 610 870 C 560 807 485 776 387 776 C 331 776 283 786 245 807 C 207 827 176 854 153 888 C 129 921 113 959 103 1002 C 93 1045 88 1089 88 1133 C 88 1245 113 1329 163 1387 C 213 1444 287 1473 387 1473 Z M 387 1421 C 345 1421 308 1414 278 1400 C 248 1386 223 1367 204 1342 C 184 1317 170 1287 161 1252 C 151 1216 147 1177 147 1133 C 147 1097 150 1062 158 1026 C 165 990 178 957 196 927 C 214 897 239 873 270 855 C 300 836 339 827 387 827 C 429 827 466 834 496 849 C 526 864 551 885 571 913 C 590 940 604 972 613 1010 C 622 1048 627 1089 627 1135 C 627 1171 623 1207 615 1241 C 607 1275 594 1306 576 1333 C 557 1359 532 1381 502 1397 C 471 1413 433 1421 387 1421 Z" unicode="" />
<glyph horiz-adv-x="1167" d="M 549 756 L 549 1180 L 618 1180 L 618 756 L 1110 756 L 1110 692 L 618 692 L 618 266 L 549 266 L 549 692 L 57 692 L 57 756 L 549 756 Z M 1110 61 L 1110 0 L 57 0 L 57 61 L 1110 61 Z" unicode="" />
<glyph horiz-adv-x="766" d="M 655 598 L 106 598 L 106 651 L 461 1008 C 475 1022 490 1038 504 1054 C 518 1070 531 1086 543 1104 C 555 1122 564 1140 571 1160 C 578 1180 582 1201 582 1223 C 582 1247 577 1270 569 1292 C 560 1314 547 1333 531 1350 C 514 1367 493 1381 468 1391 C 443 1401 415 1407 383 1407 C 355 1407 329 1403 306 1395 C 282 1387 261 1377 242 1363 C 223 1349 206 1332 192 1313 C 177 1294 164 1273 154 1251 L 104 1272 C 114 1294 127 1317 143 1339 C 159 1361 179 1381 203 1398 C 226 1415 253 1429 284 1440 C 314 1450 349 1456 389 1456 C 429 1456 465 1449 497 1437 C 528 1425 554 1408 576 1387 C 597 1366 613 1342 624 1314 C 635 1286 641 1256 641 1225 C 641 1199 637 1174 630 1152 C 622 1129 613 1108 601 1088 C 589 1068 576 1050 561 1033 C 545 1015 530 999 514 983 L 178 649 L 655 649 L 655 598 Z" unicode="" />
<glyph horiz-adv-x="745" d="M 90 1321 C 105 1338 122 1355 141 1372 C 159 1388 180 1403 203 1416 C 225 1429 250 1440 278 1448 C 305 1456 335 1460 369 1460 C 403 1460 434 1455 464 1446 C 494 1437 520 1424 542 1407 C 564 1390 581 1370 594 1346 C 607 1322 614 1294 614 1264 C 614 1238 609 1214 601 1193 C 592 1172 580 1154 565 1138 C 549 1122 531 1108 511 1098 C 491 1087 469 1079 446 1073 L 446 1069 C 472 1067 498 1061 522 1051 C 546 1041 568 1028 586 1011 C 604 994 619 973 630 949 C 641 925 647 897 647 866 C 647 814 634 769 608 732 C 582 694 546 664 502 641 C 458 617 406 600 347 589 C 288 578 226 573 160 573 C 137 573 121 574 113 578 L 109 629 C 115 627 122 627 132 627 C 141 627 150 627 160 627 C 221 627 278 631 330 640 C 382 649 428 663 466 683 C 504 703 533 728 555 758 C 577 788 588 825 588 868 C 588 896 582 920 570 941 C 558 962 543 979 525 993 C 507 1007 486 1017 463 1024 C 439 1030 416 1034 393 1034 C 385 1034 370 1032 349 1030 C 328 1027 294 1022 248 1014 L 238 1061 L 336 1075 C 404 1084 458 1105 497 1138 C 535 1170 555 1211 555 1260 C 555 1282 550 1303 541 1321 C 531 1339 518 1355 501 1369 C 484 1382 464 1392 441 1400 C 417 1407 392 1411 365 1411 C 317 1411 276 1400 240 1379 C 204 1358 169 1330 135 1296 L 90 1321 L 90 1321 Z" unicode="" />
<glyph horiz-adv-x="840" d="M 657 1530 L 657 1499 L 373 1231 L 340 1231 L 340 1255 L 586 1530 L 657 1530 Z" unicode="" />
<glyph horiz-adv-x="1196" d="M 918 184 C 900 151 877 122 851 97 C 825 72 796 51 764 35 C 732 18 698 5 662 -3 C 626 -11 591 -16 555 -16 C 523 -16 491 -12 460 -5 C 429 1 400 12 374 26 C 347 40 323 58 302 80 C 281 102 264 128 252 158 L 248 154 L 254 10 L 254 -451 L 184 -451 L 184 1053 L 252 1053 L 252 322 C 252 290 258 257 270 224 C 282 190 300 160 326 134 C 352 107 384 85 424 68 C 463 51 510 43 565 43 C 603 43 639 47 671 56 C 703 64 732 75 758 89 C 784 103 806 118 826 136 C 846 153 862 170 875 187 C 888 204 898 220 905 235 C 911 250 915 262 915 272 L 915 1053 L 983 1053 L 983 246 C 983 182 989 130 1002 90 C 1015 49 1028 19 1040 0 L 971 0 C 966 6 961 16 955 28 C 949 40 943 54 938 70 C 932 86 928 103 924 123 C 920 142 918 162 918 184 Z" unicode="" />
<glyph horiz-adv-x="1266" d="M 1057 1446 L 1057 -451 L 985 -451 L 985 1386 L 670 1386 L 670 -451 L 598 -451 L 598 629 L 514 629 C 484 629 458 630 435 634 C 412 638 391 643 372 650 C 353 657 336 666 320 677 C 304 687 288 699 274 713 C 235 749 203 796 177 854 C 151 912 138 978 137 1053 C 137 1117 147 1173 167 1222 C 187 1270 214 1312 246 1346 C 278 1378 316 1403 360 1420 C 404 1437 455 1446 514 1446 L 1057 1446 Z" unicode="" />
<glyph horiz-adv-x="371" d="M 236 702 L 236 440 L 135 440 L 135 702 L 236 702 Z" unicode="" />
<glyph horiz-adv-x="840" d="M 444 2 L 444 -57 C 444 -64 446 -71 450 -78 C 454 -84 459 -90 465 -94 L 530 -152 C 536 -158 544 -166 553 -175 C 561 -184 570 -194 578 -206 C 586 -218 592 -231 598 -246 C 603 -260 606 -276 606 -293 C 606 -316 601 -337 591 -357 C 581 -376 567 -393 549 -407 C 531 -421 508 -431 482 -439 C 456 -447 426 -451 393 -451 C 364 -451 335 -447 307 -440 C 279 -433 256 -422 238 -406 L 256 -358 C 270 -371 291 -381 318 -387 C 344 -393 370 -397 395 -397 C 439 -397 475 -387 503 -368 C 531 -349 545 -323 545 -291 C 545 -278 542 -266 538 -256 C 533 -245 527 -235 521 -226 C 514 -217 507 -209 499 -202 C 491 -194 483 -188 477 -182 L 416 -131 C 408 -125 402 -116 396 -106 C 390 -95 387 -85 387 -76 L 387 2 L 444 2 Z" unicode="" />
<glyph horiz-adv-x="477" d="M 242 1446 L 291 1446 L 285 1370 L 285 598 L 225 598 L 225 1364 L 229 1391 L 225 1391 L 70 1323 L 70 1378 L 242 1446 Z" unicode="" />
<glyph horiz-adv-x="899" d="M 453 1473 C 508 1473 558 1462 602 1442 C 646 1421 683 1392 714 1355 C 744 1318 768 1274 784 1223 C 800 1172 809 1116 809 1055 C 809 997 801 943 785 892 C 769 840 747 795 717 757 C 687 719 649 688 605 666 C 561 644 510 633 453 633 C 396 633 345 643 301 663 C 256 683 218 711 187 748 C 155 785 131 830 115 882 C 98 934 90 991 90 1055 C 90 1113 98 1167 114 1218 C 130 1269 153 1313 184 1351 C 215 1389 253 1418 298 1440 C 343 1462 395 1473 453 1473 Z M 451 1421 C 401 1421 358 1411 321 1392 C 284 1372 253 1346 229 1313 C 205 1279 186 1240 174 1196 C 162 1152 156 1105 156 1055 C 156 1002 162 953 174 908 C 186 862 205 823 230 790 C 254 757 285 731 322 712 C 359 693 402 684 451 684 C 499 684 542 693 579 713 C 616 733 647 760 671 794 C 695 828 714 867 726 912 C 738 957 745 1005 745 1055 C 745 1106 738 1154 726 1198 C 714 1242 695 1281 671 1314 C 646 1347 615 1373 579 1392 C 542 1411 499 1421 451 1421 Z" unicode="" />
<glyph horiz-adv-x="1004" d="M 666 887 L 944 602 L 944 555 L 664 268 L 590 268 L 891 580 L 590 887 L 666 887 Z M 272 887 L 551 602 L 551 555 L 270 268 L 197 268 L 498 580 L 197 887 L 272 887 Z" unicode="" />
<glyph horiz-adv-x="1448" d="M 242 1446 L 291 1446 L 285 1370 L 285 598 L 225 598 L 225 1364 L 229 1391 L 225 1391 L 70 1323 L 70 1378 L 242 1446 Z M 1044 1446 L 268 0 L 209 0 L 985 1446 L 1044 1446 Z M 1220 849 L 1220 253 L 1421 253 L 1421 206 L 1220 206 L 1220 1 L 1161 1 L 1161 206 L 751 206 L 751 263 L 1159 849 L 1220 849 Z M 798 253 L 1161 253 L 1161 718 L 1165 771 L 1161 773 L 798 253 Z" unicode="" />
<glyph horiz-adv-x="1540" d="M 242 1446 L 291 1446 L 285 1370 L 285 598 L 225 598 L 225 1364 L 229 1391 L 225 1391 L 70 1323 L 70 1378 L 242 1446 Z M 1044 1446 L 268 0 L 209 0 L 985 1446 L 1044 1446 Z M 1430 1 L 881 1 L 881 54 L 1236 411 C 1250 425 1265 441 1279 457 C 1293 473 1306 489 1318 507 C 1330 525 1339 543 1346 563 C 1353 583 1357 604 1357 626 C 1357 650 1352 673 1344 695 C 1335 717 1322 736 1306 753 C 1289 770 1268 784 1243 794 C 1218 804 1190 810 1158 810 C 1130 810 1104 806 1081 798 C 1057 790 1036 780 1017 766 C 998 752 981 735 967 716 C 952 697 939 676 929 654 L 879 675 C 889 697 902 720 918 742 C 934 764 954 784 978 801 C 1001 818 1028 832 1059 843 C 1089 853 1124 859 1164 859 C 1204 859 1240 852 1272 840 C 1303 828 1329 811 1351 790 C 1372 769 1388 745 1399 717 C 1410 689 1416 659 1416 628 C 1416 602 1412 577 1405 555 C 1397 532 1388 511 1376 491 C 1364 471 1351 453 1336 436 C 1320 418 1305 402 1289 386 L 953 52 L 1430 52 L 1430 1 Z" unicode="" />
<glyph horiz-adv-x="1716" d="M 90 1321 C 105 1338 122 1355 141 1372 C 159 1388 180 1403 203 1416 C 225 1429 250 1440 278 1448 C 305 1456 335 1460 369 1460 C 403 1460 434 1455 464 1446 C 494 1437 520 1424 542 1407 C 564 1390 581 1370 594 1346 C 607 1322 614 1294 614 1264 C 614 1238 609 1214 601 1193 C 592 1172 580 1154 565 1138 C 549 1122 531 1108 511 1098 C 491 1087 469 1079 446 1073 L 446 1069 C 472 1067 498 1061 522 1051 C 546 1041 568 1028 586 1011 C 604 994 619 973 630 949 C 641 925 647 897 647 866 C 647 814 634 769 608 732 C 582 694 546 664 502 641 C 458 617 406 600 347 589 C 288 578 226 573 160 573 C 137 573 121 574 113 578 L 109 629 C 115 627 122 627 132 627 C 141 627 150 627 160 627 C 221 627 278 631 330 640 C 382 649 428 663 466 683 C 504 703 533 728 555 758 C 577 788 588 825 588 868 C 588 896 582 920 570 941 C 558 962 543 979 525 993 C 507 1007 486 1017 463 1024 C 439 1030 416 1034 393 1034 C 385 1034 370 1032 349 1030 C 328 1027 294 1022 248 1014 L 238 1061 L 336 1075 C 404 1084 458 1105 497 1138 C 535 1170 555 1211 555 1260 C 555 1282 550 1303 541 1321 C 531 1339 518 1355 501 1369 C 484 1382 464 1392 441 1400 C 417 1407 392 1411 365 1411 C 317 1411 276 1400 240 1379 C 204 1358 169 1330 135 1296 L 90 1321 L 90 1321 Z M 1312 1446 L 536 0 L 477 0 L 1253 1446 L 1312 1446 Z M 1489 849 L 1489 253 L 1690 253 L 1690 206 L 1489 206 L 1489 1 L 1430 1 L 1430 206 L 1020 206 L 1020 263 L 1428 849 L 1489 849 Z M 1067 253 L 1430 253 L 1430 718 L 1434 771 L 1430 773 L 1067 253 Z" unicode="" />
<glyph horiz-adv-x="897" d="M 817 162 C 799 137 776 114 750 92 C 723 70 693 52 661 36 C 628 20 593 7 555 -2 C 517 -11 478 -16 438 -16 C 392 -16 348 -9 307 4 C 265 18 229 38 198 64 C 167 90 143 122 125 160 C 107 198 98 243 98 293 C 98 329 102 361 112 390 C 121 418 135 446 154 474 C 172 502 196 530 224 558 C 252 586 286 618 324 653 C 342 671 361 689 381 707 C 401 725 420 747 437 771 C 454 795 468 823 479 855 C 490 887 496 925 496 971 L 561 971 C 561 927 557 890 549 860 C 541 829 530 801 515 775 C 499 749 480 724 457 700 C 433 676 406 649 375 621 C 341 590 312 562 286 537 C 260 512 238 487 220 463 C 202 438 188 413 178 387 C 168 361 164 331 164 299 C 164 255 171 218 187 186 C 202 154 222 127 248 106 C 274 85 303 69 337 59 C 371 48 406 43 442 43 C 474 43 506 46 538 54 C 569 61 599 71 627 85 C 655 98 682 114 706 133 C 730 152 752 173 772 197 L 817 162 Z M 481 1227 L 481 1446 L 569 1446 L 569 1227 L 481 1227 Z" unicode="" />
<glyph horiz-adv-x="1237" d="M 954 381 L 274 381 L 143 0 L 74 0 L 575 1446 L 664 1446 L 1159 0 L 1083 0 L 954 381 Z M 639 1307 L 621 1372 L 612 1372 L 594 1307 L 295 440 L 936 440 L 639 1307 Z M 448 1903 L 694 1628 L 694 1604 L 661 1604 L 378 1872 L 378 1903 L 448 1903 Z" unicode="" />
<glyph horiz-adv-x="1237" d="M 954 381 L 274 381 L 143 0 L 74 0 L 575 1446 L 664 1446 L 1159 0 L 1083 0 L 954 381 Z M 639 1307 L 621 1372 L 612 1372 L 594 1307 L 295 440 L 936 440 L 639 1307 Z M 854 1903 L 854 1872 L 570 1604 L 537 1604 L 537 1628 L 783 1903 L 854 1903 Z" unicode="" />
<glyph horiz-adv-x="1237" d="M 954 381 L 274 381 L 143 0 L 74 0 L 575 1446 L 664 1446 L 1159 0 L 1083 0 L 954 381 Z M 639 1307 L 621 1372 L 612 1372 L 594 1307 L 295 440 L 936 440 L 639 1307 Z M 642 1903 L 874 1626 L 874 1604 L 835 1604 L 618 1846 L 612 1846 L 395 1604 L 358 1604 L 358 1626 L 585 1903 L 642 1903 Z" unicode="" />
<glyph horiz-adv-x="1237" d="M 954 381 L 274 381 L 143 0 L 74 0 L 575 1446 L 664 1446 L 1159 0 L 1083 0 L 954 381 Z M 639 1307 L 621 1372 L 612 1372 L 594 1307 L 295 440 L 936 440 L 639 1307 Z M 371 1743 C 397 1768 420 1785 439 1794 C 458 1802 477 1807 496 1807 C 517 1807 536 1802 553 1794 C 570 1786 589 1771 611 1751 L 680 1688 C 692 1677 704 1668 716 1662 C 727 1656 739 1653 752 1653 C 765 1653 779 1656 794 1664 C 808 1672 827 1687 850 1710 L 908 1766 L 949 1739 L 871 1661 C 845 1635 823 1618 803 1610 C 783 1602 764 1598 746 1598 C 725 1598 706 1602 689 1610 C 671 1618 652 1632 631 1653 L 564 1716 C 551 1726 538 1735 526 1741 C 514 1747 502 1751 490 1751 C 476 1751 462 1747 448 1739 C 433 1731 414 1716 392 1694 L 334 1639 L 293 1665 L 371 1743 Z" unicode="" />
<glyph horiz-adv-x="1237" d="M 954 381 L 274 381 L 143 0 L 74 0 L 575 1446 L 664 1446 L 1159 0 L 1083 0 L 954 381 Z M 639 1307 L 621 1372 L 612 1372 L 594 1307 L 295 440 L 936 440 L 639 1307 Z M 439 1819 L 439 1645 L 365 1645 L 365 1819 L 439 1819 Z M 869 1819 L 869 1645 L 795 1645 L 795 1819 L 869 1819 Z" unicode="" />
<glyph horiz-adv-x="1237" d="M 954 381 L 274 381 L 143 0 L 74 0 L 575 1446 L 664 1446 L 1159 0 L 1083 0 L 954 381 Z M 639 1307 L 621 1372 L 612 1372 L 594 1307 L 295 440 L 936 440 L 639 1307 Z M 402 1741 C 402 1769 407 1796 419 1821 C 430 1846 445 1868 465 1887 C 484 1906 507 1921 534 1932 C 560 1943 589 1949 619 1949 C 649 1949 677 1943 703 1932 C 729 1921 752 1906 772 1887 C 791 1868 806 1846 817 1821 C 828 1796 834 1769 834 1741 C 834 1712 828 1685 817 1660 C 806 1635 791 1613 772 1595 C 752 1577 729 1562 703 1552 C 677 1541 649 1536 619 1536 C 589 1536 560 1541 534 1552 C 507 1562 484 1577 465 1595 C 445 1613 430 1635 419 1660 C 407 1685 402 1712 402 1741 Z M 449 1741 C 449 1718 453 1697 462 1677 C 471 1657 483 1639 499 1625 C 514 1610 532 1598 553 1590 C 573 1581 595 1577 619 1577 C 642 1577 664 1581 685 1590 C 705 1598 723 1610 738 1625 C 753 1639 765 1657 774 1677 C 782 1697 787 1718 787 1741 C 787 1763 782 1785 774 1806 C 765 1826 753 1844 738 1859 C 723 1874 705 1886 685 1895 C 664 1904 642 1909 619 1909 C 595 1909 573 1904 553 1895 C 532 1886 514 1874 499 1859 C 483 1844 471 1826 462 1806 C 453 1785 449 1763 449 1741 Z" unicode="" />
<glyph horiz-adv-x="1968" d="M 866 0 L 866 381 L 264 381 L 41 0 L -37 0 L 827 1446 L 1808 1446 L 1808 1386 L 938 1386 L 938 784 L 1716 784 L 1716 725 L 938 725 L 938 59 L 1829 59 L 1829 0 L 866 0 Z M 866 1389 L 856 1389 L 815 1307 L 301 440 L 866 440 L 866 1389 Z" unicode="" />
<glyph horiz-adv-x="1343" d="M 1217 86 C 1168 55 1107 30 1033 10 C 959 -10 873 -20 774 -20 C 766 -20 759 -20 752 -20 C 745 -20 739 -19 733 -18 L 733 -57 C 733 -64 735 -71 739 -78 C 743 -84 748 -90 754 -94 L 819 -152 C 825 -158 833 -166 842 -175 C 850 -184 859 -194 867 -206 C 875 -218 881 -231 887 -246 C 892 -260 895 -276 895 -293 C 895 -316 890 -337 880 -357 C 870 -376 856 -393 838 -407 C 820 -421 797 -431 771 -439 C 745 -447 715 -451 682 -451 C 653 -451 624 -447 596 -440 C 568 -433 544 -422 526 -406 L 545 -358 C 551 -364 560 -370 571 -375 C 582 -380 594 -384 606 -387 C 618 -390 631 -392 645 -394 C 659 -396 672 -397 684 -397 C 728 -397 764 -387 792 -368 C 820 -349 834 -323 834 -291 C 834 -278 831 -266 827 -256 C 822 -245 816 -235 810 -226 C 803 -217 796 -209 788 -202 C 780 -194 772 -188 766 -182 L 705 -131 C 697 -125 691 -116 685 -106 C 679 -95 676 -85 676 -76 L 676 -14 C 585 -3 505 22 435 62 C 365 102 307 155 260 219 C 213 283 177 357 153 442 C 129 526 117 618 117 717 C 117 785 123 850 136 914 C 149 978 168 1037 194 1093 C 220 1149 251 1200 289 1246 C 327 1292 370 1331 420 1364 C 470 1397 525 1423 586 1441 C 647 1459 714 1468 786 1468 C 882 1468 965 1458 1037 1438 C 1108 1418 1168 1392 1217 1362 L 1200 1296 C 1176 1311 1149 1325 1120 1339 C 1091 1353 1059 1365 1025 1375 C 991 1385 953 1394 913 1400 C 873 1406 830 1409 784 1409 C 686 1409 600 1390 526 1354 C 452 1317 390 1267 340 1205 C 290 1142 253 1069 228 985 C 202 901 190 813 190 719 C 190 625 202 536 226 454 C 250 372 287 300 336 238 C 384 176 445 128 519 92 C 592 56 678 39 776 39 C 870 39 953 49 1023 70 C 1093 91 1152 118 1200 150 L 1217 86 Z" unicode="" />
<glyph horiz-adv-x="1307" d="M 1147 1446 L 1147 1386 L 276 1386 L 276 784 L 1055 784 L 1055 725 L 276 725 L 276 59 L 1167 59 L 1167 0 L 205 0 L 205 1446 L 1147 1446 Z M 518 1903 L 764 1628 L 764 1604 L 731 1604 L 448 1872 L 448 1903 L 518 1903 Z" unicode="" />
<glyph horiz-adv-x="1307" d="M 1147 1446 L 1147 1386 L 276 1386 L 276 784 L 1055 784 L 1055 725 L 276 725 L 276 59 L 1167 59 L 1167 0 L 205 0 L 205 1446 L 1147 1446 Z M 923 1903 L 923 1872 L 639 1604 L 606 1604 L 606 1628 L 852 1903 L 923 1903 Z" unicode="" />
<glyph horiz-adv-x="1307" d="M 1147 1446 L 1147 1386 L 276 1386 L 276 784 L 1055 784 L 1055 725 L 276 725 L 276 59 L 1167 59 L 1167 0 L 205 0 L 205 1446 L 1147 1446 Z M 712 1903 L 944 1626 L 944 1604 L 905 1604 L 688 1846 L 682 1846 L 465 1604 L 428 1604 L 428 1626 L 655 1903 L 712 1903 Z" unicode="" />
<glyph horiz-adv-x="1307" d="M 1147 1446 L 1147 1386 L 276 1386 L 276 784 L 1055 784 L 1055 725 L 276 725 L 276 59 L 1167 59 L 1167 0 L 205 0 L 205 1446 L 1147 1446 Z M 508 1819 L 508 1645 L 434 1645 L 434 1819 L 508 1819 Z M 938 1819 L 938 1645 L 864 1645 L 864 1819 L 938 1819 Z" unicode="" />
<glyph horiz-adv-x="481" d="M 276 1446 L 276 0 L 205 0 L 205 1446 L 276 1446 Z M 77 1903 L 323 1628 L 323 1604 L 290 1604 L 7 1872 L 7 1903 L 77 1903 Z" unicode="" />
<glyph horiz-adv-x="481" d="M 276 1446 L 276 0 L 205 0 L 205 1446 L 276 1446 Z M 478 1903 L 478 1872 L 194 1604 L 161 1604 L 161 1628 L 407 1903 L 478 1903 Z" unicode="" />
<glyph horiz-adv-x="481" d="M 276 1446 L 276 0 L 205 0 L 205 1446 L 276 1446 Z M 269 1903 L 501 1626 L 501 1604 L 462 1604 L 245 1846 L 239 1846 L 22 1604 L -15 1604 L -15 1626 L 212 1903 L 269 1903 Z" unicode="" />
<glyph horiz-adv-x="481" d="M 276 1446 L 276 0 L 205 0 L 205 1446 L 276 1446 Z M 63 1819 L 63 1645 L -11 1645 L -11 1819 L 63 1819 Z M 493 1819 L 493 1645 L 419 1645 L 419 1819 L 493 1819 Z" unicode="" />
<glyph horiz-adv-x="1530" d="M 59 786 L 246 786 L 246 1446 L 688 1446 C 788 1446 881 1432 968 1406 C 1054 1380 1130 1338 1194 1281 C 1258 1223 1308 1149 1345 1059 C 1382 969 1401 860 1401 733 C 1401 598 1382 484 1345 391 C 1308 298 1257 223 1193 165 C 1129 107 1053 65 967 39 C 880 13 787 0 688 0 L 246 0 L 246 729 L 59 729 L 59 786 Z M 317 1386 L 317 786 L 768 786 L 768 729 L 317 729 L 317 59 L 694 59 C 788 59 874 72 952 100 C 1030 127 1096 168 1152 224 C 1208 280 1251 350 1281 435 C 1311 519 1327 619 1327 733 C 1327 839 1312 933 1282 1015 C 1252 1097 1209 1165 1154 1220 C 1098 1274 1032 1316 954 1344 C 876 1372 790 1386 694 1386 L 317 1386 Z" unicode="" />
<glyph horiz-adv-x="1470" d="M 205 1446 L 307 1446 L 1137 184 L 1196 68 L 1204 68 L 1196 195 L 1196 1446 L 1266 1446 L 1266 0 L 1165 0 L 334 1262 L 274 1376 L 266 1376 L 274 1249 L 274 0 L 205 0 L 205 1446 Z M 488 1743 C 514 1768 537 1785 556 1794 C 575 1802 594 1807 613 1807 C 634 1807 653 1802 670 1794 C 687 1786 706 1771 728 1751 L 797 1688 C 809 1677 821 1668 833 1662 C 844 1656 856 1653 869 1653 C 882 1653 896 1656 911 1664 C 925 1672 944 1687 967 1710 L 1025 1766 L 1066 1739 L 988 1661 C 962 1635 940 1618 920 1610 C 900 1602 881 1598 863 1598 C 842 1598 823 1602 806 1610 C 788 1618 769 1632 748 1653 L 681 1716 C 668 1726 655 1735 643 1741 C 631 1747 619 1751 607 1751 C 593 1751 579 1747 565 1739 C 550 1731 531 1716 509 1694 L 451 1639 L 410 1665 L 488 1743 Z" unicode="" />
<glyph horiz-adv-x="1542" d="M 770 1468 C 862 1468 948 1452 1028 1422 C 1108 1391 1177 1345 1236 1283 C 1294 1221 1340 1144 1374 1051 C 1408 958 1425 849 1425 725 C 1425 601 1408 493 1374 400 C 1340 307 1294 229 1235 167 C 1176 105 1107 58 1027 27 C 947 -4 862 -20 770 -20 C 677 -20 591 -4 511 27 C 431 58 362 105 304 167 C 246 229 200 307 167 400 C 133 493 117 601 117 725 C 117 849 133 957 167 1050 C 201 1143 247 1220 306 1282 C 364 1344 433 1390 513 1421 C 592 1452 678 1468 770 1468 Z M 770 1409 C 684 1409 605 1393 534 1363 C 462 1333 401 1289 350 1231 C 299 1173 260 1101 232 1016 C 204 931 190 834 190 725 C 190 617 204 521 232 437 C 260 352 299 280 350 221 C 401 162 462 117 534 86 C 605 54 684 39 770 39 C 856 39 935 54 1007 84 C 1079 114 1140 158 1191 216 C 1242 274 1282 345 1310 431 C 1338 516 1352 614 1352 725 C 1352 833 1338 929 1310 1014 C 1282 1098 1242 1170 1191 1229 C 1140 1287 1079 1332 1007 1363 C 935 1393 856 1409 770 1409 Z M 600 1903 L 846 1628 L 846 1604 L 813 1604 L 530 1872 L 530 1903 L 600 1903 Z" unicode="" />
<glyph horiz-adv-x="1542" d="M 770 1468 C 862 1468 948 1452 1028 1422 C 1108 1391 1177 1345 1236 1283 C 1294 1221 1340 1144 1374 1051 C 1408 958 1425 849 1425 725 C 1425 601 1408 493 1374 400 C 1340 307 1294 229 1235 167 C 1176 105 1107 58 1027 27 C 947 -4 862 -20 770 -20 C 677 -20 591 -4 511 27 C 431 58 362 105 304 167 C 246 229 200 307 167 400 C 133 493 117 601 117 725 C 117 849 133 957 167 1050 C 201 1143 247 1220 306 1282 C 364 1344 433 1390 513 1421 C 592 1452 678 1468 770 1468 Z M 770 1409 C 684 1409 605 1393 534 1363 C 462 1333 401 1289 350 1231 C 299 1173 260 1101 232 1016 C 204 931 190 834 190 725 C 190 617 204 521 232 437 C 260 352 299 280 350 221 C 401 162 462 117 534 86 C 605 54 684 39 770 39 C 856 39 935 54 1007 84 C 1079 114 1140 158 1191 216 C 1242 274 1282 345 1310 431 C 1338 516 1352 614 1352 725 C 1352 833 1338 929 1310 1014 C 1282 1098 1242 1170 1191 1229 C 1140 1287 1079 1332 1007 1363 C 935 1393 856 1409 770 1409 Z M 1005 1903 L 1005 1872 L 721 1604 L 688 1604 L 688 1628 L 934 1903 L 1005 1903 Z" unicode="" />
<glyph horiz-adv-x="1542" d="M 770 1468 C 862 1468 948 1452 1028 1422 C 1108 1391 1177 1345 1236 1283 C 1294 1221 1340 1144 1374 1051 C 1408 958 1425 849 1425 725 C 1425 601 1408 493 1374 400 C 1340 307 1294 229 1235 167 C 1176 105 1107 58 1027 27 C 947 -4 862 -20 770 -20 C 677 -20 591 -4 511 27 C 431 58 362 105 304 167 C 246 229 200 307 167 400 C 133 493 117 601 117 725 C 117 849 133 957 167 1050 C 201 1143 247 1220 306 1282 C 364 1344 433 1390 513 1421 C 592 1452 678 1468 770 1468 Z M 770 1409 C 684 1409 605 1393 534 1363 C 462 1333 401 1289 350 1231 C 299 1173 260 1101 232 1016 C 204 931 190 834 190 725 C 190 617 204 521 232 437 C 260 352 299 280 350 221 C 401 162 462 117 534 86 C 605 54 684 39 770 39 C 856 39 935 54 1007 84 C 1079 114 1140 158 1191 216 C 1242 274 1282 345 1310 431 C 1338 516 1352 614 1352 725 C 1352 833 1338 929 1310 1014 C 1282 1098 1242 1170 1191 1229 C 1140 1287 1079 1332 1007 1363 C 935 1393 856 1409 770 1409 Z M 794 1903 L 1026 1626 L 1026 1604 L 987 1604 L 770 1846 L 764 1846 L 547 1604 L 510 1604 L 510 1626 L 737 1903 L 794 1903 Z" unicode="" />
<glyph horiz-adv-x="1542" d="M 770 1468 C 862 1468 948 1452 1028 1422 C 1108 1391 1177 1345 1236 1283 C 1294 1221 1340 1144 1374 1051 C 1408 958 1425 849 1425 725 C 1425 601 1408 493 1374 400 C 1340 307 1294 229 1235 167 C 1176 105 1107 58 1027 27 C 947 -4 862 -20 770 -20 C 677 -20 591 -4 511 27 C 431 58 362 105 304 167 C 246 229 200 307 167 400 C 133 493 117 601 117 725 C 117 849 133 957 167 1050 C 201 1143 247 1220 306 1282 C 364 1344 433 1390 513 1421 C 592 1452 678 1468 770 1468 Z M 770 1409 C 684 1409 605 1393 534 1363 C 462 1333 401 1289 350 1231 C 299 1173 260 1101 232 1016 C 204 931 190 834 190 725 C 190 617 204 521 232 437 C 260 352 299 280 350 221 C 401 162 462 117 534 86 C 605 54 684 39 770 39 C 856 39 935 54 1007 84 C 1079 114 1140 158 1191 216 C 1242 274 1282 345 1310 431 C 1338 516 1352 614 1352 725 C 1352 833 1338 929 1310 1014 C 1282 1098 1242 1170 1191 1229 C 1140 1287 1079 1332 1007 1363 C 935 1393 856 1409 770 1409 Z M 522 1743 C 548 1768 571 1785 590 1794 C 609 1802 628 1807 647 1807 C 668 1807 687 1802 704 1794 C 721 1786 740 1771 762 1751 L 831 1688 C 843 1677 855 1668 867 1662 C 878 1656 890 1653 903 1653 C 916 1653 930 1656 945 1664 C 959 1672 978 1687 1001 1710 L 1059 1766 L 1100 1739 L 1022 1661 C 996 1635 974 1618 954 1610 C 934 1602 915 1598 897 1598 C 876 1598 857 1602 840 1610 C 822 1618 803 1632 782 1653 L 715 1716 C 702 1726 689 1735 677 1741 C 665 1747 653 1751 641 1751 C 627 1751 613 1747 599 1739 C 584 1731 565 1716 543 1694 L 485 1639 L 444 1665 L 522 1743 Z" unicode="" />
<glyph horiz-adv-x="1542" d="M 770 1468 C 862 1468 948 1452 1028 1422 C 1108 1391 1177 1345 1236 1283 C 1294 1221 1340 1144 1374 1051 C 1408 958 1425 849 1425 725 C 1425 601 1408 493 1374 400 C 1340 307 1294 229 1235 167 C 1176 105 1107 58 1027 27 C 947 -4 862 -20 770 -20 C 677 -20 591 -4 511 27 C 431 58 362 105 304 167 C 246 229 200 307 167 400 C 133 493 117 601 117 725 C 117 849 133 957 167 1050 C 201 1143 247 1220 306 1282 C 364 1344 433 1390 513 1421 C 592 1452 678 1468 770 1468 Z M 770 1409 C 684 1409 605 1393 534 1363 C 462 1333 401 1289 350 1231 C 299 1173 260 1101 232 1016 C 204 931 190 834 190 725 C 190 617 204 521 232 437 C 260 352 299 280 350 221 C 401 162 462 117 534 86 C 605 54 684 39 770 39 C 856 39 935 54 1007 84 C 1079 114 1140 158 1191 216 C 1242 274 1282 345 1310 431 C 1338 516 1352 614 1352 725 C 1352 833 1338 929 1310 1014 C 1282 1098 1242 1170 1191 1229 C 1140 1287 1079 1332 1007 1363 C 935 1393 856 1409 770 1409 Z M 590 1819 L 590 1645 L 516 1645 L 516 1819 L 590 1819 Z M 1020 1819 L 1020 1645 L 946 1645 L 946 1819 L 1020 1819 Z" unicode="" />
<glyph horiz-adv-x="1167" d="M 584 616 L 1044 1077 L 1090 1032 L 629 571 L 1092 109 L 1044 63 L 582 526 L 123 66 L 78 111 L 539 569 L 78 1030 L 123 1077 L 584 616 Z" unicode="" />
<glyph horiz-adv-x="1542" d="M 1243 1581 L 1135 1366 C 1179 1337 1218 1302 1254 1261 C 1290 1220 1320 1173 1346 1120 C 1371 1066 1390 1007 1404 941 C 1418 875 1425 803 1425 725 C 1425 601 1408 493 1374 400 C 1340 307 1294 229 1235 167 C 1176 105 1107 58 1027 27 C 947 -4 862 -20 770 -20 C 716 -20 665 -15 616 -5 C 567 5 521 20 477 41 L 391 -137 L 336 -137 L 434 63 C 386 91 342 126 303 168 C 264 210 231 258 203 313 C 175 368 154 430 139 499 C 124 567 117 643 117 725 C 117 849 133 957 167 1050 C 201 1143 247 1220 306 1282 C 364 1344 433 1390 513 1421 C 592 1452 678 1468 770 1468 C 830 1468 886 1461 940 1449 C 994 1437 1045 1418 1094 1393 L 1188 1581 L 1243 1581 Z M 770 1409 C 684 1409 605 1393 534 1363 C 462 1333 401 1289 350 1231 C 299 1173 260 1101 232 1016 C 204 931 190 834 190 725 C 190 654 196 588 208 527 C 220 465 238 409 262 359 C 286 309 314 264 348 224 C 382 184 420 151 463 125 L 1063 1333 C 1021 1357 975 1376 927 1389 C 878 1402 826 1409 770 1409 Z M 504 100 C 543 79 585 64 629 54 C 673 44 720 39 770 39 C 856 39 935 54 1007 84 C 1079 114 1140 158 1191 216 C 1242 274 1282 345 1310 431 C 1338 516 1352 614 1352 725 C 1352 861 1330 978 1287 1076 C 1243 1174 1183 1251 1106 1307 L 506 100 L 504 100 Z" unicode="" />
<glyph horiz-adv-x="1401" d="M 254 1446 L 254 483 C 254 447 255 411 259 375 C 262 339 269 304 280 271 C 290 238 306 207 326 179 C 346 151 372 126 406 106 C 439 85 480 69 528 57 C 576 45 634 39 702 39 C 769 39 827 45 875 57 C 923 69 963 85 996 106 C 1029 126 1056 151 1076 179 C 1096 207 1111 238 1121 271 C 1131 304 1138 339 1142 375 C 1145 411 1147 447 1147 483 L 1147 1446 L 1219 1446 L 1219 477 C 1219 437 1216 398 1212 358 C 1208 318 1199 279 1187 243 C 1174 206 1156 172 1133 140 C 1109 108 1078 80 1040 56 C 1002 32 955 14 900 0 C 844 -13 778 -20 702 -20 C 625 -20 559 -13 504 0 C 448 14 401 32 363 56 C 324 80 293 108 269 140 C 245 172 227 206 214 243 C 201 279 192 318 188 358 C 184 398 182 437 182 477 L 182 1446 L 254 1446 Z M 526 1903 L 772 1628 L 772 1604 L 739 1604 L 456 1872 L 456 1903 L 526 1903 Z" unicode="" />
<glyph horiz-adv-x="1401" d="M 254 1446 L 254 483 C 254 447 255 411 259 375 C 262 339 269 304 280 271 C 290 238 306 207 326 179 C 346 151 372 126 406 106 C 439 85 480 69 528 57 C 576 45 634 39 702 39 C 769 39 827 45 875 57 C 923 69 963 85 996 106 C 1029 126 1056 151 1076 179 C 1096 207 1111 238 1121 271 C 1131 304 1138 339 1142 375 C 1145 411 1147 447 1147 483 L 1147 1446 L 1219 1446 L 1219 477 C 1219 437 1216 398 1212 358 C 1208 318 1199 279 1187 243 C 1174 206 1156 172 1133 140 C 1109 108 1078 80 1040 56 C 1002 32 955 14 900 0 C 844 -13 778 -20 702 -20 C 625 -20 559 -13 504 0 C 448 14 401 32 363 56 C 324 80 293 108 269 140 C 245 172 227 206 214 243 C 201 279 192 318 188 358 C 184 398 182 437 182 477 L 182 1446 L 254 1446 Z M 931 1903 L 931 1872 L 647 1604 L 614 1604 L 614 1628 L 860 1903 L 931 1903 Z" unicode="" />
<glyph horiz-adv-x="1401" d="M 254 1446 L 254 483 C 254 447 255 411 259 375 C 262 339 269 304 280 271 C 290 238 306 207 326 179 C 346 151 372 126 406 106 C 439 85 480 69 528 57 C 576 45 634 39 702 39 C 769 39 827 45 875 57 C 923 69 963 85 996 106 C 1029 126 1056 151 1076 179 C 1096 207 1111 238 1121 271 C 1131 304 1138 339 1142 375 C 1145 411 1147 447 1147 483 L 1147 1446 L 1219 1446 L 1219 477 C 1219 437 1216 398 1212 358 C 1208 318 1199 279 1187 243 C 1174 206 1156 172 1133 140 C 1109 108 1078 80 1040 56 C 1002 32 955 14 900 0 C 844 -13 778 -20 702 -20 C 625 -20 559 -13 504 0 C 448 14 401 32 363 56 C 324 80 293 108 269 140 C 245 172 227 206 214 243 C 201 279 192 318 188 358 C 184 398 182 437 182 477 L 182 1446 L 254 1446 Z M 721 1903 L 953 1626 L 953 1604 L 914 1604 L 697 1846 L 691 1846 L 474 1604 L 437 1604 L 437 1626 L 664 1903 L 721 1903 Z" unicode="" />
<glyph horiz-adv-x="1401" d="M 254 1446 L 254 483 C 254 447 255 411 259 375 C 262 339 269 304 280 271 C 290 238 306 207 326 179 C 346 151 372 126 406 106 C 439 85 480 69 528 57 C 576 45 634 39 702 39 C 769 39 827 45 875 57 C 923 69 963 85 996 106 C 1029 126 1056 151 1076 179 C 1096 207 1111 238 1121 271 C 1131 304 1138 339 1142 375 C 1145 411 1147 447 1147 483 L 1147 1446 L 1219 1446 L 1219 477 C 1219 437 1216 398 1212 358 C 1208 318 1199 279 1187 243 C 1174 206 1156 172 1133 140 C 1109 108 1078 80 1040 56 C 1002 32 955 14 900 0 C 844 -13 778 -20 702 -20 C 625 -20 559 -13 504 0 C 448 14 401 32 363 56 C 324 80 293 108 269 140 C 245 172 227 206 214 243 C 201 279 192 318 188 358 C 184 398 182 437 182 477 L 182 1446 L 254 1446 Z M 516 1820 L 516 1646 L 442 1646 L 442 1820 L 516 1820 Z M 946 1820 L 946 1646 L 872 1646 L 872 1820 L 946 1820 Z" unicode="" />
<glyph horiz-adv-x="1116" d="M 111 1446 L 561 604 L 1012 1446 L 1092 1446 L 594 537 L 594 0 L 522 0 L 522 537 L 25 1446 L 111 1446 Z M 798 1903 L 798 1872 L 514 1604 L 481 1604 L 481 1628 L 727 1903 L 798 1903 Z" unicode="" />
<glyph horiz-adv-x="1319" d="M 276 362 L 758 362 C 798 362 833 364 865 368 C 896 372 924 379 949 387 C 974 395 996 404 1015 416 C 1034 428 1051 441 1067 457 C 1100 489 1125 528 1141 574 C 1157 620 1165 673 1165 731 C 1165 783 1158 830 1144 873 C 1130 915 1108 953 1077 985 C 1046 1017 1005 1043 954 1063 C 903 1082 838 1092 758 1092 L 276 1092 L 276 362 Z M 276 1446 L 276 1151 L 752 1151 C 848 1151 926 1139 988 1117 C 1050 1095 1099 1064 1137 1024 C 1171 986 1197 943 1214 893 C 1230 843 1239 789 1239 731 C 1239 666 1229 607 1210 553 C 1190 499 1161 454 1122 416 C 1104 398 1083 382 1061 368 C 1038 354 1012 342 982 332 C 952 322 919 315 881 310 C 843 305 800 303 752 303 L 276 303 L 276 0 L 205 0 L 205 1446 L 276 1446 Z" unicode="" />
<glyph horiz-adv-x="1087" d="M 166 1108 C 166 1181 174 1244 191 1296 C 208 1348 232 1391 264 1425 C 295 1459 333 1484 377 1500 C 421 1516 470 1524 524 1524 C 584 1524 638 1514 685 1496 C 731 1478 771 1453 803 1422 C 835 1390 859 1354 876 1312 C 892 1270 901 1225 901 1178 C 901 1140 896 1106 887 1076 C 877 1046 865 1018 851 993 C 837 967 821 944 804 924 C 786 903 770 884 754 868 C 736 852 724 839 716 829 C 708 819 705 813 705 809 C 705 805 706 801 710 796 C 714 790 720 783 729 773 C 737 763 749 751 764 737 C 778 722 797 704 819 684 C 845 658 870 633 894 608 C 918 583 940 556 959 528 C 977 499 992 467 1003 432 C 1014 397 1020 357 1020 311 C 1020 253 1010 204 992 163 C 974 121 949 87 918 60 C 886 33 850 13 809 1 C 767 -11 724 -18 678 -18 C 646 -18 615 -16 585 -12 C 554 -8 529 -4 510 0 L 510 57 C 531 53 556 48 586 44 C 615 39 646 37 678 37 C 714 37 749 42 783 52 C 816 62 845 77 870 99 C 895 120 915 148 930 182 C 944 216 952 257 952 305 C 952 347 946 383 936 415 C 925 447 911 476 894 502 C 877 528 858 551 836 573 C 814 595 792 617 770 639 C 747 661 727 680 711 696 C 695 712 681 727 671 740 C 660 753 652 765 647 776 C 641 786 639 797 639 807 C 639 822 644 837 656 851 C 667 865 683 883 705 905 C 720 919 735 935 750 953 C 765 970 779 989 791 1010 C 803 1031 812 1054 820 1080 C 827 1106 831 1135 831 1167 C 831 1207 824 1245 812 1281 C 799 1317 780 1348 755 1375 C 729 1402 698 1424 660 1440 C 622 1456 577 1464 526 1464 C 330 1464 233 1341 233 1096 L 233 0 L 166 0 L 166 1108 Z" unicode="" />
<glyph horiz-adv-x="1065" d="M 852 0 L 852 211 C 824 169 794 134 761 105 C 727 76 692 53 656 35 C 620 17 582 4 544 -4 C 506 -12 468 -16 432 -16 C 380 -16 333 -9 291 4 C 249 18 214 37 185 63 C 156 88 134 119 119 155 C 103 191 96 233 96 279 C 96 313 100 345 110 375 C 120 405 136 432 158 458 C 180 483 210 506 248 526 C 286 546 332 563 388 577 C 444 591 509 602 585 610 C 661 618 748 622 848 623 L 848 700 C 848 756 841 804 829 844 C 817 883 798 915 773 940 C 748 964 717 982 680 993 C 642 1004 599 1010 549 1010 C 511 1010 475 1007 440 1002 C 405 996 372 989 342 981 C 312 973 284 963 259 953 C 234 942 213 932 195 922 L 168 975 C 183 985 203 995 229 1007 C 254 1018 283 1028 317 1037 C 350 1046 386 1054 426 1060 C 466 1066 507 1069 551 1069 C 609 1069 661 1062 707 1049 C 752 1036 790 1015 821 985 C 851 955 875 917 891 869 C 907 821 915 763 915 694 L 915 0 L 852 0 Z M 440 39 C 483 39 523 44 561 54 C 598 64 632 78 662 95 C 692 111 719 130 742 150 C 765 170 784 191 800 212 C 816 232 828 252 836 270 C 844 288 848 303 848 315 L 848 578 C 756 575 675 570 605 562 C 535 554 475 544 425 532 C 375 519 333 504 300 487 C 266 470 240 451 220 430 C 200 409 186 386 178 362 C 170 337 166 311 166 283 C 166 206 189 146 237 103 C 285 60 352 39 440 39 Z M 371 1530 L 617 1255 L 617 1231 L 584 1231 L 301 1499 L 301 1530 L 371 1530 Z" unicode="" />
<glyph horiz-adv-x="1065" d="M 852 0 L 852 211 C 824 169 794 134 761 105 C 727 76 692 53 656 35 C 620 17 582 4 544 -4 C 506 -12 468 -16 432 -16 C 380 -16 333 -9 291 4 C 249 18 214 37 185 63 C 156 88 134 119 119 155 C 103 191 96 233 96 279 C 96 313 100 345 110 375 C 120 405 136 432 158 458 C 180 483 210 506 248 526 C 286 546 332 563 388 577 C 444 591 509 602 585 610 C 661 618 748 622 848 623 L 848 700 C 848 756 841 804 829 844 C 817 883 798 915 773 940 C 748 964 717 982 680 993 C 642 1004 599 1010 549 1010 C 511 1010 475 1007 440 1002 C 405 996 372 989 342 981 C 312 973 284 963 259 953 C 234 942 213 932 195 922 L 168 975 C 183 985 203 995 229 1007 C 254 1018 283 1028 317 1037 C 350 1046 386 1054 426 1060 C 466 1066 507 1069 551 1069 C 609 1069 661 1062 707 1049 C 752 1036 790 1015 821 985 C 851 955 875 917 891 869 C 907 821 915 763 915 694 L 915 0 L 852 0 Z M 440 39 C 483 39 523 44 561 54 C 598 64 632 78 662 95 C 692 111 719 130 742 150 C 765 170 784 191 800 212 C 816 232 828 252 836 270 C 844 288 848 303 848 315 L 848 578 C 756 575 675 570 605 562 C 535 554 475 544 425 532 C 375 519 333 504 300 487 C 266 470 240 451 220 430 C 200 409 186 386 178 362 C 170 337 166 311 166 283 C 166 206 189 146 237 103 C 285 60 352 39 440 39 Z M 776 1530 L 776 1499 L 492 1231 L 459 1231 L 459 1255 L 705 1530 L 776 1530 Z" unicode="" />
<glyph horiz-adv-x="1065" d="M 852 0 L 852 211 C 824 169 794 134 761 105 C 727 76 692 53 656 35 C 620 17 582 4 544 -4 C 506 -12 468 -16 432 -16 C 380 -16 333 -9 291 4 C 249 18 214 37 185 63 C 156 88 134 119 119 155 C 103 191 96 233 96 279 C 96 313 100 345 110 375 C 120 405 136 432 158 458 C 180 483 210 506 248 526 C 286 546 332 563 388 577 C 444 591 509 602 585 610 C 661 618 748 622 848 623 L 848 700 C 848 756 841 804 829 844 C 817 883 798 915 773 940 C 748 964 717 982 680 993 C 642 1004 599 1010 549 1010 C 511 1010 475 1007 440 1002 C 405 996 372 989 342 981 C 312 973 284 963 259 953 C 234 942 213 932 195 922 L 168 975 C 183 985 203 995 229 1007 C 254 1018 283 1028 317 1037 C 350 1046 386 1054 426 1060 C 466 1066 507 1069 551 1069 C 609 1069 661 1062 707 1049 C 752 1036 790 1015 821 985 C 851 955 875 917 891 869 C 907 821 915 763 915 694 L 915 0 L 852 0 Z M 440 39 C 483 39 523 44 561 54 C 598 64 632 78 662 95 C 692 111 719 130 742 150 C 765 170 784 191 800 212 C 816 232 828 252 836 270 C 844 288 848 303 848 315 L 848 578 C 756 575 675 570 605 562 C 535 554 475 544 425 532 C 375 519 333 504 300 487 C 266 470 240 451 220 430 C 200 409 186 386 178 362 C 170 337 166 311 166 283 C 166 206 189 146 237 103 C 285 60 352 39 440 39 Z M 565 1530 L 797 1253 L 797 1231 L 758 1231 L 541 1473 L 535 1473 L 318 1231 L 281 1231 L 281 1253 L 508 1530 L 565 1530 Z" unicode="" />
<glyph horiz-adv-x="1065" d="M 852 0 L 852 211 C 824 169 794 134 761 105 C 727 76 692 53 656 35 C 620 17 582 4 544 -4 C 506 -12 468 -16 432 -16 C 380 -16 333 -9 291 4 C 249 18 214 37 185 63 C 156 88 134 119 119 155 C 103 191 96 233 96 279 C 96 313 100 345 110 375 C 120 405 136 432 158 458 C 180 483 210 506 248 526 C 286 546 332 563 388 577 C 444 591 509 602 585 610 C 661 618 748 622 848 623 L 848 700 C 848 756 841 804 829 844 C 817 883 798 915 773 940 C 748 964 717 982 680 993 C 642 1004 599 1010 549 1010 C 511 1010 475 1007 440 1002 C 405 996 372 989 342 981 C 312 973 284 963 259 953 C 234 942 213 932 195 922 L 168 975 C 183 985 203 995 229 1007 C 254 1018 283 1028 317 1037 C 350 1046 386 1054 426 1060 C 466 1066 507 1069 551 1069 C 609 1069 661 1062 707 1049 C 752 1036 790 1015 821 985 C 851 955 875 917 891 869 C 907 821 915 763 915 694 L 915 0 L 852 0 Z M 440 39 C 483 39 523 44 561 54 C 598 64 632 78 662 95 C 692 111 719 130 742 150 C 765 170 784 191 800 212 C 816 232 828 252 836 270 C 844 288 848 303 848 315 L 848 578 C 756 575 675 570 605 562 C 535 554 475 544 425 532 C 375 519 333 504 300 487 C 266 470 240 451 220 430 C 200 409 186 386 178 362 C 170 337 166 311 166 283 C 166 206 189 146 237 103 C 285 60 352 39 440 39 Z M 293 1370 C 319 1395 342 1412 361 1421 C 380 1429 399 1434 418 1434 C 439 1434 458 1429 475 1421 C 492 1413 511 1398 533 1378 L 602 1315 C 614 1304 626 1295 638 1289 C 649 1283 661 1280 674 1280 C 687 1280 701 1283 716 1291 C 730 1299 749 1314 772 1337 L 830 1393 L 871 1366 L 793 1288 C 767 1262 745 1245 725 1237 C 705 1229 686 1225 668 1225 C 647 1225 628 1229 611 1237 C 593 1245 574 1259 553 1280 L 486 1343 C 473 1353 460 1362 448 1368 C 436 1374 424 1378 412 1378 C 398 1378 384 1374 370 1366 C 355 1358 336 1343 314 1321 L 256 1266 L 215 1292 L 293 1370 Z" unicode="" />
<glyph horiz-adv-x="1065" d="M 852 0 L 852 211 C 824 169 794 134 761 105 C 727 76 692 53 656 35 C 620 17 582 4 544 -4 C 506 -12 468 -16 432 -16 C 380 -16 333 -9 291 4 C 249 18 214 37 185 63 C 156 88 134 119 119 155 C 103 191 96 233 96 279 C 96 313 100 345 110 375 C 120 405 136 432 158 458 C 180 483 210 506 248 526 C 286 546 332 563 388 577 C 444 591 509 602 585 610 C 661 618 748 622 848 623 L 848 700 C 848 756 841 804 829 844 C 817 883 798 915 773 940 C 748 964 717 982 680 993 C 642 1004 599 1010 549 1010 C 511 1010 475 1007 440 1002 C 405 996 372 989 342 981 C 312 973 284 963 259 953 C 234 942 213 932 195 922 L 168 975 C 183 985 203 995 229 1007 C 254 1018 283 1028 317 1037 C 350 1046 386 1054 426 1060 C 466 1066 507 1069 551 1069 C 609 1069 661 1062 707 1049 C 752 1036 790 1015 821 985 C 851 955 875 917 891 869 C 907 821 915 763 915 694 L 915 0 L 852 0 Z M 440 39 C 483 39 523 44 561 54 C 598 64 632 78 662 95 C 692 111 719 130 742 150 C 765 170 784 191 800 212 C 816 232 828 252 836 270 C 844 288 848 303 848 315 L 848 578 C 756 575 675 570 605 562 C 535 554 475 544 425 532 C 375 519 333 504 300 487 C 266 470 240 451 220 430 C 200 409 186 386 178 362 C 170 337 166 311 166 283 C 166 206 189 146 237 103 C 285 60 352 39 440 39 Z M 361 1446 L 361 1272 L 287 1272 L 287 1446 L 361 1446 Z M 791 1446 L 791 1272 L 717 1272 L 717 1446 L 791 1446 Z" unicode="" />
<glyph horiz-adv-x="1065" d="M 852 0 L 852 211 C 824 169 794 134 761 105 C 727 76 692 53 656 35 C 620 17 582 4 544 -4 C 506 -12 468 -16 432 -16 C 380 -16 333 -9 291 4 C 249 18 214 37 185 63 C 156 88 134 119 119 155 C 103 191 96 233 96 279 C 96 313 100 345 110 375 C 120 405 136 432 158 458 C 180 483 210 506 248 526 C 286 546 332 563 388 577 C 444 591 509 602 585 610 C 661 618 748 622 848 623 L 848 700 C 848 756 841 804 829 844 C 817 883 798 915 773 940 C 748 964 717 982 680 993 C 642 1004 599 1010 549 1010 C 511 1010 475 1007 440 1002 C 405 996 372 989 342 981 C 312 973 284 963 259 953 C 234 942 213 932 195 922 L 168 975 C 183 985 203 995 229 1007 C 254 1018 283 1028 317 1037 C 350 1046 386 1054 426 1060 C 466 1066 507 1069 551 1069 C 609 1069 661 1062 707 1049 C 752 1036 790 1015 821 985 C 851 955 875 917 891 869 C 907 821 915 763 915 694 L 915 0 L 852 0 Z M 440 39 C 483 39 523 44 561 54 C 598 64 632 78 662 95 C 692 111 719 130 742 150 C 765 170 784 191 800 212 C 816 232 828 252 836 270 C 844 288 848 303 848 315 L 848 578 C 756 575 675 570 605 562 C 535 554 475 544 425 532 C 375 519 333 504 300 487 C 266 470 240 451 220 430 C 200 409 186 386 178 362 C 170 337 166 311 166 283 C 166 206 189 146 237 103 C 285 60 352 39 440 39 Z M 324 1434 C 324 1462 329 1489 341 1514 C 352 1539 367 1561 387 1580 C 406 1599 429 1614 456 1625 C 482 1636 511 1642 541 1642 C 571 1642 599 1636 625 1625 C 651 1614 674 1599 694 1580 C 713 1561 728 1539 739 1514 C 750 1489 756 1462 756 1434 C 756 1405 750 1378 739 1353 C 728 1328 713 1306 694 1288 C 674 1270 651 1255 625 1245 C 599 1234 571 1229 541 1229 C 511 1229 482 1234 456 1245 C 429 1255 406 1270 387 1288 C 367 1306 352 1328 341 1353 C 329 1378 324 1405 324 1434 Z M 371 1434 C 371 1411 375 1390 384 1370 C 393 1350 405 1332 421 1318 C 436 1303 454 1291 475 1283 C 495 1274 517 1270 541 1270 C 564 1270 586 1274 607 1283 C 627 1291 645 1303 660 1318 C 675 1332 687 1350 696 1370 C 704 1390 709 1411 709 1434 C 709 1456 704 1478 696 1499 C 687 1519 675 1537 660 1552 C 645 1567 627 1579 607 1588 C 586 1597 564 1602 541 1602 C 517 1602 495 1597 475 1588 C 454 1579 436 1567 421 1552 C 405 1537 393 1519 384 1499 C 375 1478 371 1456 371 1434 Z" unicode="" />
<glyph horiz-adv-x="1853" d="M 430 -16 C 378 -16 331 -9 290 4 C 248 18 213 37 185 63 C 156 88 134 119 119 155 C 103 191 96 233 96 279 C 96 313 100 345 110 375 C 120 405 136 432 158 458 C 180 483 210 506 248 526 C 286 546 332 563 388 577 C 444 591 509 602 585 610 C 661 618 748 622 848 623 L 848 700 C 848 756 841 804 829 844 C 817 883 798 915 773 940 C 748 964 717 982 680 993 C 642 1004 599 1010 549 1010 C 511 1010 475 1007 440 1002 C 405 996 372 989 342 981 C 312 973 284 963 259 953 C 234 942 213 932 195 922 L 168 975 C 183 985 203 995 229 1007 C 254 1018 283 1028 317 1037 C 350 1046 386 1054 426 1060 C 466 1066 507 1069 551 1069 C 603 1069 650 1063 692 1052 C 734 1040 771 1022 801 997 C 831 971 855 938 872 898 C 889 857 899 808 901 750 C 915 798 935 842 961 882 C 987 921 1019 954 1056 982 C 1092 1010 1134 1031 1180 1046 C 1226 1061 1275 1069 1329 1069 C 1397 1069 1457 1057 1510 1035 C 1562 1013 1606 981 1642 941 C 1678 901 1705 853 1723 797 C 1741 741 1751 680 1751 614 C 1751 602 1750 591 1750 580 C 1750 569 1748 552 1745 530 L 915 530 C 913 459 921 394 937 335 C 953 275 979 224 1015 181 C 1051 137 1096 103 1152 79 C 1208 55 1274 43 1352 43 C 1420 43 1482 53 1537 74 C 1591 95 1644 124 1694 162 L 1720 106 C 1670 66 1615 35 1556 15 C 1496 -5 1428 -16 1352 -16 C 1284 -16 1223 -7 1169 9 C 1115 25 1069 49 1029 80 C 989 111 956 148 931 192 C 905 235 887 284 877 338 C 863 282 842 233 815 189 C 787 145 754 108 716 78 C 678 47 634 24 586 8 C 538 -8 486 -16 430 -16 Z M 440 39 C 505 39 563 50 614 74 C 664 97 707 129 742 169 C 776 209 803 255 821 309 C 839 362 848 419 848 479 L 848 578 C 756 575 675 570 605 562 C 535 554 475 544 425 532 C 375 519 333 504 300 487 C 266 470 240 451 220 430 C 200 409 186 386 178 362 C 170 337 166 311 166 283 C 166 206 189 146 237 103 C 285 60 352 39 440 39 Z M 1681 586 C 1685 646 1681 702 1667 754 C 1653 806 1631 851 1601 889 C 1571 927 1532 957 1486 979 C 1439 1001 1385 1012 1325 1012 C 1267 1012 1214 1001 1167 981 C 1119 961 1078 932 1043 895 C 1008 858 980 813 959 761 C 937 709 924 650 920 586 L 1681 586 Z" unicode="" />
<glyph horiz-adv-x="983" d="M 889 66 C 849 40 804 19 755 5 C 705 -8 648 -16 582 -16 C 572 -16 564 -15 556 -15 C 548 -14 540 -14 532 -14 L 532 -57 C 532 -64 534 -71 538 -78 C 542 -84 547 -90 553 -94 L 618 -152 C 624 -158 632 -166 641 -175 C 649 -184 658 -194 666 -206 C 674 -218 680 -231 686 -246 C 691 -260 694 -276 694 -293 C 694 -316 689 -337 679 -357 C 669 -376 655 -393 637 -407 C 619 -421 596 -431 570 -439 C 544 -447 514 -451 481 -451 C 452 -451 423 -447 395 -440 C 367 -433 344 -422 326 -406 L 344 -358 C 358 -371 379 -381 406 -387 C 432 -393 458 -397 483 -397 C 527 -397 563 -387 591 -368 C 619 -349 633 -323 633 -291 C 633 -278 630 -266 626 -256 C 621 -245 615 -235 609 -226 C 602 -217 595 -209 587 -202 C 579 -194 571 -188 565 -182 L 504 -131 C 496 -125 490 -116 484 -106 C 478 -95 475 -85 475 -76 L 475 -6 C 412 4 358 25 312 55 C 266 85 228 123 198 169 C 168 214 145 266 131 325 C 116 384 109 448 109 516 C 109 596 119 671 139 739 C 159 807 190 865 230 914 C 270 962 319 1000 379 1028 C 438 1055 507 1069 586 1069 C 648 1069 704 1061 754 1047 C 804 1032 849 1012 889 987 L 870 928 C 832 953 789 973 742 988 C 695 1002 643 1010 586 1010 C 518 1010 458 997 407 973 C 356 949 314 915 280 871 C 246 827 220 776 203 716 C 186 656 178 590 178 518 C 178 452 185 391 200 333 C 215 275 239 225 272 182 C 304 139 346 105 398 80 C 450 55 512 43 586 43 C 644 43 697 50 743 64 C 789 78 831 98 870 125 L 889 66 Z" unicode="" />
<glyph horiz-adv-x="1114" d="M 178 530 L 178 514 C 178 448 186 387 202 330 C 218 273 243 223 278 181 C 313 138 358 104 413 80 C 467 55 534 43 612 43 C 681 43 743 53 798 74 C 852 95 904 124 954 162 L 981 106 C 931 66 876 35 817 15 C 757 -5 689 -16 612 -16 C 524 -16 449 -2 386 23 C 323 49 271 86 230 133 C 188 180 158 236 138 300 C 118 364 109 434 109 510 C 109 592 120 667 142 735 C 164 803 195 862 236 912 C 277 962 327 1000 387 1028 C 446 1055 513 1069 588 1069 C 656 1069 717 1057 770 1035 C 823 1013 867 981 903 941 C 939 901 966 853 984 797 C 1002 741 1012 680 1012 614 C 1012 602 1011 591 1011 580 C 1011 569 1009 552 1006 530 L 178 530 Z M 586 1012 C 528 1012 476 1001 429 981 C 381 961 340 932 306 895 C 271 858 243 813 222 761 C 201 709 188 650 182 586 L 942 586 C 945 646 940 702 926 754 C 912 806 890 851 860 889 C 830 927 792 957 746 979 C 700 1001 646 1012 586 1012 Z M 411 1530 L 657 1255 L 657 1231 L 624 1231 L 341 1499 L 341 1530 L 411 1530 Z" unicode="" />
<glyph horiz-adv-x="1114" d="M 178 530 L 178 514 C 178 448 186 387 202 330 C 218 273 243 223 278 181 C 313 138 358 104 413 80 C 467 55 534 43 612 43 C 681 43 743 53 798 74 C 852 95 904 124 954 162 L 981 106 C 931 66 876 35 817 15 C 757 -5 689 -16 612 -16 C 524 -16 449 -2 386 23 C 323 49 271 86 230 133 C 188 180 158 236 138 300 C 118 364 109 434 109 510 C 109 592 120 667 142 735 C 164 803 195 862 236 912 C 277 962 327 1000 387 1028 C 446 1055 513 1069 588 1069 C 656 1069 717 1057 770 1035 C 823 1013 867 981 903 941 C 939 901 966 853 984 797 C 1002 741 1012 680 1012 614 C 1012 602 1011 591 1011 580 C 1011 569 1009 552 1006 530 L 178 530 Z M 586 1012 C 528 1012 476 1001 429 981 C 381 961 340 932 306 895 C 271 858 243 813 222 761 C 201 709 188 650 182 586 L 942 586 C 945 646 940 702 926 754 C 912 806 890 851 860 889 C 830 927 792 957 746 979 C 700 1001 646 1012 586 1012 Z M 817 1530 L 817 1499 L 533 1231 L 500 1231 L 500 1255 L 746 1530 L 817 1530 Z" unicode="" />
<glyph horiz-adv-x="1114" d="M 178 530 L 178 514 C 178 448 186 387 202 330 C 218 273 243 223 278 181 C 313 138 358 104 413 80 C 467 55 534 43 612 43 C 681 43 743 53 798 74 C 852 95 904 124 954 162 L 981 106 C 931 66 876 35 817 15 C 757 -5 689 -16 612 -16 C 524 -16 449 -2 386 23 C 323 49 271 86 230 133 C 188 180 158 236 138 300 C 118 364 109 434 109 510 C 109 592 120 667 142 735 C 164 803 195 862 236 912 C 277 962 327 1000 387 1028 C 446 1055 513 1069 588 1069 C 656 1069 717 1057 770 1035 C 823 1013 867 981 903 941 C 939 901 966 853 984 797 C 1002 741 1012 680 1012 614 C 1012 602 1011 591 1011 580 C 1011 569 1009 552 1006 530 L 178 530 Z M 586 1012 C 528 1012 476 1001 429 981 C 381 961 340 932 306 895 C 271 858 243 813 222 761 C 201 709 188 650 182 586 L 942 586 C 945 646 940 702 926 754 C 912 806 890 851 860 889 C 830 927 792 957 746 979 C 700 1001 646 1012 586 1012 Z M 606 1530 L 838 1253 L 838 1231 L 799 1231 L 582 1473 L 576 1473 L 359 1231 L 322 1231 L 322 1253 L 549 1530 L 606 1530 Z" unicode="" />
<glyph horiz-adv-x="1114" d="M 178 530 L 178 514 C 178 448 186 387 202 330 C 218 273 243 223 278 181 C 313 138 358 104 413 80 C 467 55 534 43 612 43 C 681 43 743 53 798 74 C 852 95 904 124 954 162 L 981 106 C 931 66 876 35 817 15 C 757 -5 689 -16 612 -16 C 524 -16 449 -2 386 23 C 323 49 271 86 230 133 C 188 180 158 236 138 300 C 118 364 109 434 109 510 C 109 592 120 667 142 735 C 164 803 195 862 236 912 C 277 962 327 1000 387 1028 C 446 1055 513 1069 588 1069 C 656 1069 717 1057 770 1035 C 823 1013 867 981 903 941 C 939 901 966 853 984 797 C 1002 741 1012 680 1012 614 C 1012 602 1011 591 1011 580 C 1011 569 1009 552 1006 530 L 178 530 Z M 586 1012 C 528 1012 476 1001 429 981 C 381 961 340 932 306 895 C 271 858 243 813 222 761 C 201 709 188 650 182 586 L 942 586 C 945 646 940 702 926 754 C 912 806 890 851 860 889 C 830 927 792 957 746 979 C 700 1001 646 1012 586 1012 Z M 402 1446 L 402 1272 L 328 1272 L 328 1446 L 402 1446 Z M 832 1446 L 832 1272 L 758 1272 L 758 1446 L 832 1446 Z" unicode="" />
<glyph horiz-adv-x="436" d="M 252 1053 L 252 0 L 184 0 L 184 1053 L 252 1053 Z M 52 1530 L 298 1255 L 298 1231 L 265 1231 L -18 1499 L -18 1530 L 52 1530 Z" unicode="" />
<glyph horiz-adv-x="436" d="M 252 1053 L 252 0 L 184 0 L 184 1053 L 252 1053 Z M 457 1530 L 457 1499 L 173 1231 L 140 1231 L 140 1255 L 386 1530 L 457 1530 Z" unicode="" />
<glyph horiz-adv-x="436" d="M 252 1053 L 252 0 L 184 0 L 184 1053 L 252 1053 Z M 245 1530 L 477 1253 L 477 1231 L 438 1231 L 221 1473 L 215 1473 L -2 1231 L -39 1231 L -39 1253 L 188 1530 L 245 1530 Z" unicode="" />
<glyph horiz-adv-x="436" d="M 252 1053 L 252 0 L 184 0 L 184 1053 L 252 1053 Z M 42 1446 L 42 1272 L -32 1272 L -32 1446 L 42 1446 Z M 472 1446 L 472 1272 L 398 1272 L 398 1446 L 472 1446 Z" unicode="" />
<glyph horiz-adv-x="1143" d="M 1034 532 C 1034 456 1023 385 1003 319 C 983 253 953 195 914 145 C 875 95 827 56 770 27 C 712 -1 647 -16 573 -16 C 501 -16 436 -2 379 23 C 321 49 273 86 233 134 C 193 182 162 239 141 306 C 119 372 109 446 109 526 C 109 602 119 673 139 739 C 159 805 189 862 229 911 C 268 960 316 999 374 1027 C 431 1055 497 1069 571 1069 C 603 1069 634 1066 663 1060 C 692 1054 720 1044 746 1030 C 772 1016 796 998 819 976 C 842 953 864 925 885 891 C 865 937 842 982 816 1026 C 790 1069 761 1110 731 1148 C 700 1186 668 1223 634 1257 C 600 1291 566 1322 532 1350 L 254 1239 L 254 1288 L 492 1382 C 481 1391 469 1401 457 1411 C 444 1421 431 1431 418 1441 C 404 1451 391 1460 378 1469 C 365 1478 353 1487 342 1495 L 403 1524 C 430 1504 456 1485 481 1465 C 505 1445 529 1426 553 1407 L 786 1497 L 786 1448 L 592 1374 C 736 1248 846 1114 921 974 C 996 834 1034 686 1034 532 Z M 573 1010 C 507 1010 450 997 401 972 C 352 946 311 912 278 869 C 244 825 219 774 203 716 C 186 657 178 594 178 528 C 178 458 186 394 203 335 C 220 275 245 224 279 181 C 312 137 353 103 402 79 C 451 55 508 43 573 43 C 638 43 695 55 744 81 C 793 107 834 142 867 186 C 899 230 924 282 940 341 C 956 399 965 462 965 528 C 965 596 956 660 939 719 C 922 778 897 829 864 872 C 831 915 790 949 742 973 C 693 997 637 1010 573 1010 Z" unicode="" />
<glyph horiz-adv-x="1133" d="M 915 0 L 915 684 C 915 738 908 785 896 824 C 884 863 864 896 838 924 C 810 950 777 971 739 987 C 700 1002 654 1010 602 1010 C 564 1010 528 1005 496 997 C 464 988 435 977 409 963 C 383 949 361 934 341 917 C 321 899 305 882 292 865 C 278 848 268 832 262 817 C 255 801 252 789 252 780 L 252 0 L 184 0 L 184 1053 L 250 1053 L 250 868 C 268 900 290 929 317 954 C 343 979 372 1000 404 1017 C 436 1034 469 1047 505 1056 C 540 1064 576 1069 612 1069 C 672 1069 726 1060 772 1042 C 818 1024 857 999 889 967 C 921 935 944 895 960 848 C 975 801 983 744 983 676 L 983 0 L 915 0 Z M 337 1370 C 363 1395 386 1412 405 1421 C 424 1429 443 1434 462 1434 C 483 1434 502 1429 519 1421 C 536 1413 555 1398 577 1378 L 646 1315 C 658 1304 670 1295 682 1289 C 693 1283 705 1280 718 1280 C 731 1280 745 1283 760 1291 C 774 1299 793 1314 816 1337 L 874 1393 L 915 1366 L 837 1288 C 811 1262 789 1245 769 1237 C 749 1229 730 1225 712 1225 C 691 1225 672 1229 655 1237 C 637 1245 618 1259 597 1280 L 530 1343 C 517 1353 504 1362 492 1368 C 480 1374 468 1378 456 1378 C 442 1378 428 1374 414 1366 C 399 1358 380 1343 358 1321 L 300 1266 L 259 1292 L 337 1370 Z" unicode="" />
<glyph horiz-adv-x="1143" d="M 573 1069 C 645 1069 709 1055 766 1029 C 823 1002 871 965 911 917 C 951 869 981 812 1002 746 C 1023 680 1034 607 1034 528 C 1034 454 1023 384 1003 318 C 983 252 953 195 914 145 C 875 95 827 56 770 27 C 712 -1 647 -16 573 -16 C 501 -16 436 -2 379 23 C 321 49 273 86 233 134 C 193 182 162 239 141 306 C 119 372 109 446 109 528 C 109 603 119 673 139 739 C 159 805 189 862 229 911 C 269 960 317 999 375 1027 C 433 1055 499 1069 573 1069 Z M 573 1010 C 507 1010 450 997 401 972 C 352 947 311 913 278 870 C 244 826 219 775 203 717 C 186 658 178 595 178 528 C 178 458 186 394 203 335 C 220 275 245 224 279 181 C 312 137 353 103 402 79 C 451 55 508 43 573 43 C 638 43 695 55 744 81 C 793 107 834 142 867 186 C 899 230 924 282 940 341 C 956 399 965 462 965 528 C 965 596 956 659 939 718 C 922 777 897 828 864 871 C 831 914 790 948 742 973 C 693 997 637 1010 573 1010 Z M 405 1530 L 651 1255 L 651 1231 L 618 1231 L 335 1499 L 335 1530 L 405 1530 Z" unicode="" />
<glyph horiz-adv-x="1143" d="M 573 1069 C 645 1069 709 1055 766 1029 C 823 1002 871 965 911 917 C 951 869 981 812 1002 746 C 1023 680 1034 607 1034 528 C 1034 454 1023 384 1003 318 C 983 252 953 195 914 145 C 875 95 827 56 770 27 C 712 -1 647 -16 573 -16 C 501 -16 436 -2 379 23 C 321 49 273 86 233 134 C 193 182 162 239 141 306 C 119 372 109 446 109 528 C 109 603 119 673 139 739 C 159 805 189 862 229 911 C 269 960 317 999 375 1027 C 433 1055 499 1069 573 1069 Z M 573 1010 C 507 1010 450 997 401 972 C 352 947 311 913 278 870 C 244 826 219 775 203 717 C 186 658 178 595 178 528 C 178 458 186 394 203 335 C 220 275 245 224 279 181 C 312 137 353 103 402 79 C 451 55 508 43 573 43 C 638 43 695 55 744 81 C 793 107 834 142 867 186 C 899 230 924 282 940 341 C 956 399 965 462 965 528 C 965 596 956 659 939 718 C 922 777 897 828 864 871 C 831 914 790 948 742 973 C 693 997 637 1010 573 1010 Z M 811 1530 L 811 1499 L 527 1231 L 494 1231 L 494 1255 L 740 1530 L 811 1530 Z" unicode="" />
<glyph horiz-adv-x="1143" d="M 573 1069 C 645 1069 709 1055 766 1029 C 823 1002 871 965 911 917 C 951 869 981 812 1002 746 C 1023 680 1034 607 1034 528 C 1034 454 1023 384 1003 318 C 983 252 953 195 914 145 C 875 95 827 56 770 27 C 712 -1 647 -16 573 -16 C 501 -16 436 -2 379 23 C 321 49 273 86 233 134 C 193 182 162 239 141 306 C 119 372 109 446 109 528 C 109 603 119 673 139 739 C 159 805 189 862 229 911 C 269 960 317 999 375 1027 C 433 1055 499 1069 573 1069 Z M 573 1010 C 507 1010 450 997 401 972 C 352 947 311 913 278 870 C 244 826 219 775 203 717 C 186 658 178 595 178 528 C 178 458 186 394 203 335 C 220 275 245 224 279 181 C 312 137 353 103 402 79 C 451 55 508 43 573 43 C 638 43 695 55 744 81 C 793 107 834 142 867 186 C 899 230 924 282 940 341 C 956 399 965 462 965 528 C 965 596 956 659 939 718 C 922 777 897 828 864 871 C 831 914 790 948 742 973 C 693 997 637 1010 573 1010 Z M 599 1530 L 831 1253 L 831 1231 L 792 1231 L 575 1473 L 569 1473 L 352 1231 L 315 1231 L 315 1253 L 542 1530 L 599 1530 Z" unicode="" />
<glyph horiz-adv-x="1143" d="M 573 1069 C 645 1069 709 1055 766 1029 C 823 1002 871 965 911 917 C 951 869 981 812 1002 746 C 1023 680 1034 607 1034 528 C 1034 454 1023 384 1003 318 C 983 252 953 195 914 145 C 875 95 827 56 770 27 C 712 -1 647 -16 573 -16 C 501 -16 436 -2 379 23 C 321 49 273 86 233 134 C 193 182 162 239 141 306 C 119 372 109 446 109 528 C 109 603 119 673 139 739 C 159 805 189 862 229 911 C 269 960 317 999 375 1027 C 433 1055 499 1069 573 1069 Z M 573 1010 C 507 1010 450 997 401 972 C 352 947 311 913 278 870 C 244 826 219 775 203 717 C 186 658 178 595 178 528 C 178 458 186 394 203 335 C 220 275 245 224 279 181 C 312 137 353 103 402 79 C 451 55 508 43 573 43 C 638 43 695 55 744 81 C 793 107 834 142 867 186 C 899 230 924 282 940 341 C 956 399 965 462 965 528 C 965 596 956 659 939 718 C 922 777 897 828 864 871 C 831 914 790 948 742 973 C 693 997 637 1010 573 1010 Z M 328 1370 C 354 1395 377 1412 396 1421 C 415 1429 434 1434 453 1434 C 474 1434 493 1429 510 1421 C 527 1413 546 1398 568 1378 L 637 1315 C 649 1304 661 1295 673 1289 C 684 1283 696 1280 709 1280 C 722 1280 736 1283 751 1291 C 765 1299 784 1314 807 1337 L 865 1393 L 906 1366 L 828 1288 C 802 1262 780 1245 760 1237 C 740 1229 721 1225 703 1225 C 682 1225 663 1229 646 1237 C 628 1245 609 1259 588 1280 L 521 1343 C 508 1353 495 1362 483 1368 C 471 1374 459 1378 447 1378 C 433 1378 419 1374 405 1366 C 390 1358 371 1343 349 1321 L 291 1266 L 250 1292 L 328 1370 Z" unicode="" />
<glyph horiz-adv-x="1143" d="M 573 1069 C 645 1069 709 1055 766 1029 C 823 1002 871 965 911 917 C 951 869 981 812 1002 746 C 1023 680 1034 607 1034 528 C 1034 454 1023 384 1003 318 C 983 252 953 195 914 145 C 875 95 827 56 770 27 C 712 -1 647 -16 573 -16 C 501 -16 436 -2 379 23 C 321 49 273 86 233 134 C 193 182 162 239 141 306 C 119 372 109 446 109 528 C 109 603 119 673 139 739 C 159 805 189 862 229 911 C 269 960 317 999 375 1027 C 433 1055 499 1069 573 1069 Z M 573 1010 C 507 1010 450 997 401 972 C 352 947 311 913 278 870 C 244 826 219 775 203 717 C 186 658 178 595 178 528 C 178 458 186 394 203 335 C 220 275 245 224 279 181 C 312 137 353 103 402 79 C 451 55 508 43 573 43 C 638 43 695 55 744 81 C 793 107 834 142 867 186 C 899 230 924 282 940 341 C 956 399 965 462 965 528 C 965 596 956 659 939 718 C 922 777 897 828 864 871 C 831 914 790 948 742 973 C 693 997 637 1010 573 1010 Z M 396 1446 L 396 1272 L 322 1272 L 322 1446 L 396 1446 Z M 826 1446 L 826 1272 L 752 1272 L 752 1446 L 826 1446 Z" unicode="" />
<glyph horiz-adv-x="1167" d="M 1061 602 L 1061 541 L 106 541 L 106 602 L 1061 602 Z M 629 213 L 629 0 L 541 0 L 541 213 L 629 213 Z M 629 1141 L 629 926 L 541 926 L 541 1141 L 629 1141 Z" unicode="" />
<glyph horiz-adv-x="1143" d="M 926 1171 L 834 989 C 898 943 948 880 982 800 C 1016 720 1034 630 1034 528 C 1034 454 1023 384 1003 318 C 983 252 953 195 914 145 C 875 95 827 56 770 27 C 712 -1 647 -16 573 -16 C 491 -16 419 0 356 33 L 272 -137 L 217 -137 L 315 57 C 248 102 197 165 162 246 C 126 326 109 420 109 528 C 109 603 119 673 139 739 C 159 805 189 862 229 911 C 269 960 317 999 375 1027 C 433 1055 499 1069 573 1069 C 655 1069 728 1051 793 1016 L 868 1171 L 926 1171 Z M 573 1010 C 507 1010 450 997 401 972 C 352 947 311 913 278 870 C 244 826 219 775 203 717 C 186 658 178 595 178 528 C 178 438 191 358 218 288 C 245 217 286 161 340 119 L 764 961 C 737 976 708 988 676 997 C 644 1005 610 1010 573 1010 Z M 965 528 C 965 614 951 692 924 763 C 896 833 857 890 805 932 L 383 90 C 436 58 499 43 573 43 C 638 43 695 55 744 81 C 793 107 834 142 867 186 C 899 230 924 282 940 341 C 956 399 965 462 965 528 Z" unicode="" />
<glyph horiz-adv-x="1133" d="M 231 1053 L 231 369 C 231 261 257 181 309 129 C 335 102 368 81 408 66 C 447 50 493 43 545 43 C 583 43 618 47 650 56 C 682 64 711 75 737 89 C 763 103 785 118 805 136 C 825 153 841 170 855 187 C 868 204 878 220 885 235 C 891 250 895 262 895 272 L 895 1053 L 963 1053 L 963 0 L 897 0 L 897 184 C 879 151 856 122 830 97 C 804 72 775 51 743 35 C 711 18 678 5 642 -3 C 606 -11 571 -16 535 -16 C 475 -16 421 -7 375 11 C 329 29 290 54 258 86 C 226 118 202 157 187 204 C 171 251 164 309 164 377 L 164 1053 L 231 1053 Z M 416 1530 L 662 1255 L 662 1231 L 629 1231 L 346 1499 L 346 1530 L 416 1530 Z" unicode="" />
<glyph horiz-adv-x="1133" d="M 231 1053 L 231 369 C 231 261 257 181 309 129 C 335 102 368 81 408 66 C 447 50 493 43 545 43 C 583 43 618 47 650 56 C 682 64 711 75 737 89 C 763 103 785 118 805 136 C 825 153 841 170 855 187 C 868 204 878 220 885 235 C 891 250 895 262 895 272 L 895 1053 L 963 1053 L 963 0 L 897 0 L 897 184 C 879 151 856 122 830 97 C 804 72 775 51 743 35 C 711 18 678 5 642 -3 C 606 -11 571 -16 535 -16 C 475 -16 421 -7 375 11 C 329 29 290 54 258 86 C 226 118 202 157 187 204 C 171 251 164 309 164 377 L 164 1053 L 231 1053 Z M 821 1530 L 821 1499 L 537 1231 L 504 1231 L 504 1255 L 750 1530 L 821 1530 Z" unicode="" />
<glyph horiz-adv-x="1133" d="M 231 1053 L 231 369 C 231 261 257 181 309 129 C 335 102 368 81 408 66 C 447 50 493 43 545 43 C 583 43 618 47 650 56 C 682 64 711 75 737 89 C 763 103 785 118 805 136 C 825 153 841 170 855 187 C 868 204 878 220 885 235 C 891 250 895 262 895 272 L 895 1053 L 963 1053 L 963 0 L 897 0 L 897 184 C 879 151 856 122 830 97 C 804 72 775 51 743 35 C 711 18 678 5 642 -3 C 606 -11 571 -16 535 -16 C 475 -16 421 -7 375 11 C 329 29 290 54 258 86 C 226 118 202 157 187 204 C 171 251 164 309 164 377 L 164 1053 L 231 1053 Z M 610 1530 L 842 1253 L 842 1231 L 803 1231 L 586 1473 L 580 1473 L 363 1231 L 326 1231 L 326 1253 L 553 1530 L 610 1530 Z" unicode="" />
<glyph horiz-adv-x="1133" d="M 231 1053 L 231 369 C 231 261 257 181 309 129 C 335 102 368 81 408 66 C 447 50 493 43 545 43 C 583 43 618 47 650 56 C 682 64 711 75 737 89 C 763 103 785 118 805 136 C 825 153 841 170 855 187 C 868 204 878 220 885 235 C 891 250 895 262 895 272 L 895 1053 L 963 1053 L 963 0 L 897 0 L 897 184 C 879 151 856 122 830 97 C 804 72 775 51 743 35 C 711 18 678 5 642 -3 C 606 -11 571 -16 535 -16 C 475 -16 421 -7 375 11 C 329 29 290 54 258 86 C 226 118 202 157 187 204 C 171 251 164 309 164 377 L 164 1053 L 231 1053 Z M 406 1446 L 406 1272 L 332 1272 L 332 1446 L 406 1446 Z M 836 1446 L 836 1272 L 762 1272 L 762 1446 L 836 1446 Z" unicode="" />
<glyph horiz-adv-x="879" d="M 82 1053 L 426 127 L 440 72 L 446 72 L 463 127 L 791 1053 L 866 1053 L 426 -152 C 412 -190 396 -228 380 -264 C 363 -300 344 -333 322 -361 C 300 -389 274 -412 246 -429 C 218 -446 185 -455 147 -455 C 127 -455 114 -452 106 -446 L 100 -397 C 139 -397 172 -391 200 -379 C 227 -367 250 -350 270 -328 C 289 -306 305 -281 319 -252 C 333 -222 346 -190 358 -156 L 410 -16 L 6 1053 L 82 1053 Z M 679 1530 L 679 1499 L 395 1231 L 362 1231 L 362 1255 L 608 1530 L 679 1530 Z" unicode="" />
<glyph horiz-adv-x="1151" d="M 252 1507 L 252 874 C 296 938 347 986 406 1019 C 464 1052 533 1069 612 1069 C 688 1069 754 1054 809 1026 C 863 998 908 960 942 912 C 976 864 1002 807 1018 743 C 1034 679 1042 611 1042 539 C 1042 498 1039 456 1034 412 C 1028 368 1019 326 1006 285 C 993 244 976 205 955 169 C 933 132 906 100 874 73 C 842 45 804 24 760 8 C 716 -8 665 -16 608 -16 C 573 -16 538 -12 504 -6 C 470 0 437 10 406 25 C 375 39 346 59 320 83 C 293 107 270 136 252 172 L 252 -451 L 184 -451 L 184 1507 L 252 1507 Z M 604 1010 C 564 1010 528 1005 496 996 C 463 986 434 974 408 959 C 382 944 359 927 340 909 C 320 891 304 873 291 856 C 278 838 268 822 262 808 C 255 793 252 782 252 774 L 252 276 C 252 268 254 256 260 242 C 265 227 273 211 285 194 C 297 176 312 159 330 141 C 348 123 369 106 394 92 C 419 78 448 66 480 57 C 512 47 549 43 590 43 C 642 43 687 49 726 63 C 765 77 799 95 828 119 C 856 143 880 171 899 203 C 917 235 932 269 944 305 C 955 341 963 379 968 418 C 972 457 975 496 975 535 C 975 597 968 656 956 714 C 944 771 923 822 895 866 C 866 910 828 945 780 971 C 732 997 674 1010 604 1010 Z" unicode="" />
<glyph horiz-adv-x="879" d="M 82 1053 L 426 127 L 440 72 L 446 72 L 463 127 L 791 1053 L 866 1053 L 426 -152 C 412 -190 396 -228 380 -264 C 363 -300 344 -333 322 -361 C 300 -389 274 -412 246 -429 C 218 -446 185 -455 147 -455 C 127 -455 114 -452 106 -446 L 100 -397 C 139 -397 172 -391 200 -379 C 227 -367 250 -350 270 -328 C 289 -306 305 -281 319 -252 C 333 -222 346 -190 358 -156 L 410 -16 L 6 1053 L 82 1053 Z M 264 1446 L 264 1272 L 190 1272 L 190 1446 L 264 1446 Z M 694 1446 L 694 1272 L 620 1272 L 620 1446 L 694 1446 Z" unicode="" />
<glyph horiz-adv-x="436" d="M 252 1053 L 252 0 L 184 0 L 184 1053 L 252 1053 Z" unicode="" />
<glyph horiz-adv-x="1102" d="M 55 553 L 246 694 L 246 1446 L 317 1446 L 317 748 L 729 1057 L 729 987 L 317 678 L 317 59 L 1085 59 L 1085 0 L 246 0 L 246 625 L 55 483 L 55 553 Z" unicode="" />
<glyph horiz-adv-x="461" d="M 43 629 L 197 743 L 197 1507 L 264 1507 L 264 795 L 420 911 L 420 842 L 264 723 L 264 0 L 197 0 L 197 672 L 43 557 L 43 629 Z" unicode="" />
<glyph horiz-adv-x="2451" d="M 2292 1446 L 2292 1386 L 1421 1386 L 1421 784 L 2200 784 L 2200 725 L 1421 725 L 1421 59 L 2312 59 L 2312 0 L 1350 0 L 1350 414 C 1329 340 1300 276 1262 222 C 1224 168 1179 123 1129 87 C 1078 51 1022 24 961 6 C 900 -11 836 -20 770 -20 C 678 -20 593 -4 514 27 C 434 58 365 105 307 167 C 248 229 202 307 168 400 C 134 493 117 601 117 725 C 117 849 133 957 167 1050 C 201 1143 247 1220 306 1282 C 364 1344 433 1390 513 1421 C 592 1452 678 1468 770 1468 C 836 1468 900 1459 961 1441 C 1021 1423 1077 1397 1128 1361 C 1178 1325 1223 1280 1261 1226 C 1299 1172 1328 1108 1350 1034 L 1350 1446 L 2292 1446 Z M 770 1409 C 684 1409 605 1393 534 1363 C 462 1333 401 1289 350 1231 C 299 1173 260 1101 232 1016 C 204 931 190 834 190 725 C 190 617 204 521 232 437 C 260 352 299 280 350 221 C 401 162 462 117 533 86 C 604 54 683 39 770 39 C 856 39 934 54 1006 84 C 1077 114 1138 158 1190 216 C 1241 274 1281 345 1309 431 C 1337 516 1352 614 1352 725 C 1352 833 1338 929 1310 1014 C 1282 1098 1242 1170 1191 1229 C 1140 1287 1079 1332 1007 1363 C 935 1393 856 1409 770 1409 Z" unicode="" />
<glyph horiz-adv-x="1970" d="M 573 1069 C 628 1069 679 1060 727 1043 C 774 1025 816 1000 853 968 C 889 936 920 897 945 852 C 970 806 988 756 999 700 C 1011 756 1031 806 1057 852 C 1083 897 1116 936 1154 968 C 1192 1000 1235 1025 1284 1043 C 1333 1060 1386 1069 1444 1069 C 1512 1069 1573 1057 1626 1035 C 1678 1013 1723 981 1759 941 C 1795 901 1822 853 1840 797 C 1858 741 1868 680 1868 614 C 1868 602 1867 591 1866 580 C 1865 569 1864 552 1862 530 L 1032 530 C 1030 459 1038 394 1054 335 C 1070 275 1096 224 1132 181 C 1168 137 1213 103 1269 79 C 1324 55 1390 43 1468 43 C 1537 43 1599 53 1654 74 C 1708 95 1760 124 1810 162 L 1837 106 C 1785 66 1730 36 1671 15 C 1611 -5 1544 -16 1468 -16 C 1400 -16 1340 -7 1287 9 C 1233 26 1187 50 1148 81 C 1108 112 1076 149 1050 193 C 1024 236 1006 284 995 338 C 983 286 964 239 940 196 C 916 152 886 115 850 84 C 814 52 772 28 726 10 C 679 -7 628 -16 573 -16 C 501 -16 436 -2 379 23 C 321 49 273 86 233 134 C 193 182 162 239 141 306 C 119 372 109 446 109 528 C 109 603 119 673 139 739 C 159 805 189 862 229 911 C 269 960 317 999 375 1027 C 433 1055 499 1069 573 1069 Z M 1442 1012 C 1383 1012 1330 1001 1282 981 C 1234 961 1193 932 1158 895 C 1123 858 1095 813 1074 761 C 1053 709 1040 650 1034 586 L 1796 586 C 1800 646 1796 702 1782 754 C 1768 806 1746 851 1716 889 C 1686 927 1647 957 1601 979 C 1555 1001 1502 1012 1442 1012 Z M 573 1010 C 507 1010 450 997 401 972 C 352 947 311 913 278 870 C 244 826 219 775 203 717 C 186 658 178 595 178 528 C 178 458 186 394 203 335 C 220 275 245 224 279 181 C 312 137 353 103 402 79 C 451 55 508 43 573 43 C 638 43 695 55 744 81 C 793 107 834 142 867 186 C 899 230 924 282 940 341 C 956 399 965 462 965 528 C 965 596 956 659 939 718 C 922 777 897 828 864 871 C 831 914 790 948 742 973 C 693 997 637 1010 573 1010 Z" unicode="" />
<glyph horiz-adv-x="1108" d="M 940 1339 C 890 1357 834 1374 774 1388 C 713 1402 648 1409 580 1409 C 522 1409 470 1403 422 1391 C 374 1379 332 1360 297 1336 C 262 1312 235 1281 215 1243 C 195 1205 186 1161 186 1110 C 186 1071 191 1037 202 1008 C 213 979 228 954 248 932 C 267 910 289 892 314 876 C 339 860 366 847 395 836 C 423 824 452 814 482 806 C 512 797 541 789 569 782 C 633 764 693 745 750 723 C 807 701 857 674 899 642 C 941 610 975 571 1000 526 C 1025 481 1038 427 1038 365 C 1038 305 1026 251 1003 203 C 979 154 945 112 901 78 C 857 43 802 16 738 -2 C 674 -21 600 -31 518 -31 C 483 -31 447 -29 410 -26 C 372 -23 335 -18 299 -12 C 262 -6 226 2 191 12 C 156 22 124 35 94 49 L 111 111 C 139 97 171 85 205 75 C 239 65 274 56 310 49 C 346 42 382 37 418 34 C 454 30 490 29 524 29 C 590 29 650 36 704 50 C 758 64 805 85 844 113 C 883 140 913 174 935 214 C 956 254 967 300 967 352 C 967 408 954 457 930 497 C 906 537 874 571 834 599 C 794 627 749 650 699 668 C 648 686 597 703 545 717 C 515 725 484 733 452 742 C 419 751 387 762 355 776 C 323 789 293 805 264 823 C 234 841 209 863 187 889 C 165 915 147 945 134 979 C 121 1013 115 1054 115 1100 C 115 1160 126 1214 149 1260 C 171 1306 203 1344 245 1375 C 286 1405 335 1428 393 1444 C 450 1460 514 1468 584 1468 C 658 1468 726 1461 787 1447 C 848 1433 904 1418 956 1401 L 940 1339 Z M 520 1604 L 293 1880 L 293 1903 L 330 1903 L 547 1661 L 553 1661 L 770 1903 L 809 1903 L 809 1880 L 577 1604 L 520 1604 Z" unicode="" />
<glyph horiz-adv-x="889" d="M 115 90 C 126 83 142 76 164 68 C 185 60 209 53 237 47 C 264 41 293 35 325 31 C 356 27 387 25 418 25 C 460 25 501 29 539 38 C 577 47 610 61 639 81 C 667 100 690 124 707 154 C 724 183 733 218 733 260 C 733 299 725 332 709 359 C 693 385 670 408 642 428 C 613 447 579 464 539 478 C 499 492 454 507 406 522 C 372 532 339 544 305 559 C 271 573 241 592 214 614 C 187 636 165 663 148 695 C 131 727 123 765 123 809 C 123 851 131 889 147 921 C 163 953 186 981 216 1003 C 246 1025 282 1041 324 1052 C 366 1063 413 1069 465 1069 C 488 1069 512 1067 538 1065 C 564 1063 589 1059 614 1055 C 638 1050 662 1044 684 1037 C 706 1030 727 1022 745 1014 L 729 954 C 691 971 649 985 601 997 C 553 1008 506 1014 461 1014 C 421 1014 384 1009 351 1001 C 317 993 288 980 264 964 C 240 948 221 927 208 902 C 194 877 188 848 188 815 C 188 781 194 751 207 726 C 220 701 238 679 262 661 C 286 643 314 627 348 613 C 381 599 418 585 459 573 C 499 561 539 548 579 534 C 619 520 656 502 689 480 C 722 458 749 430 770 396 C 790 362 801 320 801 268 C 801 216 790 171 770 134 C 749 96 721 65 686 41 C 651 16 611 -1 565 -13 C 519 -25 470 -31 420 -31 C 386 -31 352 -28 318 -24 C 284 -19 252 -13 223 -7 C 193 -1 168 5 146 13 C 124 20 109 27 100 33 L 115 90 Z M 418 1231 L 191 1507 L 191 1530 L 228 1530 L 445 1288 L 451 1288 L 668 1530 L 707 1530 L 707 1507 L 475 1231 L 418 1231 Z" unicode="" />
<glyph horiz-adv-x="1116" d="M 111 1446 L 561 604 L 1012 1446 L 1092 1446 L 594 537 L 594 0 L 522 0 L 522 537 L 25 1446 L 111 1446 Z M 383 1819 L 383 1645 L 309 1645 L 309 1819 L 383 1819 Z M 813 1819 L 813 1645 L 739 1645 L 739 1819 L 813 1819 Z" unicode="" />
<glyph horiz-adv-x="1260" d="M 1153 1446 L 1153 1393 L 186 59 L 1163 59 L 1163 0 L 96 0 L 96 53 L 1063 1386 L 170 1386 L 170 1446 L 1153 1446 Z M 610 1604 L 383 1880 L 383 1903 L 420 1903 L 637 1661 L 643 1661 L 860 1903 L 899 1903 L 899 1880 L 667 1604 L 610 1604 Z" unicode="" />
<glyph horiz-adv-x="907" d="M 823 1053 L 823 1008 L 158 53 L 840 53 L 840 0 L 76 0 L 76 47 L 741 999 L 125 999 L 125 1053 L 823 1053 Z M 446 1231 L 219 1507 L 219 1530 L 256 1530 L 473 1288 L 479 1288 L 696 1530 L 735 1530 L 735 1507 L 503 1231 L 446 1231 Z" unicode="" />
<glyph horiz-adv-x="1237" d="M 633 768 L 700 1155 C 708 1197 720 1237 738 1273 C 756 1309 778 1341 804 1368 C 830 1394 860 1415 894 1431 C 928 1446 965 1454 1006 1454 C 1024 1454 1040 1453 1055 1451 C 1069 1449 1079 1446 1083 1442 L 1063 1389 C 1060 1389 1056 1390 1051 1391 C 1046 1392 1041 1393 1035 1394 C 1029 1395 1023 1396 1017 1396 C 1011 1396 1005 1397 1001 1397 C 969 1397 940 1391 914 1379 C 888 1367 866 1351 847 1330 C 827 1308 811 1283 798 1254 C 785 1224 776 1192 770 1157 L 700 768 L 1047 768 L 1047 713 L 692 713 L 535 -180 C 527 -222 515 -262 498 -298 C 480 -334 458 -366 432 -393 C 406 -419 375 -440 341 -456 C 307 -471 269 -479 229 -479 C 211 -479 196 -478 182 -476 C 168 -474 159 -472 154 -469 L 176 -416 C 178 -416 181 -417 186 -418 C 190 -418 196 -419 202 -420 C 208 -420 214 -421 220 -421 C 226 -421 231 -422 236 -422 C 266 -422 294 -416 320 -405 C 346 -393 368 -377 388 -356 C 407 -335 423 -310 436 -281 C 449 -251 459 -219 465 -184 L 623 713 L 330 713 L 330 768 L 633 768 Z" unicode="" />
<glyph horiz-adv-x="385" d="M 55 954 L 279 1446 L 342 1446 L 143 954 L 55 954 Z" unicode="" />
<glyph horiz-adv-x="840" d="M 446 1530 L 678 1253 L 678 1231 L 639 1231 L 422 1473 L 416 1473 L 199 1231 L 162 1231 L 162 1253 L 389 1530 L 446 1530 Z" unicode="" />
<glyph horiz-adv-x="840" d="M 389 1231 L 162 1507 L 162 1530 L 199 1530 L 416 1288 L 422 1288 L 639 1530 L 678 1530 L 678 1507 L 446 1231 L 389 1231 Z" unicode="" />
<glyph horiz-adv-x="840" d="M 676 1343 L 676 1286 L 164 1286 L 164 1343 L 676 1343 Z" unicode="" />
<glyph horiz-adv-x="840" d="M 203 1530 L 203 1491 C 203 1459 207 1430 216 1403 C 224 1375 237 1351 255 1331 C 273 1311 295 1295 323 1283 C 350 1271 382 1266 420 1266 C 458 1266 490 1272 518 1284 C 545 1296 568 1313 586 1334 C 604 1355 617 1379 626 1406 C 634 1433 639 1461 639 1491 L 639 1530 L 686 1530 L 686 1483 C 686 1447 680 1412 669 1380 C 657 1347 641 1318 619 1294 C 597 1270 569 1250 536 1236 C 502 1221 464 1214 420 1214 C 376 1214 338 1221 306 1235 C 273 1249 246 1268 224 1292 C 202 1316 185 1345 174 1378 C 163 1410 158 1445 158 1483 L 158 1530 L 203 1530 Z" unicode="" />
<glyph horiz-adv-x="840" d="M 459 1446 L 459 1260 L 381 1260 L 381 1446 L 459 1446 Z" unicode="" />
<glyph horiz-adv-x="840" d="M 205 1434 C 205 1462 210 1489 222 1514 C 233 1539 248 1561 268 1580 C 287 1599 310 1614 337 1625 C 363 1636 392 1642 422 1642 C 452 1642 480 1636 506 1625 C 532 1614 555 1599 575 1580 C 594 1561 609 1539 620 1514 C 631 1489 637 1462 637 1434 C 637 1405 631 1378 620 1353 C 609 1328 594 1306 575 1288 C 555 1270 532 1255 506 1245 C 480 1234 452 1229 422 1229 C 392 1229 363 1234 337 1245 C 310 1255 287 1270 268 1288 C 248 1306 233 1328 222 1353 C 210 1378 205 1405 205 1434 Z M 252 1434 C 252 1411 256 1390 265 1370 C 274 1350 286 1332 302 1318 C 317 1303 335 1291 356 1283 C 376 1274 398 1270 422 1270 C 445 1270 467 1274 488 1283 C 508 1291 526 1303 541 1318 C 556 1332 568 1350 577 1370 C 585 1390 590 1411 590 1434 C 590 1456 585 1478 577 1499 C 568 1519 556 1537 541 1552 C 526 1567 508 1579 488 1588 C 467 1597 445 1602 422 1602 C 398 1602 376 1597 356 1588 C 335 1579 317 1567 302 1552 C 286 1537 274 1519 265 1499 C 256 1478 252 1456 252 1434 Z" unicode="" />
<glyph horiz-adv-x="840" d="M 590 2 L 590 -2 L 463 -104 C 441 -120 423 -134 408 -147 C 392 -160 380 -173 370 -185 C 360 -197 352 -210 347 -224 C 342 -237 340 -252 340 -268 C 340 -309 353 -341 381 -363 C 409 -385 445 -397 489 -397 C 512 -397 535 -394 559 -389 C 583 -384 602 -378 618 -371 L 631 -422 C 614 -431 593 -438 568 -443 C 543 -448 517 -451 489 -451 C 422 -451 370 -434 334 -402 C 297 -370 279 -326 279 -270 C 279 -249 282 -230 288 -213 C 294 -196 302 -180 314 -164 C 326 -148 340 -133 357 -118 C 374 -103 394 -88 416 -72 C 426 -64 435 -57 443 -51 C 451 -45 459 -40 467 -35 C 475 -29 483 -24 491 -18 C 499 -12 508 -6 518 2 L 590 2 Z" unicode="" />
<glyph horiz-adv-x="840" d="M 174 1370 C 200 1395 223 1412 242 1421 C 261 1429 280 1434 299 1434 C 320 1434 339 1429 356 1421 C 373 1413 392 1398 414 1378 L 483 1315 C 495 1304 507 1295 519 1289 C 530 1283 542 1280 555 1280 C 568 1280 582 1283 597 1291 C 611 1299 630 1314 653 1337 L 711 1393 L 752 1366 L 674 1288 C 648 1262 626 1245 606 1237 C 586 1229 567 1225 549 1225 C 528 1225 509 1229 492 1237 C 474 1245 455 1259 434 1280 L 367 1343 C 354 1353 341 1362 329 1368 C 317 1374 305 1378 293 1378 C 279 1378 265 1374 251 1366 C 236 1358 217 1343 195 1321 L 137 1266 L 96 1292 L 174 1370 Z" unicode="" />
<glyph horiz-adv-x="840" d="M 455 1530 L 455 1499 L 254 1231 L 221 1231 L 221 1255 L 393 1530 L 455 1530 Z M 768 1530 L 768 1499 L 559 1231 L 526 1231 L 526 1255 L 705 1530 L 768 1530 Z" unicode="" />
<glyph horiz-adv-x="1311" d="M 707 1446 L 1208 59 L 1208 0 L 96 0 L 96 57 L 604 1446 L 707 1446 Z M 625 1300 L 172 61 L 1133 61 L 686 1300 L 659 1382 L 651 1382 L 625 1300 Z" unicode="" />
<glyph horiz-adv-x="1585" d="M 164 63 L 475 63 L 528 59 L 528 66 C 476 102 427 140 380 182 C 333 224 292 271 257 323 C 221 375 193 434 172 500 C 151 566 141 641 141 725 C 141 849 157 957 191 1050 C 225 1143 271 1220 330 1282 C 388 1344 457 1390 537 1421 C 616 1452 701 1468 793 1468 C 883 1468 968 1452 1048 1421 C 1128 1390 1197 1344 1256 1282 C 1314 1220 1361 1143 1395 1050 C 1429 957 1446 849 1446 725 C 1446 641 1435 566 1414 500 C 1393 434 1365 375 1330 323 C 1294 271 1253 224 1207 182 C 1160 140 1111 102 1059 66 L 1059 59 L 1112 63 L 1423 63 L 1423 0 L 932 0 L 932 49 C 994 81 1053 119 1107 163 C 1161 206 1207 255 1246 311 C 1285 366 1316 428 1338 497 C 1360 565 1372 641 1372 725 C 1372 834 1357 931 1329 1016 C 1301 1101 1261 1173 1210 1231 C 1159 1289 1098 1333 1027 1363 C 956 1393 878 1409 793 1409 C 707 1409 629 1393 558 1363 C 487 1333 426 1289 375 1231 C 324 1173 285 1101 257 1016 C 229 931 215 834 215 725 C 215 641 226 565 248 497 C 270 428 301 366 340 311 C 379 255 425 206 479 163 C 533 119 591 81 655 49 L 655 0 L 164 0 L 164 63 Z" unicode="" />
<glyph horiz-adv-x="1196" d="M 918 184 C 900 151 877 122 851 97 C 825 72 796 51 764 35 C 732 18 698 5 662 -3 C 626 -11 591 -16 555 -16 C 523 -16 491 -12 460 -5 C 429 1 400 12 374 26 C 347 40 323 58 302 80 C 281 102 264 128 252 158 L 248 154 L 254 10 L 254 -451 L 184 -451 L 184 1053 L 252 1053 L 252 322 C 252 290 258 257 270 224 C 282 190 300 160 326 134 C 352 107 384 85 424 68 C 463 51 510 43 565 43 C 603 43 639 47 671 56 C 703 64 732 75 758 89 C 784 103 806 118 826 136 C 846 153 862 170 875 187 C 888 204 898 220 905 235 C 911 250 915 262 915 272 L 915 1053 L 983 1053 L 983 246 C 983 182 989 130 1002 90 C 1015 49 1028 19 1040 0 L 971 0 C 966 6 961 16 955 28 C 949 40 943 54 938 70 C 932 86 928 103 924 123 C 920 142 918 162 918 184 Z" unicode="" />
<glyph horiz-adv-x="1210" d="M 848 981 L 354 981 L 354 0 L 285 0 L 285 981 L 127 981 L 127 1053 L 1063 1053 L 1063 981 L 915 981 L 915 274 C 915 203 921 145 933 101 C 945 56 958 22 971 0 L 893 0 C 885 20 875 51 864 93 C 853 135 848 188 848 254 L 848 981 Z" unicode="" />
<glyph horiz-adv-x="78" d="" unicode="" />
<glyph horiz-adv-x="629" d="M 535 606 L 535 541 L 94 541 L 94 606 L 535 606 Z" unicode="" />
<glyph horiz-adv-x="629" d="M 535 606 L 535 541 L 94 541 L 94 606 L 535 606 Z" unicode="" />
<glyph horiz-adv-x="1167" d="M 1085 598 L 1085 545 L 82 545 L 82 598 L 1085 598 Z" unicode="" />
<glyph horiz-adv-x="2048" d="M 1966 598 L 1966 545 L 82 545 L 82 598 L 1966 598 Z" unicode="" />
<glyph horiz-adv-x="385" d="M 55 954 L 279 1446 L 342 1446 L 143 954 L 55 954 Z" unicode="" />
<glyph horiz-adv-x="385" d="M 330 1446 L 106 954 L 43 954 L 242 1446 L 330 1446 Z" unicode="" />
<glyph horiz-adv-x="385" d="M 336 219 L 113 -272 L 49 -272 L 248 219 L 336 219 Z" unicode="" />
<glyph horiz-adv-x="700" d="M 373 954 L 596 1446 L 659 1446 L 461 954 L 373 954 Z M 55 954 L 279 1446 L 342 1446 L 143 954 L 55 954 Z" unicode="" />
<glyph horiz-adv-x="700" d="M 330 1446 L 106 954 L 43 954 L 242 1446 L 330 1446 Z M 645 1446 L 424 954 L 360 954 L 559 1446 L 645 1446 Z" unicode="" />
<glyph horiz-adv-x="700" d="M 336 219 L 113 -272 L 49 -272 L 248 219 L 336 219 Z M 651 219 L 430 -272 L 367 -272 L 563 219 L 651 219 Z" unicode="" />
<glyph horiz-adv-x="897" d="M 483 1415 L 483 1368 L 465 1124 L 471 1120 L 690 1137 L 737 1137 L 737 1069 L 690 1069 L 471 1087 L 465 1081 L 483 362 L 483 315 L 416 315 L 416 362 L 434 1081 L 428 1087 L 205 1069 L 158 1069 L 158 1137 L 205 1137 L 428 1120 L 434 1124 L 416 1368 L 416 1415 L 483 1415 Z" unicode="" />
<glyph horiz-adv-x="897" d="M 483 1415 L 483 1368 L 465 1124 L 471 1118 L 690 1137 L 737 1137 L 737 1069 L 690 1069 L 471 1090 L 465 1077 L 485 901 L 485 831 L 465 655 L 471 643 L 690 662 L 737 662 L 737 594 L 690 594 L 471 614 L 465 608 L 483 362 L 483 315 L 416 315 L 416 362 L 434 608 L 428 614 L 205 594 L 158 594 L 158 662 L 205 662 L 428 643 L 434 655 L 416 831 L 416 899 L 436 1079 L 428 1090 L 205 1069 L 158 1069 L 158 1137 L 205 1137 L 428 1118 L 436 1124 L 416 1368 L 416 1415 L 483 1415 Z" unicode="" />
<glyph horiz-adv-x="598" d="M 299 776 C 329 776 357 771 382 762 C 406 752 427 739 445 722 C 463 704 476 683 486 659 C 495 635 500 608 500 578 C 500 548 495 520 486 496 C 476 471 463 450 445 433 C 427 415 406 402 382 393 C 357 383 329 379 299 379 C 269 379 241 383 217 393 C 192 402 171 415 154 433 C 136 450 123 471 114 496 C 104 520 100 548 100 578 C 100 608 104 635 114 659 C 123 683 136 704 154 722 C 171 739 192 752 217 762 C 241 771 269 776 299 776 Z" unicode="" />
<glyph horiz-adv-x="2048" d="M 481 219 L 481 0 L 393 0 L 393 219 L 481 219 Z M 1069 219 L 1069 0 L 981 0 L 981 219 L 1069 219 Z M 1655 219 L 1655 0 L 1569 0 L 1569 219 L 1655 219 Z" unicode="" />
<glyph horiz-adv-x="2640" d="M 1366 1446 L 545 0 L 485 0 L 1307 1446 L 1366 1446 Z M 440 1458 C 502 1458 554 1447 597 1426 C 640 1404 675 1375 702 1339 C 729 1303 749 1260 761 1212 C 773 1164 780 1113 780 1059 C 780 993 772 934 758 882 C 744 830 722 786 694 750 C 666 714 630 686 588 667 C 546 648 496 639 440 639 C 376 639 322 651 279 675 C 235 699 201 730 175 769 C 149 808 130 853 119 903 C 107 953 102 1005 102 1057 C 102 1191 130 1292 187 1358 C 243 1424 328 1458 440 1458 Z M 440 1407 C 391 1407 349 1399 314 1383 C 279 1367 250 1344 228 1314 C 205 1284 188 1247 178 1204 C 167 1160 162 1111 162 1057 C 162 1014 166 971 174 928 C 182 884 197 845 218 810 C 239 774 268 745 304 723 C 340 701 385 690 440 690 C 490 690 532 699 568 717 C 603 735 632 761 655 794 C 677 826 694 865 705 910 C 715 955 721 1005 721 1059 C 721 1103 716 1147 707 1189 C 697 1231 682 1268 660 1300 C 638 1332 610 1358 574 1378 C 538 1397 493 1407 440 1407 Z M 1401 807 C 1463 807 1515 796 1558 775 C 1601 753 1636 724 1663 688 C 1690 652 1710 609 1722 561 C 1734 513 1741 462 1741 408 C 1741 342 1733 283 1719 231 C 1705 179 1683 135 1655 99 C 1627 63 1591 35 1549 16 C 1506 -2 1457 -12 1401 -12 C 1337 -12 1283 0 1240 24 C 1196 48 1162 79 1136 118 C 1110 157 1091 202 1080 252 C 1068 302 1063 354 1063 406 C 1063 540 1091 641 1148 707 C 1204 773 1289 807 1401 807 Z M 1401 756 C 1352 756 1310 748 1275 732 C 1239 716 1210 693 1188 663 C 1165 633 1148 596 1138 553 C 1127 509 1122 460 1122 406 C 1122 363 1126 320 1135 277 C 1143 233 1158 194 1179 159 C 1200 123 1229 94 1265 72 C 1301 50 1346 39 1401 39 C 1449 39 1491 48 1527 66 C 1562 84 1591 110 1614 143 C 1637 175 1654 214 1665 259 C 1675 304 1681 354 1681 408 C 1681 452 1676 496 1667 538 C 1657 580 1642 617 1620 649 C 1598 681 1570 707 1534 727 C 1498 746 1454 756 1401 756 Z M 2198 819 C 2260 819 2312 808 2355 787 C 2398 765 2433 736 2460 700 C 2487 664 2507 621 2519 573 C 2531 525 2537 474 2537 420 C 2537 353 2529 293 2515 241 C 2501 189 2479 145 2451 109 C 2423 73 2387 45 2345 26 C 2303 7 2254 -2 2198 -2 C 2134 -2 2080 10 2037 34 C 1993 58 1959 89 1933 129 C 1907 169 1888 214 1877 264 C 1865 314 1860 366 1860 418 C 1860 685 1972 819 2198 819 Z M 2198 768 C 2149 768 2107 759 2072 743 C 2036 727 2007 703 1985 673 C 1962 643 1945 606 1935 563 C 1924 520 1919 472 1919 418 C 1919 374 1923 331 1932 287 C 1940 243 1955 203 1977 168 C 1998 132 2026 103 2062 81 C 2098 58 2143 47 2198 47 C 2247 47 2289 56 2325 74 C 2360 92 2389 118 2412 151 C 2434 183 2451 222 2462 268 C 2472 314 2478 364 2478 418 C 2478 463 2473 507 2464 549 C 2455 591 2440 629 2418 661 C 2396 693 2368 719 2332 739 C 2296 758 2252 768 2198 768 Z" unicode="" />
<glyph horiz-adv-x="545" d="M 414 887 L 113 580 L 414 268 L 340 268 L 59 555 L 59 602 L 338 887 L 414 887 Z" unicode="" />
<glyph horiz-adv-x="610" d="M 272 887 L 551 602 L 551 555 L 270 268 L 197 268 L 498 580 L 197 887 L 272 887 Z" unicode="" />
<glyph horiz-adv-x="297" d="M 567 1446 L -209 0 L -268 0 L 508 1446 L 567 1446 Z" unicode="" />
<glyph horiz-adv-x="780" d="M 389 1456 C 444 1456 490 1444 528 1421 C 566 1397 596 1366 620 1327 C 643 1288 660 1243 670 1192 C 680 1141 686 1088 686 1032 C 686 880 660 768 609 696 C 557 624 484 588 389 588 C 333 588 286 600 248 625 C 210 650 179 683 156 725 C 133 767 117 814 107 868 C 97 921 92 976 92 1032 C 92 1176 117 1283 168 1352 C 219 1421 293 1456 389 1456 Z M 389 1407 C 347 1407 312 1398 282 1380 C 252 1362 227 1337 208 1305 C 188 1273 174 1233 165 1187 C 156 1141 152 1089 152 1032 C 152 986 155 940 162 894 C 168 847 180 805 198 767 C 216 729 240 699 271 675 C 301 651 341 639 389 639 C 431 639 467 648 497 666 C 527 684 551 711 571 745 C 590 779 604 820 613 869 C 622 917 627 972 627 1032 C 627 1076 623 1121 616 1166 C 608 1211 596 1251 578 1287 C 560 1322 535 1351 505 1373 C 474 1395 435 1407 389 1407 Z" unicode="" />
<glyph horiz-adv-x="756" d="M 528 1446 L 528 850 L 729 850 L 729 803 L 528 803 L 528 598 L 469 598 L 469 803 L 59 803 L 59 860 L 467 1446 L 528 1446 Z M 106 850 L 469 850 L 469 1315 L 473 1368 L 469 1370 L 106 850 Z" unicode="" />
<glyph horiz-adv-x="745" d="M 174 627 C 236 627 293 631 345 641 C 396 651 440 667 477 689 C 514 711 543 739 563 775 C 583 811 594 855 594 907 C 594 933 590 959 584 984 C 577 1009 566 1031 551 1050 C 535 1069 515 1084 491 1096 C 466 1108 436 1114 401 1114 C 383 1114 365 1112 348 1109 C 330 1105 312 1099 293 1091 C 274 1083 254 1071 232 1057 C 210 1043 186 1025 160 1004 L 123 1020 L 152 1446 L 629 1446 L 627 1397 L 203 1397 L 178 1061 C 205 1082 229 1099 250 1113 C 271 1126 291 1136 309 1144 C 327 1151 344 1156 360 1159 C 376 1161 392 1163 410 1163 C 452 1163 488 1156 519 1143 C 549 1130 574 1112 594 1090 C 614 1067 628 1040 638 1009 C 648 978 653 945 653 909 C 653 845 640 791 616 748 C 591 705 557 671 515 645 C 472 619 421 600 363 589 C 305 578 242 573 176 573 C 152 573 135 574 127 578 L 123 629 C 130 627 138 627 147 627 C 155 627 164 627 174 627 Z" unicode="" />
<glyph horiz-adv-x="764" d="M 512 1475 C 552 1475 578 1472 590 1468 L 590 1419 C 582 1420 571 1421 555 1422 C 539 1422 525 1423 512 1423 C 404 1423 319 1388 259 1320 C 198 1251 162 1148 150 1012 C 164 1030 181 1046 201 1062 C 220 1077 241 1090 263 1102 C 285 1113 309 1122 333 1129 C 357 1135 382 1139 408 1139 C 448 1139 484 1132 517 1120 C 550 1108 578 1090 602 1067 C 626 1043 644 1015 658 982 C 671 948 678 911 678 870 C 678 824 670 783 656 748 C 642 712 622 683 596 659 C 570 635 540 616 505 604 C 469 592 431 586 389 586 C 345 586 304 592 268 605 C 231 617 199 638 173 666 C 147 694 126 730 112 774 C 97 818 90 871 90 934 C 90 1011 98 1083 114 1149 C 130 1215 155 1272 189 1320 C 223 1368 267 1406 321 1434 C 374 1461 438 1475 512 1475 Z M 154 961 C 150 951 148 942 148 934 C 147 925 147 915 147 905 C 147 865 152 828 162 795 C 172 762 187 734 207 710 C 227 686 253 667 283 654 C 313 641 349 635 391 635 C 425 635 455 640 483 650 C 511 660 535 674 555 694 C 575 714 590 738 601 767 C 612 795 618 828 618 866 C 618 936 598 991 558 1029 C 518 1067 463 1087 395 1087 C 369 1087 344 1083 320 1076 C 296 1069 273 1060 252 1048 C 231 1036 212 1023 196 1008 C 179 992 165 977 154 961 Z" unicode="" />
<glyph horiz-adv-x="684" d="M 641 1446 L 641 1401 C 629 1388 612 1370 592 1347 C 571 1323 548 1295 523 1261 C 498 1227 472 1187 445 1142 C 417 1097 391 1047 367 992 C 343 936 321 876 302 810 C 283 744 269 674 260 598 L 195 598 C 203 666 216 730 234 792 C 252 853 272 911 296 965 C 319 1019 344 1068 370 1114 C 396 1160 421 1201 447 1237 C 472 1273 496 1305 518 1332 C 540 1359 558 1381 573 1397 L 70 1397 L 70 1446 L 641 1446 Z" unicode="" />
<glyph horiz-adv-x="791" d="M 291 1047 C 274 1049 256 1055 236 1064 C 216 1072 198 1084 181 1100 C 164 1115 150 1134 138 1157 C 126 1179 121 1207 121 1239 C 121 1267 127 1294 139 1320 C 151 1346 168 1369 192 1389 C 215 1409 244 1425 278 1437 C 312 1449 351 1456 395 1456 C 438 1456 477 1449 511 1437 C 545 1425 573 1409 597 1389 C 621 1369 639 1346 651 1320 C 663 1294 670 1267 670 1239 C 670 1207 664 1179 652 1157 C 640 1134 626 1115 608 1100 C 590 1084 572 1072 552 1064 C 532 1055 514 1049 498 1047 L 498 1040 C 520 1036 543 1030 566 1021 C 589 1011 610 998 629 981 C 648 964 664 943 676 919 C 688 895 694 866 694 834 C 694 791 686 754 670 723 C 654 692 633 667 606 647 C 578 627 546 612 510 602 C 474 592 435 588 395 588 C 353 588 314 592 278 602 C 241 612 209 627 182 647 C 154 667 133 692 117 723 C 101 754 94 791 94 834 C 94 866 100 895 112 919 C 124 943 139 964 158 981 C 177 998 198 1011 222 1021 C 245 1030 268 1036 291 1040 L 291 1047 Z M 178 1235 C 178 1211 182 1189 191 1168 C 199 1147 213 1129 231 1113 C 249 1097 271 1085 299 1076 C 326 1067 358 1063 395 1063 C 431 1063 463 1067 490 1076 C 517 1085 540 1097 558 1113 C 576 1129 589 1147 598 1168 C 607 1189 612 1211 612 1235 C 612 1257 607 1279 597 1300 C 587 1320 573 1339 555 1355 C 536 1371 513 1383 486 1393 C 459 1402 429 1407 395 1407 C 360 1407 329 1402 302 1393 C 275 1383 252 1371 234 1355 C 216 1339 202 1320 192 1300 C 182 1279 178 1257 178 1235 Z M 395 637 C 431 637 463 641 493 649 C 522 657 547 670 568 687 C 589 703 605 724 617 749 C 629 774 635 803 635 836 C 635 860 630 884 621 906 C 612 928 598 948 579 964 C 560 980 535 993 505 1003 C 474 1013 437 1018 395 1018 C 351 1018 315 1013 285 1003 C 255 993 230 980 211 964 C 191 948 177 928 169 906 C 160 884 156 860 156 836 C 156 803 161 774 173 749 C 184 724 200 703 221 687 C 241 670 266 657 296 649 C 326 641 359 637 395 637 Z" unicode="" />
<glyph horiz-adv-x="764" d="M 254 573 C 234 573 218 573 204 574 C 190 575 181 577 176 580 L 176 629 C 183 627 195 626 211 626 C 227 625 241 625 254 625 C 363 625 448 659 508 728 C 568 796 604 899 616 1036 C 602 1018 585 1001 566 986 C 547 970 526 957 504 946 C 482 934 458 925 434 919 C 409 912 384 909 358 909 C 318 909 281 915 248 927 C 215 939 187 957 163 980 C 139 1003 121 1031 108 1064 C 94 1097 88 1134 88 1176 C 88 1222 95 1263 109 1299 C 123 1334 143 1364 169 1388 C 195 1412 225 1430 261 1442 C 296 1454 335 1460 377 1460 C 421 1460 461 1453 498 1441 C 535 1428 567 1408 593 1380 C 619 1352 640 1317 655 1273 C 670 1229 678 1176 678 1114 C 678 1036 669 964 653 898 C 636 832 610 775 576 727 C 542 679 498 641 445 614 C 391 586 328 573 254 573 Z M 614 1087 C 615 1096 616 1105 617 1114 C 617 1122 618 1132 618 1143 C 618 1182 613 1218 603 1251 C 593 1283 577 1311 557 1335 C 537 1359 511 1377 481 1391 C 450 1404 414 1411 373 1411 C 339 1411 309 1406 281 1396 C 253 1386 230 1371 210 1351 C 190 1331 174 1307 163 1279 C 152 1250 147 1217 147 1180 C 147 1144 152 1113 163 1086 C 173 1058 188 1035 208 1016 C 228 997 252 983 280 973 C 308 963 339 958 373 958 C 398 958 423 961 447 968 C 471 975 493 985 514 997 C 534 1009 553 1022 570 1038 C 587 1054 602 1070 614 1087 Z" unicode="" />
<glyph horiz-adv-x="418" d="M 356 395 C 326 415 296 444 264 482 C 232 519 203 563 176 613 C 149 663 127 718 110 779 C 92 840 84 905 84 975 C 84 1043 92 1107 110 1167 C 127 1227 149 1282 176 1332 C 203 1381 232 1424 264 1460 C 296 1496 326 1525 356 1546 L 395 1546 L 395 1534 C 365 1512 335 1483 305 1446 C 275 1408 247 1365 223 1317 C 199 1268 179 1214 164 1156 C 148 1098 141 1037 141 975 C 141 911 148 849 164 791 C 179 732 199 678 223 629 C 247 579 275 536 305 498 C 335 460 365 431 395 410 L 395 395 L 356 395 Z" unicode="" />
<glyph horiz-adv-x="418" d="M 23 395 L 23 410 C 52 431 82 460 112 498 C 142 536 169 579 193 629 C 217 678 237 732 253 791 C 268 849 276 911 276 975 C 276 1037 268 1098 253 1156 C 237 1214 217 1268 193 1317 C 169 1365 142 1408 112 1446 C 82 1483 52 1512 23 1534 L 23 1546 L 63 1546 C 91 1525 122 1496 154 1460 C 186 1424 215 1381 242 1332 C 268 1282 290 1227 308 1167 C 325 1107 334 1043 334 975 C 334 905 325 840 308 779 C 290 718 268 663 242 613 C 215 563 186 519 154 482 C 122 444 91 415 63 395 L 23 395 Z" unicode="" />
<glyph horiz-adv-x="895" d="M 709 645 L 709 1176 C 709 1216 704 1252 695 1282 C 686 1312 671 1336 651 1356 C 630 1375 605 1391 576 1403 C 546 1415 512 1421 473 1421 C 430 1421 392 1414 360 1400 C 327 1386 300 1369 278 1350 C 256 1330 239 1311 228 1291 C 216 1271 211 1256 211 1245 L 211 645 L 150 645 L 150 1456 L 207 1456 L 207 1317 C 237 1368 277 1407 327 1433 C 377 1459 429 1473 485 1473 C 531 1473 572 1465 608 1451 C 643 1437 673 1418 698 1395 C 721 1370 739 1339 752 1303 C 765 1266 772 1221 772 1167 L 772 645 L 709 645 Z" unicode="" />
<glyph horiz-adv-x="780" d="M 389 603 C 444 603 490 591 528 568 C 566 544 596 513 620 474 C 643 435 660 390 670 339 C 680 288 686 235 686 179 C 686 27 660 -84 609 -156 C 557 -228 484 -265 389 -265 C 333 -265 286 -252 248 -227 C 210 -202 179 -169 156 -127 C 133 -85 117 -38 107 15 C 97 68 92 123 92 179 C 92 323 117 430 168 499 C 219 568 293 603 389 603 Z M 389 554 C 347 554 312 545 282 527 C 252 509 227 484 208 452 C 188 420 174 380 165 334 C 156 288 152 236 152 179 C 152 133 155 87 162 41 C 168 -5 180 -47 198 -85 C 216 -123 240 -154 271 -178 C 301 -202 341 -214 389 -214 C 431 -214 467 -204 497 -186 C 527 -168 551 -142 571 -108 C 590 -74 604 -32 613 16 C 622 64 627 119 627 179 C 627 223 623 268 616 313 C 608 358 596 398 578 434 C 560 469 535 498 505 520 C 474 542 435 554 389 554 Z" unicode="" />
<glyph horiz-adv-x="477" d="M 242 593 L 291 593 L 285 517 L 285 -255 L 225 -255 L 225 511 L 229 538 L 225 538 L 70 470 L 70 525 L 242 593 Z" unicode="" />
<glyph horiz-adv-x="766" d="M 655 -255 L 106 -255 L 106 -202 L 461 155 C 475 169 490 185 504 201 C 518 217 531 233 543 251 C 555 269 564 287 571 307 C 578 327 582 348 582 370 C 582 394 577 417 569 439 C 560 461 547 480 531 497 C 514 514 493 528 468 538 C 443 548 415 554 383 554 C 355 554 329 550 306 542 C 282 534 261 524 242 510 C 223 496 206 479 192 460 C 177 441 164 420 154 398 L 104 419 C 114 441 127 464 143 486 C 159 508 179 528 203 545 C 226 562 253 576 284 587 C 314 597 349 603 389 603 C 429 603 465 596 497 584 C 528 572 554 555 576 534 C 597 513 613 489 624 461 C 635 433 641 403 641 372 C 641 346 637 321 630 299 C 622 276 613 255 601 235 C 589 215 576 197 561 180 C 545 162 530 146 514 130 L 178 -204 L 655 -204 L 655 -255 Z" unicode="" />
<glyph horiz-adv-x="745" d="M 90 468 C 105 485 122 502 141 519 C 159 535 180 550 203 563 C 225 576 250 587 278 595 C 305 603 335 607 369 607 C 403 607 434 602 464 593 C 494 584 520 571 542 554 C 564 537 581 517 594 493 C 607 469 614 441 614 411 C 614 385 609 361 601 340 C 592 319 580 301 565 285 C 549 269 531 255 511 245 C 491 234 469 226 446 220 L 446 216 C 472 214 498 208 522 198 C 546 188 568 175 586 158 C 604 141 619 120 630 96 C 641 72 647 44 647 13 C 647 -39 634 -83 608 -121 C 582 -158 546 -188 502 -212 C 458 -235 406 -252 347 -263 C 288 -274 226 -280 160 -280 C 137 -280 121 -278 113 -275 L 109 -224 C 115 -225 122 -226 132 -226 C 141 -226 150 -226 160 -226 C 221 -226 278 -221 330 -212 C 382 -203 428 -189 466 -169 C 504 -149 533 -124 555 -94 C 577 -64 588 -27 588 15 C 588 43 582 67 570 88 C 558 109 543 126 525 140 C 507 154 486 164 463 171 C 439 177 416 181 393 181 C 385 181 370 179 349 177 C 328 174 294 169 248 161 L 238 208 L 336 222 C 404 231 458 252 497 285 C 535 317 555 358 555 407 C 555 429 550 450 541 468 C 531 486 518 502 501 516 C 484 529 464 539 441 547 C 417 554 392 558 365 558 C 317 558 276 547 240 526 C 204 505 169 477 135 443 L 90 468 L 90 468 Z" unicode="" />
<glyph horiz-adv-x="756" d="M 528 593 L 528 -3 L 729 -3 L 729 -50 L 528 -50 L 528 -255 L 469 -255 L 469 -50 L 59 -50 L 59 7 L 467 593 L 528 593 Z M 106 -3 L 469 -3 L 469 462 L 473 515 L 469 517 L 106 -3 Z" unicode="" />
<glyph horiz-adv-x="745" d="M 174 -226 C 236 -226 293 -221 345 -211 C 396 -201 440 -186 477 -164 C 514 -142 543 -113 563 -77 C 583 -41 594 2 594 54 C 594 80 590 106 584 131 C 577 156 566 178 551 197 C 535 216 515 231 491 243 C 466 255 436 261 401 261 C 383 261 365 259 348 256 C 330 252 312 246 293 238 C 274 230 254 218 232 204 C 210 190 186 172 160 151 L 123 167 L 152 593 L 629 593 L 627 544 L 203 544 L 178 208 C 205 229 229 246 250 260 C 271 273 291 283 309 291 C 327 298 344 303 360 306 C 376 308 392 310 410 310 C 452 310 488 303 519 290 C 549 277 574 259 594 237 C 614 214 628 187 638 156 C 648 125 653 92 653 56 C 653 -8 640 -61 616 -104 C 591 -147 557 -182 515 -208 C 472 -234 421 -252 363 -263 C 305 -274 242 -280 176 -280 C 152 -280 135 -278 127 -275 L 123 -224 C 130 -225 138 -226 147 -226 C 155 -226 164 -226 174 -226 Z" unicode="" />
<glyph horiz-adv-x="764" d="M 512 622 C 552 622 578 619 590 615 L 590 566 C 582 567 571 568 555 569 C 539 569 525 570 512 570 C 404 570 319 535 259 467 C 198 398 162 295 150 159 C 164 177 181 193 201 209 C 220 224 241 237 263 249 C 285 260 309 269 333 276 C 357 282 382 286 408 286 C 448 286 484 279 517 267 C 550 255 578 237 602 214 C 626 190 644 162 658 129 C 671 95 678 58 678 17 C 678 -29 670 -69 656 -105 C 642 -140 622 -170 596 -194 C 570 -218 540 -236 505 -248 C 469 -260 431 -267 389 -267 C 345 -267 304 -260 268 -248 C 231 -235 199 -215 173 -187 C 147 -159 126 -123 112 -79 C 97 -35 90 18 90 81 C 90 158 98 230 114 296 C 130 362 155 419 189 467 C 223 515 267 553 321 581 C 374 608 438 622 512 622 Z M 154 108 C 150 98 148 89 148 81 C 147 72 147 62 147 52 C 147 12 152 -24 162 -57 C 172 -90 187 -119 207 -143 C 227 -167 253 -185 283 -198 C 313 -211 349 -218 391 -218 C 425 -218 455 -213 483 -203 C 511 -193 535 -178 555 -158 C 575 -138 590 -114 601 -86 C 612 -57 618 -24 618 13 C 618 83 598 138 558 176 C 518 214 463 234 395 234 C 369 234 344 230 320 223 C 296 216 273 207 252 195 C 231 183 212 170 196 155 C 179 139 165 124 154 108 Z" unicode="" />
<glyph horiz-adv-x="684" d="M 641 593 L 641 548 C 629 535 612 517 592 494 C 571 470 548 442 523 408 C 498 374 472 334 445 289 C 417 244 391 194 367 139 C 343 83 321 23 302 -42 C 283 -108 269 -179 260 -255 L 195 -255 C 203 -187 216 -122 234 -61 C 252 0 272 58 296 112 C 319 166 344 215 370 261 C 396 307 421 348 447 384 C 472 420 496 452 518 479 C 540 506 558 528 573 544 L 70 544 L 70 593 L 641 593 Z" unicode="" />
<glyph horiz-adv-x="791" d="M 291 194 C 274 196 256 202 236 211 C 216 219 198 231 181 247 C 164 262 150 281 138 304 C 126 326 121 354 121 386 C 121 414 127 441 139 467 C 151 493 168 516 192 536 C 215 556 244 572 278 584 C 312 596 351 603 395 603 C 438 603 477 596 511 584 C 545 572 573 556 597 536 C 621 516 639 493 651 467 C 663 441 670 414 670 386 C 670 354 664 326 652 304 C 640 281 626 262 608 247 C 590 231 572 219 552 211 C 532 202 514 196 498 194 L 498 187 C 520 183 543 177 566 168 C 589 158 610 145 629 128 C 648 111 664 90 676 66 C 688 42 694 13 694 -19 C 694 -61 686 -98 670 -129 C 654 -160 633 -186 606 -206 C 578 -226 546 -240 510 -250 C 474 -260 435 -265 395 -265 C 353 -265 314 -260 278 -250 C 241 -240 209 -226 182 -206 C 154 -186 133 -160 117 -129 C 101 -98 94 -61 94 -19 C 94 13 100 42 112 66 C 124 90 139 111 158 128 C 177 145 198 158 222 168 C 245 177 268 183 291 187 L 291 194 Z M 178 382 C 178 358 182 336 191 315 C 199 294 213 276 231 260 C 249 244 271 232 299 223 C 326 214 358 210 395 210 C 431 210 463 214 490 223 C 517 232 540 244 558 260 C 576 276 589 294 598 315 C 607 336 612 358 612 382 C 612 404 607 426 597 447 C 587 467 573 486 555 502 C 536 518 513 530 486 540 C 459 549 429 554 395 554 C 360 554 329 549 302 540 C 275 530 252 518 234 502 C 216 486 202 467 192 447 C 182 426 178 404 178 382 Z M 395 -216 C 431 -216 463 -211 493 -203 C 522 -195 547 -182 568 -166 C 589 -149 605 -128 617 -103 C 629 -78 635 -49 635 -17 C 635 7 630 31 621 53 C 612 75 598 95 579 111 C 560 127 535 140 505 150 C 474 160 437 165 395 165 C 351 165 315 160 285 150 C 255 140 230 127 211 111 C 191 95 177 75 169 53 C 160 31 156 7 156 -17 C 156 -49 161 -78 173 -103 C 184 -128 200 -149 221 -166 C 241 -182 266 -195 296 -203 C 326 -211 359 -216 395 -216 Z" unicode="" />
<glyph horiz-adv-x="764" d="M 254 -280 C 234 -280 218 -279 204 -278 C 190 -277 181 -275 176 -273 L 176 -224 C 183 -225 195 -226 211 -227 C 227 -227 241 -228 254 -228 C 363 -228 448 -193 508 -125 C 568 -56 604 46 616 183 C 602 165 585 148 566 133 C 547 117 526 104 504 93 C 482 81 458 72 434 66 C 409 59 384 56 358 56 C 318 56 281 62 248 74 C 215 86 187 104 163 127 C 139 150 121 178 108 211 C 94 244 88 281 88 323 C 88 369 95 410 109 446 C 123 481 143 511 169 535 C 195 559 225 577 261 589 C 296 601 335 607 377 607 C 421 607 461 600 498 588 C 535 575 567 555 593 527 C 619 499 640 464 655 420 C 670 376 678 323 678 261 C 678 183 669 111 653 45 C 636 -21 610 -78 576 -126 C 542 -174 498 -211 445 -239 C 391 -266 328 -280 254 -280 Z M 614 234 C 615 243 616 252 617 261 C 617 269 618 279 618 290 C 618 329 613 365 603 398 C 593 430 577 458 557 482 C 537 506 511 524 481 538 C 450 551 414 558 373 558 C 339 558 309 553 281 543 C 253 533 230 518 210 498 C 190 478 174 454 163 426 C 152 397 147 364 147 327 C 147 291 152 260 163 233 C 173 205 188 182 208 163 C 228 144 252 130 280 120 C 308 110 339 105 373 105 C 398 105 423 108 447 115 C 471 122 493 132 514 144 C 534 156 553 169 570 185 C 587 201 602 217 614 234 Z" unicode="" />
<glyph horiz-adv-x="1237" d="M 94 926 L 295 926 C 307 1004 326 1077 353 1144 C 380 1210 415 1268 458 1316 C 500 1364 551 1402 611 1429 C 670 1456 738 1470 815 1470 C 842 1470 870 1468 900 1464 C 930 1460 959 1455 988 1449 C 1017 1443 1045 1435 1071 1427 C 1097 1418 1121 1409 1141 1399 L 1120 1343 C 1100 1352 1078 1361 1053 1369 C 1028 1377 1002 1385 975 1391 C 948 1397 921 1401 893 1405 C 865 1409 838 1411 813 1411 C 747 1411 688 1398 638 1374 C 587 1350 543 1316 507 1273 C 470 1229 440 1178 417 1119 C 394 1059 377 995 367 926 L 897 926 L 897 872 L 360 872 C 356 846 354 821 353 795 C 352 769 352 743 352 717 C 352 695 352 674 353 653 C 353 631 354 610 356 590 L 897 590 L 897 535 L 362 535 C 371 463 386 396 408 335 C 429 274 457 221 491 177 C 525 133 567 98 616 74 C 664 49 720 37 784 37 C 814 37 844 38 876 42 C 907 45 937 50 967 56 C 996 62 1024 68 1050 76 C 1076 84 1100 92 1122 102 L 1141 47 C 1119 37 1094 27 1066 19 C 1037 10 1007 2 975 -3 C 943 -9 910 -14 877 -18 C 844 -21 813 -23 784 -23 C 708 -23 642 -9 585 17 C 527 44 478 82 437 131 C 396 180 363 239 339 307 C 314 375 297 451 287 535 L 94 535 L 94 590 L 283 590 C 281 609 280 629 280 649 C 279 669 279 690 279 711 C 279 739 279 766 280 792 C 281 818 283 845 287 872 L 94 872 L 94 926 Z" unicode="" />
<glyph horiz-adv-x="1167" d="M 868 74 C 835 46 794 24 746 8 C 698 -7 648 -16 596 -16 C 557 -16 522 -10 490 0 C 458 9 431 25 408 46 C 385 67 367 94 355 126 C 342 158 336 196 336 240 L 336 369 L 182 256 L 182 328 L 336 440 L 336 1079 C 336 1151 343 1211 358 1261 C 373 1311 394 1351 420 1382 C 446 1412 476 1434 511 1448 C 546 1461 583 1468 623 1468 C 663 1468 700 1461 734 1447 C 767 1433 796 1412 820 1383 C 844 1354 862 1317 875 1273 C 888 1228 895 1175 895 1114 C 895 1060 888 1007 876 955 C 863 903 839 849 803 794 C 767 738 717 680 653 619 C 589 558 505 492 403 420 L 403 242 C 403 172 421 122 457 90 C 493 58 545 43 612 43 C 644 43 673 46 699 52 C 725 58 748 65 769 74 C 790 83 809 93 825 103 C 841 113 856 123 868 131 L 868 74 Z M 403 492 C 492 556 564 614 620 668 C 675 722 718 773 749 822 C 779 870 800 918 811 964 C 821 1010 827 1058 827 1108 C 827 1160 822 1206 812 1244 C 802 1282 789 1313 771 1337 C 753 1361 732 1379 707 1391 C 681 1403 653 1409 621 1409 C 591 1409 562 1403 536 1392 C 509 1381 486 1363 466 1338 C 446 1313 431 1280 420 1238 C 408 1196 403 1145 403 1085 L 403 492 Z" unicode="" />
<glyph horiz-adv-x="1325" d="M 684 1446 L 895 1024 L 901 1024 L 1112 1446 L 1186 1446 L 1186 860 L 1141 860 L 1141 1372 L 1143 1405 L 1139 1405 L 1126 1372 L 924 971 L 870 971 L 668 1372 L 657 1405 L 653 1405 L 653 860 L 608 860 L 608 1446 L 684 1446 Z M 502 1446 L 502 1407 L 309 1407 L 309 860 L 260 860 L 260 1407 L 72 1407 L 72 1446 L 502 1446 Z" unicode="" />
<glyph horiz-adv-x="1585" d="M 164 63 L 475 63 L 528 59 L 528 66 C 476 102 427 140 380 182 C 333 224 292 271 257 323 C 221 375 193 434 172 500 C 151 566 141 641 141 725 C 141 849 157 957 191 1050 C 225 1143 271 1220 330 1282 C 388 1344 457 1390 537 1421 C 616 1452 701 1468 793 1468 C 883 1468 968 1452 1048 1421 C 1128 1390 1197 1344 1256 1282 C 1314 1220 1361 1143 1395 1050 C 1429 957 1446 849 1446 725 C 1446 641 1435 566 1414 500 C 1393 434 1365 375 1330 323 C 1294 271 1253 224 1207 182 C 1160 140 1111 102 1059 66 L 1059 59 L 1112 63 L 1423 63 L 1423 0 L 932 0 L 932 49 C 994 81 1053 119 1107 163 C 1161 206 1207 255 1246 311 C 1285 366 1316 428 1338 497 C 1360 565 1372 641 1372 725 C 1372 834 1357 931 1329 1016 C 1301 1101 1261 1173 1210 1231 C 1159 1289 1098 1333 1027 1363 C 956 1393 878 1409 793 1409 C 707 1409 629 1393 558 1363 C 487 1333 426 1289 375 1231 C 324 1173 285 1101 257 1016 C 229 931 215 834 215 725 C 215 641 226 565 248 497 C 270 428 301 366 340 311 C 379 255 425 206 479 163 C 533 119 591 81 655 49 L 655 0 L 164 0 L 164 63 Z" unicode="" />
<glyph horiz-adv-x="1626" d="M 346 618 C 346 614 347 611 350 609 C 353 607 356 606 360 606 L 1264 606 C 1267 606 1270 606 1274 608 C 1278 609 1280 612 1280 618 L 1280 946 C 1280 952 1279 958 1278 965 C 1276 972 1273 979 1268 985 C 1246 1015 1218 1041 1185 1065 C 1151 1089 1115 1109 1075 1125 C 1035 1141 992 1154 948 1163 C 904 1171 859 1176 815 1176 C 779 1176 739 1171 695 1162 C 650 1152 606 1139 563 1122 C 519 1105 479 1085 443 1062 C 407 1038 380 1013 362 985 C 358 979 354 972 351 965 C 347 958 346 952 346 946 L 346 618 Z M 346 262 C 346 252 346 242 348 233 C 349 223 354 215 362 207 C 392 175 426 148 463 125 C 500 101 538 82 578 66 C 617 50 657 39 697 31 C 737 23 777 20 815 20 C 857 20 901 24 946 34 C 990 43 1033 56 1075 74 C 1117 92 1156 113 1194 139 C 1231 165 1264 194 1294 227 L 1360 227 C 1325 185 1286 148 1244 118 C 1201 87 1156 62 1109 42 C 1062 22 1014 8 964 -1 C 914 -11 865 -16 815 -16 C 758 -16 702 -9 646 4 C 590 18 537 37 487 63 C 436 88 389 119 346 155 C 303 191 266 232 234 278 C 202 323 178 372 160 426 C 142 480 133 537 133 598 C 133 660 142 719 160 774 C 178 828 203 878 235 924 C 267 969 304 1009 348 1045 C 391 1081 438 1111 489 1136 C 539 1160 592 1179 648 1192 C 703 1205 759 1212 815 1212 C 875 1212 934 1205 992 1191 C 1049 1177 1103 1158 1153 1132 C 1203 1106 1250 1075 1292 1037 C 1334 999 1370 957 1400 909 C 1430 861 1453 809 1470 752 C 1486 695 1495 634 1495 569 L 360 569 C 356 569 353 567 350 564 C 347 560 346 557 346 553 L 346 262 Z" unicode="" />
<glyph horiz-adv-x="1520" d="M 242 1446 L 291 1446 L 285 1370 L 285 598 L 225 598 L 225 1364 L 229 1391 L 225 1391 L 70 1323 L 70 1378 L 242 1446 Z M 1044 1446 L 268 0 L 209 0 L 985 1446 L 1044 1446 Z M 864 720 C 879 737 896 754 915 771 C 933 787 954 802 977 815 C 999 828 1024 839 1052 847 C 1079 855 1109 859 1143 859 C 1177 859 1208 854 1238 845 C 1268 836 1294 823 1316 806 C 1338 789 1355 769 1368 745 C 1381 721 1388 693 1388 663 C 1388 637 1383 613 1375 592 C 1366 571 1354 553 1339 537 C 1323 521 1305 507 1285 497 C 1265 486 1243 478 1220 472 L 1220 468 C 1246 466 1272 460 1296 450 C 1320 440 1342 427 1360 410 C 1378 393 1393 372 1404 348 C 1415 324 1421 296 1421 265 C 1421 213 1408 168 1382 131 C 1356 93 1320 63 1276 40 C 1232 16 1180 0 1121 -11 C 1062 -22 1000 -28 934 -28 C 911 -28 895 -26 887 -23 L 883 28 C 889 26 896 26 906 26 C 915 26 924 26 934 26 C 995 26 1052 30 1104 39 C 1156 48 1202 62 1240 82 C 1278 102 1307 127 1329 157 C 1351 187 1362 224 1362 267 C 1362 295 1356 319 1344 340 C 1332 361 1317 378 1299 392 C 1281 406 1260 416 1237 423 C 1213 429 1190 433 1167 433 C 1159 433 1144 431 1123 429 C 1102 426 1068 421 1022 413 L 1012 460 L 1110 474 C 1178 483 1232 504 1271 537 C 1309 569 1329 610 1329 659 C 1329 681 1324 702 1315 720 C 1305 738 1292 754 1275 768 C 1258 781 1238 791 1215 799 C 1191 806 1166 810 1139 810 C 1091 810 1050 799 1014 778 C 978 757 943 729 909 695 L 864 720 L 864 720 Z" unicode="" />
<glyph horiz-adv-x="1808" d="M 655 598 L 106 598 L 106 651 L 461 1008 C 475 1022 490 1038 504 1054 C 518 1070 531 1086 543 1104 C 555 1122 564 1140 571 1160 C 578 1180 582 1201 582 1223 C 582 1247 577 1270 569 1292 C 560 1314 547 1333 531 1350 C 514 1367 493 1381 468 1391 C 443 1401 415 1407 383 1407 C 355 1407 329 1403 306 1395 C 282 1387 261 1377 242 1363 C 223 1349 206 1332 192 1313 C 177 1294 164 1273 154 1251 L 104 1272 C 114 1294 127 1317 143 1339 C 159 1361 179 1381 203 1398 C 226 1415 253 1429 284 1440 C 314 1450 349 1456 389 1456 C 429 1456 465 1449 497 1437 C 528 1425 554 1408 576 1387 C 597 1366 613 1342 624 1314 C 635 1286 641 1256 641 1225 C 641 1199 637 1174 630 1152 C 622 1129 613 1108 601 1088 C 589 1068 576 1050 561 1033 C 545 1015 530 999 514 983 L 178 649 L 655 649 L 655 598 Z M 1333 1446 L 557 0 L 498 0 L 1274 1446 L 1333 1446 Z M 1153 720 C 1168 737 1185 754 1204 771 C 1222 787 1243 802 1266 815 C 1288 828 1313 839 1341 847 C 1368 855 1398 859 1432 859 C 1466 859 1497 854 1527 845 C 1557 836 1583 823 1605 806 C 1627 789 1644 769 1657 745 C 1670 721 1677 693 1677 663 C 1677 637 1672 613 1664 592 C 1655 571 1643 553 1628 537 C 1612 521 1594 507 1574 497 C 1554 486 1532 478 1509 472 L 1509 468 C 1535 466 1561 460 1585 450 C 1609 440 1631 427 1649 410 C 1667 393 1682 372 1693 348 C 1704 324 1710 296 1710 265 C 1710 213 1697 168 1671 131 C 1645 93 1609 63 1565 40 C 1521 16 1469 0 1410 -11 C 1351 -22 1289 -28 1223 -28 C 1200 -28 1184 -26 1176 -23 L 1172 28 C 1178 26 1185 26 1195 26 C 1204 26 1213 26 1223 26 C 1284 26 1341 30 1393 39 C 1445 48 1491 62 1529 82 C 1567 102 1596 127 1618 157 C 1640 187 1651 224 1651 267 C 1651 295 1645 319 1633 340 C 1621 361 1606 378 1588 392 C 1570 406 1549 416 1526 423 C 1502 429 1479 433 1456 433 C 1448 433 1433 431 1412 429 C 1391 426 1357 421 1311 413 L 1301 460 L 1399 474 C 1467 483 1521 504 1560 537 C 1598 569 1618 610 1618 659 C 1618 681 1613 702 1604 720 C 1594 738 1581 754 1564 768 C 1547 781 1527 791 1504 799 C 1480 806 1455 810 1428 810 C 1380 810 1339 799 1303 778 C 1267 757 1232 729 1198 695 L 1153 720 L 1153 720 Z" unicode="" />
<glyph horiz-adv-x="1565" d="M 242 1446 L 291 1446 L 285 1370 L 285 598 L 225 598 L 225 1364 L 229 1391 L 225 1391 L 70 1323 L 70 1378 L 242 1446 Z M 1044 1446 L 268 0 L 209 0 L 985 1446 L 1044 1446 Z M 1065 450 C 1048 452 1030 458 1010 467 C 990 475 972 487 955 503 C 938 518 924 537 912 560 C 900 582 895 610 895 642 C 895 670 901 697 913 723 C 925 749 942 772 966 792 C 989 812 1018 828 1052 840 C 1086 852 1125 859 1169 859 C 1212 859 1251 852 1285 840 C 1319 828 1347 812 1371 792 C 1395 772 1413 749 1425 723 C 1437 697 1444 670 1444 642 C 1444 610 1438 582 1426 560 C 1414 537 1400 518 1382 503 C 1364 487 1346 475 1326 467 C 1306 458 1288 452 1272 450 L 1272 443 C 1294 439 1317 433 1340 424 C 1363 414 1384 401 1403 384 C 1422 367 1438 346 1450 322 C 1462 298 1468 269 1468 237 C 1468 194 1460 157 1444 126 C 1428 95 1407 70 1380 50 C 1352 30 1320 15 1284 5 C 1248 -4 1209 -9 1169 -9 C 1127 -9 1088 -4 1052 5 C 1015 15 983 30 956 50 C 928 70 907 95 891 126 C 875 157 868 194 868 237 C 868 269 874 298 886 322 C 898 346 913 367 932 384 C 951 401 972 414 996 424 C 1019 433 1042 439 1065 443 L 1065 450 Z M 952 638 C 952 614 956 592 965 571 C 973 550 987 532 1005 516 C 1023 500 1045 488 1073 479 C 1100 470 1132 466 1169 466 C 1205 466 1237 470 1264 479 C 1291 488 1314 500 1332 516 C 1350 532 1363 550 1372 571 C 1381 592 1386 614 1386 638 C 1386 660 1381 682 1371 703 C 1361 723 1347 742 1329 758 C 1310 774 1287 786 1260 796 C 1233 805 1203 810 1169 810 C 1134 810 1103 805 1076 796 C 1049 786 1026 774 1008 758 C 990 742 976 723 966 703 C 956 682 952 660 952 638 Z M 1169 40 C 1205 40 1237 44 1267 52 C 1296 60 1321 73 1342 90 C 1363 106 1379 127 1391 152 C 1403 177 1409 206 1409 239 C 1409 263 1404 287 1395 309 C 1386 331 1372 351 1353 367 C 1334 383 1309 396 1279 406 C 1248 416 1211 421 1169 421 C 1125 421 1089 416 1059 406 C 1029 396 1004 383 985 367 C 965 351 951 331 943 309 C 934 287 930 263 930 239 C 930 206 935 177 947 152 C 958 127 974 106 995 90 C 1015 73 1040 60 1070 52 C 1100 44 1133 40 1169 40 Z" unicode="" />
<glyph horiz-adv-x="1833" d="M 90 1321 C 105 1338 122 1355 141 1372 C 159 1388 180 1403 203 1416 C 225 1429 250 1440 278 1448 C 305 1456 335 1460 369 1460 C 403 1460 434 1455 464 1446 C 494 1437 520 1424 542 1407 C 564 1390 581 1370 594 1346 C 607 1322 614 1294 614 1264 C 614 1238 609 1214 601 1193 C 592 1172 580 1154 565 1138 C 549 1122 531 1108 511 1098 C 491 1087 469 1079 446 1073 L 446 1069 C 472 1067 498 1061 522 1051 C 546 1041 568 1028 586 1011 C 604 994 619 973 630 949 C 641 925 647 897 647 866 C 647 814 634 769 608 732 C 582 694 546 664 502 641 C 458 617 406 600 347 589 C 288 578 226 573 160 573 C 137 573 121 574 113 578 L 109 629 C 115 627 122 627 132 627 C 141 627 150 627 160 627 C 221 627 278 631 330 640 C 382 649 428 663 466 683 C 504 703 533 728 555 758 C 577 788 588 825 588 868 C 588 896 582 920 570 941 C 558 962 543 979 525 993 C 507 1007 486 1017 463 1024 C 439 1030 416 1034 393 1034 C 385 1034 370 1032 349 1030 C 328 1027 294 1022 248 1014 L 238 1061 L 336 1075 C 404 1084 458 1105 497 1138 C 535 1170 555 1211 555 1260 C 555 1282 550 1303 541 1321 C 531 1339 518 1355 501 1369 C 484 1382 464 1392 441 1400 C 417 1407 392 1411 365 1411 C 317 1411 276 1400 240 1379 C 204 1358 169 1330 135 1296 L 90 1321 L 90 1321 Z M 1312 1446 L 536 0 L 477 0 L 1253 1446 L 1312 1446 Z M 1333 450 C 1316 452 1298 458 1278 467 C 1258 475 1240 487 1223 503 C 1206 518 1192 537 1180 560 C 1168 582 1163 610 1163 642 C 1163 670 1169 697 1181 723 C 1193 749 1210 772 1234 792 C 1257 812 1286 828 1320 840 C 1354 852 1393 859 1437 859 C 1480 859 1519 852 1553 840 C 1587 828 1615 812 1639 792 C 1663 772 1681 749 1693 723 C 1705 697 1712 670 1712 642 C 1712 610 1706 582 1694 560 C 1682 537 1668 518 1650 503 C 1632 487 1614 475 1594 467 C 1574 458 1556 452 1540 450 L 1540 443 C 1562 439 1585 433 1608 424 C 1631 414 1652 401 1671 384 C 1690 367 1706 346 1718 322 C 1730 298 1736 269 1736 237 C 1736 194 1728 157 1712 126 C 1696 95 1675 70 1648 50 C 1620 30 1588 15 1552 5 C 1516 -4 1477 -9 1437 -9 C 1395 -9 1356 -4 1320 5 C 1283 15 1251 30 1224 50 C 1196 70 1175 95 1159 126 C 1143 157 1136 194 1136 237 C 1136 269 1142 298 1154 322 C 1166 346 1181 367 1200 384 C 1219 401 1240 414 1264 424 C 1287 433 1310 439 1333 443 L 1333 450 Z M 1220 638 C 1220 614 1224 592 1233 571 C 1241 550 1255 532 1273 516 C 1291 500 1313 488 1341 479 C 1368 470 1400 466 1437 466 C 1473 466 1505 470 1532 479 C 1559 488 1582 500 1600 516 C 1618 532 1631 550 1640 571 C 1649 592 1654 614 1654 638 C 1654 660 1649 682 1639 703 C 1629 723 1615 742 1597 758 C 1578 774 1555 786 1528 796 C 1501 805 1471 810 1437 810 C 1402 810 1371 805 1344 796 C 1317 786 1294 774 1276 758 C 1258 742 1244 723 1234 703 C 1224 682 1220 660 1220 638 Z M 1437 40 C 1473 40 1505 44 1535 52 C 1564 60 1589 73 1610 90 C 1631 106 1647 127 1659 152 C 1671 177 1677 206 1677 239 C 1677 263 1672 287 1663 309 C 1654 331 1640 351 1621 367 C 1602 383 1577 396 1547 406 C 1516 416 1479 421 1437 421 C 1393 421 1357 416 1327 406 C 1297 396 1272 383 1253 367 C 1233 351 1219 331 1211 309 C 1202 287 1198 263 1198 239 C 1198 206 1203 177 1215 152 C 1226 127 1242 106 1263 90 C 1283 73 1308 60 1338 52 C 1368 44 1401 40 1437 40 Z" unicode="" />
<glyph horiz-adv-x="1833" d="M 174 627 C 236 627 293 631 345 641 C 396 651 440 667 477 689 C 514 711 543 739 563 775 C 583 811 594 855 594 907 C 594 933 590 959 584 984 C 577 1009 566 1031 551 1050 C 535 1069 515 1084 491 1096 C 466 1108 436 1114 401 1114 C 383 1114 365 1112 348 1109 C 330 1105 312 1099 293 1091 C 274 1083 254 1071 232 1057 C 210 1043 186 1025 160 1004 L 123 1020 L 152 1446 L 629 1446 L 627 1397 L 203 1397 L 178 1061 C 205 1082 229 1099 250 1113 C 271 1126 291 1136 309 1144 C 327 1151 344 1156 360 1159 C 376 1161 392 1163 410 1163 C 452 1163 488 1156 519 1143 C 549 1130 574 1112 594 1090 C 614 1067 628 1040 638 1009 C 648 978 653 945 653 909 C 653 845 640 791 616 748 C 591 705 557 671 515 645 C 472 619 421 600 363 589 C 305 578 242 573 176 573 C 152 573 135 574 127 578 L 123 629 C 130 627 138 627 147 627 C 155 627 164 627 174 627 Z M 1312 1446 L 536 0 L 477 0 L 1253 1446 L 1312 1446 Z M 1333 450 C 1316 452 1298 458 1278 467 C 1258 475 1240 487 1223 503 C 1206 518 1192 537 1180 560 C 1168 582 1163 610 1163 642 C 1163 670 1169 697 1181 723 C 1193 749 1210 772 1234 792 C 1257 812 1286 828 1320 840 C 1354 852 1393 859 1437 859 C 1480 859 1519 852 1553 840 C 1587 828 1615 812 1639 792 C 1663 772 1681 749 1693 723 C 1705 697 1712 670 1712 642 C 1712 610 1706 582 1694 560 C 1682 537 1668 518 1650 503 C 1632 487 1614 475 1594 467 C 1574 458 1556 452 1540 450 L 1540 443 C 1562 439 1585 433 1608 424 C 1631 414 1652 401 1671 384 C 1690 367 1706 346 1718 322 C 1730 298 1736 269 1736 237 C 1736 194 1728 157 1712 126 C 1696 95 1675 70 1648 50 C 1620 30 1588 15 1552 5 C 1516 -4 1477 -9 1437 -9 C 1395 -9 1356 -4 1320 5 C 1283 15 1251 30 1224 50 C 1196 70 1175 95 1159 126 C 1143 157 1136 194 1136 237 C 1136 269 1142 298 1154 322 C 1166 346 1181 367 1200 384 C 1219 401 1240 414 1264 424 C 1287 433 1310 439 1333 443 L 1333 450 Z M 1220 638 C 1220 614 1224 592 1233 571 C 1241 550 1255 532 1273 516 C 1291 500 1313 488 1341 479 C 1368 470 1400 466 1437 466 C 1473 466 1505 470 1532 479 C 1559 488 1582 500 1600 516 C 1618 532 1631 550 1640 571 C 1649 592 1654 614 1654 638 C 1654 660 1649 682 1639 703 C 1629 723 1615 742 1597 758 C 1578 774 1555 786 1528 796 C 1501 805 1471 810 1437 810 C 1402 810 1371 805 1344 796 C 1317 786 1294 774 1276 758 C 1258 742 1244 723 1234 703 C 1224 682 1220 660 1220 638 Z M 1437 40 C 1473 40 1505 44 1535 52 C 1564 60 1589 73 1610 90 C 1631 106 1647 127 1659 152 C 1671 177 1677 206 1677 239 C 1677 263 1672 287 1663 309 C 1654 331 1640 351 1621 367 C 1602 383 1577 396 1547 406 C 1516 416 1479 421 1437 421 C 1393 421 1357 416 1327 406 C 1297 396 1272 383 1253 367 C 1233 351 1219 331 1211 309 C 1202 287 1198 263 1198 239 C 1198 206 1203 177 1215 152 C 1226 127 1242 106 1263 90 C 1283 73 1308 60 1338 52 C 1368 44 1401 40 1437 40 Z" unicode="" />
<glyph horiz-adv-x="1690" d="M 641 1446 L 641 1401 C 629 1388 612 1370 592 1347 C 571 1323 548 1295 523 1261 C 498 1227 472 1187 445 1142 C 417 1097 391 1047 367 992 C 343 936 321 876 302 810 C 283 744 269 674 260 598 L 195 598 C 203 666 216 730 234 792 C 252 853 272 911 296 965 C 319 1019 344 1068 370 1114 C 396 1160 421 1201 447 1237 C 472 1273 496 1305 518 1332 C 540 1359 558 1381 573 1397 L 70 1397 L 70 1446 L 641 1446 Z M 1169 1446 L 393 0 L 334 0 L 1110 1446 L 1169 1446 Z M 1190 450 C 1173 452 1155 458 1135 467 C 1115 475 1097 487 1080 503 C 1063 518 1049 537 1037 560 C 1025 582 1020 610 1020 642 C 1020 670 1026 697 1038 723 C 1050 749 1067 772 1091 792 C 1114 812 1143 828 1177 840 C 1211 852 1250 859 1294 859 C 1337 859 1376 852 1410 840 C 1444 828 1472 812 1496 792 C 1520 772 1538 749 1550 723 C 1562 697 1569 670 1569 642 C 1569 610 1563 582 1551 560 C 1539 537 1525 518 1507 503 C 1489 487 1471 475 1451 467 C 1431 458 1413 452 1397 450 L 1397 443 C 1419 439 1442 433 1465 424 C 1488 414 1509 401 1528 384 C 1547 367 1563 346 1575 322 C 1587 298 1593 269 1593 237 C 1593 194 1585 157 1569 126 C 1553 95 1532 70 1505 50 C 1477 30 1445 15 1409 5 C 1373 -4 1334 -9 1294 -9 C 1252 -9 1213 -4 1177 5 C 1140 15 1108 30 1081 50 C 1053 70 1032 95 1016 126 C 1000 157 993 194 993 237 C 993 269 999 298 1011 322 C 1023 346 1038 367 1057 384 C 1076 401 1097 414 1121 424 C 1144 433 1167 439 1190 443 L 1190 450 Z M 1077 638 C 1077 614 1081 592 1090 571 C 1098 550 1112 532 1130 516 C 1148 500 1170 488 1198 479 C 1225 470 1257 466 1294 466 C 1330 466 1362 470 1389 479 C 1416 488 1439 500 1457 516 C 1475 532 1488 550 1497 571 C 1506 592 1511 614 1511 638 C 1511 660 1506 682 1496 703 C 1486 723 1472 742 1454 758 C 1435 774 1412 786 1385 796 C 1358 805 1328 810 1294 810 C 1259 810 1228 805 1201 796 C 1174 786 1151 774 1133 758 C 1115 742 1101 723 1091 703 C 1081 682 1077 660 1077 638 Z M 1294 40 C 1330 40 1362 44 1392 52 C 1421 60 1446 73 1467 90 C 1488 106 1504 127 1516 152 C 1528 177 1534 206 1534 239 C 1534 263 1529 287 1520 309 C 1511 331 1497 351 1478 367 C 1459 383 1434 396 1404 406 C 1373 416 1336 421 1294 421 C 1250 421 1214 416 1184 406 C 1154 396 1129 383 1110 367 C 1090 351 1076 331 1068 309 C 1059 287 1055 263 1055 239 C 1055 206 1060 177 1072 152 C 1083 127 1099 106 1120 90 C 1140 73 1165 60 1195 52 C 1225 44 1258 40 1294 40 Z" unicode="" />
<glyph horiz-adv-x="1167" d="M 461 1372 C 537 1372 607 1359 669 1333 C 731 1307 783 1272 825 1227 C 858 1191 886 1150 910 1103 C 933 1056 952 1005 967 950 C 982 894 993 835 1000 772 C 1006 708 1010 643 1010 575 C 1010 455 999 355 978 275 C 956 195 920 132 870 86 C 832 50 788 24 740 8 C 691 -7 639 -16 584 -16 C 521 -16 463 -6 410 12 C 356 31 310 59 271 97 C 231 135 200 182 178 238 C 156 294 145 360 145 436 C 145 504 155 565 176 619 C 197 673 226 718 263 755 C 299 792 343 820 393 840 C 443 860 497 870 555 870 C 597 870 636 865 672 857 C 708 848 742 836 772 821 C 802 806 829 789 853 769 C 877 749 897 727 913 705 L 936 682 C 933 733 928 782 922 830 C 916 878 906 923 894 966 C 882 1008 866 1048 847 1085 C 828 1121 805 1154 778 1184 C 738 1225 691 1256 635 1277 C 579 1298 516 1309 446 1309 L 406 1309 L 406 1362 C 411 1366 416 1368 422 1370 C 428 1371 436 1372 446 1372 L 461 1372 Z M 928 606 C 912 633 892 659 869 684 C 845 708 818 730 788 748 C 758 766 724 781 688 792 C 652 803 613 809 571 809 C 519 809 472 800 429 784 C 385 768 348 744 317 712 C 285 680 261 640 243 593 C 225 545 217 491 217 430 C 217 368 225 314 243 266 C 260 218 284 178 316 145 C 348 111 386 86 432 69 C 477 51 528 43 584 43 C 636 43 681 51 720 67 C 759 83 793 105 821 133 C 862 173 892 223 910 285 C 928 346 938 419 938 504 C 938 523 937 541 936 558 C 934 574 932 590 928 606 Z" unicode="" />
<glyph horiz-adv-x="1311" d="M 707 1446 L 1208 59 L 1208 0 L 96 0 L 96 57 L 604 1446 L 707 1446 Z M 625 1300 L 172 61 L 1133 61 L 686 1300 L 659 1382 L 651 1382 L 625 1300 Z" unicode="" />
<glyph horiz-adv-x="1597" d="M 1503 1446 L 1503 1376 L 1319 1376 L 1319 -236 L 1247 -236 L 1247 1376 L 350 1376 L 350 -236 L 279 -236 L 279 1376 L 94 1376 L 94 1446 L 1503 1446 Z" unicode="" />
<glyph horiz-adv-x="1518" d="M 1358 1446 L 1358 1380 L 315 1380 L 244 1384 L 244 1376 L 311 1335 L 1100 639 L 1100 580 L 311 -125 L 244 -166 L 244 -174 L 315 -170 L 1358 -170 L 1358 -236 L 178 -236 L 178 -147 L 991 580 L 1026 604 L 1026 616 L 991 641 L 178 1358 L 178 1446 L 1358 1446 Z" unicode="" />
<glyph horiz-adv-x="1167" d="M 1159 602 L 1159 541 L 8 541 L 8 602 L 1159 602 Z" unicode="" />
<glyph horiz-adv-x="297" d="M 567 1446 L -209 0 L -268 0 L 508 1446 L 567 1446 Z" unicode="" />
<glyph horiz-adv-x="371" d="M 236 702 L 236 440 L 135 440 L 135 702 L 236 702 Z" unicode="" />
<glyph horiz-adv-x="1499" d="M 410 1053 L 764 106 L 1415 1878 L 1495 1878 L 788 0 L 725 0 L 350 989 L 61 989 L 61 1053 L 410 1053 Z" unicode="" />
<glyph horiz-adv-x="2040" d="M 545 961 C 565 961 587 958 609 954 C 631 949 655 941 679 929 C 703 917 728 900 755 880 C 782 860 811 834 842 803 L 1020 616 L 1198 803 C 1228 834 1257 860 1284 880 C 1311 900 1337 917 1361 929 C 1385 941 1408 949 1430 954 C 1452 958 1473 961 1495 961 L 1548 961 C 1597 961 1643 951 1685 932 C 1727 913 1763 888 1794 856 C 1824 824 1848 787 1866 746 C 1883 704 1892 662 1892 618 L 1892 528 C 1892 484 1883 441 1866 400 C 1848 359 1824 323 1794 291 C 1763 259 1727 233 1685 214 C 1643 195 1597 186 1548 186 L 1495 186 C 1475 186 1455 188 1433 193 C 1411 197 1388 206 1364 218 C 1339 230 1313 246 1285 266 C 1257 286 1228 312 1198 344 L 1020 528 L 842 342 C 811 311 782 286 756 266 C 729 246 704 230 680 218 C 656 206 632 197 610 193 C 588 188 566 186 545 186 L 492 186 C 442 186 397 195 355 214 C 313 233 276 259 245 291 C 214 323 190 359 173 400 C 155 441 147 484 147 528 L 147 618 C 147 662 155 704 173 746 C 190 787 214 824 245 856 C 276 888 313 913 355 932 C 397 951 442 961 492 961 L 545 961 Z M 1065 573 L 1239 389 C 1266 361 1292 338 1316 320 C 1340 302 1362 287 1384 277 C 1405 267 1425 260 1445 256 C 1464 252 1483 250 1501 250 L 1546 250 C 1586 250 1623 257 1657 273 C 1691 289 1720 309 1745 335 C 1770 361 1790 390 1804 423 C 1818 456 1825 490 1825 526 L 1825 621 C 1825 656 1818 690 1804 723 C 1790 756 1770 785 1745 811 C 1720 837 1691 857 1657 873 C 1623 889 1586 897 1546 897 L 1501 897 C 1483 897 1465 895 1446 891 C 1426 887 1406 880 1385 870 C 1363 860 1340 846 1316 828 C 1292 810 1266 788 1239 760 L 1065 573 Z M 215 526 C 215 490 222 456 236 423 C 250 390 269 361 294 335 C 319 309 349 289 383 273 C 417 257 454 250 494 250 L 539 250 C 556 250 574 251 593 255 C 612 259 632 266 654 276 C 675 286 698 301 722 319 C 746 337 773 360 801 389 L 975 573 L 801 760 C 773 788 747 810 723 828 C 699 846 676 860 655 870 C 633 880 613 887 594 891 C 574 895 556 897 539 897 L 494 897 C 454 897 417 889 383 873 C 349 857 319 837 294 811 C 269 785 250 756 236 723 C 222 690 215 656 215 621 L 215 526 Z" unicode="" />
<glyph horiz-adv-x="705" d="M 598 1597 C 616 1597 631 1593 641 1585 L 641 1538 L 573 1538 C 545 1538 519 1532 497 1520 C 474 1508 455 1491 439 1471 C 423 1450 410 1426 402 1398 C 393 1370 389 1341 389 1309 L 389 -100 C 389 -146 382 -188 368 -226 C 354 -264 334 -296 309 -324 C 288 -344 264 -360 237 -372 C 210 -383 180 -389 147 -389 L 109 -389 C 98 -389 89 -388 83 -386 C 77 -384 71 -381 66 -377 L 66 -330 L 135 -330 C 163 -330 188 -324 211 -312 C 233 -300 252 -283 268 -262 C 284 -241 296 -217 304 -189 C 312 -161 317 -132 317 -100 L 317 1309 C 317 1354 323 1395 337 1433 C 350 1471 370 1503 397 1530 C 416 1550 440 1567 468 1579 C 496 1591 526 1597 559 1597 L 598 1597 Z" unicode="" />
<glyph horiz-adv-x="1167" d="M 57 758 C 79 777 102 795 128 811 C 153 827 179 840 205 852 C 231 863 258 872 285 878 C 311 884 337 887 362 887 C 400 887 432 883 459 877 C 486 871 510 863 532 853 C 554 843 574 833 593 822 C 612 811 632 801 654 791 C 676 781 700 773 727 767 C 754 761 787 758 825 758 C 875 758 924 769 972 792 C 1020 815 1066 847 1110 887 L 1110 815 C 1066 777 1019 747 969 725 C 919 703 869 692 819 692 C 779 692 744 695 716 701 C 688 707 662 715 640 725 C 618 734 597 744 579 755 C 560 766 540 776 519 786 C 498 795 475 803 449 809 C 423 815 392 819 356 819 C 308 819 258 807 205 784 C 151 761 102 729 57 688 L 57 758 Z M 57 326 C 79 345 102 362 128 378 C 153 394 179 407 205 419 C 231 430 258 439 285 445 C 311 451 337 455 362 455 C 400 455 432 451 459 445 C 486 439 510 431 532 421 C 554 411 574 401 593 390 C 612 379 632 369 654 359 C 676 349 700 341 727 335 C 754 329 787 326 825 326 C 875 326 924 337 972 360 C 1020 383 1066 415 1110 455 L 1110 383 C 1066 345 1019 315 969 293 C 919 271 869 260 819 260 C 779 260 744 263 716 269 C 688 275 662 283 640 293 C 618 302 597 312 579 323 C 560 334 540 344 519 354 C 498 363 475 371 449 377 C 423 383 392 387 356 387 C 308 387 258 375 205 352 C 151 328 102 296 57 254 L 57 326 Z" unicode="" />
<glyph horiz-adv-x="1167" d="M 463 311 L 281 0 L 219 0 L 401 311 L 57 311 L 57 373 L 436 373 L 668 766 L 57 766 L 57 829 L 705 829 L 887 1141 L 948 1141 L 766 829 L 1110 829 L 1110 766 L 729 766 L 498 373 L 1110 373 L 1110 311 L 463 311 Z" unicode="" />
<glyph horiz-adv-x="1167" d="M 1110 1180 L 1110 1104 L 293 786 L 147 729 L 147 719 L 293 666 L 1110 350 L 1110 274 L 57 700 L 57 750 L 1110 1180 Z M 1110 61 L 1110 0 L 57 0 L 57 61 L 1110 61 Z" unicode="" />
<glyph horiz-adv-x="1167" d="M 1110 61 L 1110 0 L 57 0 L 57 61 L 1110 61 Z M 1110 750 L 1110 700 L 57 274 L 57 350 L 874 666 L 1020 719 L 1020 729 L 874 786 L 57 1104 L 57 1180 L 1110 750 Z" unicode="" />
<glyph horiz-adv-x="1288" d="M 672 1364 L 1176 717 L 1176 649 L 672 0 L 616 0 L 113 649 L 113 717 L 616 1364 L 672 1364 Z M 178 694 L 178 674 L 639 80 L 649 80 L 1110 674 L 1110 694 L 649 1284 L 639 1284 L 178 694 Z" unicode="" />
<glyph horiz-adv-x="1006" d="M 999 1462 C 993 1464 984 1465 972 1467 C 960 1469 949 1470 940 1470 C 910 1470 884 1464 862 1454 C 840 1443 821 1428 807 1408 C 793 1388 782 1365 775 1338 C 767 1310 764 1280 764 1247 L 764 1053 L 1010 1053 L 1010 999 L 764 999 L 764 0 L 694 0 L 694 999 L 260 999 L 260 0 L 193 0 L 193 999 L 18 999 L 18 1053 L 193 1053 L 193 1245 C 193 1285 198 1322 208 1356 C 218 1390 234 1420 254 1446 C 274 1472 298 1492 328 1506 C 357 1520 391 1528 430 1528 C 448 1528 465 1527 479 1525 C 493 1523 502 1520 508 1516 L 496 1462 C 490 1464 481 1465 469 1467 C 456 1469 445 1470 436 1470 C 406 1470 380 1464 358 1454 C 336 1443 317 1428 303 1408 C 289 1388 278 1365 271 1338 C 263 1310 260 1280 260 1247 L 260 1053 L 694 1053 L 694 1245 C 694 1285 699 1322 709 1356 C 719 1390 735 1420 755 1446 C 775 1472 800 1492 830 1506 C 860 1520 894 1528 934 1528 C 952 1528 968 1527 982 1525 C 995 1523 1004 1520 1010 1516 L 999 1462 Z" unicode="" />
<glyph horiz-adv-x="940" d="M 496 1462 C 490 1464 481 1465 469 1467 C 456 1469 445 1470 436 1470 C 406 1470 380 1464 358 1454 C 336 1443 317 1428 303 1408 C 289 1388 278 1365 271 1338 C 263 1310 260 1280 260 1247 L 260 1053 L 506 1053 L 506 999 L 260 999 L 260 0 L 193 0 L 193 999 L 18 999 L 18 1053 L 193 1053 L 193 1245 C 193 1285 198 1322 208 1356 C 218 1390 234 1420 254 1446 C 274 1472 298 1492 328 1506 C 357 1520 391 1528 430 1528 C 448 1528 465 1527 479 1525 C 493 1523 502 1520 508 1516 L 496 1462 Z M 760 1507 L 760 1321 L 680 1321 L 680 1507 L 760 1507 Z M 754 1053 L 754 0 L 686 0 L 686 1053 L 754 1053 Z" unicode="" />
<glyph horiz-adv-x="940" d="M 496 1462 C 490 1464 481 1465 469 1467 C 456 1469 445 1470 436 1470 C 406 1470 380 1464 358 1454 C 336 1443 317 1428 303 1408 C 289 1388 278 1365 271 1338 C 263 1310 260 1280 260 1247 L 260 1053 L 506 1053 L 506 999 L 260 999 L 260 0 L 193 0 L 193 999 L 18 999 L 18 1053 L 193 1053 L 193 1245 C 193 1285 198 1322 208 1356 C 218 1390 234 1420 254 1446 C 274 1472 298 1492 328 1506 C 357 1520 391 1528 430 1528 C 448 1528 465 1527 479 1525 C 493 1523 502 1520 508 1516 L 496 1462 Z M 754 1507 L 754 0 L 686 0 L 686 1507 L 754 1507 Z" unicode="" />
<glyph horiz-adv-x="1442" d="M 1264 1507 L 1264 1321 L 1184 1321 L 1184 1507 L 1264 1507 Z M 1257 1053 L 1257 0 L 1190 0 L 1190 1053 L 1257 1053 Z M 999 1462 C 993 1464 984 1465 972 1467 C 960 1469 949 1470 940 1470 C 910 1470 884 1464 862 1454 C 840 1443 821 1428 807 1408 C 793 1388 782 1365 775 1338 C 767 1310 764 1280 764 1247 L 764 1053 L 1010 1053 L 1010 999 L 764 999 L 764 0 L 694 0 L 694 999 L 260 999 L 260 0 L 193 0 L 193 999 L 18 999 L 18 1053 L 193 1053 L 193 1245 C 193 1285 198 1322 208 1356 C 218 1390 234 1420 254 1446 C 274 1472 298 1492 328 1506 C 357 1520 391 1528 430 1528 C 448 1528 465 1527 479 1525 C 493 1523 502 1520 508 1516 L 496 1462 C 490 1464 481 1465 469 1467 C 456 1469 445 1470 436 1470 C 406 1470 380 1464 358 1454 C 336 1443 317 1428 303 1408 C 289 1388 278 1365 271 1338 C 263 1310 260 1280 260 1247 L 260 1053 L 694 1053 L 694 1245 C 694 1285 699 1322 709 1356 C 719 1390 735 1420 755 1446 C 775 1472 800 1492 830 1506 C 860 1520 894 1528 934 1528 C 952 1528 968 1527 982 1525 C 995 1523 1004 1520 1010 1516 L 999 1462 Z" unicode="" />
</font>
</defs>
</svg>
