<?xml version="1.0" encoding="utf-8" ?><svg version="1.1" xmlns = 'http://www.w3.org/2000/svg'><defs><font id='web' horiz-adv-x="1000">
<font-face font-family="web" descent="-467" cap-height="1446" units-per-em="2048" bbox="-283,-469,2654,1987" x-height="1053" ascent="1581" />
<missing-glyph horiz-adv-x="1024" d="M 1024 1446 L 1024 0 L 0 0 L 0 1446 L 1024 1446 Z M 182 174 L 840 174 L 840 1272 L 182 1272 L 182 174 Z" /><glyph horiz-adv-x="469" d="" unicode=" " />
<glyph horiz-adv-x="645" d="M 479 1446 L 479 1196 L 428 489 L 272 489 L 219 1196 L 219 1446 L 479 1446 Z M 487 272 L 487 0 L 215 0 L 215 272 L 487 272 Z" unicode="!" />
<glyph horiz-adv-x="801" d="M 123 1251 L 139 1446 L 387 1446 L 348 1245 L 264 895 L 111 895 L 123 1251 Z M 483 1251 L 498 1446 L 745 1446 L 707 1245 L 623 895 L 469 895 L 483 1251 Z" unicode="&#x22;" />
<glyph horiz-adv-x="1661" d="M 397 307 L 111 307 L 111 504 L 432 504 L 520 979 L 217 979 L 217 1176 L 555 1176 L 616 1505 L 778 1505 L 719 1176 L 1110 1176 L 1171 1505 L 1333 1505 L 1274 1176 L 1554 1176 L 1554 979 L 1239 979 L 1153 504 L 1452 504 L 1452 307 L 1118 307 L 1053 -59 L 885 -59 L 952 307 L 563 307 L 498 -59 L 330 -59 L 397 307 Z M 598 504 L 987 504 L 1075 979 L 684 979 L 598 504 Z" unicode="#" />
<glyph horiz-adv-x="1257" d="M 1004 1112 C 952 1134 894 1153 830 1167 C 766 1181 705 1188 645 1188 C 612 1188 581 1185 551 1180 C 521 1174 495 1165 473 1153 C 450 1140 432 1124 419 1104 C 405 1084 399 1059 399 1030 C 399 1000 406 975 420 955 C 434 935 454 919 479 905 C 504 891 533 879 567 869 C 601 859 637 850 676 840 C 734 824 789 807 842 789 C 894 770 941 747 981 719 C 1021 691 1054 656 1078 616 C 1102 575 1114 525 1114 465 C 1114 415 1105 369 1087 327 C 1069 285 1044 247 1011 214 C 977 181 936 153 888 131 C 839 108 783 92 721 82 L 721 -207 L 537 -207 L 537 72 C 505 72 471 74 437 78 C 402 81 368 86 334 93 C 300 100 268 109 237 119 C 205 129 176 140 150 154 L 190 354 C 219 338 250 325 283 314 C 315 302 349 293 383 285 C 417 277 450 272 484 268 C 518 264 550 262 582 262 C 619 262 655 265 690 271 C 725 277 756 286 784 300 C 811 314 833 331 849 353 C 865 375 874 402 874 434 C 874 465 865 491 848 513 C 830 534 807 552 779 567 C 751 582 718 595 681 606 C 643 616 605 627 565 637 C 523 647 479 659 433 674 C 386 689 343 710 303 738 C 263 765 229 800 203 844 C 177 888 164 943 164 1010 C 164 1062 172 1109 190 1151 C 208 1192 233 1227 265 1257 C 297 1287 337 1311 383 1329 C 429 1347 480 1360 537 1368 L 537 1591 L 721 1591 L 721 1374 C 783 1370 840 1361 893 1349 C 946 1336 996 1323 1042 1309 L 1004 1112 Z" unicode="$" />
<glyph horiz-adv-x="1931" d="M 1468 1446 L 647 0 L 467 0 L 1288 1446 L 1468 1446 Z M 444 1466 C 507 1466 561 1455 607 1434 C 652 1412 689 1383 718 1346 C 746 1309 767 1266 781 1216 C 794 1166 801 1113 801 1057 C 801 995 794 938 780 886 C 766 834 744 789 715 751 C 686 713 649 683 604 662 C 559 641 506 631 444 631 C 378 631 323 642 278 666 C 233 690 197 721 169 761 C 141 800 122 845 110 896 C 98 947 92 1000 92 1055 C 92 1119 99 1176 113 1227 C 127 1277 148 1320 177 1356 C 206 1392 243 1419 287 1438 C 331 1456 384 1466 444 1466 Z M 446 1321 C 406 1321 374 1313 350 1299 C 326 1284 307 1264 293 1240 C 279 1216 270 1188 265 1156 C 260 1124 258 1091 258 1057 C 258 1029 260 999 264 967 C 268 934 276 903 289 875 C 302 847 321 823 346 804 C 370 785 404 776 446 776 C 486 776 519 784 544 801 C 568 818 587 840 601 867 C 614 893 623 923 628 957 C 632 990 635 1023 635 1055 C 635 1085 632 1115 628 1147 C 623 1179 614 1207 601 1233 C 587 1259 568 1280 544 1296 C 519 1312 486 1321 446 1321 Z M 1483 815 C 1546 815 1600 804 1645 783 C 1690 761 1727 732 1755 695 C 1783 658 1804 615 1817 565 C 1830 515 1837 462 1837 406 C 1837 343 1830 285 1816 233 C 1802 181 1781 136 1752 98 C 1723 60 1686 30 1642 9 C 1597 -12 1544 -23 1483 -23 C 1417 -23 1362 -11 1317 12 C 1272 36 1236 67 1208 107 C 1180 147 1160 192 1148 243 C 1136 294 1130 347 1130 401 C 1130 465 1137 523 1151 574 C 1165 625 1186 668 1215 704 C 1244 740 1281 767 1325 786 C 1369 805 1422 815 1483 815 Z M 1483 668 C 1443 668 1411 660 1387 646 C 1363 631 1344 611 1331 587 C 1317 563 1308 535 1303 504 C 1298 472 1296 440 1296 406 C 1296 378 1297 348 1301 316 C 1305 283 1313 252 1326 224 C 1339 196 1358 172 1383 153 C 1407 134 1441 125 1483 125 C 1523 125 1556 133 1581 150 C 1605 167 1624 189 1638 216 C 1651 242 1660 272 1664 305 C 1668 338 1671 371 1671 403 C 1671 433 1668 463 1664 495 C 1660 527 1651 555 1638 581 C 1625 606 1606 627 1581 643 C 1556 659 1523 668 1483 668 Z" unicode="%" />
<glyph horiz-adv-x="1468" d="M 1368 -23 C 1326 -20 1287 -13 1252 -3 C 1217 6 1184 20 1154 37 C 1123 53 1094 73 1066 95 C 1038 117 1011 142 983 168 C 956 139 927 113 896 89 C 864 65 830 44 792 27 C 754 10 714 -2 670 -12 C 626 -22 579 -27 528 -27 C 455 -27 390 -17 332 2 C 274 21 224 48 184 84 C 144 119 113 162 91 212 C 69 262 59 319 59 381 C 59 435 67 485 84 530 C 100 575 123 616 153 652 C 182 688 217 719 257 747 C 297 774 341 797 389 817 C 369 835 350 856 332 878 C 314 900 297 924 283 950 C 269 976 257 1003 249 1033 C 240 1062 236 1094 236 1128 C 236 1177 245 1223 264 1265 C 283 1307 310 1344 345 1375 C 380 1406 423 1430 473 1448 C 523 1466 579 1475 641 1475 C 699 1475 752 1467 800 1451 C 848 1435 890 1412 926 1383 C 961 1354 988 1319 1008 1279 C 1028 1238 1038 1193 1038 1145 C 1038 1099 1029 1058 1013 1022 C 997 985 975 952 947 923 C 919 893 886 867 848 845 C 810 822 769 802 727 784 C 747 761 767 739 786 718 C 805 696 825 674 846 650 C 866 626 889 599 913 571 C 937 542 964 509 995 473 C 1011 497 1028 522 1046 548 C 1064 574 1081 601 1098 629 C 1115 657 1132 684 1148 712 C 1164 740 1178 767 1192 793 L 1401 725 C 1365 668 1325 605 1280 537 C 1234 468 1184 400 1130 332 C 1173 288 1216 254 1258 230 C 1300 206 1347 189 1399 178 L 1368 -23 Z M 559 168 C 589 168 617 171 643 178 C 669 185 694 195 718 208 C 741 220 763 235 785 253 C 806 270 826 289 846 311 C 791 373 737 436 683 499 C 629 561 572 625 514 690 C 480 678 450 662 424 642 C 398 622 376 600 358 576 C 340 551 326 524 317 495 C 307 466 303 436 303 406 C 303 368 309 334 322 304 C 335 274 353 250 376 230 C 399 210 426 194 458 184 C 489 173 523 168 559 168 Z M 823 1135 C 823 1159 818 1182 809 1204 C 799 1226 786 1244 770 1260 C 754 1276 734 1288 712 1297 C 690 1306 665 1311 639 1311 C 612 1311 588 1306 566 1298 C 544 1289 526 1277 511 1262 C 495 1247 483 1229 475 1209 C 467 1188 463 1166 463 1143 C 463 1103 475 1064 499 1025 C 523 986 558 943 604 895 C 635 909 664 925 691 941 C 717 957 740 975 760 995 C 780 1015 795 1036 806 1059 C 817 1081 823 1107 823 1135 Z" unicode="&#x26;" />
<glyph horiz-adv-x="440" d="M 123 1251 L 139 1446 L 387 1446 L 348 1245 L 264 895 L 111 895 L 123 1251 Z" unicode="'" />
<glyph horiz-adv-x="760" d="M 123 616 C 123 690 129 762 141 831 C 153 899 169 964 190 1026 C 210 1087 234 1144 262 1198 C 290 1252 319 1301 350 1345 C 380 1389 412 1428 444 1462 C 476 1496 508 1525 539 1548 L 727 1548 L 727 1509 C 675 1471 625 1420 579 1358 C 533 1295 492 1224 458 1146 C 423 1067 396 982 376 892 C 356 802 346 710 346 616 C 346 516 356 420 376 327 C 396 234 423 148 458 68 C 492 -11 533 -82 579 -145 C 625 -207 675 -258 727 -297 L 727 -336 L 539 -336 C 508 -313 476 -284 444 -250 C 412 -216 380 -176 350 -132 C 319 -88 290 -39 262 15 C 234 69 210 127 190 190 C 169 253 153 320 141 391 C 129 462 123 537 123 616 Z" unicode="(" />
<glyph horiz-adv-x="760" d="M 637 616 C 637 537 631 462 619 391 C 607 320 590 253 570 190 C 549 127 525 69 497 15 C 469 -39 440 -88 410 -132 C 379 -176 347 -216 315 -250 C 282 -284 251 -313 221 -336 L 33 -336 L 33 -297 C 85 -258 134 -207 180 -145 C 226 -82 266 -11 301 68 C 335 148 363 234 383 327 C 403 420 414 516 414 616 C 414 710 403 802 383 892 C 363 982 335 1067 301 1146 C 266 1224 226 1295 180 1358 C 134 1420 85 1471 33 1509 L 33 1548 L 221 1548 C 251 1525 282 1496 315 1462 C 347 1428 379 1389 410 1345 C 440 1301 469 1252 497 1198 C 525 1144 549 1087 570 1026 C 590 964 607 899 619 831 C 631 762 637 690 637 616 Z" unicode=")" />
<glyph horiz-adv-x="850" d="M 227 1251 L 362 1159 L 379 1178 L 334 1325 L 334 1446 L 520 1446 L 520 1325 L 477 1178 L 496 1159 L 623 1249 L 739 1284 L 797 1110 L 682 1069 L 522 1065 L 516 1040 L 639 948 L 715 850 L 561 737 L 489 838 L 438 987 L 414 987 L 358 838 L 289 737 L 135 850 L 209 950 L 336 1044 L 330 1069 L 170 1071 L 55 1112 L 115 1286 L 227 1251 Z" unicode="*" />
<glyph horiz-adv-x="1206" d="M 715 1182 L 715 694 L 1196 694 L 1196 485 L 715 485 L 715 0 L 494 0 L 494 485 L 10 485 L 10 694 L 494 694 L 494 1182 L 715 1182 Z" unicode="+" />
<glyph horiz-adv-x="475" d="M 432 272 L 205 -285 L 37 -285 L 158 272 L 432 272 Z" unicode="," />
<glyph horiz-adv-x="668" d="M 575 698 L 575 485 L 90 485 L 90 698 L 575 698 Z" unicode="-" />
<glyph horiz-adv-x="475" d="M 375 272 L 375 0 L 102 0 L 102 272 L 375 272 Z" unicode="." />
<glyph horiz-adv-x="924" d="M 930 1446 C 802 1165 674 885 546 605 C 418 325 290 44 164 -236 L -23 -236 L 739 1446 L 930 1446 Z" unicode="/" />
<glyph horiz-adv-x="1272" d="M 635 1470 C 699 1470 757 1461 809 1443 C 861 1425 906 1400 946 1368 C 986 1336 1020 1297 1048 1252 C 1076 1207 1099 1157 1117 1103 C 1135 1049 1148 991 1156 929 C 1164 867 1169 804 1169 739 C 1169 617 1158 509 1136 415 C 1114 321 1080 241 1036 177 C 992 112 936 63 869 30 C 802 -3 724 -20 635 -20 C 568 -20 509 -10 457 9 C 405 28 359 55 320 89 C 280 123 247 164 220 212 C 192 259 170 311 153 367 C 135 423 123 483 115 546 C 107 609 104 673 104 739 C 104 857 115 961 137 1052 C 159 1143 192 1220 236 1282 C 280 1344 335 1390 401 1422 C 467 1454 545 1470 635 1470 Z M 637 1266 C 595 1266 558 1259 528 1245 C 497 1231 471 1211 449 1187 C 427 1162 410 1133 396 1099 C 382 1065 372 1029 364 990 C 356 951 351 910 348 867 C 345 824 344 781 344 739 C 344 703 345 664 347 623 C 349 581 353 540 360 499 C 367 458 377 419 390 381 C 403 343 420 309 442 280 C 464 250 490 227 522 210 C 553 192 591 184 635 184 C 677 184 714 191 746 207 C 777 222 803 243 825 270 C 847 296 864 328 878 364 C 891 400 901 438 909 479 C 916 520 921 563 924 607 C 926 651 928 695 928 739 C 928 775 926 814 924 854 C 921 894 916 933 909 973 C 901 1012 891 1049 878 1085 C 865 1120 848 1151 826 1178 C 804 1204 778 1226 747 1242 C 716 1258 679 1266 637 1266 Z" unicode="0" />
<glyph horiz-adv-x="895" d="M 393 0 L 393 1186 L 399 1231 L 391 1231 L 70 1094 L 70 1305 L 446 1446 L 647 1446 L 633 1294 L 633 0 L 393 0 Z" unicode="1" />
<glyph horiz-adv-x="1257" d="M 1137 0 L 156 0 L 156 209 L 659 707 C 691 735 720 763 747 791 C 774 819 797 846 817 874 C 837 901 852 928 864 956 C 875 984 881 1012 881 1040 C 881 1069 875 1097 864 1125 C 852 1153 836 1177 815 1199 C 794 1220 768 1237 738 1250 C 707 1263 673 1270 635 1270 C 577 1270 523 1252 474 1218 C 424 1183 380 1127 340 1051 L 141 1130 C 158 1170 181 1211 210 1252 C 239 1292 275 1329 317 1361 C 359 1393 408 1420 464 1440 C 520 1460 585 1470 659 1470 C 729 1470 792 1459 850 1439 C 908 1419 957 1390 998 1354 C 1039 1318 1071 1274 1094 1223 C 1116 1172 1128 1116 1128 1055 C 1128 1015 1122 978 1112 942 C 1102 906 1087 870 1067 836 C 1047 802 1022 768 993 735 C 964 702 931 669 893 635 L 442 201 L 1137 201 L 1137 0 Z" unicode="2" />
<glyph horiz-adv-x="1212" d="M 84 1214 C 102 1243 127 1273 157 1303 C 187 1333 223 1361 265 1386 C 306 1410 353 1430 406 1446 C 458 1462 517 1470 582 1470 C 641 1470 698 1462 753 1447 C 807 1432 856 1410 898 1380 C 940 1350 973 1312 998 1268 C 1023 1224 1036 1172 1036 1114 C 1036 1072 1030 1035 1018 1003 C 1006 970 991 941 971 917 C 951 892 929 871 904 854 C 879 837 853 824 827 815 L 827 799 C 859 793 890 783 922 767 C 954 751 982 730 1007 703 C 1031 676 1051 643 1067 605 C 1082 566 1090 521 1090 471 C 1090 387 1069 314 1027 250 C 985 186 927 132 853 89 C 779 45 691 12 591 -9 C 491 -31 382 -43 266 -43 C 250 -43 237 -42 226 -42 C 214 -42 204 -41 195 -40 C 186 -39 178 -38 170 -37 C 162 -35 155 -34 147 -33 L 133 176 C 152 174 173 173 197 172 C 221 170 249 170 281 170 C 372 170 453 177 523 193 C 593 209 652 230 700 258 C 748 285 784 318 809 356 C 833 394 846 435 846 481 C 846 514 839 542 827 566 C 815 590 799 609 779 624 C 759 639 736 650 711 657 C 686 664 661 668 637 668 C 629 668 618 667 606 666 C 594 665 578 663 559 660 C 540 657 517 653 489 648 C 461 642 428 635 389 627 L 348 817 L 526 846 C 558 850 591 859 623 872 C 655 884 683 901 709 921 C 735 941 755 964 771 992 C 787 1019 795 1050 795 1085 C 795 1112 789 1137 779 1161 C 769 1184 754 1204 734 1221 C 714 1238 689 1251 661 1261 C 633 1271 601 1276 565 1276 C 535 1276 508 1272 484 1266 C 460 1259 436 1249 412 1235 C 388 1221 364 1203 340 1182 C 315 1160 288 1135 258 1106 L 84 1214 L 84 1214 Z" unicode="3" />
<glyph horiz-adv-x="1260" d="M 961 1446 L 961 492 L 1200 492 L 1200 303 L 961 303 L 961 0 L 719 0 L 719 303 L 61 303 L 61 524 L 709 1446 L 961 1446 Z M 248 492 L 719 492 L 719 979 L 733 1161 L 723 1163 L 248 492 Z" unicode="4" />
<glyph horiz-adv-x="1257" d="M 330 170 C 522 170 665 200 757 260 C 849 320 895 407 895 520 C 895 549 891 578 885 608 C 879 637 866 663 848 687 C 829 711 803 730 770 745 C 737 760 694 768 641 768 C 614 768 588 765 562 761 C 536 756 509 748 482 738 C 455 727 427 713 399 695 C 371 677 341 656 311 631 L 176 686 L 229 1446 L 1075 1446 L 1063 1245 L 418 1245 L 389 852 C 443 892 494 921 542 938 C 590 954 640 963 692 963 C 766 963 830 952 885 930 C 940 908 986 878 1022 840 C 1058 801 1085 755 1103 701 C 1121 647 1130 588 1130 524 C 1130 422 1109 335 1069 263 C 1028 191 972 132 900 87 C 828 41 744 8 646 -12 C 548 -32 442 -43 328 -43 C 294 -43 268 -42 248 -41 C 228 -39 210 -37 195 -33 L 180 176 C 198 174 219 173 243 172 C 267 170 296 170 330 170 Z" unicode="5" />
<glyph horiz-adv-x="1272" d="M 844 1495 C 878 1495 909 1493 938 1491 C 966 1489 991 1485 1012 1479 L 1018 1278 C 1006 1280 992 1281 978 1283 C 964 1284 949 1285 933 1286 C 917 1287 902 1288 886 1289 C 870 1289 856 1290 842 1290 C 700 1290 591 1250 514 1171 C 470 1127 436 1072 410 1006 C 384 940 365 861 354 770 C 376 799 401 824 429 845 C 457 866 486 883 517 897 C 547 911 579 921 612 928 C 645 934 678 938 711 938 C 775 938 834 927 889 907 C 944 887 992 857 1033 818 C 1073 779 1105 731 1128 674 C 1151 616 1163 551 1163 477 C 1163 397 1150 325 1124 263 C 1098 201 1061 148 1015 106 C 969 64 914 32 850 10 C 786 -12 717 -23 643 -23 C 571 -23 504 -13 444 6 C 383 26 331 56 287 98 C 233 145 192 209 163 291 C 133 373 119 478 119 606 C 119 670 123 735 131 801 C 139 867 152 931 171 993 C 189 1055 213 1113 243 1169 C 272 1224 308 1273 352 1317 C 408 1373 476 1417 556 1448 C 636 1479 732 1495 844 1495 Z M 377 604 C 369 586 364 568 362 548 C 359 528 358 506 358 481 C 358 435 364 392 378 352 C 392 312 414 278 444 250 C 469 226 499 208 533 194 C 567 180 607 174 651 174 C 691 174 728 180 762 192 C 795 204 824 223 848 247 C 872 271 890 301 904 337 C 917 373 924 415 924 463 C 924 509 917 549 904 584 C 891 619 872 648 848 672 C 824 695 794 713 760 725 C 725 737 686 743 643 743 C 584 743 531 730 485 706 C 438 682 402 648 377 604 Z" unicode="6" />
<glyph horiz-adv-x="1122" d="M 1067 1446 L 1067 1272 C 1039 1243 1009 1209 975 1169 C 941 1129 906 1083 870 1030 C 833 977 796 917 759 850 C 722 782 687 706 655 622 C 622 537 592 443 566 340 C 539 237 518 124 502 0 L 238 0 C 255 144 285 280 329 406 C 372 532 421 648 476 753 C 531 858 588 952 646 1035 C 704 1117 757 1187 805 1245 L 80 1245 L 80 1446 L 1067 1446 Z" unicode="7" />
<glyph horiz-adv-x="1307" d="M 381 772 C 361 776 339 786 314 802 C 289 818 265 839 243 865 C 220 891 201 923 185 960 C 169 996 162 1038 162 1085 C 162 1135 172 1184 194 1230 C 216 1276 247 1317 289 1353 C 331 1389 382 1417 443 1438 C 504 1459 574 1470 653 1470 C 731 1470 801 1459 863 1438 C 924 1417 975 1389 1017 1353 C 1059 1317 1090 1276 1112 1230 C 1134 1184 1145 1135 1145 1085 C 1145 1038 1137 996 1121 960 C 1105 923 1086 891 1064 865 C 1041 839 1017 818 992 802 C 966 786 944 776 926 772 L 926 762 C 951 757 979 746 1009 729 C 1039 711 1067 688 1093 659 C 1119 630 1140 595 1158 555 C 1175 514 1184 468 1184 416 C 1184 342 1170 278 1144 224 C 1118 169 1081 124 1034 88 C 986 52 930 25 865 7 C 800 -11 729 -20 653 -20 C 575 -20 503 -11 439 7 C 374 25 318 52 271 88 C 224 124 188 169 162 224 C 136 278 123 342 123 416 C 123 468 131 514 149 555 C 166 595 188 630 214 659 C 240 688 268 711 298 729 C 328 746 355 757 381 762 L 381 772 Z M 397 1065 C 397 1033 402 1004 413 978 C 423 951 439 928 461 908 C 483 888 510 873 542 862 C 574 851 611 846 655 846 C 697 846 734 851 766 862 C 798 873 824 888 846 908 C 867 928 883 951 894 978 C 905 1004 911 1033 911 1065 C 911 1095 905 1123 894 1150 C 883 1177 867 1201 845 1221 C 823 1241 796 1256 764 1268 C 732 1280 695 1286 653 1286 C 611 1286 575 1280 543 1268 C 511 1256 484 1241 462 1221 C 440 1201 424 1177 413 1150 C 402 1123 397 1095 397 1065 Z M 653 170 C 705 170 749 176 786 189 C 822 202 852 220 875 243 C 898 265 915 292 926 324 C 936 355 942 389 942 426 C 942 460 936 491 926 521 C 916 551 899 576 876 598 C 853 620 823 637 787 649 C 750 661 705 668 653 668 C 601 668 556 661 520 649 C 484 637 454 620 432 598 C 409 576 392 551 382 521 C 372 491 367 460 367 426 C 367 389 372 355 382 324 C 392 292 409 265 432 243 C 455 220 485 202 521 189 C 557 176 601 170 653 170 Z" unicode="8" />
<glyph horiz-adv-x="1272" d="M 428 -47 C 394 -47 362 -45 334 -43 C 305 -41 280 -37 260 -31 L 254 170 C 266 168 279 167 293 166 C 307 164 322 163 338 162 C 353 161 369 160 385 160 C 401 160 416 160 430 160 C 500 160 562 169 617 188 C 671 206 718 236 758 276 C 843 361 896 495 918 678 C 895 648 870 622 842 601 C 814 580 785 563 754 549 C 723 535 691 525 659 519 C 626 513 593 510 561 510 C 497 510 437 520 382 540 C 327 560 279 589 239 628 C 198 667 166 715 143 772 C 120 829 109 895 109 969 C 109 1049 122 1121 148 1183 C 174 1245 210 1298 256 1340 C 302 1382 357 1415 421 1437 C 485 1459 554 1470 629 1470 C 701 1470 767 1460 828 1440 C 888 1420 941 1390 985 1350 C 1011 1326 1035 1297 1056 1265 C 1077 1233 1095 1196 1109 1154 C 1123 1112 1134 1066 1142 1014 C 1149 962 1153 904 1153 840 C 1153 776 1149 711 1141 645 C 1133 579 1119 516 1101 454 C 1082 392 1058 334 1028 279 C 998 223 962 174 920 131 C 864 74 796 30 716 0 C 636 -31 540 -47 428 -47 Z M 895 842 C 902 859 907 878 909 898 C 911 918 913 941 913 967 C 913 1012 906 1054 892 1094 C 878 1133 857 1167 827 1196 C 802 1220 772 1239 738 1253 C 704 1267 665 1274 621 1274 C 580 1274 543 1267 510 1255 C 476 1243 448 1224 424 1200 C 400 1175 381 1145 368 1109 C 354 1073 348 1031 348 983 C 348 891 373 822 423 775 C 473 728 541 705 629 705 C 689 705 742 716 788 740 C 834 764 869 798 895 842 Z" unicode="9" />
<glyph horiz-adv-x="600" d="M 436 1065 L 436 791 L 164 791 L 164 1065 L 436 1065 Z M 436 272 L 436 0 L 164 0 L 164 272 L 436 272 Z" unicode=":" />
<glyph horiz-adv-x="600" d="M 489 272 L 262 -285 L 92 -285 L 215 272 L 489 272 Z M 436 1065 L 436 791 L 164 791 L 164 1065 L 436 1065 Z" unicode=";" />
<glyph horiz-adv-x="1206" d="M 1149 1180 L 1149 938 L 510 657 L 365 602 L 365 578 L 510 528 L 1149 246 L 1149 6 L 59 520 L 59 662 L 1149 1180 Z" unicode="&#x3C;" />
<glyph horiz-adv-x="1206" d="M 1149 963 L 1149 756 L 59 756 L 59 963 L 1149 963 Z M 1149 424 L 1149 217 L 59 217 L 59 424 L 1149 424 Z" unicode="=" />
<glyph horiz-adv-x="1206" d="M 1149 662 L 1149 520 L 59 6 L 59 246 L 698 528 L 844 578 L 844 602 L 698 657 L 59 938 L 59 1180 L 1149 662 Z" unicode="&#x3E;" />
<glyph horiz-adv-x="928" d="M 86 1300 C 104 1322 128 1344 157 1365 C 185 1386 217 1405 253 1421 C 288 1437 326 1449 367 1459 C 407 1468 449 1473 492 1473 C 546 1473 596 1465 642 1450 C 688 1434 727 1412 761 1384 C 795 1356 821 1321 840 1280 C 858 1239 868 1193 868 1141 C 868 1099 862 1062 852 1030 C 842 997 827 966 808 937 C 789 908 767 880 741 852 C 715 824 686 795 655 764 C 629 738 607 716 589 696 C 571 676 555 656 543 636 C 530 616 521 594 515 571 C 509 548 506 521 506 489 L 297 489 C 297 534 299 572 305 603 C 310 633 320 662 335 690 C 350 718 371 747 398 777 C 425 807 460 845 504 889 C 526 909 547 929 565 947 C 583 965 599 983 612 1001 C 625 1018 635 1036 642 1055 C 649 1073 653 1094 653 1116 C 653 1146 647 1171 636 1192 C 625 1212 611 1229 594 1241 C 577 1253 558 1262 536 1268 C 514 1273 493 1276 473 1276 C 431 1276 387 1267 341 1250 C 295 1232 248 1204 201 1165 L 86 1300 Z M 274 272 L 547 272 L 547 0 L 274 0 L 274 272 Z" unicode="?" />
<glyph horiz-adv-x="2136" d="M 1587 1001 L 1395 412 C 1389 397 1385 384 1383 373 C 1381 362 1380 352 1380 342 C 1380 306 1390 280 1410 262 C 1430 244 1459 236 1495 236 C 1534 236 1574 248 1614 272 C 1654 296 1691 329 1724 373 C 1756 416 1783 468 1804 529 C 1824 589 1835 657 1835 731 C 1835 813 1819 890 1788 961 C 1756 1032 1712 1094 1654 1146 C 1596 1198 1527 1238 1447 1268 C 1366 1298 1276 1313 1178 1313 C 1102 1313 1029 1304 958 1286 C 887 1268 820 1243 757 1210 C 694 1177 636 1137 584 1089 C 531 1041 486 987 448 927 C 410 866 380 799 359 727 C 338 655 328 578 328 496 C 328 414 338 338 359 270 C 379 201 407 139 443 85 C 479 31 521 -16 569 -57 C 617 -97 669 -131 724 -159 C 779 -186 836 -206 895 -220 C 954 -233 1013 -240 1071 -240 C 1123 -240 1178 -236 1234 -228 C 1290 -220 1345 -209 1397 -196 C 1449 -183 1498 -168 1544 -152 C 1590 -136 1629 -120 1661 -104 L 1712 -238 C 1680 -255 1640 -273 1592 -291 C 1544 -309 1492 -326 1435 -342 C 1377 -357 1317 -370 1254 -380 C 1190 -390 1127 -395 1065 -395 C 995 -395 924 -386 852 -370 C 780 -354 709 -329 641 -297 C 573 -264 509 -223 449 -174 C 389 -125 336 -68 291 -2 C 246 64 210 138 184 220 C 158 302 145 394 145 494 C 145 592 157 684 183 770 C 209 856 245 936 291 1008 C 337 1080 393 1145 457 1202 C 521 1258 591 1306 668 1346 C 744 1386 826 1416 912 1437 C 998 1457 1087 1468 1178 1468 C 1261 1468 1339 1459 1412 1442 C 1485 1425 1552 1401 1613 1370 C 1674 1338 1729 1301 1777 1257 C 1825 1213 1866 1164 1900 1110 C 1933 1056 1958 997 1976 935 C 1994 873 2003 808 2003 741 C 2003 673 1995 610 1980 551 C 1964 491 1943 437 1916 388 C 1889 339 1858 295 1822 257 C 1786 218 1747 185 1706 158 C 1665 131 1622 111 1578 97 C 1534 83 1490 76 1448 76 C 1417 76 1388 79 1360 87 C 1332 94 1307 105 1286 121 C 1264 136 1247 156 1233 180 C 1219 204 1212 232 1210 266 C 1160 205 1107 158 1051 126 C 994 94 936 78 877 78 C 839 78 803 85 768 99 C 733 113 702 134 675 164 C 647 194 625 231 609 277 C 592 322 584 376 584 440 C 584 496 591 550 606 602 C 620 654 640 702 665 746 C 690 790 719 830 752 866 C 785 902 820 932 857 957 C 894 982 932 1001 971 1015 C 1009 1029 1047 1036 1083 1036 C 1115 1036 1144 1030 1172 1020 C 1199 1009 1223 994 1245 976 C 1267 957 1285 935 1301 910 C 1317 885 1329 859 1337 831 L 1393 1001 L 1587 1001 Z M 938 260 C 977 260 1019 272 1065 296 C 1110 320 1156 357 1202 408 L 1284 664 C 1279 688 1271 712 1260 735 C 1249 758 1235 778 1219 795 C 1203 812 1184 826 1163 836 C 1142 846 1120 852 1096 852 C 1064 852 1031 842 995 824 C 959 806 925 780 895 746 C 864 712 838 672 818 624 C 798 576 788 523 788 465 C 788 430 791 400 799 374 C 807 348 817 327 831 310 C 844 293 860 280 878 272 C 896 264 916 260 938 260 Z" unicode="@" />
<glyph horiz-adv-x="1362" d="M 821 1446 L 1307 0 L 1038 0 L 944 315 L 395 315 L 299 0 L 53 0 L 549 1446 L 821 1446 Z M 629 1053 L 459 514 L 883 514 L 715 1053 L 682 1186 L 662 1186 L 629 1053 Z" unicode="A" />
<glyph horiz-adv-x="1382" d="M 711 1446 C 751 1446 791 1443 832 1438 C 872 1433 911 1425 948 1414 C 985 1403 1020 1389 1052 1371 C 1084 1353 1113 1331 1137 1306 C 1161 1280 1179 1251 1193 1218 C 1207 1184 1214 1146 1214 1104 C 1214 1022 1194 953 1156 895 C 1117 837 1055 798 971 778 L 971 764 C 1009 759 1046 748 1084 731 C 1121 714 1154 691 1184 663 C 1213 634 1237 599 1255 558 C 1273 517 1282 470 1282 418 C 1282 334 1268 265 1240 211 C 1212 157 1173 114 1124 83 C 1074 51 1016 30 948 18 C 880 6 805 0 725 0 L 188 0 L 188 1446 L 711 1446 Z M 430 842 L 651 842 C 705 842 751 846 790 856 C 828 865 860 879 885 897 C 909 915 927 938 939 965 C 950 992 956 1023 956 1059 C 956 1085 950 1110 940 1134 C 930 1157 914 1177 892 1195 C 870 1212 843 1226 809 1236 C 775 1246 735 1251 688 1251 L 430 1251 L 430 842 Z M 430 195 L 764 195 C 856 195 922 215 963 257 C 1003 298 1024 356 1024 432 C 1024 464 1017 494 1004 522 C 990 549 970 572 944 592 C 918 612 885 627 845 638 C 805 649 759 655 707 655 L 430 655 L 430 195 Z" unicode="B" />
<glyph horiz-adv-x="1346" d="M 788 -25 C 676 -25 578 -6 493 30 C 408 66 337 117 280 183 C 222 249 179 327 150 418 C 120 508 106 608 106 717 C 106 819 121 916 151 1008 C 181 1099 226 1179 285 1247 C 344 1315 417 1370 503 1410 C 589 1450 689 1470 801 1470 C 896 1470 979 1460 1051 1440 C 1123 1420 1183 1394 1231 1364 L 1178 1157 C 1154 1171 1128 1184 1102 1197 C 1075 1210 1046 1222 1016 1232 C 985 1242 951 1249 915 1255 C 879 1261 839 1264 795 1264 C 717 1264 651 1249 595 1221 C 539 1193 494 1154 459 1105 C 423 1056 397 999 381 934 C 364 868 356 799 356 725 C 356 681 359 638 365 595 C 371 551 382 509 396 469 C 410 429 429 391 452 356 C 474 321 502 291 534 265 C 566 239 604 219 647 204 C 690 189 739 182 795 182 C 839 182 879 184 915 190 C 951 195 985 202 1016 212 C 1047 222 1076 233 1103 246 C 1129 258 1155 272 1180 287 L 1231 82 C 1183 50 1122 25 1048 5 C 974 -15 887 -25 788 -25 Z" unicode="C" />
<glyph horiz-adv-x="1509" d="M 674 1446 C 774 1446 869 1432 957 1404 C 1045 1376 1121 1332 1187 1274 C 1253 1216 1304 1142 1342 1052 C 1380 962 1399 856 1399 733 C 1399 602 1380 490 1342 398 C 1304 305 1252 229 1187 170 C 1121 111 1044 68 956 41 C 868 13 774 0 674 0 L 188 0 L 188 1446 L 674 1446 Z M 430 199 L 662 199 C 750 199 824 213 886 242 C 948 270 998 309 1036 358 C 1074 406 1102 463 1120 528 C 1138 592 1147 661 1147 733 C 1147 796 1138 858 1122 920 C 1105 982 1077 1037 1039 1085 C 1001 1133 951 1172 889 1202 C 827 1232 752 1247 662 1247 L 430 1247 L 430 199 Z" unicode="D" />
<glyph horiz-adv-x="1311" d="M 1165 1446 L 1165 1247 L 430 1247 L 430 848 L 1071 848 L 1071 649 L 430 649 L 430 199 L 1186 199 L 1186 0 L 188 0 L 188 1446 L 1165 1446 Z" unicode="E" />
<glyph horiz-adv-x="1184" d="M 1114 1446 L 1114 1247 L 430 1247 L 430 846 L 1022 846 L 1022 645 L 430 645 L 430 0 L 188 0 L 188 1446 L 1114 1446 Z" unicode="F" />
<glyph horiz-adv-x="1475" d="M 852 1470 C 888 1470 926 1468 967 1465 C 1007 1461 1047 1456 1087 1449 C 1126 1442 1163 1433 1199 1422 C 1234 1410 1265 1397 1292 1382 L 1237 1176 C 1183 1202 1121 1224 1052 1240 C 983 1256 914 1264 844 1264 C 762 1264 690 1250 629 1224 C 567 1197 516 1160 476 1112 C 435 1064 404 1007 384 941 C 364 875 354 802 354 723 C 354 649 363 578 381 512 C 399 446 428 388 467 338 C 506 288 556 248 618 219 C 679 190 752 176 838 176 C 859 176 880 176 902 177 C 924 177 946 179 969 182 C 991 184 1015 189 1039 195 C 1063 201 1088 209 1114 219 L 1114 573 L 778 573 L 778 770 L 1325 770 L 1325 82 C 1299 66 1266 51 1226 38 C 1186 25 1143 14 1097 4 C 1051 -5 1004 -12 956 -17 C 908 -22 863 -25 823 -25 C 739 -25 664 -15 596 3 C 528 21 467 47 414 81 C 361 115 315 155 276 201 C 237 247 205 298 180 354 C 155 409 136 467 124 529 C 112 591 106 654 106 719 C 106 825 122 924 156 1016 C 189 1107 237 1186 301 1254 C 364 1321 442 1374 535 1412 C 627 1450 733 1470 852 1470 Z" unicode="G" />
<glyph horiz-adv-x="1497" d="M 430 1446 L 430 831 L 1067 831 L 1067 1446 L 1309 1446 L 1309 0 L 1067 0 L 1067 633 L 430 633 L 430 0 L 188 0 L 188 1446 L 430 1446 Z" unicode="H" />
<glyph horiz-adv-x="618" d="M 430 1446 L 430 0 L 188 0 L 188 1446 L 430 1446 Z" unicode="I" />
<glyph horiz-adv-x="1001" d="M 829 1446 L 829 377 C 829 319 820 265 802 216 C 784 167 758 125 723 89 C 687 53 643 25 589 5 C 535 -15 471 -25 399 -25 C 329 -25 265 -15 209 5 C 152 25 103 50 61 80 L 111 289 C 151 259 195 233 243 213 C 291 192 339 182 389 182 C 429 182 463 189 489 204 C 515 218 535 238 550 263 C 565 287 575 316 581 349 C 587 381 590 415 590 451 L 590 1446 L 829 1446 Z" unicode="J" />
<glyph horiz-adv-x="1434" d="M 430 1446 L 430 764 L 1063 1446 L 1370 1446 L 815 877 L 1436 0 L 1128 0 L 649 709 L 430 494 L 430 0 L 188 0 L 188 1446 L 430 1446 Z" unicode="K" />
<glyph horiz-adv-x="1085" d="M 430 1446 L 430 199 L 1059 199 L 1059 0 L 188 0 L 188 1446 L 430 1446 Z" unicode="L" />
<glyph horiz-adv-x="1878" d="M 571 1446 L 940 369 L 952 369 L 1323 1446 L 1690 1446 L 1690 0 L 1454 0 L 1454 868 L 1464 1169 L 1444 1169 L 1036 0 L 844 0 L 436 1169 L 416 1169 L 426 868 L 426 0 L 188 0 L 188 1446 L 571 1446 Z" unicode="M" />
<glyph horiz-adv-x="1509" d="M 188 1446 L 498 1446 L 965 571 L 1090 291 L 1110 291 L 1087 633 L 1087 1446 L 1321 1446 L 1321 0 L 1020 0 L 545 877 L 420 1155 L 399 1155 L 422 813 L 422 0 L 188 0 L 188 1446 Z" unicode="N" />
<glyph horiz-adv-x="1575" d="M 786 1470 C 882 1470 971 1454 1054 1424 C 1137 1393 1209 1347 1271 1285 C 1332 1223 1380 1146 1415 1053 C 1450 959 1468 850 1468 725 C 1468 601 1449 492 1413 398 C 1377 304 1328 226 1266 164 C 1204 101 1131 54 1049 22 C 966 -9 878 -25 786 -25 C 688 -25 597 -9 514 21 C 431 52 359 99 299 161 C 239 223 191 301 157 395 C 123 489 106 599 106 725 C 106 849 123 958 159 1052 C 194 1145 242 1223 303 1285 C 364 1347 436 1393 519 1424 C 601 1454 690 1470 786 1470 Z M 786 1266 C 712 1266 648 1252 594 1225 C 540 1198 495 1161 459 1113 C 423 1065 397 1007 380 941 C 362 875 354 803 354 725 C 354 651 362 582 379 516 C 396 450 422 393 458 343 C 493 293 538 254 592 225 C 646 196 711 182 786 182 C 861 182 926 195 981 221 C 1035 247 1080 284 1116 332 C 1152 380 1178 437 1195 504 C 1212 570 1221 644 1221 725 C 1221 798 1212 867 1196 933 C 1179 998 1153 1055 1117 1105 C 1081 1154 1036 1193 982 1222 C 927 1251 862 1266 786 1266 Z" unicode="O" />
<glyph horiz-adv-x="1313" d="M 729 1446 C 829 1446 913 1434 980 1411 C 1047 1387 1101 1353 1141 1309 C 1175 1271 1200 1227 1216 1177 C 1232 1127 1241 1070 1241 1008 C 1241 938 1230 876 1210 821 C 1190 766 1160 719 1120 680 C 1100 660 1077 643 1053 629 C 1028 615 1000 603 968 593 C 936 583 901 575 862 570 C 822 565 778 563 729 563 L 430 563 L 430 0 L 188 0 L 188 1446 L 729 1446 Z M 430 762 L 748 762 C 791 762 828 767 859 777 C 889 787 915 801 936 821 C 957 842 972 869 982 901 C 992 933 997 970 997 1012 C 997 1044 992 1074 984 1103 C 975 1131 961 1156 942 1178 C 922 1199 897 1216 866 1228 C 834 1240 795 1247 748 1247 L 430 1247 L 430 762 Z" unicode="P" />
<glyph horiz-adv-x="1575" d="M 786 1470 C 882 1470 971 1454 1054 1424 C 1137 1393 1209 1347 1271 1285 C 1332 1223 1380 1146 1415 1053 C 1450 959 1468 850 1468 725 C 1468 598 1449 487 1412 393 C 1375 299 1324 220 1260 158 L 1448 -72 L 1225 -137 L 1081 37 C 990 -4 892 -25 786 -25 C 688 -25 597 -9 514 21 C 431 52 359 99 299 161 C 239 223 191 301 157 395 C 123 489 106 599 106 725 C 106 849 123 958 159 1052 C 194 1145 242 1223 303 1285 C 364 1347 436 1393 519 1424 C 601 1454 690 1470 786 1470 Z M 883 625 L 1118 334 C 1153 382 1179 439 1196 505 C 1212 571 1221 644 1221 725 C 1221 798 1212 867 1196 933 C 1179 998 1153 1055 1117 1105 C 1081 1154 1036 1193 982 1222 C 927 1251 862 1266 786 1266 C 712 1266 648 1252 594 1225 C 540 1198 495 1161 459 1113 C 423 1065 397 1007 380 941 C 362 875 354 803 354 725 C 354 651 362 582 379 516 C 396 450 422 393 458 343 C 493 293 538 254 592 225 C 646 196 711 182 786 182 C 815 182 843 184 869 188 C 895 192 919 198 942 207 L 698 506 L 883 625 Z" unicode="Q" />
<glyph horiz-adv-x="1395" d="M 768 1446 C 859 1446 937 1434 1002 1411 C 1066 1388 1119 1355 1161 1311 C 1195 1275 1220 1234 1238 1187 C 1255 1140 1264 1088 1264 1032 C 1264 986 1258 942 1247 901 C 1235 859 1218 822 1194 788 C 1170 754 1139 724 1101 698 C 1063 672 1017 653 963 639 L 1360 0 L 1073 0 L 723 592 L 430 592 L 430 0 L 188 0 L 188 1446 L 768 1446 Z M 430 786 L 754 786 C 801 786 841 791 875 802 C 908 812 935 828 956 849 C 977 869 992 895 1002 925 C 1011 955 1016 989 1016 1028 C 1016 1060 1011 1089 1002 1116 C 992 1143 977 1167 956 1187 C 935 1207 908 1222 875 1234 C 841 1245 801 1251 754 1251 L 430 1251 L 430 786 Z" unicode="R" />
<glyph horiz-adv-x="1184" d="M 985 1190 C 933 1214 876 1235 814 1251 C 751 1267 689 1276 627 1276 C 590 1276 555 1272 522 1266 C 488 1259 459 1248 433 1232 C 407 1216 387 1196 372 1171 C 357 1145 350 1114 350 1077 C 350 1037 358 1004 376 978 C 394 952 417 930 445 912 C 473 894 505 880 541 868 C 576 856 611 846 647 836 C 711 816 771 794 826 770 C 881 746 928 716 968 682 C 1007 647 1038 607 1060 561 C 1082 515 1094 461 1094 399 C 1094 332 1081 272 1055 219 C 1029 165 992 120 944 82 C 896 44 836 15 766 -4 C 696 -24 616 -35 526 -35 C 490 -35 454 -33 416 -30 C 378 -26 340 -21 303 -14 C 265 -7 229 1 193 12 C 157 23 124 36 94 51 L 137 264 C 167 248 198 234 232 222 C 266 210 300 199 335 191 C 369 182 404 175 439 171 C 473 166 507 164 539 164 C 578 164 616 167 653 174 C 690 181 723 193 752 210 C 781 226 804 248 822 274 C 839 300 848 333 848 373 C 848 415 837 450 817 479 C 796 507 770 531 739 551 C 708 570 674 586 637 598 C 599 610 564 621 532 631 C 503 638 473 647 441 657 C 409 667 378 679 347 694 C 315 708 285 726 257 747 C 228 767 203 792 181 822 C 159 851 141 885 128 925 C 115 964 109 1009 109 1061 C 109 1132 121 1193 147 1245 C 173 1296 209 1338 255 1372 C 301 1405 355 1430 419 1446 C 483 1462 553 1470 629 1470 C 709 1470 781 1462 845 1448 C 909 1433 968 1416 1024 1397 L 985 1190 Z" unicode="S" />
<glyph horiz-adv-x="1149" d="M 1110 1446 L 1110 1247 L 698 1247 L 698 0 L 453 0 L 453 1247 L 39 1247 L 39 1446 L 1110 1446 Z" unicode="T" />
<glyph horiz-adv-x="1458" d="M 412 1446 L 412 522 C 412 474 414 430 419 389 C 424 347 437 311 459 281 C 480 250 512 226 555 208 C 597 190 657 182 733 182 C 807 182 866 190 909 208 C 951 226 983 250 1004 281 C 1025 311 1038 347 1043 389 C 1048 430 1051 474 1051 522 L 1051 1446 L 1288 1446 L 1288 506 C 1288 464 1285 421 1281 379 C 1277 336 1268 295 1254 256 C 1240 216 1221 180 1197 146 C 1172 112 1139 82 1098 57 C 1056 31 1006 11 946 -3 C 886 -17 814 -25 731 -25 C 647 -25 576 -17 516 -3 C 456 11 405 31 363 57 C 321 82 288 112 263 146 C 237 180 218 216 204 256 C 190 295 181 336 177 379 C 172 421 170 464 170 506 L 170 1446 L 412 1446 Z" unicode="U" />
<glyph horiz-adv-x="1272" d="M 299 1446 L 598 453 L 631 301 L 651 301 L 688 453 L 987 1446 L 1247 1446 L 756 0 L 512 0 L 33 1446 L 299 1446 Z" unicode="V" />
<glyph horiz-adv-x="2003" d="M 328 1446 L 543 459 L 573 293 L 594 293 L 627 459 L 860 1446 L 1141 1446 L 1374 459 L 1409 293 L 1430 293 L 1458 459 L 1673 1446 L 1931 1446 L 1563 0 L 1276 0 L 1038 997 L 1008 1163 L 987 1163 L 956 997 L 723 0 L 440 0 L 72 1446 L 328 1446 Z" unicode="W" />
<glyph horiz-adv-x="1329" d="M 346 1446 L 668 913 L 1006 1446 L 1280 1446 L 809 750 L 1290 0 L 987 0 L 659 586 L 315 0 L 39 0 L 514 750 L 49 1446 L 346 1446 Z" unicode="X" />
<glyph horiz-adv-x="1315" d="M 307 1446 L 668 735 L 1028 1446 L 1300 1446 L 778 510 L 778 0 L 535 0 L 535 510 L 16 1446 L 307 1446 Z" unicode="Y" />
<glyph horiz-adv-x="1262" d="M 1163 1446 L 1163 1290 L 397 199 L 1174 199 L 1174 0 L 88 0 L 88 156 L 858 1247 L 164 1247 L 164 1446 L 1163 1446 Z" unicode="Z" />
<glyph horiz-adv-x="770" d="M 637 1548 L 637 1403 L 365 1403 L 365 -188 L 637 -188 L 637 -336 L 164 -336 L 164 1548 L 637 1548 Z" unicode="[" />
<glyph horiz-adv-x="924" d="M 184 1446 L 946 -236 L 760 -236 C 632 44 504 325 376 605 C 248 885 120 1165 -6 1446 L 184 1446 Z" unicode="\" />
<glyph horiz-adv-x="770" d="M 606 1548 L 606 -336 L 133 -336 L 133 -188 L 406 -188 L 406 1403 L 133 1403 L 133 1548 L 606 1548 Z" unicode="]" />
<glyph horiz-adv-x="1206" d="M 672 1446 L 1206 461 L 958 461 L 688 1020 L 614 1176 L 590 1176 L 520 1020 L 250 461 L 2 461 L 530 1446 L 672 1446 Z" unicode="^" />
<glyph horiz-adv-x="1206" d="M 1217 -287 L 1217 -451 L -10 -451 L -10 -287 L 1217 -287 Z" unicode="_" />
<glyph horiz-adv-x="866" d="M 545 1217 L 426 1217 L 104 1454 L 104 1530 L 299 1530 L 545 1278 L 545 1217 Z" unicode="`" />
<glyph horiz-adv-x="1126" d="M 139 981 C 155 993 176 1005 203 1017 C 229 1029 260 1041 296 1051 C 331 1061 371 1070 415 1077 C 459 1083 506 1087 557 1087 C 623 1087 683 1080 735 1066 C 787 1052 830 1030 866 1000 C 902 970 929 930 947 882 C 965 834 975 775 975 707 L 975 274 C 975 203 981 145 994 101 C 1007 56 1020 22 1032 0 L 801 0 C 794 13 786 33 776 60 C 766 87 760 120 758 158 C 722 102 675 57 619 25 C 562 -6 494 -23 416 -23 C 366 -23 321 -16 281 -3 C 240 10 205 30 176 56 C 146 82 124 115 108 154 C 92 192 84 237 84 287 C 84 341 94 389 116 433 C 137 477 173 514 224 546 C 275 577 343 601 428 619 C 512 637 618 647 745 649 L 745 719 C 745 784 730 832 700 862 C 670 892 619 907 549 907 C 493 907 439 899 387 884 C 335 869 283 849 231 825 L 139 981 Z M 745 518 C 647 511 569 500 511 486 C 453 472 410 455 380 436 C 350 416 331 395 323 373 C 315 351 311 329 311 307 C 311 257 324 218 352 191 C 380 163 423 150 483 150 C 521 150 557 155 589 167 C 621 179 649 195 672 217 C 695 238 713 264 726 294 C 738 324 745 359 745 397 L 745 518 Z" unicode="a" />
<glyph horiz-adv-x="1210" d="M 391 1507 L 391 922 C 409 948 427 972 447 993 C 467 1013 488 1031 512 1045 C 535 1059 560 1069 588 1076 C 615 1083 646 1087 680 1087 C 756 1087 821 1072 876 1042 C 931 1012 976 972 1012 922 C 1048 871 1074 812 1091 746 C 1107 679 1116 609 1116 535 C 1116 493 1113 451 1107 407 C 1101 363 1092 321 1079 280 C 1066 238 1049 199 1028 163 C 1006 126 980 94 948 66 C 916 38 879 17 837 1 C 795 -15 746 -23 692 -23 C 659 -23 628 -20 600 -15 C 571 -9 544 0 518 11 C 492 23 468 40 444 61 C 420 82 397 109 375 141 L 354 0 L 164 0 L 164 1507 L 391 1507 Z M 391 385 C 391 360 395 335 405 309 C 414 283 429 260 449 239 C 469 218 494 201 524 188 C 554 174 591 168 633 168 C 686 168 729 178 761 200 C 793 221 817 249 835 284 C 852 319 863 359 869 403 C 874 447 877 491 877 537 C 877 580 874 623 869 666 C 863 709 852 748 835 782 C 817 816 793 843 761 865 C 729 886 686 897 633 897 C 591 897 554 890 524 876 C 494 862 469 844 449 823 C 429 801 414 778 405 752 C 395 726 391 700 391 676 L 391 385 Z" unicode="b" />
<glyph horiz-adv-x="1016" d="M 616 168 C 664 168 708 175 749 189 C 789 203 827 222 862 246 L 932 66 C 888 38 839 16 786 0 C 732 -15 670 -23 600 -23 C 513 -23 438 -9 375 18 C 311 45 259 83 217 131 C 175 179 144 237 124 304 C 104 371 94 444 94 524 C 94 606 104 681 126 750 C 148 819 180 878 223 928 C 265 978 318 1017 382 1045 C 446 1073 520 1087 604 1087 C 672 1087 732 1079 786 1064 C 839 1048 888 1027 932 999 L 862 819 C 827 841 789 860 749 875 C 708 889 662 897 612 897 C 563 897 521 887 486 869 C 451 851 422 825 399 792 C 376 759 359 720 348 675 C 337 630 332 581 332 528 C 332 484 336 441 344 398 C 352 355 366 317 387 283 C 408 249 437 221 474 200 C 510 178 558 168 616 168 Z" unicode="c" />
<glyph horiz-adv-x="1210" d="M 1047 1507 L 1047 0 L 856 0 L 836 150 C 812 117 789 90 765 68 C 741 46 717 28 691 14 C 665 0 638 -8 610 -14 C 581 -20 550 -23 518 -23 C 463 -23 414 -15 372 1 C 330 17 293 38 261 66 C 229 94 203 126 182 163 C 160 199 143 238 130 280 C 117 321 108 363 102 407 C 96 451 94 493 94 535 C 94 609 102 679 119 746 C 135 812 161 871 197 922 C 233 972 278 1012 333 1042 C 388 1072 454 1087 530 1087 C 564 1087 594 1083 622 1077 C 650 1071 675 1061 699 1049 C 722 1036 743 1020 763 1000 C 782 980 801 956 819 930 L 819 1507 L 1047 1507 Z M 819 676 C 819 700 814 726 805 752 C 795 778 781 801 761 823 C 741 844 716 862 686 876 C 656 890 620 897 578 897 C 524 897 482 886 450 865 C 418 843 393 816 376 782 C 358 748 347 709 342 666 C 336 623 334 580 334 537 C 334 491 336 447 342 403 C 347 359 358 319 376 284 C 393 249 418 221 450 200 C 482 178 524 168 578 168 C 620 168 656 174 686 188 C 716 201 741 218 761 239 C 781 260 795 283 805 309 C 814 335 819 360 819 385 L 819 676 Z" unicode="d" />
<glyph horiz-adv-x="1143" d="M 326 481 C 328 440 335 400 346 362 C 356 323 373 288 396 258 C 418 228 448 203 485 185 C 521 167 567 158 623 158 C 685 158 743 167 795 186 C 847 204 898 230 948 262 L 1018 100 C 964 62 905 32 841 10 C 777 -11 703 -23 621 -23 C 529 -23 450 -9 384 17 C 318 44 263 82 220 130 C 177 178 145 234 125 300 C 104 365 94 436 94 512 C 94 594 105 671 128 741 C 151 811 184 871 228 923 C 271 974 323 1014 385 1043 C 447 1072 516 1087 594 1087 C 666 1087 729 1075 785 1051 C 840 1027 886 993 924 951 C 962 909 990 859 1010 801 C 1030 743 1040 680 1040 612 C 1040 600 1039 583 1038 561 C 1037 539 1035 513 1032 481 L 326 481 Z M 592 915 C 521 915 463 890 417 841 C 371 791 342 721 330 631 L 821 631 C 821 673 816 711 806 746 C 796 780 781 810 762 835 C 742 860 718 880 690 894 C 662 908 629 915 592 915 Z" unicode="e" />
<glyph horiz-adv-x="641" d="M 184 1065 L 184 1245 C 184 1285 190 1323 203 1359 C 215 1394 234 1425 259 1451 C 283 1477 314 1497 351 1512 C 387 1526 430 1534 479 1534 C 520 1534 555 1531 584 1526 C 612 1521 631 1515 641 1509 L 621 1341 C 608 1344 592 1347 572 1350 C 552 1352 534 1354 518 1354 C 478 1354 449 1345 433 1329 C 416 1313 408 1283 408 1239 L 408 1065 L 641 1065 L 641 891 L 414 891 L 414 0 L 184 0 L 184 891 L 12 891 L 12 1065 L 184 1065 Z" unicode="f" />
<glyph horiz-adv-x="1210" d="M 1047 1065 L 1047 2 C 1047 -76 1035 -145 1012 -204 C 989 -262 957 -311 915 -350 C 873 -389 822 -418 762 -438 C 702 -457 636 -467 563 -467 C 491 -467 424 -460 363 -446 C 302 -432 248 -414 201 -391 L 233 -209 C 274 -230 321 -248 374 -263 C 426 -277 487 -285 555 -285 C 597 -285 635 -280 668 -270 C 701 -260 729 -243 751 -220 C 773 -197 790 -167 802 -130 C 813 -92 819 -46 819 8 L 819 135 C 749 34 649 -16 520 -16 C 465 -16 417 -8 375 7 C 333 23 296 44 264 72 C 232 99 206 131 184 167 C 162 203 145 242 132 284 C 118 325 109 367 103 411 C 97 454 94 497 94 539 C 94 611 102 681 119 747 C 136 813 162 871 198 921 C 234 971 279 1012 335 1042 C 391 1072 457 1087 535 1087 C 569 1087 600 1083 628 1077 C 656 1070 681 1060 705 1047 C 729 1033 751 1016 772 995 C 793 973 814 948 836 920 L 856 1065 L 1047 1065 Z M 819 676 C 819 700 814 726 805 752 C 795 778 781 802 761 824 C 741 845 716 862 686 876 C 655 890 618 897 575 897 C 522 897 480 886 448 864 C 416 842 392 814 375 780 C 358 746 347 707 342 665 C 336 622 334 579 334 537 C 334 491 336 446 342 402 C 348 358 359 318 377 284 C 394 249 419 221 451 200 C 483 178 525 168 578 168 C 620 168 657 174 687 188 C 717 201 742 218 762 239 C 781 260 795 283 805 309 C 814 335 819 360 819 385 L 819 676 Z" unicode="g" />
<glyph horiz-adv-x="1196" d="M 391 1507 L 391 915 C 412 950 434 979 457 1001 C 479 1023 503 1041 527 1054 C 551 1066 577 1075 605 1080 C 632 1084 661 1087 692 1087 C 750 1087 801 1078 844 1060 C 887 1042 924 1018 954 987 C 987 953 1011 911 1027 861 C 1043 811 1051 750 1051 676 L 1051 0 L 823 0 L 823 707 C 823 730 819 753 812 777 C 805 800 793 821 776 840 C 760 857 740 871 715 881 C 689 891 657 897 618 897 C 585 897 555 891 527 880 C 499 869 475 854 455 834 C 435 814 419 791 408 765 C 396 738 391 709 391 678 L 391 0 L 164 0 L 164 1507 L 391 1507 Z" unicode="h" />
<glyph horiz-adv-x="555" d="M 391 1065 L 391 0 L 164 0 L 164 1065 L 391 1065 Z M 401 1507 L 401 1292 L 154 1292 L 154 1507 L 401 1507 Z" unicode="i" />
<glyph horiz-adv-x="555" d="M 401 1507 L 401 1292 L 154 1292 L 154 1507 L 401 1507 Z M 164 1065 L 391 1065 L 391 -170 C 391 -211 384 -249 372 -285 C 359 -320 340 -350 315 -376 C 290 -401 259 -421 222 -435 C 184 -449 141 -457 92 -457 C 67 -457 46 -455 29 -453 C 12 -451 -2 -448 -14 -446 L 0 -272 C 8 -273 16 -274 26 -275 C 36 -275 45 -276 55 -276 C 96 -276 124 -266 140 -248 C 156 -230 164 -200 164 -158 L 164 1065 Z" unicode="j" />
<glyph horiz-adv-x="1116" d="M 391 1507 L 391 623 L 813 1065 L 1096 1065 L 666 653 L 1116 0 L 827 0 L 506 500 L 391 395 L 391 0 L 164 0 L 164 1507 L 391 1507 Z" unicode="k" />
<glyph horiz-adv-x="555" d="M 391 1507 L 391 0 L 164 0 L 164 1507 L 391 1507 Z" unicode="l" />
<glyph horiz-adv-x="1798" d="M 354 1065 L 375 895 C 397 933 421 965 446 990 C 470 1014 496 1034 522 1048 C 548 1062 575 1072 602 1078 C 629 1084 656 1087 684 1087 C 716 1087 747 1084 777 1079 C 807 1073 836 1064 864 1050 C 891 1036 916 1018 939 995 C 962 971 982 942 999 907 C 1041 972 1088 1018 1138 1046 C 1188 1073 1245 1087 1311 1087 C 1364 1087 1411 1078 1452 1062 C 1493 1045 1529 1020 1561 987 C 1575 971 1587 953 1599 934 C 1611 914 1621 892 1629 867 C 1637 842 1644 814 1648 783 C 1652 751 1655 716 1655 676 L 1655 0 L 1425 0 L 1425 707 C 1425 728 1422 750 1416 773 C 1410 795 1401 816 1387 834 C 1373 852 1354 867 1330 879 C 1306 891 1277 897 1241 897 C 1209 897 1179 891 1153 880 C 1126 869 1103 854 1084 834 C 1064 814 1049 791 1038 765 C 1027 738 1022 709 1022 678 L 1022 0 L 793 0 L 793 707 C 793 728 790 750 784 773 C 778 795 769 816 755 834 C 741 852 722 867 698 879 C 674 891 644 897 608 897 C 576 897 547 891 521 880 C 495 869 472 854 453 834 C 433 814 418 791 407 765 C 396 738 391 709 391 678 L 391 0 L 164 0 L 164 872 L 143 1065 L 354 1065 Z" unicode="m" />
<glyph horiz-adv-x="1196" d="M 354 1065 L 375 895 C 397 933 421 965 446 990 C 470 1015 496 1035 522 1049 C 548 1063 575 1073 603 1079 C 631 1084 661 1087 692 1087 C 750 1087 801 1078 844 1060 C 887 1042 924 1018 954 987 C 987 953 1011 911 1027 861 C 1043 811 1051 750 1051 676 L 1051 0 L 823 0 L 823 707 C 823 730 819 753 813 777 C 807 800 795 821 778 840 C 762 857 742 871 716 881 C 690 891 657 897 618 897 C 585 897 555 891 527 880 C 499 869 475 854 455 834 C 435 814 419 791 408 765 C 396 738 391 709 391 678 L 391 0 L 164 0 L 164 872 L 143 1065 L 354 1065 Z" unicode="n" />
<glyph horiz-adv-x="1176" d="M 588 897 C 538 897 496 887 464 868 C 431 849 405 823 385 791 C 365 758 352 720 344 676 C 336 632 332 586 332 537 C 332 491 335 446 342 402 C 349 358 362 318 381 284 C 400 249 426 221 460 200 C 493 178 536 168 588 168 C 638 168 679 177 712 197 C 745 217 771 243 791 277 C 810 310 824 349 832 394 C 840 439 844 487 844 537 C 844 582 840 626 833 670 C 825 713 812 751 793 785 C 774 819 748 846 715 866 C 682 886 640 897 588 897 Z M 590 1087 C 664 1087 732 1074 792 1048 C 852 1022 904 985 947 937 C 989 889 1022 832 1045 764 C 1068 696 1080 621 1081 537 C 1081 458 1070 385 1048 317 C 1026 249 995 189 953 139 C 911 89 859 49 798 20 C 737 -8 668 -23 590 -23 C 514 -23 445 -9 384 16 C 323 42 271 80 228 129 C 185 177 152 236 129 305 C 105 374 94 451 94 537 C 94 616 105 689 128 756 C 150 823 183 881 225 930 C 267 979 319 1017 381 1045 C 442 1073 512 1087 590 1087 Z" unicode="o" />
<glyph horiz-adv-x="1210" d="M 354 1065 L 375 911 C 395 941 416 967 438 989 C 459 1011 482 1029 506 1043 C 530 1057 556 1068 584 1076 C 612 1083 644 1087 680 1087 C 756 1087 821 1072 876 1042 C 931 1012 976 971 1012 921 C 1048 871 1074 813 1091 747 C 1107 681 1116 611 1116 539 C 1116 497 1113 454 1107 410 C 1101 366 1091 323 1078 281 C 1065 239 1048 200 1026 163 C 1004 126 978 94 947 66 C 915 38 878 17 836 1 C 794 -15 746 -23 692 -23 C 625 -23 567 -11 518 13 C 469 37 427 75 391 129 L 391 -451 L 164 -451 L 164 872 L 143 1065 L 354 1065 Z M 391 385 C 391 359 396 334 406 308 C 416 282 431 258 451 238 C 471 217 495 200 524 187 C 552 174 585 168 623 168 C 678 168 722 178 756 198 C 789 218 815 245 833 279 C 851 313 862 351 868 395 C 874 439 877 484 877 532 C 877 576 874 620 869 664 C 863 708 852 747 835 781 C 817 815 793 843 761 865 C 729 886 686 897 633 897 C 591 897 554 890 524 876 C 494 862 469 845 449 824 C 429 802 414 778 405 752 C 395 726 391 700 391 676 L 391 385 Z" unicode="p" />
<glyph horiz-adv-x="1210" d="M 1047 1065 L 1047 -451 L 819 -451 L 819 135 C 783 81 740 42 691 16 C 642 -10 584 -23 518 -23 C 464 -23 416 -15 374 1 C 332 17 295 38 264 66 C 232 94 206 126 184 163 C 162 200 145 239 132 281 C 118 323 109 366 103 410 C 97 454 94 497 94 539 C 94 611 102 681 119 747 C 135 813 161 871 197 921 C 233 971 278 1012 333 1042 C 388 1072 454 1087 530 1087 C 565 1087 597 1083 626 1077 C 654 1070 681 1060 705 1047 C 729 1033 751 1016 772 995 C 793 973 814 948 836 920 L 856 1065 L 1047 1065 Z M 819 676 C 819 700 814 726 805 752 C 795 778 781 802 761 824 C 741 845 716 862 686 876 C 656 890 620 897 578 897 C 524 897 482 886 450 865 C 418 843 393 815 376 781 C 358 747 347 708 342 664 C 336 620 334 576 334 532 C 334 484 336 439 342 395 C 348 351 360 313 378 279 C 396 245 421 218 455 198 C 488 178 532 168 588 168 C 624 168 657 174 686 187 C 714 200 738 217 758 238 C 778 258 793 282 803 308 C 813 334 819 359 819 385 L 819 676 Z" unicode="q" />
<glyph horiz-adv-x="752" d="M 350 1065 L 371 889 C 387 915 405 940 424 964 C 442 987 462 1007 483 1024 C 504 1041 527 1054 551 1064 C 575 1074 601 1079 629 1079 C 645 1079 663 1077 682 1074 C 701 1071 719 1066 737 1059 L 711 831 C 689 836 668 839 648 841 C 627 843 609 844 594 844 C 564 844 536 839 511 831 C 486 823 465 811 447 795 C 429 779 415 759 405 735 C 395 711 391 683 391 651 L 391 0 L 164 0 L 164 874 L 143 1065 L 350 1065 Z" unicode="r" />
<glyph horiz-adv-x="971" d="M 803 848 C 757 867 709 883 659 897 C 609 911 558 918 504 918 C 480 918 458 915 437 911 C 415 907 397 900 381 891 C 365 881 352 869 342 854 C 332 838 328 819 328 797 C 328 771 333 750 345 733 C 357 715 373 700 395 688 C 416 676 442 665 472 655 C 502 645 537 635 575 625 C 610 615 646 602 683 587 C 719 572 753 552 783 528 C 813 503 837 473 856 437 C 875 401 885 357 885 305 C 885 248 873 198 850 156 C 826 113 794 77 754 49 C 714 21 666 0 612 -14 C 558 -28 500 -35 438 -35 C 403 -35 368 -33 334 -29 C 300 -25 267 -19 237 -13 C 206 -6 178 1 154 9 C 129 17 109 26 94 35 L 127 221 C 168 199 215 181 268 165 C 320 149 377 141 438 141 C 464 141 490 143 516 147 C 542 151 565 159 586 170 C 606 180 623 194 636 212 C 648 230 655 252 655 279 C 655 305 649 327 637 345 C 625 363 607 378 585 392 C 563 406 536 418 504 429 C 472 439 436 451 397 463 C 365 473 331 485 296 501 C 261 517 229 537 201 562 C 172 587 148 617 130 652 C 111 687 102 729 102 778 C 102 830 112 875 132 915 C 152 954 181 987 217 1013 C 253 1039 296 1059 346 1072 C 396 1085 450 1092 510 1092 C 572 1092 631 1086 688 1075 C 744 1063 794 1049 838 1032 L 803 848 Z" unicode="s" />
<glyph horiz-adv-x="721" d="M 422 1348 L 422 1065 L 664 1065 L 664 891 L 422 891 L 422 279 C 422 265 423 251 427 239 C 430 227 435 216 442 206 C 449 196 458 189 470 184 C 481 178 495 176 512 176 L 672 176 L 657 4 C 639 -5 615 -11 584 -15 C 552 -18 513 -20 465 -20 C 418 -20 378 -13 344 0 C 310 14 282 32 260 56 C 238 79 221 106 211 138 C 200 169 195 202 195 238 L 195 891 L 23 891 L 23 1065 L 195 1065 L 221 1348 L 422 1348 Z" unicode="t" />
<glyph horiz-adv-x="1198" d="M 844 0 L 823 170 C 799 130 775 98 751 74 C 726 49 701 29 675 15 C 649 0 622 -9 594 -15 C 566 -20 536 -23 506 -23 C 447 -23 396 -14 353 4 C 309 22 272 46 242 78 C 210 112 185 153 169 203 C 153 253 145 315 145 389 L 145 1065 L 373 1065 L 373 356 C 373 333 376 310 383 287 C 390 264 402 243 420 225 C 435 207 456 193 482 183 C 508 173 540 168 578 168 C 610 168 641 173 669 184 C 697 195 721 210 741 230 C 761 250 777 273 789 299 C 801 325 807 354 807 385 L 807 1065 L 1034 1065 L 1034 193 L 1055 0 L 844 0 Z" unicode="u" />
<glyph horiz-adv-x="1010" d="M 260 1065 L 479 385 L 504 287 L 514 287 L 541 385 L 766 1065 L 1004 1065 L 608 0 L 399 0 L 8 1065 L 260 1065 Z" unicode="v" />
<glyph horiz-adv-x="1544" d="M 268 1065 L 426 432 L 444 324 L 455 324 L 481 432 L 670 1065 L 881 1065 L 1073 432 L 1098 324 L 1108 324 L 1128 432 L 1280 1065 L 1520 1065 L 1217 0 L 1006 0 L 803 670 L 778 778 L 768 778 L 745 670 L 541 0 L 330 0 L 29 1065 L 268 1065 Z" unicode="w" />
<glyph horiz-adv-x="1051" d="M 315 1065 L 526 696 L 745 1065 L 995 1065 L 662 551 L 1018 0 L 745 0 L 520 395 L 285 0 L 25 0 L 389 545 L 47 1065 L 315 1065 Z" unicode="x" />
<glyph horiz-adv-x="1012" d="M 250 1065 L 485 371 L 512 268 L 522 268 L 549 371 L 768 1065 L 1006 1065 L 575 -131 C 560 -173 543 -213 524 -253 C 505 -292 483 -327 457 -357 C 431 -387 400 -411 366 -429 C 331 -447 291 -457 246 -457 C 221 -457 199 -455 180 -452 C 160 -449 145 -444 135 -438 L 119 -272 C 156 -272 187 -270 213 -268 C 238 -265 259 -259 276 -251 C 293 -243 307 -231 319 -215 C 330 -199 340 -179 350 -154 L 401 -16 L 2 1065 L 250 1065 Z" unicode="y" />
<glyph horiz-adv-x="934" d="M 860 1065 L 860 936 L 344 172 L 877 172 L 877 0 L 68 0 L 68 129 L 582 891 L 119 891 L 119 1065 L 860 1065 Z" unicode="z" />
<glyph horiz-adv-x="848" d="M 745 1548 L 745 1403 L 633 1403 C 579 1403 538 1390 512 1365 C 486 1340 473 1306 473 1262 C 473 1248 473 1236 474 1224 C 475 1212 477 1199 481 1184 L 532 836 C 533 826 532 818 528 810 C 524 802 519 794 514 788 L 356 627 L 356 612 L 514 449 C 519 442 524 435 528 427 C 532 419 533 410 532 399 L 481 33 C 477 16 475 2 474 -10 C 473 -22 473 -35 473 -51 C 473 -69 476 -87 482 -104 C 488 -120 498 -135 512 -147 C 525 -159 542 -169 562 -177 C 582 -184 605 -188 633 -188 L 745 -188 L 745 -336 L 594 -336 C 546 -336 499 -329 455 -316 C 411 -303 374 -282 344 -254 C 318 -230 298 -202 284 -170 C 269 -138 262 -102 262 -63 C 262 -45 264 -25 268 -2 L 313 324 C 316 344 318 359 320 368 C 321 376 322 383 322 389 C 322 409 319 427 313 445 C 307 462 299 477 289 489 C 279 501 266 511 252 519 C 237 526 221 530 203 530 L 74 530 L 74 707 L 203 707 C 221 707 237 710 252 718 C 267 725 280 735 290 748 C 300 760 308 775 314 793 C 320 810 322 828 322 848 C 322 854 321 861 321 870 C 320 878 317 893 313 915 L 268 1214 C 266 1224 264 1234 264 1244 C 264 1253 264 1262 264 1272 C 264 1310 270 1345 284 1378 C 298 1410 316 1438 340 1462 C 370 1492 408 1513 452 1527 C 496 1541 544 1548 594 1548 L 745 1548 Z" unicode="{" />
<glyph horiz-adv-x="852" d="M 553 1720 L 553 -348 L 299 -348 L 299 1720 L 553 1720 Z" unicode="|" />
<glyph horiz-adv-x="848" d="M 254 1548 C 304 1548 351 1541 395 1527 C 439 1513 476 1492 506 1462 C 529 1438 548 1410 562 1378 C 576 1345 584 1310 584 1272 C 584 1262 583 1253 583 1244 C 583 1234 582 1224 580 1214 L 532 915 C 528 893 526 878 525 870 C 524 861 524 854 524 848 C 524 828 526 810 532 793 C 537 775 545 760 555 748 C 565 735 578 725 593 718 C 607 710 624 707 643 707 L 772 707 L 772 530 L 643 530 C 624 530 607 526 593 519 C 578 511 565 501 555 489 C 545 477 537 462 532 445 C 526 427 524 409 524 389 C 524 383 524 376 525 368 C 526 359 528 344 532 324 L 580 -2 C 582 -13 583 -24 583 -34 C 583 -44 584 -53 584 -63 C 584 -102 577 -138 563 -170 C 549 -202 529 -230 504 -254 C 472 -282 435 -303 391 -316 C 347 -329 302 -336 254 -336 L 102 -336 L 102 -188 L 213 -188 C 241 -188 265 -184 285 -177 C 305 -169 321 -159 334 -147 C 347 -135 357 -120 363 -104 C 369 -87 373 -69 373 -51 C 373 -35 372 -22 371 -10 C 370 2 369 16 367 33 L 313 399 C 311 410 313 419 318 427 C 322 435 328 442 334 449 L 492 612 L 492 627 L 334 788 C 328 794 322 802 318 810 C 313 818 311 826 313 836 L 367 1184 C 369 1199 370 1212 371 1224 C 372 1236 373 1248 373 1262 C 373 1306 360 1340 334 1365 C 308 1390 267 1403 213 1403 L 102 1403 L 102 1548 L 254 1548 Z" unicode="}" />
<glyph horiz-adv-x="1206" d="M 61 565 C 86 600 113 632 142 660 C 171 688 201 711 231 731 C 261 750 292 765 323 775 C 353 785 383 791 412 791 C 441 791 468 786 493 776 C 517 766 541 753 563 739 C 585 724 606 708 626 690 C 646 672 665 656 685 642 C 705 627 725 615 746 605 C 766 595 788 590 811 590 C 843 590 874 601 905 623 C 935 645 965 675 993 713 L 1147 600 C 1122 567 1095 537 1067 511 C 1039 484 1009 461 979 442 C 949 423 918 408 887 398 C 855 388 825 383 795 383 C 765 383 738 387 714 397 C 690 406 667 418 645 432 C 623 446 602 462 582 479 C 562 495 542 511 522 525 C 502 539 481 551 461 561 C 440 570 418 575 395 575 C 364 575 333 564 303 544 C 272 523 243 495 215 461 L 61 565 Z" unicode="~" />
<glyph horiz-adv-x="469" d="" unicode="" />
<glyph horiz-adv-x="645" d="M 168 0 L 168 250 L 217 956 L 373 956 L 428 250 L 428 0 L 168 0 Z M 158 1174 L 158 1446 L 432 1446 L 432 1174 L 158 1174 Z" unicode="" />
<glyph horiz-adv-x="1206" d="M 674 213 C 721 213 765 220 806 234 C 846 248 884 268 920 293 L 989 111 C 945 83 896 62 843 46 C 790 30 728 23 657 23 C 649 23 641 23 633 23 C 625 23 616 23 608 25 L 555 -291 L 373 -291 L 434 61 C 386 81 344 107 309 141 C 273 174 244 212 221 256 C 197 300 180 348 169 401 C 157 454 152 511 152 571 C 152 649 161 722 181 788 C 201 854 230 912 269 961 C 308 1010 357 1049 415 1079 C 473 1108 541 1125 618 1130 L 666 1413 L 848 1413 L 797 1120 C 833 1112 867 1102 899 1089 C 930 1076 960 1061 989 1044 L 920 864 C 884 887 846 906 806 920 C 765 934 720 942 670 942 C 621 942 579 932 543 914 C 507 896 477 870 453 838 C 429 805 412 766 400 721 C 388 676 383 627 383 575 C 383 531 387 487 396 444 C 404 400 419 362 441 328 C 463 294 492 266 530 245 C 568 223 616 213 674 213 Z" unicode="" />
<glyph horiz-adv-x="1257" d="M 877 666 L 565 666 C 578 634 589 601 597 567 C 605 533 610 499 610 463 C 610 425 604 388 594 352 C 584 315 566 280 541 246 C 563 238 585 231 606 225 C 627 219 648 213 669 208 C 690 203 712 199 734 197 C 756 194 779 193 805 193 C 829 193 854 194 878 197 C 902 200 927 205 953 211 C 978 217 1004 224 1032 233 C 1060 241 1090 252 1122 264 L 1122 61 C 1108 52 1091 43 1069 34 C 1047 24 1023 16 995 8 C 967 0 938 -5 906 -10 C 874 -15 842 -18 809 -18 C 779 -18 749 -15 720 -11 C 691 -7 661 0 631 8 C 600 17 568 28 534 42 C 500 56 464 72 424 92 C 390 57 351 32 308 17 C 264 1 218 -6 168 -6 C 143 -6 119 -4 96 -1 C 73 2 56 8 45 16 L 45 205 C 62 201 80 199 99 197 C 118 195 136 195 154 195 C 200 195 238 202 268 218 C 298 233 322 252 340 276 C 358 300 370 326 378 354 C 385 382 389 410 389 436 C 389 475 382 514 369 552 C 355 590 340 628 322 666 L 45 666 L 45 817 L 244 817 C 223 858 206 900 192 944 C 178 987 172 1033 172 1081 C 172 1138 183 1190 205 1238 C 227 1286 260 1327 303 1361 C 346 1395 399 1422 462 1441 C 524 1460 596 1470 678 1470 C 728 1470 774 1466 818 1459 C 861 1451 900 1442 936 1431 C 971 1419 1002 1407 1029 1393 C 1055 1379 1077 1366 1094 1354 L 993 1188 C 931 1216 874 1237 822 1251 C 770 1265 720 1272 672 1272 C 588 1272 524 1254 480 1219 C 436 1184 414 1133 414 1067 C 414 1025 422 983 438 942 C 454 900 472 859 494 817 L 877 817 L 877 666 Z" unicode="" />
<glyph horiz-adv-x="1206" d="M 270 217 C 228 256 197 303 177 359 C 157 414 147 475 147 541 L 147 823 C 147 889 157 949 178 1005 C 199 1060 230 1107 270 1147 L 127 1446 L 315 1446 L 410 1233 C 464 1253 527 1264 598 1264 C 638 1264 675 1260 710 1253 C 744 1246 777 1237 807 1225 L 905 1446 L 1094 1446 C 1077 1412 1060 1378 1043 1342 C 1027 1311 1011 1277 993 1240 C 975 1203 958 1167 942 1133 C 978 1095 1005 1049 1024 996 C 1043 942 1053 885 1053 823 L 1053 541 C 1053 481 1043 424 1024 372 C 1005 319 978 274 942 236 L 1094 -80 L 905 -80 C 887 -39 870 -3 856 29 C 850 43 844 56 838 69 C 832 82 826 94 821 104 C 816 114 812 123 809 129 C 806 135 805 139 805 139 C 775 127 743 117 709 110 C 675 103 638 100 598 100 C 525 100 462 111 410 133 L 315 -80 L 127 -80 L 270 217 Z M 598 285 C 645 285 684 293 716 309 C 748 325 773 347 792 374 C 811 401 824 432 832 467 C 840 501 844 537 844 573 L 844 791 C 844 835 840 875 832 911 C 824 946 811 976 792 1001 C 773 1026 748 1045 716 1059 C 684 1072 645 1079 598 1079 C 550 1079 511 1072 480 1059 C 448 1045 423 1026 405 1001 C 387 976 374 946 367 911 C 359 875 356 835 356 791 L 356 573 C 356 528 359 488 367 453 C 374 417 387 387 405 362 C 423 337 448 318 480 305 C 511 291 550 285 598 285 Z" unicode="" />
<glyph horiz-adv-x="1257" d="M 348 1446 L 639 778 L 928 1446 L 1188 1446 L 954 965 L 1192 965 L 1192 819 L 877 819 L 797 641 L 1192 641 L 1192 492 L 752 492 L 752 0 L 508 0 L 508 492 L 63 492 L 63 641 L 459 641 L 381 819 L 63 819 L 63 965 L 305 965 L 74 1446 L 348 1446 Z" unicode="" />
<glyph horiz-adv-x="852" d="M 553 1567 L 553 840 L 299 840 L 299 1567 L 553 1567 Z M 553 530 L 553 -195 L 299 -195 L 299 530 L 553 530 Z" unicode="" />
<glyph horiz-adv-x="1446" d="M 369 -135 C 422 -154 477 -170 535 -183 C 592 -196 648 -203 702 -203 C 736 -203 768 -200 798 -195 C 827 -189 852 -181 873 -169 C 894 -157 910 -143 922 -125 C 934 -107 940 -85 940 -59 C 940 -27 931 -1 915 19 C 898 39 874 57 844 72 C 814 87 777 100 734 112 C 691 124 644 136 592 150 C 556 159 520 169 484 181 C 447 193 412 207 378 223 C 344 239 312 258 282 280 C 252 301 225 326 203 355 C 181 383 163 416 150 453 C 137 489 131 531 131 578 C 131 619 136 657 148 692 C 160 727 176 759 198 787 C 220 815 246 841 277 863 C 307 885 341 904 379 920 C 349 946 325 978 308 1015 C 291 1052 283 1095 283 1145 C 283 1196 293 1242 314 1282 C 335 1322 365 1356 404 1384 C 443 1412 490 1433 545 1448 C 600 1462 662 1470 731 1470 C 762 1470 794 1468 826 1465 C 858 1462 890 1458 922 1452 C 953 1446 983 1440 1013 1432 C 1042 1424 1069 1416 1094 1407 L 1059 1231 C 1005 1250 950 1266 894 1279 C 838 1291 783 1298 729 1298 C 696 1298 666 1295 639 1290 C 612 1285 589 1277 569 1266 C 549 1254 534 1240 524 1222 C 513 1204 508 1183 508 1157 C 508 1125 516 1098 532 1077 C 548 1056 572 1038 602 1023 C 632 1008 669 995 712 984 C 754 972 802 960 854 948 C 890 938 926 928 963 916 C 999 904 1035 890 1069 874 C 1103 858 1135 839 1165 817 C 1195 795 1221 770 1243 742 C 1265 713 1283 680 1296 644 C 1308 607 1315 566 1315 520 C 1315 478 1309 440 1297 405 C 1285 369 1269 337 1248 309 C 1226 280 1200 254 1170 232 C 1140 210 1106 191 1069 176 C 1097 149 1120 117 1138 81 C 1156 45 1165 2 1165 -47 C 1165 -98 1154 -144 1132 -185 C 1110 -225 1079 -260 1039 -288 C 999 -316 950 -337 893 -352 C 836 -367 772 -375 702 -375 C 670 -375 637 -373 604 -370 C 571 -366 539 -362 507 -356 C 475 -350 445 -344 415 -336 C 385 -328 358 -320 334 -311 L 369 -135 Z M 676 778 C 666 780 657 783 649 785 C 641 787 632 790 624 792 C 616 794 607 797 597 801 C 587 804 575 808 561 813 C 533 807 506 798 482 786 C 458 774 436 760 418 742 C 400 724 385 702 375 678 C 365 654 360 626 360 594 C 360 553 368 519 386 492 C 404 465 430 442 464 422 C 498 402 541 384 592 368 C 643 352 702 336 770 319 C 780 316 788 314 796 312 C 803 310 811 307 819 305 C 827 303 836 300 846 296 C 856 292 869 288 885 283 C 913 289 939 297 963 309 C 987 321 1009 336 1027 354 C 1045 372 1059 393 1069 418 C 1079 443 1085 472 1085 504 C 1085 544 1076 577 1059 604 C 1041 631 1015 654 981 674 C 947 694 904 711 853 727 C 802 743 743 760 676 778 Z" unicode="" />
<glyph horiz-adv-x="866" d="M 754 1458 L 754 1251 L 541 1251 L 541 1458 L 754 1458 Z M 326 1458 L 326 1251 L 113 1251 L 113 1458 L 326 1458 Z" unicode="" />
<glyph horiz-adv-x="1901" d="M 940 -180 C 860 -180 783 -169 709 -149 C 635 -129 565 -100 501 -64 C 436 -27 377 17 324 69 C 271 121 226 178 188 242 C 150 305 120 373 99 447 C 78 520 68 596 68 676 C 68 755 78 831 99 904 C 120 977 150 1045 188 1108 C 226 1171 271 1229 324 1281 C 377 1333 436 1377 501 1414 C 565 1450 635 1479 709 1499 C 783 1519 860 1530 940 1530 C 1019 1530 1095 1519 1169 1499 C 1243 1479 1312 1450 1376 1414 C 1440 1377 1499 1333 1552 1281 C 1604 1229 1649 1171 1687 1108 C 1725 1045 1754 977 1775 904 C 1795 831 1806 755 1806 676 C 1806 596 1795 520 1775 447 C 1754 373 1725 305 1687 242 C 1649 178 1604 121 1552 69 C 1499 17 1440 -27 1376 -64 C 1312 -100 1243 -129 1169 -149 C 1095 -169 1019 -180 940 -180 Z M 940 -29 C 1004 -29 1067 -20 1127 -4 C 1187 12 1242 36 1294 67 C 1346 97 1393 134 1436 177 C 1478 219 1515 267 1545 319 C 1575 371 1598 428 1615 488 C 1631 548 1640 610 1640 676 C 1640 772 1621 862 1585 948 C 1549 1033 1499 1108 1436 1172 C 1372 1236 1298 1287 1213 1325 C 1128 1363 1037 1382 940 1382 C 876 1382 814 1373 754 1356 C 694 1339 639 1315 587 1284 C 535 1253 487 1216 444 1173 C 401 1129 364 1081 333 1029 C 302 977 278 921 261 861 C 244 801 236 740 236 676 C 236 610 244 548 261 488 C 278 428 302 371 333 319 C 364 267 401 219 444 177 C 487 134 535 97 587 67 C 639 36 694 12 754 -4 C 814 -20 876 -29 940 -29 Z M 1221 893 C 1181 914 1139 930 1097 940 C 1054 950 1012 956 971 956 C 929 956 892 948 859 934 C 825 919 797 899 774 874 C 750 849 732 820 719 786 C 706 752 700 716 700 678 C 700 639 707 604 722 573 C 736 542 756 516 781 494 C 806 472 835 455 869 443 C 903 431 939 426 977 426 C 1032 426 1079 431 1119 441 C 1158 451 1195 463 1231 479 L 1305 328 C 1283 317 1261 307 1238 298 C 1214 288 1189 280 1162 274 C 1134 267 1104 262 1072 258 C 1039 254 1003 252 963 252 C 897 252 836 262 778 282 C 720 302 670 331 627 369 C 583 406 549 451 524 503 C 499 555 487 614 487 678 C 487 740 498 799 520 854 C 542 909 574 957 615 997 C 655 1037 704 1069 762 1093 C 820 1116 884 1128 956 1128 C 1016 1128 1076 1120 1135 1104 C 1193 1088 1246 1067 1294 1042 L 1221 893 Z" unicode="" />
<glyph horiz-adv-x="903" d="M 100 1386 C 113 1396 130 1408 152 1420 C 174 1432 199 1443 229 1453 C 258 1463 291 1471 328 1477 C 364 1483 405 1487 449 1487 C 501 1487 547 1481 588 1470 C 628 1459 663 1442 691 1418 C 719 1394 741 1364 756 1327 C 770 1289 778 1244 778 1192 L 778 856 C 778 802 782 757 792 723 C 802 688 811 662 821 645 L 627 645 C 622 655 616 671 608 692 C 600 712 596 737 594 766 C 567 722 532 688 488 664 C 444 639 392 627 332 627 C 293 627 258 632 226 643 C 194 653 167 669 145 689 C 122 709 104 735 92 765 C 80 795 74 830 74 870 C 74 910 82 947 98 981 C 114 1015 142 1044 181 1068 C 220 1092 272 1112 338 1126 C 404 1140 486 1148 586 1151 L 586 1200 C 586 1248 574 1283 552 1305 C 530 1327 492 1339 440 1339 C 394 1339 349 1332 307 1318 C 264 1304 221 1284 178 1260 L 100 1386 Z M 586 1047 C 520 1041 465 1032 423 1022 C 381 1012 348 999 324 985 C 300 971 283 955 274 937 C 264 919 260 901 260 881 C 260 845 271 818 293 798 C 315 778 347 768 387 768 C 417 768 444 772 468 781 C 492 789 513 802 531 818 C 548 834 561 853 571 875 C 581 897 586 922 586 950 L 586 1047 Z" unicode="" />
<glyph horiz-adv-x="1098" d="M 543 905 L 258 578 L 543 250 L 319 250 L 80 510 L 80 647 L 319 905 L 543 905 Z M 997 905 L 713 578 L 997 250 L 774 250 L 535 510 L 535 647 L 774 905 L 997 905 Z" unicode="" />
<glyph horiz-adv-x="1206" d="M 1149 963 L 1149 217 L 928 217 L 928 756 L 59 756 L 59 963 L 1149 963 Z" unicode="" />
<glyph horiz-adv-x="668" d="M 575 698 L 575 485 L 90 485 L 90 698 L 575 698 Z" unicode="" />
<glyph horiz-adv-x="1077" d="M 528 514 C 458 514 394 526 335 551 C 275 575 224 609 180 653 C 136 696 101 747 76 805 C 51 863 39 925 39 993 C 39 1057 51 1119 76 1177 C 101 1235 136 1287 180 1331 C 224 1375 275 1410 335 1436 C 394 1462 458 1475 528 1475 C 598 1475 663 1462 723 1436 C 783 1410 836 1375 880 1331 C 924 1287 959 1235 985 1177 C 1011 1119 1024 1057 1024 993 C 1024 925 1011 863 985 805 C 959 747 924 696 880 653 C 836 609 783 575 723 551 C 663 526 598 514 528 514 Z M 328 768 L 328 1249 L 602 1249 C 626 1249 649 1245 671 1237 C 692 1229 710 1219 726 1205 C 742 1191 754 1175 763 1157 C 771 1139 776 1119 776 1098 C 776 1068 767 1041 750 1017 C 732 992 708 974 676 963 L 788 768 L 666 768 L 565 948 L 434 948 L 434 768 L 328 768 Z M 434 1163 L 434 1036 L 598 1036 C 617 1036 634 1042 648 1055 C 662 1068 670 1082 670 1098 C 670 1116 663 1132 649 1144 C 635 1156 618 1163 600 1163 L 434 1163 Z M 528 598 C 586 598 640 608 690 629 C 740 649 783 677 820 713 C 857 749 886 791 908 839 C 929 887 940 938 940 993 C 940 1047 929 1098 908 1147 C 886 1195 857 1238 820 1274 C 783 1310 740 1339 690 1361 C 640 1382 586 1393 528 1393 C 471 1393 418 1382 369 1361 C 320 1339 277 1310 241 1274 C 205 1238 176 1195 156 1147 C 135 1098 125 1047 125 993 C 125 938 135 887 156 839 C 176 791 205 749 241 713 C 277 677 320 649 369 629 C 418 608 471 598 528 598 Z" unicode="" />
<glyph horiz-adv-x="866" d="M 696 1425 L 696 1266 L 168 1266 L 168 1425 L 696 1425 Z" unicode="" />
<glyph horiz-adv-x="795" d="M 397 1477 C 453 1477 502 1467 542 1449 C 582 1430 614 1405 640 1373 C 665 1341 683 1303 695 1260 C 707 1217 713 1171 713 1122 C 713 1068 706 1018 694 972 C 681 926 662 887 636 854 C 610 821 577 795 537 777 C 497 759 451 750 397 750 C 339 750 290 760 251 781 C 211 801 179 829 155 863 C 130 897 112 937 102 981 C 91 1025 86 1070 86 1118 C 86 1173 92 1223 104 1267 C 116 1311 135 1349 161 1380 C 187 1411 219 1435 258 1452 C 297 1468 343 1477 397 1477 Z M 399 1335 C 366 1335 339 1329 319 1317 C 299 1305 283 1289 272 1269 C 261 1249 254 1226 250 1200 C 246 1174 244 1148 244 1122 C 244 1100 245 1076 248 1050 C 251 1023 258 998 268 974 C 278 950 294 929 315 913 C 335 897 363 889 399 889 C 433 889 460 896 480 910 C 500 924 516 943 527 965 C 537 987 544 1012 548 1040 C 551 1067 553 1094 553 1120 C 553 1144 551 1168 548 1194 C 544 1220 537 1243 527 1264 C 516 1284 500 1301 480 1315 C 460 1328 433 1335 399 1335 Z" unicode="" />
<glyph horiz-adv-x="1206" d="M 1149 207 L 1149 0 L 59 0 L 59 207 L 1149 207 Z M 715 1309 L 715 924 L 1149 924 L 1149 715 L 715 715 L 715 326 L 494 326 L 494 715 L 59 715 L 59 924 L 494 924 L 494 1309 L 715 1309 Z" unicode="" />
<glyph horiz-adv-x="809" d="M 86 1251 C 96 1275 110 1300 128 1325 C 145 1350 166 1373 192 1393 C 218 1413 248 1430 284 1443 C 320 1455 362 1462 410 1462 C 451 1462 490 1456 526 1445 C 562 1433 593 1417 619 1395 C 645 1373 666 1347 682 1315 C 697 1283 705 1246 705 1206 C 705 1162 693 1118 670 1076 C 647 1033 609 989 555 944 L 311 721 L 709 721 L 709 573 L 94 573 L 94 723 L 365 977 C 386 995 406 1014 425 1033 C 444 1051 461 1070 475 1088 C 489 1106 500 1123 508 1141 C 516 1159 520 1176 520 1194 C 520 1208 517 1223 511 1237 C 505 1251 497 1264 486 1276 C 475 1288 462 1297 446 1304 C 430 1311 413 1315 393 1315 C 362 1315 333 1305 306 1285 C 278 1265 253 1234 231 1190 L 86 1251 Z" unicode="" />
<glyph horiz-adv-x="797" d="M 66 1308 C 78 1326 93 1345 113 1364 C 132 1382 155 1399 182 1414 C 208 1429 238 1441 272 1451 C 306 1460 343 1465 383 1465 C 418 1465 453 1460 487 1452 C 521 1443 552 1430 579 1412 C 606 1394 628 1371 645 1344 C 661 1316 670 1284 670 1248 C 670 1223 666 1201 659 1182 C 652 1163 643 1146 632 1132 C 620 1117 607 1105 593 1095 C 579 1085 564 1078 549 1072 L 549 1062 C 567 1058 585 1052 603 1044 C 621 1035 638 1023 653 1007 C 668 991 680 971 690 948 C 700 925 705 898 705 867 C 705 817 692 772 668 733 C 643 694 608 661 564 635 C 519 609 466 589 405 576 C 343 562 276 556 203 556 C 181 556 163 556 149 557 C 135 558 123 560 113 562 L 102 716 C 114 714 129 714 146 714 C 162 714 182 714 205 714 C 311 714 391 728 445 757 C 499 785 526 823 526 871 C 526 887 523 902 517 914 C 511 926 502 937 492 945 C 482 953 470 958 457 962 C 443 966 430 968 416 968 C 412 968 406 967 400 967 C 394 967 385 966 374 964 C 363 962 349 960 331 957 C 313 953 291 949 264 943 L 236 1076 L 350 1095 C 366 1097 383 1102 401 1108 C 419 1114 435 1123 449 1133 C 463 1143 475 1156 484 1171 C 493 1185 498 1202 498 1222 C 498 1252 486 1276 464 1294 C 441 1312 411 1322 373 1322 C 357 1322 342 1320 328 1316 C 314 1312 299 1307 285 1299 C 271 1291 256 1281 241 1269 C 225 1257 208 1242 190 1226 L 66 1308 Z" unicode="" />
<glyph horiz-adv-x="866" d="M 319 1278 L 565 1530 L 760 1530 L 760 1454 L 438 1217 L 319 1217 L 319 1278 Z" unicode="" />
<glyph horiz-adv-x="1214" d="M 391 1065 L 391 356 C 391 334 394 313 400 291 C 406 269 416 248 432 230 C 447 212 468 197 494 185 C 520 173 554 168 596 168 C 628 168 658 173 686 184 C 714 195 738 210 758 230 C 778 250 794 273 806 299 C 817 325 823 354 823 385 L 823 1065 L 1051 1065 L 1051 274 C 1051 203 1057 145 1070 101 C 1082 56 1095 22 1108 0 L 885 0 C 881 6 877 16 873 28 C 868 40 863 53 859 69 C 854 84 850 100 846 118 C 842 136 840 154 840 174 C 820 136 798 104 776 80 C 753 55 729 35 704 20 C 678 5 652 -5 624 -11 C 596 -17 567 -20 537 -20 C 520 -20 503 -17 486 -13 C 469 -9 453 -3 438 4 C 422 11 408 19 395 29 C 381 39 370 49 362 61 L 354 51 L 383 -115 L 383 -451 L 164 -451 L 164 1065 L 391 1065 Z" unicode="" />
<glyph horiz-adv-x="1542" d="M 1321 1446 L 1321 -451 L 1106 -451 L 1106 1270 L 831 1270 L 831 -451 L 616 -451 L 616 571 L 539 571 C 508 571 480 573 455 577 C 430 581 407 586 387 594 C 366 602 347 611 330 622 C 312 632 296 645 281 659 C 237 700 204 752 180 815 C 156 878 144 948 143 1026 C 143 1092 152 1151 171 1205 C 190 1259 218 1305 254 1343 C 286 1376 325 1401 372 1419 C 419 1437 475 1446 539 1446 L 1321 1446 Z" unicode="" />
<glyph horiz-adv-x="563" d="M 440 723 L 440 412 L 121 412 L 121 723 L 440 723 Z" unicode="" />
<glyph horiz-adv-x="866" d="M 475 8 L 578 -104 C 593 -120 607 -140 619 -164 C 631 -188 637 -218 637 -254 C 637 -286 631 -314 619 -339 C 607 -363 591 -384 569 -401 C 547 -417 520 -430 489 -438 C 458 -446 423 -451 385 -451 C 351 -451 319 -447 289 -441 C 259 -434 235 -423 217 -408 L 238 -281 C 244 -285 253 -289 265 -293 C 276 -297 288 -300 301 -303 C 314 -305 327 -307 341 -309 C 354 -310 366 -311 377 -311 C 385 -311 394 -310 404 -309 C 414 -307 423 -304 431 -300 C 439 -295 445 -288 451 -280 C 456 -271 459 -260 459 -246 C 459 -229 455 -216 447 -207 C 439 -197 430 -186 418 -174 L 360 -117 C 356 -113 352 -107 348 -99 C 344 -91 342 -83 342 -74 L 342 8 L 475 8 Z" unicode="" />
<glyph horiz-adv-x="535" d="M 227 1446 L 379 1446 L 371 1352 L 371 573 L 193 573 L 193 1262 L 197 1292 L 190 1292 L 55 1235 L 55 1384 L 227 1446 Z" unicode="" />
<glyph horiz-adv-x="938" d="M 467 1329 C 429 1329 399 1322 375 1308 C 351 1294 332 1274 318 1250 C 304 1226 294 1197 289 1165 C 283 1132 281 1097 281 1061 C 281 1027 283 993 288 960 C 292 926 301 897 315 871 C 329 845 348 824 373 808 C 397 792 429 784 469 784 C 507 784 538 791 563 806 C 587 820 607 840 621 865 C 635 890 644 919 650 953 C 656 987 659 1023 659 1061 C 659 1094 656 1127 651 1159 C 645 1191 636 1219 622 1245 C 608 1270 588 1290 563 1306 C 538 1321 506 1329 467 1329 Z M 469 1487 C 527 1487 579 1477 627 1457 C 675 1437 715 1409 749 1372 C 783 1335 809 1290 827 1238 C 845 1185 855 1126 856 1061 C 855 999 846 941 829 888 C 812 835 787 789 755 751 C 722 712 682 682 634 660 C 586 638 531 627 469 627 C 411 627 358 637 310 657 C 262 677 222 706 188 744 C 154 782 127 827 109 881 C 91 934 82 994 82 1061 C 82 1123 90 1180 108 1232 C 126 1284 151 1329 185 1367 C 218 1405 258 1434 306 1455 C 354 1476 408 1487 469 1487 Z" unicode="" />
<glyph horiz-adv-x="1098" d="M 778 905 L 1018 647 L 1018 510 L 778 250 L 555 250 L 840 578 L 555 905 L 778 905 Z M 324 905 L 563 647 L 563 510 L 324 250 L 100 250 L 385 578 L 100 905 L 324 905 Z" unicode="" />
<glyph horiz-adv-x="1634" d="M 227 1446 L 379 1446 L 371 1352 L 371 573 L 193 573 L 193 1262 L 197 1292 L 190 1292 L 55 1235 L 55 1384 L 227 1446 Z M 1219 1446 L 429 0 L 252 0 L 1045 1446 L 1219 1446 Z M 1459 874 L 1459 315 L 1565 315 L 1565 178 L 1459 178 L 1459 1 L 1280 1 L 1280 178 L 899 178 L 899 327 L 1268 874 L 1459 874 Z M 1033 315 L 1280 315 L 1280 565 L 1289 677 L 1282 677 L 1033 315 Z" unicode="" />
<glyph horiz-adv-x="1745" d="M 227 1446 L 379 1446 L 371 1352 L 371 573 L 193 573 L 193 1262 L 197 1292 L 190 1292 L 55 1235 L 55 1384 L 227 1446 Z M 1219 1446 L 429 0 L 252 0 L 1045 1446 L 1219 1446 Z M 1022 679 C 1032 703 1046 728 1064 753 C 1081 778 1102 801 1128 821 C 1154 841 1184 858 1220 871 C 1256 883 1298 890 1346 890 C 1387 890 1426 884 1462 873 C 1498 861 1529 845 1555 823 C 1581 801 1602 775 1618 743 C 1633 711 1641 674 1641 634 C 1641 590 1629 546 1606 504 C 1583 461 1545 417 1491 372 L 1247 149 L 1645 149 L 1645 1 L 1030 1 L 1030 151 L 1301 405 C 1322 423 1342 442 1361 461 C 1380 479 1397 498 1411 516 C 1425 534 1436 551 1444 569 C 1452 587 1456 604 1456 622 C 1456 636 1453 651 1447 665 C 1441 679 1433 692 1422 704 C 1411 716 1398 725 1382 732 C 1366 739 1349 743 1329 743 C 1298 743 1269 733 1242 713 C 1214 693 1189 662 1167 618 L 1022 679 Z" unicode="" />
<glyph horiz-adv-x="1882" d="M 66 1308 C 78 1326 93 1345 113 1364 C 132 1382 155 1399 182 1414 C 208 1429 238 1441 272 1451 C 306 1460 343 1465 383 1465 C 418 1465 453 1460 487 1452 C 521 1443 552 1430 579 1412 C 606 1394 628 1371 645 1344 C 661 1316 670 1284 670 1248 C 670 1223 666 1201 659 1182 C 652 1163 643 1146 632 1132 C 620 1117 607 1105 593 1095 C 579 1085 564 1078 549 1072 L 549 1062 C 567 1058 585 1052 603 1044 C 621 1035 638 1023 653 1007 C 668 991 680 971 690 948 C 700 925 705 898 705 867 C 705 817 692 772 668 733 C 643 694 608 661 564 635 C 519 609 466 589 405 576 C 343 562 276 556 203 556 C 181 556 163 556 149 557 C 135 558 123 560 113 562 L 102 716 C 114 714 129 714 146 714 C 162 714 182 714 205 714 C 311 714 391 728 445 757 C 499 785 526 823 526 871 C 526 887 523 902 517 914 C 511 926 502 937 492 945 C 482 953 470 958 457 962 C 443 966 430 968 416 968 C 412 968 406 967 400 967 C 394 967 385 966 374 964 C 363 962 349 960 331 957 C 313 953 291 949 264 943 L 236 1076 L 350 1095 C 366 1097 383 1102 401 1108 C 419 1114 435 1123 449 1133 C 463 1143 475 1156 484 1171 C 493 1185 498 1202 498 1222 C 498 1252 486 1276 464 1294 C 441 1312 411 1322 373 1322 C 357 1322 342 1320 328 1316 C 314 1312 299 1307 285 1299 C 271 1291 256 1281 241 1269 C 225 1257 208 1242 190 1226 L 66 1308 Z M 1466 1446 L 676 0 L 499 0 L 1292 1446 L 1466 1446 Z M 1706 874 L 1706 315 L 1812 315 L 1812 178 L 1706 178 L 1706 1 L 1527 1 L 1527 178 L 1146 178 L 1146 327 L 1515 874 L 1706 874 Z M 1280 315 L 1527 315 L 1527 565 L 1536 677 L 1529 677 L 1280 315 Z" unicode="" />
<glyph horiz-adv-x="928" d="M 850 145 C 832 121 808 99 780 79 C 751 58 719 40 683 24 C 647 8 609 -3 569 -13 C 528 -22 486 -27 444 -27 C 390 -27 340 -19 294 -4 C 248 11 208 33 174 61 C 140 89 114 124 96 165 C 77 206 68 253 68 305 C 68 345 73 382 84 415 C 94 448 109 479 128 508 C 147 537 170 565 196 593 C 222 621 251 650 283 682 C 307 707 329 730 347 750 C 365 770 381 790 393 810 C 405 830 415 851 421 874 C 427 896 430 924 430 956 L 639 956 C 639 926 637 899 635 876 C 633 852 629 831 624 811 C 618 791 611 773 601 755 C 591 737 578 718 563 698 C 547 678 529 657 507 635 C 485 612 460 586 432 557 C 410 535 390 516 372 498 C 354 480 338 462 325 445 C 312 427 302 409 295 391 C 288 372 285 352 285 330 C 285 300 290 274 301 254 C 311 233 325 216 342 204 C 359 192 378 183 399 178 C 420 172 441 170 463 170 C 505 170 549 178 595 196 C 641 213 689 241 737 281 L 850 145 Z M 389 1174 L 389 1446 L 662 1446 L 662 1174 L 389 1174 Z" unicode="" />
<glyph horiz-adv-x="1362" d="M 821 1446 L 1307 0 L 1038 0 L 944 315 L 395 315 L 299 0 L 53 0 L 549 1446 L 821 1446 Z M 629 1053 L 459 514 L 883 514 L 715 1053 L 682 1186 L 662 1186 L 629 1053 Z M 793 1587 L 674 1587 L 352 1824 L 352 1900 L 547 1900 L 793 1648 L 793 1587 Z" unicode="" />
<glyph horiz-adv-x="1362" d="M 821 1446 L 1307 0 L 1038 0 L 944 315 L 395 315 L 299 0 L 53 0 L 549 1446 L 821 1446 Z M 629 1053 L 459 514 L 883 514 L 715 1053 L 682 1186 L 662 1186 L 629 1053 Z M 567 1648 L 813 1900 L 1008 1900 L 1008 1824 L 686 1587 L 567 1587 L 567 1648 Z" unicode="" />
<glyph horiz-adv-x="1362" d="M 821 1446 L 1307 0 L 1038 0 L 944 315 L 395 315 L 299 0 L 53 0 L 549 1446 L 821 1446 Z M 629 1053 L 459 514 L 883 514 L 715 1053 L 682 1186 L 662 1186 L 629 1053 Z M 758 1900 L 967 1644 L 967 1587 L 879 1587 L 688 1752 L 676 1752 L 481 1587 L 398 1587 L 398 1644 L 604 1900 L 758 1900 Z" unicode="" />
<glyph horiz-adv-x="1362" d="M 821 1446 L 1307 0 L 1038 0 L 944 315 L 395 315 L 299 0 L 53 0 L 549 1446 L 821 1446 Z M 629 1053 L 459 514 L 883 514 L 715 1053 L 682 1186 L 662 1186 L 629 1053 Z M 798 1575 C 783 1575 769 1576 757 1579 C 744 1581 732 1586 720 1592 C 708 1598 695 1606 682 1616 C 669 1626 655 1638 640 1653 L 605 1682 C 593 1692 583 1700 573 1707 C 563 1713 553 1717 544 1717 C 532 1717 522 1714 513 1709 C 503 1704 492 1695 480 1682 L 423 1627 L 317 1704 L 390 1782 C 424 1817 455 1841 484 1854 C 512 1867 539 1874 564 1874 C 578 1874 592 1872 604 1870 C 616 1867 629 1863 641 1857 C 653 1851 665 1843 678 1833 C 691 1823 706 1811 722 1797 L 757 1766 C 768 1755 779 1746 789 1740 C 799 1734 808 1731 818 1731 C 828 1731 838 1733 848 1739 C 857 1744 868 1753 882 1766 L 937 1823 L 1044 1743 L 970 1665 C 936 1630 905 1606 877 1594 C 849 1581 822 1575 798 1575 Z" unicode="" />
<glyph horiz-adv-x="1362" d="M 821 1446 L 1307 0 L 1038 0 L 944 315 L 395 315 L 299 0 L 53 0 L 549 1446 L 821 1446 Z M 629 1053 L 459 514 L 883 514 L 715 1053 L 682 1186 L 662 1186 L 629 1053 Z M 1001 1823 L 1001 1616 L 788 1616 L 788 1823 L 1001 1823 Z M 573 1823 L 573 1616 L 360 1616 L 360 1823 L 573 1823 Z" unicode="" />
<glyph horiz-adv-x="1362" d="M 821 1446 L 1307 0 L 1038 0 L 944 315 L 395 315 L 299 0 L 53 0 L 549 1446 L 821 1446 Z M 629 1053 L 459 514 L 883 514 L 715 1053 L 682 1186 L 662 1186 L 629 1053 Z M 442 1756 C 442 1788 448 1818 460 1846 C 472 1874 489 1899 511 1920 C 533 1940 558 1957 588 1969 C 618 1981 650 1987 686 1987 C 720 1987 752 1981 782 1969 C 812 1957 838 1940 860 1920 C 882 1899 899 1874 911 1846 C 923 1818 930 1788 930 1756 C 930 1724 923 1694 911 1666 C 899 1638 882 1614 860 1594 C 838 1574 812 1558 782 1546 C 752 1534 720 1528 686 1528 C 650 1528 618 1534 588 1546 C 558 1558 533 1574 511 1594 C 489 1614 472 1638 460 1666 C 448 1694 442 1724 442 1756 Z M 686 1885 C 668 1885 651 1881 635 1875 C 619 1868 606 1859 594 1847 C 582 1835 573 1822 567 1806 C 560 1790 557 1774 557 1756 C 557 1738 560 1722 567 1706 C 573 1690 582 1677 594 1666 C 606 1654 619 1645 635 1639 C 651 1632 668 1629 686 1629 C 703 1629 719 1632 735 1639 C 750 1645 763 1654 775 1666 C 787 1677 796 1690 803 1706 C 809 1722 813 1738 813 1756 C 813 1774 809 1790 803 1806 C 796 1822 787 1835 775 1847 C 763 1859 750 1868 735 1875 C 719 1881 703 1885 686 1885 Z" unicode="" />
<glyph horiz-adv-x="2040" d="M 1915 0 L 920 0 L 920 326 L 395 326 L 211 0 L -49 0 L 803 1446 L 1894 1446 L 1894 1247 L 1159 1247 L 1159 848 L 1802 848 L 1802 649 L 1159 649 L 1159 199 L 1915 199 L 1915 0 Z M 827 1079 L 510 524 L 920 524 L 920 1243 L 899 1243 L 827 1079 Z" unicode="" />
<glyph horiz-adv-x="1346" d="M 776 -25 L 850 -104 C 865 -120 879 -140 891 -164 C 903 -188 909 -218 909 -254 C 909 -286 903 -314 891 -339 C 879 -363 863 -384 841 -401 C 819 -417 792 -430 761 -438 C 730 -446 695 -451 657 -451 C 623 -451 591 -447 561 -441 C 531 -434 507 -423 489 -408 L 510 -281 C 516 -285 525 -289 537 -293 C 548 -297 560 -300 573 -303 C 586 -305 599 -307 613 -309 C 626 -310 638 -311 649 -311 C 657 -311 666 -310 676 -309 C 686 -307 695 -304 703 -300 C 711 -295 717 -288 723 -280 C 728 -271 731 -260 731 -246 C 731 -229 727 -216 720 -207 C 712 -197 702 -186 690 -174 L 633 -117 C 629 -113 624 -107 620 -99 C 616 -91 614 -83 614 -74 L 614 -6 C 530 11 457 41 394 83 C 330 125 277 178 235 241 C 192 303 160 375 138 455 C 116 535 106 623 106 717 C 106 819 121 916 151 1008 C 181 1099 226 1179 285 1247 C 344 1315 417 1370 503 1410 C 589 1450 689 1470 801 1470 C 896 1470 979 1460 1051 1440 C 1123 1420 1183 1394 1231 1364 L 1178 1157 C 1154 1171 1128 1184 1102 1197 C 1075 1210 1046 1222 1016 1232 C 985 1242 951 1249 915 1255 C 879 1261 839 1264 795 1264 C 717 1264 651 1249 595 1221 C 539 1193 494 1154 459 1105 C 423 1056 397 999 381 934 C 364 868 356 799 356 725 C 356 681 359 638 365 595 C 371 551 382 509 396 469 C 410 429 429 391 452 356 C 474 321 502 291 534 265 C 566 239 604 219 647 204 C 690 189 739 182 795 182 C 839 182 879 184 915 190 C 951 195 985 202 1016 212 C 1047 222 1076 233 1103 246 C 1129 258 1155 272 1180 287 L 1231 82 C 1183 50 1122 25 1048 5 C 974 -15 887 -25 788 -25 L 776 -25 Z" unicode="" />
<glyph horiz-adv-x="1311" d="M 1165 1446 L 1165 1247 L 430 1247 L 430 848 L 1071 848 L 1071 649 L 430 649 L 430 199 L 1186 199 L 1186 0 L 188 0 L 188 1446 L 1165 1446 Z M 795 1587 L 676 1587 L 354 1824 L 354 1900 L 549 1900 L 795 1648 L 795 1587 Z" unicode="" />
<glyph horiz-adv-x="1311" d="M 1165 1446 L 1165 1247 L 430 1247 L 430 848 L 1071 848 L 1071 649 L 430 649 L 430 199 L 1186 199 L 1186 0 L 188 0 L 188 1446 L 1165 1446 Z M 569 1648 L 815 1900 L 1010 1900 L 1010 1824 L 688 1587 L 569 1587 L 569 1648 Z" unicode="" />
<glyph horiz-adv-x="1311" d="M 1165 1446 L 1165 1247 L 430 1247 L 430 848 L 1071 848 L 1071 649 L 430 649 L 430 199 L 1186 199 L 1186 0 L 188 0 L 188 1446 L 1165 1446 Z M 759 1900 L 968 1644 L 968 1587 L 880 1587 L 689 1752 L 677 1752 L 482 1587 L 399 1587 L 399 1644 L 605 1900 L 759 1900 Z" unicode="" />
<glyph horiz-adv-x="1311" d="M 1165 1446 L 1165 1247 L 430 1247 L 430 848 L 1071 848 L 1071 649 L 430 649 L 430 199 L 1186 199 L 1186 0 L 188 0 L 188 1446 L 1165 1446 Z M 1003 1823 L 1003 1616 L 790 1616 L 790 1823 L 1003 1823 Z M 575 1823 L 575 1616 L 362 1616 L 362 1823 L 575 1823 Z" unicode="" />
<glyph horiz-adv-x="618" d="M 430 1446 L 430 0 L 188 0 L 188 1446 L 430 1446 Z M 431 1589 L 312 1589 L -10 1826 L -10 1902 L 185 1902 L 431 1650 L 431 1589 Z" unicode="" />
<glyph horiz-adv-x="618" d="M 430 1446 L 430 0 L 188 0 L 188 1446 L 430 1446 Z M 189 1650 L 435 1902 L 630 1902 L 630 1826 L 308 1589 L 189 1589 L 189 1650 Z" unicode="" />
<glyph horiz-adv-x="618" d="M 430 1446 L 430 0 L 188 0 L 188 1446 L 430 1446 Z M 387 1902 L 596 1646 L 596 1589 L 508 1589 L 317 1754 L 305 1754 L 110 1589 L 27 1589 L 27 1646 L 233 1902 L 387 1902 Z" unicode="" />
<glyph horiz-adv-x="618" d="M 430 1446 L 430 0 L 188 0 L 188 1446 L 430 1446 Z M 630 1824 L 630 1617 L 417 1617 L 417 1824 L 630 1824 Z M 202 1824 L 202 1617 L -11 1617 L -11 1824 L 202 1824 Z" unicode="" />
<glyph horiz-adv-x="1550" d="M 59 846 L 229 846 L 229 1446 L 715 1446 C 815 1446 910 1432 998 1404 C 1086 1376 1162 1332 1228 1274 C 1294 1216 1345 1142 1383 1052 C 1421 962 1440 856 1440 733 C 1440 602 1421 490 1383 398 C 1345 305 1293 229 1228 170 C 1162 111 1085 68 997 41 C 909 13 815 0 715 0 L 229 0 L 229 659 L 59 659 L 59 846 Z M 471 846 L 803 846 L 803 659 L 471 659 L 471 199 L 702 199 C 790 199 864 213 926 242 C 988 270 1038 309 1077 358 C 1115 406 1143 463 1161 528 C 1179 592 1188 661 1188 733 C 1188 796 1179 858 1163 920 C 1146 982 1118 1037 1080 1085 C 1042 1133 992 1172 930 1202 C 868 1232 792 1247 702 1247 L 471 1247 L 471 846 Z" unicode="" />
<glyph horiz-adv-x="1509" d="M 188 1446 L 498 1446 L 965 571 L 1090 291 L 1110 291 L 1087 633 L 1087 1446 L 1321 1446 L 1321 0 L 1020 0 L 545 877 L 420 1155 L 399 1155 L 422 813 L 422 0 L 188 0 L 188 1446 Z M 877 1575 C 862 1575 848 1576 836 1579 C 823 1581 811 1586 799 1592 C 787 1598 774 1606 761 1616 C 748 1626 734 1638 719 1653 L 684 1682 C 672 1692 662 1700 652 1707 C 642 1713 632 1717 623 1717 C 611 1717 601 1714 592 1709 C 582 1704 571 1695 559 1682 L 502 1627 L 396 1704 L 469 1782 C 503 1817 534 1841 563 1854 C 591 1867 618 1874 643 1874 C 657 1874 671 1872 683 1870 C 695 1867 708 1863 720 1857 C 732 1851 744 1843 757 1833 C 770 1823 785 1811 801 1797 L 836 1766 C 847 1755 858 1746 868 1740 C 878 1734 887 1731 897 1731 C 907 1731 917 1733 927 1739 C 936 1744 947 1753 961 1766 L 1016 1823 L 1123 1743 L 1049 1665 C 1015 1630 984 1606 956 1594 C 928 1581 901 1575 877 1575 Z" unicode="" />
<glyph horiz-adv-x="1575" d="M 786 1470 C 882 1470 971 1454 1054 1424 C 1137 1393 1209 1347 1271 1285 C 1332 1223 1380 1146 1415 1053 C 1450 959 1468 850 1468 725 C 1468 601 1449 492 1413 398 C 1377 304 1328 226 1266 164 C 1204 101 1131 54 1049 22 C 966 -9 878 -25 786 -25 C 688 -25 597 -9 514 21 C 431 52 359 99 299 161 C 239 223 191 301 157 395 C 123 489 106 599 106 725 C 106 849 123 958 159 1052 C 194 1145 242 1223 303 1285 C 364 1347 436 1393 519 1424 C 601 1454 690 1470 786 1470 Z M 786 1266 C 712 1266 648 1252 594 1225 C 540 1198 495 1161 459 1113 C 423 1065 397 1007 380 941 C 362 875 354 803 354 725 C 354 651 362 582 379 516 C 396 450 422 393 458 343 C 493 293 538 254 592 225 C 646 196 711 182 786 182 C 861 182 926 195 981 221 C 1035 247 1080 284 1116 332 C 1152 380 1178 437 1195 504 C 1212 570 1221 644 1221 725 C 1221 798 1212 867 1196 933 C 1179 998 1153 1055 1117 1105 C 1081 1154 1036 1193 982 1222 C 927 1251 862 1266 786 1266 Z M 897 1587 L 778 1587 L 456 1824 L 456 1900 L 651 1900 L 897 1648 L 897 1587 Z" unicode="" />
<glyph horiz-adv-x="1575" d="M 786 1470 C 882 1470 971 1454 1054 1424 C 1137 1393 1209 1347 1271 1285 C 1332 1223 1380 1146 1415 1053 C 1450 959 1468 850 1468 725 C 1468 601 1449 492 1413 398 C 1377 304 1328 226 1266 164 C 1204 101 1131 54 1049 22 C 966 -9 878 -25 786 -25 C 688 -25 597 -9 514 21 C 431 52 359 99 299 161 C 239 223 191 301 157 395 C 123 489 106 599 106 725 C 106 849 123 958 159 1052 C 194 1145 242 1223 303 1285 C 364 1347 436 1393 519 1424 C 601 1454 690 1470 786 1470 Z M 786 1266 C 712 1266 648 1252 594 1225 C 540 1198 495 1161 459 1113 C 423 1065 397 1007 380 941 C 362 875 354 803 354 725 C 354 651 362 582 379 516 C 396 450 422 393 458 343 C 493 293 538 254 592 225 C 646 196 711 182 786 182 C 861 182 926 195 981 221 C 1035 247 1080 284 1116 332 C 1152 380 1178 437 1195 504 C 1212 570 1221 644 1221 725 C 1221 798 1212 867 1196 933 C 1179 998 1153 1055 1117 1105 C 1081 1154 1036 1193 982 1222 C 927 1251 862 1266 786 1266 Z M 672 1648 L 918 1900 L 1113 1900 L 1113 1824 L 791 1587 L 672 1587 L 672 1648 Z" unicode="" />
<glyph horiz-adv-x="1575" d="M 786 1470 C 882 1470 971 1454 1054 1424 C 1137 1393 1209 1347 1271 1285 C 1332 1223 1380 1146 1415 1053 C 1450 959 1468 850 1468 725 C 1468 601 1449 492 1413 398 C 1377 304 1328 226 1266 164 C 1204 101 1131 54 1049 22 C 966 -9 878 -25 786 -25 C 688 -25 597 -9 514 21 C 431 52 359 99 299 161 C 239 223 191 301 157 395 C 123 489 106 599 106 725 C 106 849 123 958 159 1052 C 194 1145 242 1223 303 1285 C 364 1347 436 1393 519 1424 C 601 1454 690 1470 786 1470 Z M 786 1266 C 712 1266 648 1252 594 1225 C 540 1198 495 1161 459 1113 C 423 1065 397 1007 380 941 C 362 875 354 803 354 725 C 354 651 362 582 379 516 C 396 450 422 393 458 343 C 493 293 538 254 592 225 C 646 196 711 182 786 182 C 861 182 926 195 981 221 C 1035 247 1080 284 1116 332 C 1152 380 1178 437 1195 504 C 1212 570 1221 644 1221 725 C 1221 798 1212 867 1196 933 C 1179 998 1153 1055 1117 1105 C 1081 1154 1036 1193 982 1222 C 927 1251 862 1266 786 1266 Z M 862 1900 L 1071 1644 L 1071 1587 L 983 1587 L 792 1752 L 780 1752 L 585 1587 L 502 1587 L 502 1644 L 708 1900 L 862 1900 Z" unicode="" />
<glyph horiz-adv-x="1575" d="M 786 1470 C 882 1470 971 1454 1054 1424 C 1137 1393 1209 1347 1271 1285 C 1332 1223 1380 1146 1415 1053 C 1450 959 1468 850 1468 725 C 1468 601 1449 492 1413 398 C 1377 304 1328 226 1266 164 C 1204 101 1131 54 1049 22 C 966 -9 878 -25 786 -25 C 688 -25 597 -9 514 21 C 431 52 359 99 299 161 C 239 223 191 301 157 395 C 123 489 106 599 106 725 C 106 849 123 958 159 1052 C 194 1145 242 1223 303 1285 C 364 1347 436 1393 519 1424 C 601 1454 690 1470 786 1470 Z M 786 1266 C 712 1266 648 1252 594 1225 C 540 1198 495 1161 459 1113 C 423 1065 397 1007 380 941 C 362 875 354 803 354 725 C 354 651 362 582 379 516 C 396 450 422 393 458 343 C 493 293 538 254 592 225 C 646 196 711 182 786 182 C 861 182 926 195 981 221 C 1035 247 1080 284 1116 332 C 1152 380 1178 437 1195 504 C 1212 570 1221 644 1221 725 C 1221 798 1212 867 1196 933 C 1179 998 1153 1055 1117 1105 C 1081 1154 1036 1193 982 1222 C 927 1251 862 1266 786 1266 Z M 903 1575 C 888 1575 874 1576 862 1579 C 849 1581 837 1586 825 1592 C 813 1598 800 1606 787 1616 C 774 1626 760 1638 745 1653 L 710 1682 C 698 1692 688 1700 678 1707 C 668 1713 658 1717 649 1717 C 637 1717 627 1714 618 1709 C 608 1704 597 1695 585 1682 L 528 1627 L 422 1704 L 495 1782 C 529 1817 560 1841 589 1854 C 617 1867 644 1874 669 1874 C 683 1874 697 1872 709 1870 C 721 1867 734 1863 746 1857 C 758 1851 770 1843 783 1833 C 796 1823 811 1811 827 1797 L 862 1766 C 873 1755 884 1746 894 1740 C 904 1734 913 1731 923 1731 C 933 1731 943 1733 953 1739 C 962 1744 973 1753 987 1766 L 1042 1823 L 1149 1743 L 1075 1665 C 1041 1630 1010 1606 982 1594 C 954 1581 927 1575 903 1575 Z" unicode="" />
<glyph horiz-adv-x="1575" d="M 786 1470 C 882 1470 971 1454 1054 1424 C 1137 1393 1209 1347 1271 1285 C 1332 1223 1380 1146 1415 1053 C 1450 959 1468 850 1468 725 C 1468 601 1449 492 1413 398 C 1377 304 1328 226 1266 164 C 1204 101 1131 54 1049 22 C 966 -9 878 -25 786 -25 C 688 -25 597 -9 514 21 C 431 52 359 99 299 161 C 239 223 191 301 157 395 C 123 489 106 599 106 725 C 106 849 123 958 159 1052 C 194 1145 242 1223 303 1285 C 364 1347 436 1393 519 1424 C 601 1454 690 1470 786 1470 Z M 786 1266 C 712 1266 648 1252 594 1225 C 540 1198 495 1161 459 1113 C 423 1065 397 1007 380 941 C 362 875 354 803 354 725 C 354 651 362 582 379 516 C 396 450 422 393 458 343 C 493 293 538 254 592 225 C 646 196 711 182 786 182 C 861 182 926 195 981 221 C 1035 247 1080 284 1116 332 C 1152 380 1178 437 1195 504 C 1212 570 1221 644 1221 725 C 1221 798 1212 867 1196 933 C 1179 998 1153 1055 1117 1105 C 1081 1154 1036 1193 982 1222 C 927 1251 862 1266 786 1266 Z M 1106 1823 L 1106 1616 L 893 1616 L 893 1823 L 1106 1823 Z M 678 1823 L 678 1616 L 465 1616 L 465 1823 L 678 1823 Z" unicode="" />
<glyph horiz-adv-x="1206" d="M 195 1155 L 608 743 L 1016 1151 L 1165 1004 L 756 594 L 1169 180 L 1016 25 L 602 440 L 190 27 L 41 176 L 453 588 L 41 1001 L 195 1155 Z" unicode="" />
<glyph horiz-adv-x="1575" d="M 786 -25 C 736 -25 689 -21 645 -13 C 600 -5 557 6 516 20 L 434 -137 L 266 -137 L 385 88 C 299 146 231 229 181 335 C 131 441 106 571 106 725 C 106 849 123 958 159 1052 C 194 1145 242 1223 303 1285 C 364 1347 436 1393 519 1424 C 601 1454 690 1470 786 1470 C 840 1470 891 1465 941 1456 C 990 1446 1037 1432 1081 1413 L 1169 1581 L 1335 1581 L 1206 1341 C 1286 1281 1349 1199 1397 1097 C 1444 994 1468 870 1468 725 C 1468 601 1449 492 1413 398 C 1377 304 1328 226 1266 164 C 1204 101 1131 54 1049 22 C 966 -9 878 -25 786 -25 Z M 354 725 C 354 637 366 556 390 480 C 414 404 451 340 502 289 L 985 1223 C 957 1238 926 1250 893 1258 C 859 1266 824 1270 786 1270 C 712 1270 648 1256 594 1229 C 540 1201 495 1163 459 1115 C 423 1066 397 1008 380 942 C 362 875 354 803 354 725 Z M 786 178 C 861 178 926 191 981 218 C 1035 244 1080 282 1116 330 C 1152 378 1178 436 1195 503 C 1212 570 1221 644 1221 725 C 1221 806 1210 882 1190 953 C 1169 1023 1137 1085 1094 1137 L 614 211 C 639 199 666 191 694 186 C 722 180 753 178 786 178 Z" unicode="" />
<glyph horiz-adv-x="1458" d="M 412 1446 L 412 522 C 412 474 414 430 419 389 C 424 347 437 311 459 281 C 480 250 512 226 555 208 C 597 190 657 182 733 182 C 807 182 866 190 909 208 C 951 226 983 250 1004 281 C 1025 311 1038 347 1043 389 C 1048 430 1051 474 1051 522 L 1051 1446 L 1288 1446 L 1288 506 C 1288 464 1285 421 1281 379 C 1277 336 1268 295 1254 256 C 1240 216 1221 180 1197 146 C 1172 112 1139 82 1098 57 C 1056 31 1006 11 946 -3 C 886 -17 814 -25 731 -25 C 647 -25 576 -17 516 -3 C 456 11 405 31 363 57 C 321 82 288 112 263 146 C 237 180 218 216 204 256 C 190 295 181 336 177 379 C 172 421 170 464 170 506 L 170 1446 L 412 1446 Z M 842 1587 L 723 1587 L 401 1824 L 401 1900 L 596 1900 L 842 1648 L 842 1587 Z" unicode="" />
<glyph horiz-adv-x="1458" d="M 412 1446 L 412 522 C 412 474 414 430 419 389 C 424 347 437 311 459 281 C 480 250 512 226 555 208 C 597 190 657 182 733 182 C 807 182 866 190 909 208 C 951 226 983 250 1004 281 C 1025 311 1038 347 1043 389 C 1048 430 1051 474 1051 522 L 1051 1446 L 1288 1446 L 1288 506 C 1288 464 1285 421 1281 379 C 1277 336 1268 295 1254 256 C 1240 216 1221 180 1197 146 C 1172 112 1139 82 1098 57 C 1056 31 1006 11 946 -3 C 886 -17 814 -25 731 -25 C 647 -25 576 -17 516 -3 C 456 11 405 31 363 57 C 321 82 288 112 263 146 C 237 180 218 216 204 256 C 190 295 181 336 177 379 C 172 421 170 464 170 506 L 170 1446 L 412 1446 Z M 616 1648 L 862 1900 L 1057 1900 L 1057 1824 L 735 1587 L 616 1587 L 616 1648 Z" unicode="" />
<glyph horiz-adv-x="1458" d="M 412 1446 L 412 522 C 412 474 414 430 419 389 C 424 347 437 311 459 281 C 480 250 512 226 555 208 C 597 190 657 182 733 182 C 807 182 866 190 909 208 C 951 226 983 250 1004 281 C 1025 311 1038 347 1043 389 C 1048 430 1051 474 1051 522 L 1051 1446 L 1288 1446 L 1288 506 C 1288 464 1285 421 1281 379 C 1277 336 1268 295 1254 256 C 1240 216 1221 180 1197 146 C 1172 112 1139 82 1098 57 C 1056 31 1006 11 946 -3 C 886 -17 814 -25 731 -25 C 647 -25 576 -17 516 -3 C 456 11 405 31 363 57 C 321 82 288 112 263 146 C 237 180 218 216 204 256 C 190 295 181 336 177 379 C 172 421 170 464 170 506 L 170 1446 L 412 1446 Z M 806 1900 L 1015 1644 L 1015 1587 L 927 1587 L 736 1752 L 724 1752 L 529 1587 L 446 1587 L 446 1644 L 652 1900 L 806 1900 Z" unicode="" />
<glyph horiz-adv-x="1458" d="M 412 1446 L 412 522 C 412 474 414 430 419 389 C 424 347 437 311 459 281 C 480 250 512 226 555 208 C 597 190 657 182 733 182 C 807 182 866 190 909 208 C 951 226 983 250 1004 281 C 1025 311 1038 347 1043 389 C 1048 430 1051 474 1051 522 L 1051 1446 L 1288 1446 L 1288 506 C 1288 464 1285 421 1281 379 C 1277 336 1268 295 1254 256 C 1240 216 1221 180 1197 146 C 1172 112 1139 82 1098 57 C 1056 31 1006 11 946 -3 C 886 -17 814 -25 731 -25 C 647 -25 576 -17 516 -3 C 456 11 405 31 363 57 C 321 82 288 112 263 146 C 237 180 218 216 204 256 C 190 295 181 336 177 379 C 172 421 170 464 170 506 L 170 1446 L 412 1446 Z M 1051 1823 L 1051 1616 L 838 1616 L 838 1823 L 1051 1823 Z M 623 1823 L 623 1616 L 410 1616 L 410 1823 L 623 1823 Z" unicode="" />
<glyph horiz-adv-x="1315" d="M 307 1446 L 668 735 L 1028 1446 L 1300 1446 L 778 510 L 778 0 L 535 0 L 535 510 L 16 1446 L 307 1446 Z M 547 1648 L 793 1900 L 988 1900 L 988 1824 L 666 1587 L 547 1587 L 547 1648 Z" unicode="" />
<glyph horiz-adv-x="1378" d="M 188 1446 L 430 1446 L 430 1176 L 776 1176 C 874 1176 957 1164 1023 1142 C 1089 1119 1142 1086 1182 1044 C 1218 1006 1244 961 1262 910 C 1279 858 1288 801 1288 737 C 1288 668 1277 606 1257 551 C 1237 495 1207 448 1167 410 C 1147 390 1124 373 1100 359 C 1075 345 1047 333 1015 323 C 983 313 948 305 909 300 C 869 295 825 293 776 293 L 430 293 L 430 0 L 188 0 L 188 1446 Z M 795 492 C 840 492 878 497 910 509 C 942 520 967 536 987 558 C 1007 580 1021 606 1030 637 C 1039 667 1044 702 1044 741 C 1044 773 1039 804 1030 833 C 1021 861 1007 886 987 908 C 967 929 942 946 910 958 C 878 970 840 977 795 977 L 430 977 L 430 492 L 795 492 Z" unicode="" />
<glyph horiz-adv-x="1167" d="M 610 793 C 610 807 611 821 615 833 C 618 845 623 856 630 868 C 637 879 646 891 657 903 C 668 915 681 930 696 946 C 708 958 719 970 729 982 C 739 994 747 1007 755 1022 C 762 1037 768 1054 772 1072 C 776 1090 778 1111 778 1135 C 778 1162 774 1188 768 1214 C 761 1239 750 1261 734 1280 C 718 1299 698 1314 673 1326 C 647 1337 616 1343 578 1343 C 536 1343 503 1336 478 1322 C 452 1308 433 1290 419 1266 C 405 1242 395 1214 390 1182 C 385 1150 383 1115 383 1079 L 383 0 L 156 0 L 156 1098 C 156 1168 166 1231 187 1285 C 207 1339 236 1384 273 1421 C 310 1458 354 1486 405 1505 C 456 1524 512 1534 573 1534 C 635 1534 693 1524 746 1506 C 799 1488 845 1462 884 1429 C 922 1396 953 1357 975 1311 C 997 1265 1008 1215 1008 1161 C 1008 1127 1004 1095 996 1067 C 988 1039 979 1013 967 990 C 955 966 941 945 926 927 C 911 909 897 893 883 879 C 865 862 853 849 846 841 C 839 832 836 825 836 819 C 836 813 838 807 842 799 C 846 791 853 782 862 770 C 871 758 882 744 896 728 C 910 712 926 692 946 670 C 970 641 992 614 1013 589 C 1034 564 1053 538 1069 512 C 1085 486 1097 458 1106 428 C 1115 398 1120 363 1120 324 C 1120 266 1110 216 1090 174 C 1070 132 1044 96 1011 68 C 977 40 939 19 895 5 C 851 -9 806 -16 758 -16 C 720 -16 686 -13 656 -9 C 625 -4 604 0 592 4 L 592 178 C 610 174 631 171 653 168 C 675 165 700 164 729 164 C 748 164 767 166 786 171 C 805 175 822 183 837 195 C 852 206 864 221 873 240 C 882 258 887 281 887 309 C 887 339 882 365 874 388 C 866 410 855 432 841 453 C 827 474 811 495 793 517 C 775 538 756 562 737 588 C 713 614 694 636 678 655 C 662 673 649 690 639 706 C 629 721 621 735 617 749 C 612 763 610 777 610 793 Z" unicode="" />
<glyph horiz-adv-x="1126" d="M 139 981 C 155 993 176 1005 203 1017 C 229 1029 260 1041 296 1051 C 331 1061 371 1070 415 1077 C 459 1083 506 1087 557 1087 C 623 1087 683 1080 735 1066 C 787 1052 830 1030 866 1000 C 902 970 929 930 947 882 C 965 834 975 775 975 707 L 975 274 C 975 203 981 145 994 101 C 1007 56 1020 22 1032 0 L 801 0 C 794 13 786 33 776 60 C 766 87 760 120 758 158 C 722 102 675 57 619 25 C 562 -6 494 -23 416 -23 C 366 -23 321 -16 281 -3 C 240 10 205 30 176 56 C 146 82 124 115 108 154 C 92 192 84 237 84 287 C 84 341 94 389 116 433 C 137 477 173 514 224 546 C 275 577 343 601 428 619 C 512 637 618 647 745 649 L 745 719 C 745 784 730 832 700 862 C 670 892 619 907 549 907 C 493 907 439 899 387 884 C 335 869 283 849 231 825 L 139 981 Z M 745 518 C 647 511 569 500 511 486 C 453 472 410 455 380 436 C 350 416 331 395 323 373 C 315 351 311 329 311 307 C 311 257 324 218 352 191 C 380 163 423 150 483 150 C 521 150 557 155 589 167 C 621 179 649 195 672 217 C 695 238 713 264 726 294 C 738 324 745 359 745 397 L 745 518 Z M 678 1217 L 559 1217 L 237 1454 L 237 1530 L 432 1530 L 678 1278 L 678 1217 Z" unicode="" />
<glyph horiz-adv-x="1126" d="M 139 981 C 155 993 176 1005 203 1017 C 229 1029 260 1041 296 1051 C 331 1061 371 1070 415 1077 C 459 1083 506 1087 557 1087 C 623 1087 683 1080 735 1066 C 787 1052 830 1030 866 1000 C 902 970 929 930 947 882 C 965 834 975 775 975 707 L 975 274 C 975 203 981 145 994 101 C 1007 56 1020 22 1032 0 L 801 0 C 794 13 786 33 776 60 C 766 87 760 120 758 158 C 722 102 675 57 619 25 C 562 -6 494 -23 416 -23 C 366 -23 321 -16 281 -3 C 240 10 205 30 176 56 C 146 82 124 115 108 154 C 92 192 84 237 84 287 C 84 341 94 389 116 433 C 137 477 173 514 224 546 C 275 577 343 601 428 619 C 512 637 618 647 745 649 L 745 719 C 745 784 730 832 700 862 C 670 892 619 907 549 907 C 493 907 439 899 387 884 C 335 869 283 849 231 825 L 139 981 Z M 745 518 C 647 511 569 500 511 486 C 453 472 410 455 380 436 C 350 416 331 395 323 373 C 315 351 311 329 311 307 C 311 257 324 218 352 191 C 380 163 423 150 483 150 C 521 150 557 155 589 167 C 621 179 649 195 672 217 C 695 238 713 264 726 294 C 738 324 745 359 745 397 L 745 518 Z M 453 1278 L 699 1530 L 894 1530 L 894 1454 L 572 1217 L 453 1217 L 453 1278 Z" unicode="" />
<glyph horiz-adv-x="1126" d="M 139 981 C 155 993 176 1005 203 1017 C 229 1029 260 1041 296 1051 C 331 1061 371 1070 415 1077 C 459 1083 506 1087 557 1087 C 623 1087 683 1080 735 1066 C 787 1052 830 1030 866 1000 C 902 970 929 930 947 882 C 965 834 975 775 975 707 L 975 274 C 975 203 981 145 994 101 C 1007 56 1020 22 1032 0 L 801 0 C 794 13 786 33 776 60 C 766 87 760 120 758 158 C 722 102 675 57 619 25 C 562 -6 494 -23 416 -23 C 366 -23 321 -16 281 -3 C 240 10 205 30 176 56 C 146 82 124 115 108 154 C 92 192 84 237 84 287 C 84 341 94 389 116 433 C 137 477 173 514 224 546 C 275 577 343 601 428 619 C 512 637 618 647 745 649 L 745 719 C 745 784 730 832 700 862 C 670 892 619 907 549 907 C 493 907 439 899 387 884 C 335 869 283 849 231 825 L 139 981 Z M 745 518 C 647 511 569 500 511 486 C 453 472 410 455 380 436 C 350 416 331 395 323 373 C 315 351 311 329 311 307 C 311 257 324 218 352 191 C 380 163 423 150 483 150 C 521 150 557 155 589 167 C 621 179 649 195 672 217 C 695 238 713 264 726 294 C 738 324 745 359 745 397 L 745 518 Z M 643 1530 L 852 1274 L 852 1217 L 764 1217 L 573 1382 L 561 1382 L 366 1217 L 283 1217 L 283 1274 L 489 1530 L 643 1530 Z" unicode="" />
<glyph horiz-adv-x="1126" d="M 139 981 C 155 993 176 1005 203 1017 C 229 1029 260 1041 296 1051 C 331 1061 371 1070 415 1077 C 459 1083 506 1087 557 1087 C 623 1087 683 1080 735 1066 C 787 1052 830 1030 866 1000 C 902 970 929 930 947 882 C 965 834 975 775 975 707 L 975 274 C 975 203 981 145 994 101 C 1007 56 1020 22 1032 0 L 801 0 C 794 13 786 33 776 60 C 766 87 760 120 758 158 C 722 102 675 57 619 25 C 562 -6 494 -23 416 -23 C 366 -23 321 -16 281 -3 C 240 10 205 30 176 56 C 146 82 124 115 108 154 C 92 192 84 237 84 287 C 84 341 94 389 116 433 C 137 477 173 514 224 546 C 275 577 343 601 428 619 C 512 637 618 647 745 649 L 745 719 C 745 784 730 832 700 862 C 670 892 619 907 549 907 C 493 907 439 899 387 884 C 335 869 283 849 231 825 L 139 981 Z M 745 518 C 647 511 569 500 511 486 C 453 472 410 455 380 436 C 350 416 331 395 323 373 C 315 351 311 329 311 307 C 311 257 324 218 352 191 C 380 163 423 150 483 150 C 521 150 557 155 589 167 C 621 179 649 195 672 217 C 695 238 713 264 726 294 C 738 324 745 359 745 397 L 745 518 Z M 684 1208 C 669 1208 655 1209 643 1212 C 630 1214 618 1219 606 1225 C 594 1231 581 1239 568 1249 C 555 1259 541 1271 526 1286 L 491 1315 C 479 1325 469 1333 459 1340 C 449 1346 439 1350 430 1350 C 418 1350 408 1347 399 1342 C 389 1337 378 1328 366 1315 L 309 1260 L 203 1337 L 276 1415 C 310 1450 341 1474 370 1487 C 398 1500 425 1507 450 1507 C 464 1507 478 1505 490 1503 C 502 1500 515 1496 527 1490 C 539 1484 551 1476 564 1466 C 577 1456 592 1444 608 1430 L 643 1399 C 654 1388 665 1379 675 1373 C 685 1367 694 1364 704 1364 C 714 1364 724 1366 734 1372 C 743 1377 754 1386 768 1399 L 823 1456 L 930 1376 L 856 1298 C 822 1263 791 1239 763 1227 C 735 1214 708 1208 684 1208 Z" unicode="" />
<glyph horiz-adv-x="1126" d="M 139 981 C 155 993 176 1005 203 1017 C 229 1029 260 1041 296 1051 C 331 1061 371 1070 415 1077 C 459 1083 506 1087 557 1087 C 623 1087 683 1080 735 1066 C 787 1052 830 1030 866 1000 C 902 970 929 930 947 882 C 965 834 975 775 975 707 L 975 274 C 975 203 981 145 994 101 C 1007 56 1020 22 1032 0 L 801 0 C 794 13 786 33 776 60 C 766 87 760 120 758 158 C 722 102 675 57 619 25 C 562 -6 494 -23 416 -23 C 366 -23 321 -16 281 -3 C 240 10 205 30 176 56 C 146 82 124 115 108 154 C 92 192 84 237 84 287 C 84 341 94 389 116 433 C 137 477 173 514 224 546 C 275 577 343 601 428 619 C 512 637 618 647 745 649 L 745 719 C 745 784 730 832 700 862 C 670 892 619 907 549 907 C 493 907 439 899 387 884 C 335 869 283 849 231 825 L 139 981 Z M 745 518 C 647 511 569 500 511 486 C 453 472 410 455 380 436 C 350 416 331 395 323 373 C 315 351 311 329 311 307 C 311 257 324 218 352 191 C 380 163 423 150 483 150 C 521 150 557 155 589 167 C 621 179 649 195 672 217 C 695 238 713 264 726 294 C 738 324 745 359 745 397 L 745 518 Z M 887 1458 L 887 1251 L 674 1251 L 674 1458 L 887 1458 Z M 459 1458 L 459 1251 L 246 1251 L 246 1458 L 459 1458 Z" unicode="" />
<glyph horiz-adv-x="1126" d="M 139 981 C 155 993 176 1005 203 1017 C 229 1029 260 1041 296 1051 C 331 1061 371 1070 415 1077 C 459 1083 506 1087 557 1087 C 623 1087 683 1080 735 1066 C 787 1052 830 1030 866 1000 C 902 970 929 930 947 882 C 965 834 975 775 975 707 L 975 274 C 975 203 981 145 994 101 C 1007 56 1020 22 1032 0 L 801 0 C 794 13 786 33 776 60 C 766 87 760 120 758 158 C 722 102 675 57 619 25 C 562 -6 494 -23 416 -23 C 366 -23 321 -16 281 -3 C 240 10 205 30 176 56 C 146 82 124 115 108 154 C 92 192 84 237 84 287 C 84 341 94 389 116 433 C 137 477 173 514 224 546 C 275 577 343 601 428 619 C 512 637 618 647 745 649 L 745 719 C 745 784 730 832 700 862 C 670 892 619 907 549 907 C 493 907 439 899 387 884 C 335 869 283 849 231 825 L 139 981 Z M 745 518 C 647 511 569 500 511 486 C 453 472 410 455 380 436 C 350 416 331 395 323 373 C 315 351 311 329 311 307 C 311 257 324 218 352 191 C 380 163 423 150 483 150 C 521 150 557 155 589 167 C 621 179 649 195 672 217 C 695 238 713 264 726 294 C 738 324 745 359 745 397 L 745 518 Z M 322 1438 C 322 1470 328 1500 340 1528 C 352 1556 369 1581 391 1602 C 413 1622 438 1639 468 1651 C 498 1663 530 1669 566 1669 C 600 1669 632 1663 662 1651 C 692 1639 718 1622 740 1602 C 762 1581 779 1556 791 1528 C 803 1500 810 1470 810 1438 C 810 1406 803 1376 791 1348 C 779 1320 762 1296 740 1276 C 718 1256 692 1240 662 1228 C 632 1216 600 1210 566 1210 C 530 1210 498 1216 468 1228 C 438 1240 413 1256 391 1276 C 369 1296 352 1320 340 1348 C 328 1376 322 1406 322 1438 Z M 566 1567 C 548 1567 531 1563 515 1557 C 499 1550 486 1541 474 1529 C 462 1517 453 1504 447 1488 C 440 1472 437 1456 437 1438 C 437 1420 440 1404 447 1388 C 453 1372 462 1359 474 1348 C 486 1336 499 1327 515 1321 C 531 1314 548 1311 566 1311 C 583 1311 599 1314 615 1321 C 630 1327 643 1336 655 1348 C 667 1359 676 1372 683 1388 C 689 1404 693 1420 693 1438 C 693 1456 689 1472 683 1488 C 676 1504 667 1517 655 1529 C 643 1541 630 1550 615 1557 C 599 1563 583 1567 566 1567 Z" unicode="" />
<glyph horiz-adv-x="1790" d="M 745 518 C 647 511 569 500 511 486 C 453 472 410 455 380 436 C 350 416 331 395 323 373 C 315 351 311 329 311 307 C 311 257 324 218 352 191 C 380 163 423 150 483 150 C 521 150 557 155 589 167 C 621 179 649 195 672 217 C 695 238 713 264 726 294 C 738 324 745 359 745 397 L 745 518 Z M 825 188 C 800 150 772 117 741 91 C 710 64 677 42 642 25 C 607 8 570 -3 532 -11 C 494 -19 455 -23 416 -23 C 366 -23 321 -16 281 -3 C 240 10 205 30 176 56 C 146 82 124 115 108 154 C 92 192 84 237 84 287 C 84 341 94 389 116 433 C 137 477 173 514 224 546 C 275 577 343 601 428 619 C 512 637 618 647 745 649 L 745 719 C 745 784 730 832 700 862 C 670 892 619 907 549 907 C 493 907 439 899 387 884 C 335 869 283 849 231 825 L 139 981 C 155 993 176 1005 203 1017 C 229 1029 260 1041 296 1051 C 331 1061 371 1070 415 1077 C 459 1083 506 1087 557 1087 C 640 1087 710 1074 768 1048 C 825 1022 870 979 903 920 C 945 972 994 1012 1051 1042 C 1107 1072 1172 1087 1245 1087 C 1315 1087 1377 1075 1432 1051 C 1487 1027 1534 993 1572 951 C 1610 909 1638 859 1658 801 C 1678 743 1688 680 1688 612 C 1688 600 1687 583 1686 561 C 1684 539 1682 513 1679 481 L 969 481 C 971 440 978 400 989 362 C 1000 323 1017 288 1041 258 C 1064 228 1094 203 1132 185 C 1169 167 1215 158 1270 158 C 1333 158 1390 167 1442 186 C 1494 205 1545 230 1595 262 L 1665 100 C 1613 62 1554 32 1490 10 C 1425 -11 1352 -23 1270 -23 C 1161 -23 1070 -4 996 34 C 922 72 865 123 825 188 Z M 1239 915 C 1203 915 1171 908 1141 896 C 1111 883 1084 864 1061 840 C 1037 816 1018 786 1003 751 C 987 715 977 675 971 631 L 1468 631 C 1468 673 1463 711 1453 746 C 1443 780 1429 810 1410 835 C 1390 860 1366 880 1338 894 C 1309 908 1276 915 1239 915 Z" unicode="" />
<glyph horiz-adv-x="1016" d="M 616 168 C 664 168 708 175 749 189 C 789 203 827 222 862 246 L 932 66 C 888 38 839 16 786 0 C 732 -15 670 -23 600 -23 L 592 -23 L 668 -104 C 683 -120 697 -140 709 -164 C 721 -188 727 -218 727 -254 C 727 -286 721 -314 709 -339 C 697 -363 681 -384 659 -401 C 637 -417 610 -430 579 -438 C 548 -446 513 -451 475 -451 C 441 -451 409 -447 379 -441 C 349 -434 325 -423 307 -408 L 328 -281 C 334 -285 343 -289 355 -293 C 366 -297 378 -300 391 -303 C 404 -305 417 -307 431 -309 C 444 -310 456 -311 467 -311 C 475 -311 484 -310 494 -309 C 504 -307 513 -304 521 -300 C 529 -295 535 -288 541 -280 C 546 -271 549 -260 549 -246 C 549 -229 545 -216 537 -207 C 529 -197 520 -186 508 -174 L 451 -117 C 446 -113 442 -107 438 -99 C 434 -91 432 -83 432 -74 L 432 0 C 374 15 323 39 281 71 C 239 103 204 141 176 187 C 148 232 128 283 114 340 C 100 397 94 458 94 524 C 94 606 104 681 126 750 C 148 819 180 878 223 928 C 265 978 318 1017 382 1045 C 446 1073 520 1087 604 1087 C 672 1087 732 1079 786 1064 C 839 1048 888 1027 932 999 L 862 819 C 827 841 789 860 749 875 C 708 889 662 897 612 897 C 563 897 521 887 486 869 C 451 851 422 825 399 792 C 376 759 359 720 348 675 C 337 630 332 581 332 528 C 332 484 336 441 344 398 C 352 355 366 317 387 283 C 408 249 437 221 474 200 C 510 178 558 168 616 168 Z" unicode="" />
<glyph horiz-adv-x="1143" d="M 326 481 C 328 440 335 400 346 362 C 356 323 373 288 396 258 C 418 228 448 203 485 185 C 521 167 567 158 623 158 C 685 158 743 167 795 186 C 847 204 898 230 948 262 L 1018 100 C 964 62 905 32 841 10 C 777 -11 703 -23 621 -23 C 529 -23 450 -9 384 17 C 318 44 263 82 220 130 C 177 178 145 234 125 300 C 104 365 94 436 94 512 C 94 594 105 671 128 741 C 151 811 184 871 228 923 C 271 974 323 1014 385 1043 C 447 1072 516 1087 594 1087 C 666 1087 729 1075 785 1051 C 840 1027 886 993 924 951 C 962 909 990 859 1010 801 C 1030 743 1040 680 1040 612 C 1040 600 1039 583 1038 561 C 1037 539 1035 513 1032 481 L 326 481 Z M 592 915 C 521 915 463 890 417 841 C 371 791 342 721 330 631 L 821 631 C 821 673 816 711 806 746 C 796 780 781 810 762 835 C 742 860 718 880 690 894 C 662 908 629 915 592 915 Z M 690 1217 L 571 1217 L 249 1454 L 249 1530 L 444 1530 L 690 1278 L 690 1217 Z" unicode="" />
<glyph horiz-adv-x="1143" d="M 326 481 C 328 440 335 400 346 362 C 356 323 373 288 396 258 C 418 228 448 203 485 185 C 521 167 567 158 623 158 C 685 158 743 167 795 186 C 847 204 898 230 948 262 L 1018 100 C 964 62 905 32 841 10 C 777 -11 703 -23 621 -23 C 529 -23 450 -9 384 17 C 318 44 263 82 220 130 C 177 178 145 234 125 300 C 104 365 94 436 94 512 C 94 594 105 671 128 741 C 151 811 184 871 228 923 C 271 974 323 1014 385 1043 C 447 1072 516 1087 594 1087 C 666 1087 729 1075 785 1051 C 840 1027 886 993 924 951 C 962 909 990 859 1010 801 C 1030 743 1040 680 1040 612 C 1040 600 1039 583 1038 561 C 1037 539 1035 513 1032 481 L 326 481 Z M 592 915 C 521 915 463 890 417 841 C 371 791 342 721 330 631 L 821 631 C 821 673 816 711 806 746 C 796 780 781 810 762 835 C 742 860 718 880 690 894 C 662 908 629 915 592 915 Z M 465 1278 L 711 1530 L 906 1530 L 906 1454 L 584 1217 L 465 1217 L 465 1278 Z" unicode="" />
<glyph horiz-adv-x="1143" d="M 326 481 C 328 440 335 400 346 362 C 356 323 373 288 396 258 C 418 228 448 203 485 185 C 521 167 567 158 623 158 C 685 158 743 167 795 186 C 847 204 898 230 948 262 L 1018 100 C 964 62 905 32 841 10 C 777 -11 703 -23 621 -23 C 529 -23 450 -9 384 17 C 318 44 263 82 220 130 C 177 178 145 234 125 300 C 104 365 94 436 94 512 C 94 594 105 671 128 741 C 151 811 184 871 228 923 C 271 974 323 1014 385 1043 C 447 1072 516 1087 594 1087 C 666 1087 729 1075 785 1051 C 840 1027 886 993 924 951 C 962 909 990 859 1010 801 C 1030 743 1040 680 1040 612 C 1040 600 1039 583 1038 561 C 1037 539 1035 513 1032 481 L 326 481 Z M 592 915 C 521 915 463 890 417 841 C 371 791 342 721 330 631 L 821 631 C 821 673 816 711 806 746 C 796 780 781 810 762 835 C 742 860 718 880 690 894 C 662 908 629 915 592 915 Z M 655 1530 L 864 1274 L 864 1217 L 776 1217 L 585 1382 L 573 1382 L 378 1217 L 295 1217 L 295 1274 L 501 1530 L 655 1530 Z" unicode="" />
<glyph horiz-adv-x="1143" d="M 326 481 C 328 440 335 400 346 362 C 356 323 373 288 396 258 C 418 228 448 203 485 185 C 521 167 567 158 623 158 C 685 158 743 167 795 186 C 847 204 898 230 948 262 L 1018 100 C 964 62 905 32 841 10 C 777 -11 703 -23 621 -23 C 529 -23 450 -9 384 17 C 318 44 263 82 220 130 C 177 178 145 234 125 300 C 104 365 94 436 94 512 C 94 594 105 671 128 741 C 151 811 184 871 228 923 C 271 974 323 1014 385 1043 C 447 1072 516 1087 594 1087 C 666 1087 729 1075 785 1051 C 840 1027 886 993 924 951 C 962 909 990 859 1010 801 C 1030 743 1040 680 1040 612 C 1040 600 1039 583 1038 561 C 1037 539 1035 513 1032 481 L 326 481 Z M 592 915 C 521 915 463 890 417 841 C 371 791 342 721 330 631 L 821 631 C 821 673 816 711 806 746 C 796 780 781 810 762 835 C 742 860 718 880 690 894 C 662 908 629 915 592 915 Z M 899 1458 L 899 1251 L 686 1251 L 686 1458 L 899 1458 Z M 471 1458 L 471 1251 L 258 1251 L 258 1458 L 471 1458 Z" unicode="" />
<glyph horiz-adv-x="555" d="M 391 1065 L 391 0 L 164 0 L 164 1065 L 391 1065 Z M 393 1217 L 274 1217 L -48 1454 L -48 1530 L 147 1530 L 393 1278 L 393 1217 Z" unicode="" />
<glyph horiz-adv-x="555" d="M 391 1065 L 391 0 L 164 0 L 164 1065 L 391 1065 Z M 165 1278 L 411 1530 L 606 1530 L 606 1454 L 284 1217 L 165 1217 L 165 1278 Z" unicode="" />
<glyph horiz-adv-x="555" d="M 391 1065 L 391 0 L 164 0 L 164 1065 L 391 1065 Z M 353 1530 L 562 1274 L 562 1217 L 474 1217 L 283 1382 L 271 1382 L 76 1217 L -7 1217 L -7 1274 L 199 1530 L 353 1530 Z" unicode="" />
<glyph horiz-adv-x="555" d="M 391 1065 L 391 0 L 164 0 L 164 1065 L 391 1065 Z M 599 1458 L 599 1251 L 386 1251 L 386 1458 L 599 1458 Z M 171 1458 L 171 1251 L -42 1251 L -42 1458 L 171 1458 Z" unicode="" />
<glyph horiz-adv-x="1176" d="M 588 -23 C 512 -23 444 -9 384 17 C 323 43 271 81 228 129 C 185 177 152 236 129 304 C 105 372 94 448 94 532 C 94 611 104 684 125 750 C 146 816 177 873 217 921 C 257 968 307 1005 366 1032 C 424 1058 491 1072 567 1073 C 592 1073 613 1070 629 1066 C 645 1061 661 1055 678 1047 C 668 1063 655 1081 641 1100 C 627 1119 611 1138 595 1157 C 579 1175 562 1193 546 1210 C 529 1227 514 1242 500 1255 L 225 1163 L 225 1292 L 383 1348 C 372 1356 360 1365 346 1376 C 332 1386 318 1397 304 1407 C 290 1417 276 1426 264 1435 C 252 1443 242 1450 236 1454 L 438 1524 C 465 1505 491 1486 515 1468 C 539 1450 563 1431 586 1413 L 834 1497 L 834 1368 L 698 1321 C 772 1251 833 1182 883 1114 C 932 1046 971 980 1001 916 C 1030 851 1051 788 1063 726 C 1075 664 1081 603 1081 545 C 1081 463 1070 387 1048 318 C 1026 248 995 188 953 138 C 911 87 859 47 798 19 C 736 -8 666 -23 588 -23 Z M 588 168 C 638 168 679 177 713 197 C 746 217 773 243 793 277 C 813 311 827 350 835 394 C 843 438 848 485 848 535 C 848 581 844 625 836 669 C 828 712 815 751 795 785 C 775 819 749 846 716 866 C 682 886 640 897 588 897 C 538 897 496 887 464 868 C 431 849 405 823 385 791 C 365 759 352 721 344 677 C 336 633 332 587 332 539 C 332 493 335 447 342 403 C 349 358 362 318 381 284 C 400 249 426 221 460 200 C 493 178 536 168 588 168 Z" unicode="" />
<glyph horiz-adv-x="1196" d="M 354 1065 L 375 895 C 397 933 421 965 446 990 C 470 1015 496 1035 522 1049 C 548 1063 575 1073 603 1079 C 631 1084 661 1087 692 1087 C 750 1087 801 1078 844 1060 C 887 1042 924 1018 954 987 C 987 953 1011 911 1027 861 C 1043 811 1051 750 1051 676 L 1051 0 L 823 0 L 823 707 C 823 730 819 753 813 777 C 807 800 795 821 778 840 C 762 857 742 871 716 881 C 690 891 657 897 618 897 C 585 897 555 891 527 880 C 499 869 475 854 455 834 C 435 814 419 791 408 765 C 396 738 391 709 391 678 L 391 0 L 164 0 L 164 872 L 143 1065 L 354 1065 Z M 717 1208 C 702 1208 688 1209 676 1212 C 663 1214 651 1219 639 1225 C 627 1231 614 1239 601 1249 C 588 1259 574 1271 559 1286 L 524 1315 C 512 1325 502 1333 492 1340 C 482 1346 472 1350 463 1350 C 451 1350 441 1347 432 1342 C 422 1337 411 1328 399 1315 L 342 1260 L 236 1337 L 309 1415 C 343 1450 374 1474 403 1487 C 431 1500 458 1507 483 1507 C 497 1507 511 1505 523 1503 C 535 1500 548 1496 560 1490 C 572 1484 584 1476 597 1466 C 610 1456 625 1444 641 1430 L 676 1399 C 687 1388 698 1379 708 1373 C 718 1367 727 1364 737 1364 C 747 1364 757 1366 767 1372 C 776 1377 787 1386 801 1399 L 856 1456 L 963 1376 L 889 1298 C 855 1263 824 1239 796 1227 C 768 1214 741 1208 717 1208 Z" unicode="" />
<glyph horiz-adv-x="1176" d="M 588 897 C 538 897 496 887 464 868 C 431 849 405 823 385 791 C 365 758 352 720 344 676 C 336 632 332 586 332 537 C 332 491 335 446 342 402 C 349 358 362 318 381 284 C 400 249 426 221 460 200 C 493 178 536 168 588 168 C 638 168 679 177 712 197 C 745 217 771 243 791 277 C 810 310 824 349 832 394 C 840 439 844 487 844 537 C 844 582 840 626 833 670 C 825 713 812 751 793 785 C 774 819 748 846 715 866 C 682 886 640 897 588 897 Z M 590 1087 C 664 1087 732 1074 792 1048 C 852 1022 904 985 947 937 C 989 889 1022 832 1045 764 C 1068 696 1080 621 1081 537 C 1081 458 1070 385 1048 317 C 1026 249 995 189 953 139 C 911 89 859 49 798 20 C 737 -8 668 -23 590 -23 C 514 -23 445 -9 384 16 C 323 42 271 80 228 129 C 185 177 152 236 129 305 C 105 374 94 451 94 537 C 94 616 105 689 128 756 C 150 823 183 881 225 930 C 267 979 319 1017 381 1045 C 442 1073 512 1087 590 1087 Z M 701 1217 L 582 1217 L 260 1454 L 260 1530 L 455 1530 L 701 1278 L 701 1217 Z" unicode="" />
<glyph horiz-adv-x="1176" d="M 588 897 C 538 897 496 887 464 868 C 431 849 405 823 385 791 C 365 758 352 720 344 676 C 336 632 332 586 332 537 C 332 491 335 446 342 402 C 349 358 362 318 381 284 C 400 249 426 221 460 200 C 493 178 536 168 588 168 C 638 168 679 177 712 197 C 745 217 771 243 791 277 C 810 310 824 349 832 394 C 840 439 844 487 844 537 C 844 582 840 626 833 670 C 825 713 812 751 793 785 C 774 819 748 846 715 866 C 682 886 640 897 588 897 Z M 590 1087 C 664 1087 732 1074 792 1048 C 852 1022 904 985 947 937 C 989 889 1022 832 1045 764 C 1068 696 1080 621 1081 537 C 1081 458 1070 385 1048 317 C 1026 249 995 189 953 139 C 911 89 859 49 798 20 C 737 -8 668 -23 590 -23 C 514 -23 445 -9 384 16 C 323 42 271 80 228 129 C 185 177 152 236 129 305 C 105 374 94 451 94 537 C 94 616 105 689 128 756 C 150 823 183 881 225 930 C 267 979 319 1017 381 1045 C 442 1073 512 1087 590 1087 Z M 475 1278 L 721 1530 L 916 1530 L 916 1454 L 594 1217 L 475 1217 L 475 1278 Z" unicode="" />
<glyph horiz-adv-x="1176" d="M 588 897 C 538 897 496 887 464 868 C 431 849 405 823 385 791 C 365 758 352 720 344 676 C 336 632 332 586 332 537 C 332 491 335 446 342 402 C 349 358 362 318 381 284 C 400 249 426 221 460 200 C 493 178 536 168 588 168 C 638 168 679 177 712 197 C 745 217 771 243 791 277 C 810 310 824 349 832 394 C 840 439 844 487 844 537 C 844 582 840 626 833 670 C 825 713 812 751 793 785 C 774 819 748 846 715 866 C 682 886 640 897 588 897 Z M 590 1087 C 664 1087 732 1074 792 1048 C 852 1022 904 985 947 937 C 989 889 1022 832 1045 764 C 1068 696 1080 621 1081 537 C 1081 458 1070 385 1048 317 C 1026 249 995 189 953 139 C 911 89 859 49 798 20 C 737 -8 668 -23 590 -23 C 514 -23 445 -9 384 16 C 323 42 271 80 228 129 C 185 177 152 236 129 305 C 105 374 94 451 94 537 C 94 616 105 689 128 756 C 150 823 183 881 225 930 C 267 979 319 1017 381 1045 C 442 1073 512 1087 590 1087 Z M 665 1530 L 874 1274 L 874 1217 L 786 1217 L 595 1382 L 583 1382 L 388 1217 L 305 1217 L 305 1274 L 511 1530 L 665 1530 Z" unicode="" />
<glyph horiz-adv-x="1176" d="M 588 897 C 538 897 496 887 464 868 C 431 849 405 823 385 791 C 365 758 352 720 344 676 C 336 632 332 586 332 537 C 332 491 335 446 342 402 C 349 358 362 318 381 284 C 400 249 426 221 460 200 C 493 178 536 168 588 168 C 638 168 679 177 712 197 C 745 217 771 243 791 277 C 810 310 824 349 832 394 C 840 439 844 487 844 537 C 844 582 840 626 833 670 C 825 713 812 751 793 785 C 774 819 748 846 715 866 C 682 886 640 897 588 897 Z M 590 1087 C 664 1087 732 1074 792 1048 C 852 1022 904 985 947 937 C 989 889 1022 832 1045 764 C 1068 696 1080 621 1081 537 C 1081 458 1070 385 1048 317 C 1026 249 995 189 953 139 C 911 89 859 49 798 20 C 737 -8 668 -23 590 -23 C 514 -23 445 -9 384 16 C 323 42 271 80 228 129 C 185 177 152 236 129 305 C 105 374 94 451 94 537 C 94 616 105 689 128 756 C 150 823 183 881 225 930 C 267 979 319 1017 381 1045 C 442 1073 512 1087 590 1087 Z M 707 1208 C 692 1208 678 1209 666 1212 C 653 1214 641 1219 629 1225 C 617 1231 604 1239 591 1249 C 578 1259 564 1271 549 1286 L 514 1315 C 502 1325 492 1333 482 1340 C 472 1346 462 1350 453 1350 C 441 1350 431 1347 422 1342 C 412 1337 401 1328 389 1315 L 332 1260 L 226 1337 L 299 1415 C 333 1450 364 1474 393 1487 C 421 1500 448 1507 473 1507 C 487 1507 501 1505 513 1503 C 525 1500 538 1496 550 1490 C 562 1484 574 1476 587 1466 C 600 1456 615 1444 631 1430 L 666 1399 C 677 1388 688 1379 698 1373 C 708 1367 717 1364 727 1364 C 737 1364 747 1366 757 1372 C 766 1377 777 1386 791 1399 L 846 1456 L 953 1376 L 879 1298 C 845 1263 814 1239 786 1227 C 758 1214 731 1208 707 1208 Z" unicode="" />
<glyph horiz-adv-x="1176" d="M 588 897 C 538 897 496 887 464 868 C 431 849 405 823 385 791 C 365 758 352 720 344 676 C 336 632 332 586 332 537 C 332 491 335 446 342 402 C 349 358 362 318 381 284 C 400 249 426 221 460 200 C 493 178 536 168 588 168 C 638 168 679 177 712 197 C 745 217 771 243 791 277 C 810 310 824 349 832 394 C 840 439 844 487 844 537 C 844 582 840 626 833 670 C 825 713 812 751 793 785 C 774 819 748 846 715 866 C 682 886 640 897 588 897 Z M 590 1087 C 664 1087 732 1074 792 1048 C 852 1022 904 985 947 937 C 989 889 1022 832 1045 764 C 1068 696 1080 621 1081 537 C 1081 458 1070 385 1048 317 C 1026 249 995 189 953 139 C 911 89 859 49 798 20 C 737 -8 668 -23 590 -23 C 514 -23 445 -9 384 16 C 323 42 271 80 228 129 C 185 177 152 236 129 305 C 105 374 94 451 94 537 C 94 616 105 689 128 756 C 150 823 183 881 225 930 C 267 979 319 1017 381 1045 C 442 1073 512 1087 590 1087 Z M 909 1458 L 909 1251 L 696 1251 L 696 1458 L 909 1458 Z M 481 1458 L 481 1251 L 268 1251 L 268 1458 L 481 1458 Z" unicode="" />
<glyph horiz-adv-x="1206" d="M 739 1182 L 739 928 L 469 928 L 469 1182 L 739 1182 Z M 1133 694 L 1133 485 L 76 485 L 76 694 L 1133 694 Z M 739 252 L 739 0 L 469 0 L 469 252 L 739 252 Z" unicode="" />
<glyph horiz-adv-x="1176" d="M 590 -23 C 552 -23 516 -19 482 -12 C 448 -5 415 4 385 16 L 311 -119 L 158 -119 L 270 86 C 213 134 169 196 139 272 C 109 348 94 437 94 537 C 94 616 105 689 128 756 C 150 823 183 881 225 930 C 267 979 319 1017 381 1045 C 442 1073 512 1087 590 1087 C 664 1087 733 1073 797 1047 L 866 1171 L 1022 1171 L 911 973 C 965 925 1006 865 1035 791 C 1064 717 1079 632 1081 537 C 1081 458 1070 385 1048 317 C 1026 249 995 189 953 139 C 911 89 859 49 798 20 C 737 -8 668 -23 590 -23 Z M 326 537 C 326 488 329 441 337 395 C 345 349 359 308 381 272 L 698 874 C 667 889 630 897 588 897 C 536 897 494 887 460 868 C 426 849 400 823 380 791 C 360 758 346 720 338 676 C 330 632 326 586 326 537 Z M 588 168 C 640 168 682 177 716 197 C 750 217 776 243 796 277 C 816 310 830 349 838 394 C 846 439 850 487 850 537 C 850 582 846 626 839 669 C 831 711 818 750 799 784 L 483 186 C 513 174 548 168 588 168 Z" unicode="" />
<glyph horiz-adv-x="1198" d="M 844 0 L 823 170 C 799 130 775 98 751 74 C 726 49 701 29 675 15 C 649 0 622 -9 594 -15 C 566 -20 536 -23 506 -23 C 447 -23 396 -14 353 4 C 309 22 272 46 242 78 C 210 112 185 153 169 203 C 153 253 145 315 145 389 L 145 1065 L 373 1065 L 373 356 C 373 333 376 310 383 287 C 390 264 402 243 420 225 C 435 207 456 193 482 183 C 508 173 540 168 578 168 C 610 168 641 173 669 184 C 697 195 721 210 741 230 C 761 250 777 273 789 299 C 801 325 807 354 807 385 L 807 1065 L 1034 1065 L 1034 193 L 1055 0 L 844 0 Z M 719 1217 L 600 1217 L 278 1454 L 278 1530 L 473 1530 L 719 1278 L 719 1217 Z" unicode="" />
<glyph horiz-adv-x="1198" d="M 844 0 L 823 170 C 799 130 775 98 751 74 C 726 49 701 29 675 15 C 649 0 622 -9 594 -15 C 566 -20 536 -23 506 -23 C 447 -23 396 -14 353 4 C 309 22 272 46 242 78 C 210 112 185 153 169 203 C 153 253 145 315 145 389 L 145 1065 L 373 1065 L 373 356 C 373 333 376 310 383 287 C 390 264 402 243 420 225 C 435 207 456 193 482 183 C 508 173 540 168 578 168 C 610 168 641 173 669 184 C 697 195 721 210 741 230 C 761 250 777 273 789 299 C 801 325 807 354 807 385 L 807 1065 L 1034 1065 L 1034 193 L 1055 0 L 844 0 Z M 494 1278 L 740 1530 L 935 1530 L 935 1454 L 613 1217 L 494 1217 L 494 1278 Z" unicode="" />
<glyph horiz-adv-x="1198" d="M 844 0 L 823 170 C 799 130 775 98 751 74 C 726 49 701 29 675 15 C 649 0 622 -9 594 -15 C 566 -20 536 -23 506 -23 C 447 -23 396 -14 353 4 C 309 22 272 46 242 78 C 210 112 185 153 169 203 C 153 253 145 315 145 389 L 145 1065 L 373 1065 L 373 356 C 373 333 376 310 383 287 C 390 264 402 243 420 225 C 435 207 456 193 482 183 C 508 173 540 168 578 168 C 610 168 641 173 669 184 C 697 195 721 210 741 230 C 761 250 777 273 789 299 C 801 325 807 354 807 385 L 807 1065 L 1034 1065 L 1034 193 L 1055 0 L 844 0 Z M 684 1530 L 893 1274 L 893 1217 L 805 1217 L 614 1382 L 602 1382 L 407 1217 L 324 1217 L 324 1274 L 530 1530 L 684 1530 Z" unicode="" />
<glyph horiz-adv-x="1198" d="M 844 0 L 823 170 C 799 130 775 98 751 74 C 726 49 701 29 675 15 C 649 0 622 -9 594 -15 C 566 -20 536 -23 506 -23 C 447 -23 396 -14 353 4 C 309 22 272 46 242 78 C 210 112 185 153 169 203 C 153 253 145 315 145 389 L 145 1065 L 373 1065 L 373 356 C 373 333 376 310 383 287 C 390 264 402 243 420 225 C 435 207 456 193 482 183 C 508 173 540 168 578 168 C 610 168 641 173 669 184 C 697 195 721 210 741 230 C 761 250 777 273 789 299 C 801 325 807 354 807 385 L 807 1065 L 1034 1065 L 1034 193 L 1055 0 L 844 0 Z M 928 1458 L 928 1251 L 715 1251 L 715 1458 L 928 1458 Z M 500 1458 L 500 1251 L 287 1251 L 287 1458 L 500 1458 Z" unicode="" />
<glyph horiz-adv-x="1012" d="M 250 1065 L 485 371 L 512 268 L 522 268 L 549 371 L 768 1065 L 1006 1065 L 575 -131 C 560 -173 543 -213 524 -253 C 505 -292 483 -327 457 -357 C 431 -387 400 -411 366 -429 C 331 -447 291 -457 246 -457 C 221 -457 199 -455 180 -452 C 160 -449 145 -444 135 -438 L 119 -272 C 156 -272 187 -270 213 -268 C 238 -265 259 -259 276 -251 C 293 -243 307 -231 319 -215 C 330 -199 340 -179 350 -154 L 401 -16 L 2 1065 L 250 1065 Z M 397 1278 L 643 1530 L 838 1530 L 838 1454 L 516 1217 L 397 1217 L 397 1278 Z" unicode="" />
<glyph horiz-adv-x="1210" d="M 391 385 C 391 359 396 334 406 308 C 416 282 431 258 451 238 C 471 217 495 200 524 187 C 552 174 585 168 623 168 C 678 168 723 178 757 198 C 791 218 817 245 836 279 C 854 313 867 351 873 395 C 879 439 883 484 883 532 C 883 576 880 620 874 664 C 868 708 856 747 838 781 C 820 815 794 843 762 865 C 729 886 686 897 633 897 C 591 897 554 890 524 876 C 494 862 469 845 449 824 C 429 802 414 778 405 752 C 395 726 391 700 391 676 L 391 385 Z M 391 936 C 410 961 430 983 450 1002 C 470 1021 491 1037 514 1049 C 537 1061 562 1071 589 1077 C 616 1083 646 1087 680 1087 C 756 1087 821 1072 876 1042 C 931 1012 976 971 1012 921 C 1048 871 1074 813 1091 747 C 1107 681 1116 611 1116 539 C 1116 497 1113 454 1107 410 C 1101 366 1091 323 1078 281 C 1065 239 1048 200 1026 163 C 1004 126 978 94 947 66 C 915 38 878 17 836 1 C 794 -15 746 -23 692 -23 C 625 -23 567 -11 518 13 C 469 37 427 75 391 129 L 391 -451 L 164 -451 L 164 1507 L 391 1507 L 391 936 Z" unicode="" />
<glyph horiz-adv-x="1012" d="M 250 1065 L 485 371 L 512 268 L 522 268 L 549 371 L 768 1065 L 1006 1065 L 575 -131 C 560 -173 543 -213 524 -253 C 505 -292 483 -327 457 -357 C 431 -387 400 -411 366 -429 C 331 -447 291 -457 246 -457 C 221 -457 199 -455 180 -452 C 160 -449 145 -444 135 -438 L 119 -272 C 156 -272 187 -270 213 -268 C 238 -265 259 -259 276 -251 C 293 -243 307 -231 319 -215 C 330 -199 340 -179 350 -154 L 401 -16 L 2 1065 L 250 1065 Z M 831 1458 L 831 1251 L 618 1251 L 618 1458 L 831 1458 Z M 403 1458 L 403 1251 L 190 1251 L 190 1458 L 403 1458 Z" unicode="" />
<glyph horiz-adv-x="555" d="M 391 1065 L 391 0 L 164 0 L 164 1065 L 391 1065 Z" unicode="" />
<glyph horiz-adv-x="1126" d="M 471 1446 L 471 920 L 764 1141 L 764 911 L 471 690 L 471 199 L 1100 199 L 1100 0 L 229 0 L 229 510 L 57 381 L 57 610 L 229 739 L 229 1446 L 471 1446 Z" unicode="" />
<glyph horiz-adv-x="602" d="M 43 670 L 186 776 L 186 1507 L 414 1507 L 414 946 L 559 1055 L 559 836 L 414 725 L 414 0 L 186 0 L 186 555 L 43 449 L 43 670 Z" unicode="" />
<glyph horiz-adv-x="2333" d="M 2187 1446 L 2187 1247 L 1452 1247 L 1452 848 L 2095 848 L 2095 649 L 1452 649 L 1452 199 L 2208 199 L 2208 0 L 1219 0 L 1219 174 C 1159 105 1092 55 1020 23 C 947 -9 867 -25 780 -25 C 687 -25 600 -9 518 22 C 436 53 365 100 304 163 C 243 225 195 303 159 397 C 123 491 106 600 106 725 C 106 849 123 958 159 1052 C 194 1145 242 1223 303 1285 C 364 1347 435 1393 517 1424 C 598 1454 684 1470 776 1470 C 866 1470 949 1453 1023 1419 C 1097 1385 1163 1336 1219 1270 L 1219 1446 L 2187 1446 Z M 786 1266 C 712 1266 648 1252 594 1225 C 540 1198 495 1161 459 1113 C 423 1065 397 1007 380 941 C 362 875 354 803 354 725 C 354 651 362 582 378 516 C 394 450 420 393 455 343 C 489 293 534 254 589 225 C 643 196 709 182 786 182 C 859 182 923 195 977 221 C 1031 247 1077 284 1113 332 C 1149 380 1176 437 1194 504 C 1212 570 1221 644 1221 725 C 1221 798 1212 867 1196 933 C 1179 998 1153 1055 1117 1105 C 1081 1154 1036 1193 982 1222 C 927 1251 862 1266 786 1266 Z" unicode="" />
<glyph horiz-adv-x="1884" d="M 590 1087 C 671 1087 743 1068 807 1032 C 870 996 923 945 965 879 C 1006 943 1058 994 1121 1031 C 1184 1068 1256 1087 1337 1087 C 1408 1087 1471 1075 1527 1051 C 1582 1027 1628 993 1666 951 C 1704 909 1732 859 1752 801 C 1772 743 1782 680 1782 612 C 1782 600 1781 583 1780 561 C 1779 539 1777 513 1774 481 L 1063 481 C 1065 440 1072 400 1083 362 C 1094 323 1111 288 1135 258 C 1158 228 1188 203 1226 185 C 1263 167 1309 158 1364 158 C 1396 158 1426 160 1454 165 C 1482 170 1510 177 1536 186 C 1562 195 1588 206 1614 219 C 1639 231 1664 246 1690 262 L 1759 100 C 1705 62 1647 32 1583 10 C 1519 -11 1446 -23 1364 -23 C 1268 -23 1186 -5 1118 30 C 1050 65 995 114 954 176 C 912 115 861 67 801 31 C 741 -5 670 -23 590 -23 C 514 -23 445 -9 384 16 C 323 42 271 80 228 129 C 185 177 152 236 129 305 C 105 374 94 451 94 537 C 94 616 105 689 128 756 C 150 823 183 881 225 930 C 267 979 319 1017 381 1045 C 442 1073 512 1087 590 1087 Z M 1333 915 C 1262 915 1203 890 1155 840 C 1107 790 1077 721 1065 631 L 1563 631 C 1563 673 1558 711 1548 746 C 1538 780 1523 810 1504 835 C 1484 860 1460 880 1432 894 C 1403 908 1370 915 1333 915 Z M 588 897 C 538 897 496 887 464 868 C 431 849 405 823 385 791 C 365 758 352 720 344 676 C 336 632 332 586 332 537 C 332 491 335 446 342 402 C 349 358 362 318 381 284 C 400 249 426 221 460 200 C 493 178 536 168 588 168 C 638 168 679 177 712 197 C 745 217 771 243 791 277 C 810 310 824 349 832 394 C 840 439 844 487 844 537 C 844 582 840 626 833 670 C 825 713 812 751 793 785 C 774 819 748 846 715 866 C 682 886 640 897 588 897 Z" unicode="" />
<glyph horiz-adv-x="1184" d="M 985 1190 C 933 1214 876 1235 814 1251 C 751 1267 689 1276 627 1276 C 590 1276 555 1272 522 1266 C 488 1259 459 1248 433 1232 C 407 1216 387 1196 372 1171 C 357 1145 350 1114 350 1077 C 350 1037 358 1004 376 978 C 394 952 417 930 445 912 C 473 894 505 880 541 868 C 576 856 611 846 647 836 C 711 816 771 794 826 770 C 881 746 928 716 968 682 C 1007 647 1038 607 1060 561 C 1082 515 1094 461 1094 399 C 1094 332 1081 272 1055 219 C 1029 165 992 120 944 82 C 896 44 836 15 766 -4 C 696 -24 616 -35 526 -35 C 490 -35 454 -33 416 -30 C 378 -26 340 -21 303 -14 C 265 -7 229 1 193 12 C 157 23 124 36 94 51 L 137 264 C 167 248 198 234 232 222 C 266 210 300 199 335 191 C 369 182 404 175 439 171 C 473 166 507 164 539 164 C 578 164 616 167 653 174 C 690 181 723 193 752 210 C 781 226 804 248 822 274 C 839 300 848 333 848 373 C 848 415 837 450 817 479 C 796 507 770 531 739 551 C 708 570 674 586 637 598 C 599 610 564 621 532 631 C 503 638 473 647 441 657 C 409 667 378 679 347 694 C 315 708 285 726 257 747 C 228 767 203 792 181 822 C 159 851 141 885 128 925 C 115 964 109 1009 109 1061 C 109 1132 121 1193 147 1245 C 173 1296 209 1338 255 1372 C 301 1405 355 1430 419 1446 C 483 1462 553 1470 629 1470 C 709 1470 781 1462 845 1448 C 909 1433 968 1416 1024 1397 L 985 1190 Z M 523 1587 L 317 1845 L 317 1900 L 400 1900 L 595 1736 L 607 1736 L 798 1900 L 886 1900 L 886 1845 L 677 1587 L 523 1587 Z" unicode="" />
<glyph horiz-adv-x="971" d="M 803 848 C 757 867 709 883 659 897 C 609 911 558 918 504 918 C 480 918 458 915 437 911 C 415 907 397 900 381 891 C 365 881 352 869 342 854 C 332 838 328 819 328 797 C 328 771 333 750 345 733 C 357 715 373 700 395 688 C 416 676 442 665 472 655 C 502 645 537 635 575 625 C 610 615 646 602 683 587 C 719 572 753 552 783 528 C 813 503 837 473 856 437 C 875 401 885 357 885 305 C 885 248 873 198 850 156 C 826 113 794 77 754 49 C 714 21 666 0 612 -14 C 558 -28 500 -35 438 -35 C 403 -35 368 -33 334 -29 C 300 -25 267 -19 237 -13 C 206 -6 178 1 154 9 C 129 17 109 26 94 35 L 127 221 C 168 199 215 181 268 165 C 320 149 377 141 438 141 C 464 141 490 143 516 147 C 542 151 565 159 586 170 C 606 180 623 194 636 212 C 648 230 655 252 655 279 C 655 305 649 327 637 345 C 625 363 607 378 585 392 C 563 406 536 418 504 429 C 472 439 436 451 397 463 C 365 473 331 485 296 501 C 261 517 229 537 201 562 C 172 587 148 617 130 652 C 111 687 102 729 102 778 C 102 830 112 875 132 915 C 152 954 181 987 217 1013 C 253 1039 296 1059 346 1072 C 396 1085 450 1092 510 1092 C 572 1092 631 1086 688 1075 C 744 1063 794 1049 838 1032 L 803 848 Z M 405 1217 L 199 1475 L 199 1530 L 282 1530 L 477 1366 L 489 1366 L 680 1530 L 768 1530 L 768 1475 L 559 1217 L 405 1217 Z" unicode="" />
<glyph horiz-adv-x="1315" d="M 307 1446 L 668 735 L 1028 1446 L 1300 1446 L 778 510 L 778 0 L 535 0 L 535 510 L 16 1446 L 307 1446 Z M 981 1823 L 981 1616 L 768 1616 L 768 1823 L 981 1823 Z M 553 1823 L 553 1616 L 340 1616 L 340 1823 L 553 1823 Z" unicode="" />
<glyph horiz-adv-x="1262" d="M 1163 1446 L 1163 1290 L 397 199 L 1174 199 L 1174 0 L 88 0 L 88 156 L 858 1247 L 164 1247 L 164 1446 L 1163 1446 Z M 565 1587 L 359 1845 L 359 1900 L 442 1900 L 637 1736 L 649 1736 L 840 1900 L 928 1900 L 928 1845 L 719 1587 L 565 1587 Z" unicode="" />
<glyph horiz-adv-x="934" d="M 860 1065 L 860 936 L 344 172 L 877 172 L 877 0 L 68 0 L 68 129 L 582 891 L 119 891 L 119 1065 L 860 1065 Z M 415 1217 L 209 1475 L 209 1530 L 292 1530 L 487 1366 L 499 1366 L 690 1530 L 778 1530 L 778 1475 L 569 1217 L 415 1217 Z" unicode="" />
<glyph horiz-adv-x="1257" d="M 573 807 L 637 1153 C 645 1195 658 1235 678 1271 C 697 1307 722 1339 752 1366 C 782 1392 817 1413 857 1429 C 897 1444 943 1452 993 1452 C 1034 1452 1069 1449 1097 1444 C 1125 1439 1143 1433 1153 1427 L 1102 1260 C 1089 1263 1073 1266 1053 1268 C 1033 1270 1015 1272 999 1272 C 977 1272 959 1269 943 1265 C 927 1261 913 1254 902 1244 C 890 1234 881 1220 874 1204 C 866 1188 860 1168 856 1145 L 795 807 L 1071 807 L 1071 633 L 770 633 L 629 -170 C 621 -212 607 -252 587 -288 C 567 -324 542 -356 511 -383 C 480 -409 444 -430 403 -446 C 361 -461 316 -469 266 -469 C 224 -469 189 -466 161 -462 C 133 -457 114 -451 106 -444 L 158 -279 C 169 -281 184 -283 204 -285 C 223 -287 241 -289 258 -289 C 280 -289 299 -286 315 -282 C 331 -278 344 -271 356 -261 C 368 -251 377 -239 384 -223 C 391 -207 397 -187 401 -164 L 543 633 L 315 633 L 315 807 L 573 807 Z" unicode="" />
<glyph horiz-adv-x="485" d="M 436 1446 L 315 895 L 49 895 L 260 1446 L 436 1446 Z" unicode="" />
<glyph horiz-adv-x="866" d="M 510 1530 L 719 1274 L 719 1217 L 631 1217 L 440 1382 L 428 1382 L 233 1217 L 150 1217 L 150 1274 L 356 1530 L 510 1530 Z" unicode="" />
<glyph horiz-adv-x="866" d="M 356 1217 L 150 1475 L 150 1530 L 233 1530 L 428 1366 L 440 1366 L 631 1530 L 719 1530 L 719 1475 L 510 1217 L 356 1217 Z" unicode="" />
<glyph horiz-adv-x="866" d="M 696 1425 L 696 1266 L 168 1266 L 168 1425 L 696 1425 Z" unicode="" />
<glyph horiz-adv-x="866" d="M 260 1530 L 260 1493 C 260 1471 262 1451 268 1433 C 273 1414 282 1398 295 1384 C 308 1370 326 1360 349 1352 C 371 1344 400 1341 434 1341 C 467 1341 495 1345 517 1354 C 539 1363 556 1375 570 1390 C 583 1404 592 1421 598 1439 C 603 1457 606 1475 606 1493 L 606 1530 L 727 1530 L 727 1470 C 727 1434 720 1401 708 1369 C 696 1337 677 1310 653 1286 C 629 1262 598 1243 562 1229 C 525 1215 482 1208 434 1208 C 385 1208 342 1214 306 1228 C 269 1242 238 1260 214 1284 C 190 1308 171 1336 159 1368 C 147 1400 141 1434 141 1470 L 141 1530 L 260 1530 Z" unicode="" />
<glyph horiz-adv-x="866" d="M 557 1458 L 557 1243 L 309 1243 L 309 1458 L 557 1458 Z" unicode="" />
<glyph horiz-adv-x="866" d="M 188 1438 C 188 1470 194 1500 206 1528 C 218 1556 235 1581 257 1602 C 279 1622 304 1639 334 1651 C 364 1663 396 1669 432 1669 C 466 1669 498 1663 528 1651 C 558 1639 584 1622 606 1602 C 628 1581 645 1556 657 1528 C 669 1500 676 1470 676 1438 C 676 1406 669 1376 657 1348 C 645 1320 628 1296 606 1276 C 584 1256 558 1240 528 1228 C 498 1216 466 1210 432 1210 C 396 1210 364 1216 334 1228 C 304 1240 279 1256 257 1276 C 235 1296 218 1320 206 1348 C 194 1376 188 1406 188 1438 Z M 432 1567 C 414 1567 397 1563 381 1557 C 365 1550 352 1541 340 1529 C 328 1517 319 1504 313 1488 C 306 1472 303 1456 303 1438 C 303 1420 306 1404 313 1388 C 319 1372 328 1359 340 1348 C 352 1336 365 1327 381 1321 C 397 1314 414 1311 432 1311 C 449 1311 465 1314 481 1321 C 496 1327 509 1336 521 1348 C 533 1359 542 1372 549 1388 C 555 1404 559 1420 559 1438 C 559 1456 555 1472 549 1488 C 542 1504 533 1517 521 1529 C 509 1541 496 1550 481 1557 C 465 1563 449 1567 432 1567 Z" unicode="" />
<glyph horiz-adv-x="866" d="M 487 -170 C 475 -182 465 -194 457 -205 C 449 -215 446 -229 446 -246 C 446 -260 448 -271 454 -280 C 459 -288 466 -295 474 -300 C 482 -304 490 -307 500 -309 C 510 -310 519 -311 528 -311 C 538 -311 550 -310 564 -309 C 577 -307 590 -305 604 -303 C 617 -300 629 -297 641 -293 C 652 -289 661 -285 668 -281 L 688 -408 C 669 -423 645 -434 616 -441 C 586 -447 555 -451 522 -451 C 443 -451 381 -434 336 -400 C 290 -366 268 -318 268 -254 C 268 -218 274 -188 288 -162 C 302 -136 319 -113 340 -94 L 465 8 L 664 8 L 664 0 L 487 -170 Z" unicode="" />
<glyph horiz-adv-x="866" d="M 551 1208 C 536 1208 522 1209 510 1212 C 497 1214 485 1219 473 1225 C 461 1231 448 1239 435 1249 C 422 1259 408 1271 393 1286 L 358 1315 C 346 1325 336 1333 326 1340 C 316 1346 306 1350 297 1350 C 285 1350 275 1347 266 1342 C 256 1337 245 1328 233 1315 L 176 1260 L 70 1337 L 143 1415 C 177 1450 208 1474 237 1487 C 265 1500 292 1507 317 1507 C 331 1507 345 1505 357 1503 C 369 1500 382 1496 394 1490 C 406 1484 418 1476 431 1466 C 444 1456 459 1444 475 1430 L 510 1399 C 521 1388 532 1379 542 1373 C 552 1367 561 1364 571 1364 C 581 1364 591 1366 601 1372 C 610 1377 621 1386 635 1399 L 690 1456 L 797 1376 L 723 1298 C 689 1263 658 1239 630 1227 C 602 1214 575 1208 551 1208 Z" unicode="" />
<glyph horiz-adv-x="866" d="M 211 1278 L 309 1530 L 477 1530 L 477 1464 L 324 1217 L 211 1217 L 211 1278 Z M 545 1278 L 653 1530 L 823 1530 L 823 1464 L 657 1217 L 545 1217 L 545 1278 Z" unicode="" />
<glyph horiz-adv-x="1561" d="M 922 1446 L 1440 170 L 1440 0 L 123 0 L 123 166 L 639 1446 L 922 1446 Z M 717 1034 L 383 199 L 1176 199 L 848 1034 L 791 1204 L 774 1204 L 717 1034 Z" unicode="" />
<glyph horiz-adv-x="1606" d="M 1214 195 L 1315 205 L 1477 205 L 1477 0 L 866 0 L 866 166 C 927 176 981 198 1027 232 C 1073 266 1112 309 1143 359 C 1174 409 1197 466 1213 528 C 1229 590 1237 655 1237 721 C 1237 801 1228 874 1210 941 C 1192 1007 1166 1065 1130 1113 C 1094 1161 1050 1198 996 1225 C 942 1252 878 1266 805 1266 C 731 1266 666 1252 612 1225 C 558 1198 513 1161 477 1113 C 441 1065 415 1007 397 941 C 379 874 371 801 371 721 C 371 655 378 590 394 528 C 409 466 432 409 463 359 C 493 309 532 266 578 232 C 624 198 677 176 739 166 L 739 0 L 129 0 L 129 205 L 293 205 L 393 195 L 393 205 C 356 234 321 266 289 300 C 256 334 227 372 203 415 C 179 458 160 507 146 562 C 132 617 125 680 125 752 C 125 868 142 971 177 1061 C 212 1150 260 1225 321 1286 C 382 1346 454 1392 536 1423 C 618 1454 707 1470 803 1470 C 899 1470 988 1454 1071 1423 C 1153 1392 1225 1346 1286 1286 C 1347 1225 1395 1150 1430 1061 C 1465 971 1483 868 1483 752 C 1483 680 1476 617 1462 562 C 1448 507 1428 458 1404 415 C 1379 372 1350 334 1318 300 C 1285 266 1250 234 1214 205 L 1214 195 Z" unicode="" />
<glyph horiz-adv-x="1214" d="M 391 1065 L 391 356 C 391 334 394 313 400 291 C 406 269 416 248 432 230 C 447 212 468 197 494 185 C 520 173 554 168 596 168 C 628 168 658 173 686 184 C 714 195 738 210 758 230 C 778 250 794 273 806 299 C 817 325 823 354 823 385 L 823 1065 L 1051 1065 L 1051 274 C 1051 203 1057 145 1070 101 C 1082 56 1095 22 1108 0 L 885 0 C 881 6 877 16 873 28 C 868 40 863 53 859 69 C 854 84 850 100 846 118 C 842 136 840 154 840 174 C 820 136 798 104 776 80 C 753 55 729 35 704 20 C 678 5 652 -5 624 -11 C 596 -17 567 -20 537 -20 C 520 -20 503 -17 486 -13 C 469 -9 453 -3 438 4 C 422 11 408 19 395 29 C 381 39 370 49 362 61 L 354 51 L 383 -115 L 383 -451 L 164 -451 L 164 1065 L 391 1065 Z" unicode="" />
<glyph horiz-adv-x="1323" d="M 870 0 C 865 10 860 22 854 38 C 848 54 843 72 838 93 C 833 114 829 138 826 165 C 822 191 821 221 821 254 L 821 846 L 489 846 L 489 0 L 264 0 L 264 846 L 109 846 L 109 1065 L 1198 1065 L 1198 846 L 1047 846 L 1047 274 C 1047 203 1053 145 1066 101 C 1078 56 1091 22 1104 0 L 870 0 L 870 0 Z" unicode="" />
<glyph horiz-adv-x="78" d="" unicode="" />
<glyph horiz-adv-x="668" d="M 575 698 L 575 485 L 90 485 L 90 698 L 575 698 Z" unicode="" />
<glyph horiz-adv-x="668" d="M 575 698 L 575 485 L 90 485 L 90 698 L 575 698 Z" unicode="" />
<glyph horiz-adv-x="1206" d="M 1124 686 L 1124 496 L 82 496 L 82 686 L 1124 686 Z" unicode="" />
<glyph horiz-adv-x="2048" d="M 1966 686 L 1966 496 L 82 496 L 82 686 L 1966 686 Z" unicode="" />
<glyph horiz-adv-x="485" d="M 436 1446 L 315 895 L 49 895 L 260 1446 L 436 1446 Z" unicode="" />
<glyph horiz-adv-x="485" d="M 436 1446 L 223 895 L 49 895 L 168 1446 L 436 1446 Z" unicode="" />
<glyph horiz-adv-x="485" d="M 436 260 L 223 -289 L 49 -289 L 168 260 L 436 260 Z" unicode="" />
<glyph horiz-adv-x="907" d="M 436 1446 L 315 895 L 49 895 L 260 1446 L 436 1446 Z M 860 1446 L 739 895 L 471 895 L 684 1446 L 860 1446 Z" unicode="" />
<glyph horiz-adv-x="907" d="M 436 1446 L 223 895 L 49 895 L 168 1446 L 436 1446 Z M 860 1446 L 647 895 L 471 895 L 592 1446 L 860 1446 Z" unicode="" />
<glyph horiz-adv-x="907" d="M 436 260 L 223 -289 L 49 -289 L 168 260 L 436 260 Z M 860 260 L 647 -289 L 471 -289 L 592 260 L 860 260 Z" unicode="" />
<glyph horiz-adv-x="918" d="M 553 1446 L 553 1315 L 512 1153 L 526 1141 L 670 1178 L 803 1178 L 803 991 L 670 991 L 526 1032 L 510 1014 L 553 389 L 553 254 L 367 254 L 367 389 L 408 1016 L 393 1032 L 246 991 L 115 991 L 115 1178 L 246 1178 L 393 1141 L 408 1153 L 367 1315 L 367 1446 L 553 1446 Z" unicode="" />
<glyph horiz-adv-x="918" d="M 553 1446 L 553 1315 L 510 1155 L 528 1139 L 670 1178 L 803 1178 L 803 991 L 670 991 L 528 1034 L 510 1012 L 555 924 L 555 782 L 508 692 L 528 670 L 670 711 L 803 711 L 803 524 L 670 524 L 528 567 L 510 549 L 553 389 L 553 254 L 367 254 L 367 389 L 410 549 L 391 567 L 246 524 L 115 524 L 115 711 L 246 711 L 391 670 L 410 694 L 367 780 L 367 924 L 412 1014 L 391 1034 L 246 991 L 115 991 L 115 1178 L 246 1178 L 391 1139 L 410 1155 L 367 1315 L 367 1446 L 553 1446 Z" unicode="" />
<glyph horiz-adv-x="954" d="M 477 911 C 527 911 573 903 615 887 C 656 871 691 849 720 820 C 749 791 771 756 787 715 C 803 674 811 628 811 578 C 811 527 803 481 787 440 C 771 398 749 363 720 334 C 691 305 656 283 615 267 C 573 251 527 244 477 244 C 426 244 380 251 339 267 C 297 283 262 305 233 334 C 204 363 182 398 166 440 C 150 481 143 527 143 578 C 143 628 150 674 166 715 C 182 756 204 791 233 820 C 262 849 297 871 339 887 C 380 903 426 911 477 911 Z" unicode="" />
<glyph horiz-adv-x="2048" d="M 1788 272 L 1788 0 L 1516 0 L 1516 272 L 1788 272 Z M 1159 272 L 1159 0 L 887 0 L 887 272 L 1159 272 Z M 532 272 L 532 0 L 260 0 L 260 272 L 532 272 Z" unicode="" />
<glyph horiz-adv-x="2748" d="M 1468 1446 L 647 0 L 467 0 L 1288 1446 L 1468 1446 Z M 444 1466 C 507 1466 561 1455 607 1434 C 652 1412 689 1383 718 1346 C 746 1309 767 1266 781 1216 C 794 1166 801 1113 801 1057 C 801 995 794 938 780 886 C 766 834 744 789 715 751 C 686 713 649 683 604 662 C 559 641 506 631 444 631 C 378 631 323 642 278 666 C 233 690 197 721 169 761 C 141 800 122 845 110 896 C 98 947 92 1000 92 1055 C 92 1119 99 1176 113 1227 C 127 1277 148 1320 177 1356 C 206 1392 243 1419 287 1438 C 331 1456 384 1466 444 1466 Z M 446 1321 C 406 1321 374 1313 350 1299 C 326 1284 307 1264 293 1240 C 279 1216 270 1188 265 1156 C 260 1124 258 1091 258 1057 C 258 1029 260 999 264 967 C 268 934 276 903 289 875 C 302 847 321 823 346 804 C 370 785 404 776 446 776 C 486 776 519 784 544 801 C 568 818 587 840 601 867 C 614 893 623 923 628 957 C 632 990 635 1023 635 1055 C 635 1085 632 1115 628 1147 C 623 1179 614 1207 601 1233 C 587 1259 568 1280 544 1296 C 519 1312 486 1321 446 1321 Z M 1483 815 C 1546 815 1600 804 1645 783 C 1690 761 1727 732 1755 695 C 1783 658 1804 615 1817 565 C 1830 515 1837 462 1837 406 C 1837 343 1830 285 1816 233 C 1802 181 1781 136 1752 98 C 1723 60 1686 30 1642 9 C 1597 -12 1544 -23 1483 -23 C 1417 -23 1362 -11 1317 12 C 1272 36 1236 67 1208 107 C 1180 147 1160 192 1148 243 C 1136 294 1130 347 1130 401 C 1130 465 1137 523 1151 574 C 1165 625 1186 668 1215 704 C 1244 740 1281 767 1325 786 C 1369 805 1422 815 1483 815 Z M 1483 668 C 1443 668 1411 660 1387 646 C 1363 631 1344 611 1331 587 C 1317 563 1308 535 1303 504 C 1298 472 1296 440 1296 406 C 1296 378 1297 348 1301 316 C 1305 283 1313 252 1326 224 C 1339 196 1358 172 1383 153 C 1407 134 1441 125 1483 125 C 1523 125 1556 133 1581 150 C 1605 167 1624 189 1638 216 C 1651 242 1660 272 1664 305 C 1668 338 1671 371 1671 403 C 1671 433 1668 463 1664 495 C 1660 527 1651 555 1638 581 C 1625 606 1606 627 1581 643 C 1556 659 1523 668 1483 668 Z M 2300 817 C 2363 817 2417 806 2462 785 C 2507 763 2544 734 2572 697 C 2600 660 2621 617 2634 567 C 2647 517 2654 463 2654 406 C 2654 343 2647 285 2633 233 C 2619 181 2598 136 2570 98 C 2541 60 2504 30 2460 9 C 2415 -12 2362 -23 2300 -23 C 2234 -23 2179 -11 2134 13 C 2089 37 2053 68 2025 108 C 1997 147 1978 192 1966 244 C 1954 295 1948 348 1948 403 C 1948 467 1955 524 1969 575 C 1983 626 2004 670 2033 706 C 2062 742 2099 769 2143 788 C 2187 807 2239 817 2300 817 Z M 2302 670 C 2262 670 2230 662 2206 647 C 2181 632 2162 612 2148 588 C 2134 564 2125 536 2121 504 C 2116 472 2114 440 2114 406 C 2114 379 2115 349 2119 317 C 2123 284 2131 253 2144 225 C 2157 197 2176 173 2201 154 C 2226 134 2260 125 2302 125 C 2342 125 2374 133 2398 150 C 2422 167 2441 189 2455 216 C 2468 242 2477 272 2481 305 C 2485 338 2488 371 2488 403 C 2488 433 2485 463 2481 495 C 2477 527 2468 556 2455 582 C 2442 608 2423 629 2399 645 C 2375 661 2342 670 2302 670 Z" unicode="" />
<glyph horiz-adv-x="643" d="M 543 905 L 258 578 L 543 250 L 319 250 L 80 510 L 80 647 L 319 905 L 543 905 Z" unicode="" />
<glyph horiz-adv-x="643" d="M 324 905 L 563 647 L 563 510 L 324 250 L 100 250 L 385 578 L 100 905 L 324 905 Z" unicode="" />
<glyph horiz-adv-x="401" d="M 684 1446 L -106 0 L -283 0 L 510 1446 L 684 1446 Z" unicode="" />
<glyph horiz-adv-x="844" d="M 420 1462 C 479 1462 530 1450 572 1426 C 614 1402 648 1370 675 1330 C 701 1290 721 1243 733 1189 C 745 1135 752 1078 752 1018 C 752 949 745 886 732 830 C 719 774 699 725 672 685 C 645 645 611 614 569 592 C 527 570 478 559 420 559 C 358 559 306 571 264 596 C 222 621 188 655 162 697 C 136 739 117 788 105 843 C 93 898 88 956 88 1016 C 88 1084 94 1145 108 1200 C 121 1255 141 1302 169 1341 C 196 1379 230 1409 272 1430 C 314 1451 363 1462 420 1462 Z M 420 1309 C 386 1309 359 1300 339 1284 C 319 1267 303 1245 292 1218 C 280 1190 273 1159 269 1124 C 265 1089 264 1054 264 1018 C 264 988 265 955 268 919 C 271 883 278 849 289 819 C 299 788 315 762 336 742 C 356 721 384 711 420 711 C 454 711 481 720 502 738 C 522 756 538 780 549 810 C 559 839 566 872 570 908 C 573 944 575 980 575 1016 C 575 1048 573 1081 570 1116 C 566 1150 559 1182 549 1211 C 538 1239 522 1263 502 1281 C 481 1299 454 1309 420 1309 Z" unicode="" />
<glyph horiz-adv-x="799" d="M 623 1446 L 623 887 L 729 887 L 729 750 L 623 750 L 623 573 L 444 573 L 444 750 L 63 750 L 63 899 L 432 1446 L 623 1446 Z M 197 887 L 444 887 L 444 1137 L 453 1249 L 446 1249 L 197 887 Z" unicode="" />
<glyph horiz-adv-x="793" d="M 670 1446 L 657 1298 L 283 1298 L 268 1096 C 297 1118 326 1134 354 1144 C 382 1154 411 1159 440 1159 C 482 1159 520 1152 553 1140 C 585 1128 613 1110 636 1087 C 658 1064 675 1036 687 1004 C 699 972 705 936 705 897 C 705 835 693 783 669 739 C 645 695 612 660 569 632 C 526 604 475 583 415 570 C 355 557 289 551 217 551 C 195 551 178 551 166 552 C 153 553 141 555 131 557 L 123 711 C 134 709 147 709 163 709 C 178 709 196 709 217 709 C 272 709 319 713 359 722 C 399 730 431 742 457 758 C 483 774 502 793 514 815 C 526 837 532 863 532 891 C 532 907 530 922 526 938 C 522 953 516 967 507 979 C 497 991 484 1000 468 1008 C 452 1016 431 1020 406 1020 C 370 1020 337 1013 307 1000 C 277 986 247 966 215 938 L 115 979 L 147 1446 L 670 1446 Z" unicode="" />
<glyph horiz-adv-x="811" d="M 256 862 C 256 839 259 818 266 799 C 272 779 282 762 296 748 C 309 734 325 722 345 714 C 364 706 386 702 412 702 C 457 702 493 715 519 741 C 545 767 559 806 559 856 C 559 905 545 943 519 969 C 492 995 455 1008 408 1008 C 360 1008 322 995 296 969 C 269 943 256 907 256 862 Z M 643 1317 C 635 1318 625 1319 614 1320 C 603 1321 592 1322 581 1323 C 569 1323 558 1324 547 1324 C 536 1324 526 1325 518 1325 C 437 1325 375 1303 331 1259 C 287 1215 261 1146 252 1053 C 266 1070 281 1084 298 1096 C 314 1108 332 1117 350 1125 C 368 1132 387 1137 405 1140 C 423 1143 441 1145 459 1145 C 497 1145 533 1139 567 1127 C 601 1115 630 1097 655 1073 C 679 1049 699 1020 713 986 C 727 951 735 911 735 866 C 735 818 727 775 711 737 C 695 699 672 666 644 640 C 615 614 581 594 541 580 C 501 566 457 559 410 559 C 362 559 318 565 278 577 C 238 589 203 610 174 640 C 145 669 122 708 106 758 C 90 808 82 870 82 944 C 82 1015 89 1083 103 1147 C 117 1211 142 1267 176 1315 C 210 1363 255 1402 311 1430 C 367 1458 438 1473 522 1473 C 543 1473 564 1472 586 1470 C 607 1468 625 1465 641 1460 L 643 1317 Z" unicode="" />
<glyph horiz-adv-x="723" d="M 674 1446 L 674 1323 C 643 1290 611 1252 579 1210 C 547 1167 516 1116 487 1057 C 457 998 431 929 407 850 C 383 771 364 679 350 573 L 160 573 C 169 653 185 729 207 799 C 229 869 255 933 285 993 C 315 1053 347 1108 381 1158 C 415 1208 448 1255 481 1298 L 68 1298 L 68 1446 L 674 1446 Z" unicode="" />
<glyph horiz-adv-x="831" d="M 229 1040 C 219 1042 208 1048 195 1057 C 181 1065 168 1077 156 1092 C 144 1107 133 1126 124 1148 C 115 1170 111 1195 111 1225 C 111 1255 117 1285 130 1313 C 143 1341 162 1365 188 1387 C 214 1409 246 1426 284 1439 C 322 1451 366 1458 416 1458 C 465 1458 509 1451 547 1439 C 585 1426 618 1409 644 1387 C 670 1365 689 1341 703 1313 C 716 1285 723 1255 723 1225 C 723 1195 718 1170 709 1148 C 700 1126 689 1107 676 1092 C 663 1077 650 1065 636 1057 C 622 1048 611 1042 602 1040 L 602 1030 C 614 1028 628 1022 644 1013 C 660 1004 676 991 691 974 C 706 957 719 936 729 912 C 739 887 745 858 745 825 C 745 781 737 743 721 710 C 705 677 683 649 655 627 C 627 605 592 588 552 576 C 511 564 466 559 416 559 C 365 559 319 564 279 576 C 238 588 203 605 175 627 C 146 649 124 677 109 710 C 93 743 86 781 86 825 C 86 858 91 887 101 912 C 111 936 124 957 139 974 C 154 991 170 1004 186 1013 C 202 1022 217 1028 229 1030 L 229 1040 Z M 279 1206 C 279 1171 290 1143 314 1122 C 338 1100 372 1090 416 1090 C 461 1090 495 1100 518 1122 C 541 1143 553 1171 553 1206 C 553 1240 541 1268 518 1291 C 495 1313 461 1325 416 1325 C 372 1325 338 1313 314 1291 C 290 1268 279 1240 279 1206 Z M 262 836 C 262 816 264 798 270 781 C 276 764 285 749 298 737 C 310 725 326 715 346 708 C 365 701 388 698 416 698 C 443 698 466 701 486 708 C 505 715 521 725 533 737 C 545 749 554 764 560 781 C 566 798 569 816 569 836 C 569 873 557 903 533 927 C 509 951 470 963 416 963 C 362 963 323 951 299 927 C 274 903 262 873 262 836 Z" unicode="" />
<glyph horiz-adv-x="811" d="M 397 1319 C 353 1319 317 1305 291 1279 C 265 1253 252 1215 252 1165 C 252 1115 265 1078 291 1052 C 317 1026 353 1014 401 1014 C 449 1014 486 1026 513 1051 C 539 1076 553 1111 553 1157 C 553 1179 549 1201 543 1221 C 536 1241 526 1258 513 1272 C 500 1286 484 1298 465 1306 C 445 1314 423 1319 397 1319 Z M 291 699 C 371 699 433 720 478 763 C 522 805 549 874 559 969 C 545 951 529 937 513 925 C 496 913 478 903 460 896 C 442 889 423 884 405 881 C 386 878 368 877 352 877 C 312 877 276 883 242 895 C 208 907 179 924 155 947 C 130 970 111 999 97 1033 C 83 1067 76 1107 76 1153 C 76 1201 84 1245 100 1283 C 116 1321 138 1354 166 1380 C 194 1406 229 1427 269 1441 C 309 1455 353 1462 401 1462 C 449 1462 493 1455 533 1443 C 573 1431 607 1410 636 1380 C 665 1350 688 1310 704 1260 C 720 1210 729 1149 729 1075 C 729 1003 721 936 707 872 C 693 808 669 753 635 705 C 601 657 555 619 499 592 C 443 565 373 552 289 552 C 267 552 246 552 224 554 C 202 555 184 558 170 564 L 166 708 C 174 706 184 704 195 703 C 206 702 217 701 229 701 C 240 700 251 699 262 699 C 273 699 283 699 291 699 Z" unicode="" />
<glyph horiz-adv-x="477" d="M 74 956 C 74 1026 82 1091 99 1152 C 116 1212 138 1267 164 1317 C 190 1366 218 1409 249 1445 C 280 1481 310 1510 338 1532 L 465 1532 L 465 1503 C 433 1480 404 1450 376 1412 C 348 1374 324 1330 303 1282 C 282 1234 266 1182 254 1126 C 242 1070 236 1014 236 956 C 236 892 242 831 254 773 C 266 715 282 661 303 612 C 324 563 348 520 376 482 C 404 444 433 413 465 391 L 465 362 L 338 362 C 310 382 280 411 249 447 C 218 483 190 527 164 577 C 138 627 116 683 99 747 C 82 810 74 880 74 956 Z" unicode="" />
<glyph horiz-adv-x="477" d="M 401 956 C 401 880 392 810 376 747 C 359 683 338 627 312 577 C 286 527 258 483 227 447 C 196 411 167 382 139 362 L 10 362 L 10 391 C 42 413 72 444 100 482 C 128 520 152 563 173 612 C 194 661 211 715 223 773 C 235 831 242 892 242 956 C 242 1014 235 1070 223 1126 C 211 1182 194 1234 173 1282 C 152 1330 128 1374 100 1412 C 72 1450 42 1480 10 1503 L 10 1532 L 139 1532 C 167 1510 196 1481 227 1445 C 258 1409 286 1366 312 1317 C 338 1267 359 1212 376 1152 C 392 1091 401 1026 401 956 Z" unicode="" />
<glyph horiz-adv-x="954" d="M 295 1466 L 309 1341 C 327 1371 346 1395 366 1414 C 385 1432 405 1447 425 1458 C 445 1469 465 1477 486 1481 C 507 1485 529 1487 553 1487 C 599 1487 639 1480 673 1466 C 707 1452 735 1434 758 1411 C 783 1384 802 1351 816 1311 C 829 1271 836 1223 836 1165 L 836 645 L 643 645 L 643 1190 C 643 1205 640 1221 636 1237 C 632 1253 624 1268 613 1282 C 601 1296 586 1307 567 1316 C 547 1324 522 1329 492 1329 C 468 1329 445 1325 425 1317 C 405 1309 387 1298 372 1284 C 357 1270 345 1253 337 1233 C 328 1213 324 1192 324 1169 L 324 645 L 133 645 L 133 1317 L 117 1466 L 295 1466 Z" unicode="" />
<glyph horiz-adv-x="844" d="M 420 610 C 479 610 530 598 572 574 C 614 550 648 518 675 478 C 701 438 721 391 733 337 C 745 283 752 226 752 166 C 752 97 745 34 732 -21 C 719 -77 699 -126 672 -166 C 645 -206 611 -238 569 -260 C 527 -282 478 -293 420 -293 C 358 -293 306 -280 264 -255 C 222 -230 188 -196 162 -154 C 136 -112 117 -63 105 -8 C 93 46 88 104 88 164 C 88 232 94 293 108 348 C 121 403 141 450 169 489 C 196 527 230 557 272 578 C 314 599 363 610 420 610 Z M 420 457 C 386 457 359 448 339 432 C 319 415 303 393 292 366 C 280 338 273 307 269 272 C 265 237 264 202 264 166 C 264 136 265 103 268 67 C 271 31 278 -2 289 -33 C 299 -63 315 -89 336 -110 C 356 -130 384 -141 420 -141 C 454 -141 481 -131 502 -113 C 522 -95 538 -71 549 -42 C 559 -12 566 20 570 56 C 573 92 575 128 575 164 C 575 196 573 229 570 264 C 566 298 559 330 549 359 C 538 387 522 411 502 429 C 481 447 454 457 420 457 Z" unicode="" />
<glyph horiz-adv-x="535" d="M 227 593 L 379 593 L 371 499 L 371 -280 L 193 -280 L 193 409 L 197 439 L 190 439 L 55 382 L 55 531 L 227 593 Z" unicode="" />
<glyph horiz-adv-x="809" d="M 86 398 C 96 422 110 447 128 472 C 145 497 166 520 192 540 C 218 560 248 577 284 590 C 320 602 362 609 410 609 C 451 609 490 603 526 592 C 562 580 593 564 619 542 C 645 520 666 494 682 462 C 697 430 705 393 705 353 C 705 309 693 265 670 223 C 647 180 609 136 555 91 L 311 -132 L 709 -132 L 709 -280 L 94 -280 L 94 -130 L 365 124 C 386 142 406 161 425 180 C 444 198 461 217 475 235 C 489 253 500 270 508 288 C 516 306 520 323 520 341 C 520 355 517 370 511 384 C 505 398 497 411 486 423 C 475 435 462 444 446 451 C 430 458 413 462 393 462 C 362 462 333 452 306 432 C 278 412 253 381 231 337 L 86 398 Z" unicode="" />
<glyph horiz-adv-x="797" d="M 66 457 C 78 475 93 494 113 513 C 132 531 155 548 182 563 C 208 578 238 590 272 600 C 306 609 343 614 383 614 C 418 614 453 609 487 601 C 521 592 552 579 579 561 C 606 543 628 520 645 493 C 661 465 670 433 670 397 C 670 372 666 350 659 331 C 652 312 643 295 632 281 C 620 266 607 254 593 244 C 579 234 564 227 549 221 L 549 211 C 567 207 585 201 603 193 C 621 184 638 172 653 156 C 668 140 680 120 690 97 C 700 74 705 47 705 16 C 705 -34 692 -78 668 -117 C 643 -156 608 -189 564 -215 C 519 -241 466 -261 405 -275 C 343 -288 276 -295 203 -295 C 181 -295 163 -294 149 -293 C 135 -292 123 -291 113 -289 L 102 -135 C 114 -136 129 -137 146 -137 C 162 -137 182 -137 205 -137 C 311 -137 391 -122 445 -94 C 499 -65 526 -27 526 20 C 526 36 523 51 517 63 C 511 75 502 86 492 94 C 482 102 470 107 457 111 C 443 115 430 117 416 117 C 412 117 406 116 400 116 C 394 116 385 115 374 113 C 363 111 349 109 331 106 C 313 102 291 98 264 92 L 236 225 L 350 244 C 366 246 383 251 401 257 C 419 263 435 272 449 282 C 463 292 475 305 484 320 C 493 334 498 351 498 371 C 498 401 486 425 464 443 C 441 461 411 471 373 471 C 357 471 342 469 328 465 C 314 461 299 456 285 448 C 271 440 256 430 241 418 C 225 406 208 391 190 375 L 66 457 Z" unicode="" />
<glyph horiz-adv-x="799" d="M 623 593 L 623 34 L 729 34 L 729 -103 L 623 -103 L 623 -280 L 444 -280 L 444 -103 L 63 -103 L 63 46 L 432 593 L 623 593 Z M 197 34 L 444 34 L 444 284 L 453 396 L 446 396 L 197 34 Z" unicode="" />
<glyph horiz-adv-x="793" d="M 670 594 L 657 446 L 283 446 L 268 244 C 297 266 326 282 354 292 C 382 302 411 307 440 307 C 482 307 520 300 553 288 C 585 276 613 258 636 235 C 658 212 675 184 687 152 C 699 120 705 84 705 45 C 705 -16 693 -68 669 -112 C 645 -156 612 -192 569 -220 C 526 -248 475 -268 415 -281 C 355 -294 289 -301 217 -301 C 195 -301 178 -300 166 -299 C 153 -298 141 -297 131 -295 L 123 -141 C 134 -142 147 -143 163 -143 C 178 -143 196 -143 217 -143 C 272 -143 319 -138 359 -130 C 399 -121 431 -109 457 -93 C 483 -77 502 -58 514 -36 C 526 -14 532 11 532 39 C 532 55 530 70 526 86 C 522 101 516 115 507 127 C 497 139 484 148 468 156 C 452 164 431 168 406 168 C 370 168 337 161 307 148 C 277 134 247 114 215 86 L 115 127 L 147 594 L 670 594 Z" unicode="" />
<glyph horiz-adv-x="811" d="M 256 1 C 256 -21 259 -42 266 -62 C 272 -81 282 -98 296 -112 C 309 -126 325 -138 345 -146 C 364 -154 386 -159 412 -159 C 457 -159 493 -145 519 -119 C 545 -93 559 -55 559 -5 C 559 44 545 82 519 108 C 492 134 455 147 408 147 C 360 147 322 134 296 108 C 269 82 256 46 256 1 Z M 643 456 C 635 457 625 458 614 459 C 603 460 592 461 581 462 C 569 462 558 463 547 463 C 536 463 526 464 518 464 C 437 464 375 442 331 398 C 287 354 261 285 252 192 C 266 209 281 223 298 235 C 314 247 332 256 350 264 C 368 271 387 276 405 279 C 423 282 441 284 459 284 C 497 284 533 278 567 266 C 601 254 630 236 655 212 C 679 188 699 159 713 125 C 727 90 735 50 735 5 C 735 -43 727 -86 711 -124 C 695 -162 672 -194 644 -220 C 615 -246 581 -267 541 -281 C 501 -295 457 -302 410 -302 C 362 -302 318 -295 278 -283 C 238 -271 203 -250 174 -221 C 145 -191 122 -152 106 -102 C 90 -52 82 9 82 83 C 82 154 89 222 103 286 C 117 350 142 406 176 454 C 210 502 255 541 311 569 C 367 597 438 612 522 612 C 543 612 564 611 586 609 C 607 607 625 604 641 599 L 643 456 Z" unicode="" />
<glyph horiz-adv-x="723" d="M 674 594 L 674 471 C 643 438 611 400 579 358 C 547 315 516 264 487 205 C 457 146 431 77 407 -1 C 383 -80 364 -173 350 -279 L 160 -279 C 169 -198 185 -123 207 -53 C 229 17 255 81 285 141 C 315 201 347 256 381 306 C 415 356 448 403 481 446 L 68 446 L 68 594 L 674 594 Z" unicode="" />
<glyph horiz-adv-x="831" d="M 229 188 C 219 190 208 196 195 205 C 181 213 168 225 156 240 C 144 255 133 274 124 296 C 115 318 111 343 111 373 C 111 403 117 433 130 461 C 143 489 162 513 188 535 C 214 557 246 574 284 587 C 322 599 366 606 416 606 C 465 606 509 599 547 587 C 585 574 618 557 644 535 C 670 513 689 489 703 461 C 716 433 723 403 723 373 C 723 343 718 318 709 296 C 700 274 689 255 676 240 C 663 225 650 213 636 205 C 622 196 611 190 602 188 L 602 178 C 614 176 628 170 644 161 C 660 152 676 139 691 122 C 706 105 719 84 729 60 C 739 35 745 6 745 -27 C 745 -70 737 -108 721 -141 C 705 -174 683 -202 655 -224 C 627 -246 592 -263 552 -275 C 511 -287 466 -293 416 -293 C 365 -293 319 -287 279 -275 C 238 -263 203 -246 175 -224 C 146 -202 124 -174 109 -141 C 93 -108 86 -70 86 -27 C 86 6 91 35 101 60 C 111 84 124 105 139 122 C 154 139 170 152 186 161 C 202 170 217 176 229 178 L 229 188 Z M 279 354 C 279 319 290 291 314 270 C 338 248 372 238 416 238 C 461 238 495 248 518 270 C 541 291 553 319 553 354 C 553 388 541 416 518 439 C 495 461 461 473 416 473 C 372 473 338 461 314 439 C 290 416 279 388 279 354 Z M 262 -16 C 262 -35 264 -53 270 -70 C 276 -87 285 -102 298 -114 C 310 -126 326 -136 346 -143 C 365 -150 388 -154 416 -154 C 443 -154 466 -150 486 -143 C 505 -136 521 -126 533 -114 C 545 -102 554 -87 560 -70 C 566 -53 569 -35 569 -16 C 569 21 557 51 533 75 C 509 99 470 111 416 111 C 362 111 323 99 299 75 C 274 51 262 21 262 -16 Z" unicode="" />
<glyph horiz-adv-x="811" d="M 397 470 C 353 470 317 456 291 430 C 265 404 252 366 252 316 C 252 266 265 229 291 203 C 317 177 353 165 401 165 C 449 165 486 177 513 202 C 539 227 553 262 553 308 C 553 330 549 352 543 372 C 536 392 526 409 513 423 C 500 437 484 449 465 457 C 445 465 423 470 397 470 Z M 291 -150 C 371 -150 433 -128 478 -86 C 522 -43 549 25 559 120 C 545 102 529 88 513 76 C 496 64 478 54 460 47 C 442 40 423 35 405 32 C 386 29 368 28 352 28 C 312 28 276 34 242 46 C 208 58 179 75 155 98 C 130 121 111 150 97 184 C 83 218 76 258 76 304 C 76 352 84 396 100 434 C 116 472 138 505 166 531 C 194 557 229 578 269 592 C 309 606 353 613 401 613 C 449 613 493 606 533 594 C 573 582 607 561 636 531 C 665 501 688 461 704 411 C 720 361 729 300 729 226 C 729 154 721 87 707 23 C 693 -40 669 -96 635 -144 C 601 -192 555 -229 499 -256 C 443 -283 373 -297 289 -297 C 267 -297 246 -296 224 -295 C 202 -293 184 -290 170 -285 L 166 -141 C 174 -143 184 -144 195 -145 C 206 -146 217 -147 229 -148 C 240 -148 251 -149 262 -149 C 273 -149 283 -150 291 -150 Z" unicode="" />
<glyph horiz-adv-x="1257" d="M 63 965 L 260 965 C 274 1039 296 1107 326 1169 C 355 1231 392 1285 437 1330 C 482 1375 535 1410 595 1435 C 655 1460 724 1473 801 1473 C 831 1473 862 1471 894 1468 C 926 1464 957 1459 988 1453 C 1019 1447 1049 1439 1077 1431 C 1105 1422 1129 1413 1151 1403 L 1098 1212 C 1078 1220 1055 1227 1031 1235 C 1007 1242 982 1248 956 1254 C 930 1260 904 1264 878 1267 C 852 1270 827 1272 803 1272 C 759 1272 721 1264 688 1249 C 655 1233 626 1212 602 1185 C 578 1157 558 1125 542 1088 C 526 1050 513 1009 504 965 L 969 965 L 969 819 L 485 819 C 483 805 483 791 483 777 C 483 763 483 749 483 735 C 483 718 483 702 483 687 C 483 671 483 656 485 641 L 969 641 L 969 492 L 504 492 C 513 447 525 405 540 367 C 555 328 574 294 596 266 C 618 238 645 216 675 200 C 705 184 739 176 778 176 C 848 176 908 181 960 193 C 1011 204 1058 217 1100 233 L 1151 43 C 1129 33 1104 23 1074 15 C 1044 7 1013 0 979 -6 C 945 -12 911 -16 876 -20 C 841 -23 808 -25 776 -25 C 700 -25 632 -12 573 12 C 513 36 462 71 419 117 C 375 162 340 216 312 280 C 284 344 264 414 252 492 L 63 492 L 63 641 L 236 641 L 236 709 C 236 727 236 745 236 763 C 236 781 238 800 240 819 L 63 819 L 63 965 Z" unicode="" />
<glyph horiz-adv-x="1206" d="M 541 717 C 581 745 614 773 641 801 C 667 829 689 858 705 889 C 721 919 732 952 739 987 C 746 1022 750 1061 750 1104 C 750 1141 747 1172 743 1197 C 738 1221 731 1241 722 1256 C 712 1270 701 1281 688 1287 C 674 1293 659 1296 643 1296 C 628 1296 614 1293 602 1289 C 589 1284 578 1275 569 1263 C 560 1251 553 1233 548 1211 C 543 1189 541 1160 541 1126 L 541 717 Z M 319 565 L 319 1104 C 319 1174 327 1232 344 1280 C 361 1327 384 1365 413 1394 C 442 1423 476 1444 515 1456 C 554 1468 596 1475 641 1475 C 683 1475 723 1469 761 1457 C 799 1445 831 1426 859 1398 C 886 1370 908 1334 924 1289 C 940 1243 948 1187 948 1120 C 948 1058 940 1000 926 946 C 911 892 887 841 855 792 C 822 743 780 695 729 649 C 677 602 615 555 541 508 L 541 285 C 541 243 551 214 572 198 C 593 182 626 174 672 174 C 698 174 723 176 748 180 C 772 184 795 190 816 196 C 837 202 856 209 873 216 C 890 223 904 230 915 236 L 915 59 C 883 36 842 17 793 1 C 743 -15 687 -23 623 -23 C 525 -23 450 -1 398 42 C 345 86 319 154 319 248 L 319 348 L 180 242 L 180 461 L 319 565 Z" unicode="" />
<glyph horiz-adv-x="1364" d="M 621 1446 L 784 1446 L 918 1063 L 928 1063 L 1061 1446 L 1223 1446 L 1223 850 L 1120 850 L 1120 1290 L 1122 1348 L 1114 1348 L 1098 1290 L 975 948 L 868 948 L 745 1290 L 729 1348 L 721 1348 L 723 1290 L 723 850 L 621 850 L 621 1446 Z M 227 1356 L 68 1356 L 68 1446 L 498 1446 L 498 1356 L 336 1356 L 336 850 L 227 850 L 227 1356 Z" unicode="" />
<glyph horiz-adv-x="1606" d="M 1214 195 L 1315 205 L 1477 205 L 1477 0 L 866 0 L 866 166 C 927 176 981 198 1027 232 C 1073 266 1112 309 1143 359 C 1174 409 1197 466 1213 528 C 1229 590 1237 655 1237 721 C 1237 801 1228 874 1210 941 C 1192 1007 1166 1065 1130 1113 C 1094 1161 1050 1198 996 1225 C 942 1252 878 1266 805 1266 C 731 1266 666 1252 612 1225 C 558 1198 513 1161 477 1113 C 441 1065 415 1007 397 941 C 379 874 371 801 371 721 C 371 655 378 590 394 528 C 409 466 432 409 463 359 C 493 309 532 266 578 232 C 624 198 677 176 739 166 L 739 0 L 129 0 L 129 205 L 293 205 L 393 195 L 393 205 C 356 234 321 266 289 300 C 256 334 227 372 203 415 C 179 458 160 507 146 562 C 132 617 125 680 125 752 C 125 868 142 971 177 1061 C 212 1150 260 1225 321 1286 C 382 1346 454 1392 536 1423 C 618 1454 707 1470 803 1470 C 899 1470 988 1454 1071 1423 C 1153 1392 1225 1346 1286 1286 C 1347 1225 1395 1150 1430 1061 C 1465 971 1483 868 1483 752 C 1483 680 1476 617 1462 562 C 1448 507 1428 458 1404 415 C 1379 372 1350 334 1318 300 C 1285 266 1250 234 1214 205 L 1214 195 Z" unicode="" />
<glyph horiz-adv-x="1679" d="M 412 686 C 412 680 413 677 416 676 C 419 674 422 674 426 674 L 1251 674 C 1253 674 1256 674 1261 676 C 1265 677 1268 680 1268 686 L 1268 922 C 1268 928 1267 934 1265 941 C 1263 947 1260 954 1255 961 C 1211 1023 1153 1072 1082 1106 C 1011 1140 931 1157 842 1157 C 806 1157 768 1152 728 1142 C 687 1132 647 1119 609 1102 C 571 1084 535 1064 503 1040 C 471 1016 446 989 428 961 C 424 954 420 947 417 941 C 413 934 412 928 412 922 L 412 686 Z M 412 317 C 412 305 412 295 414 286 C 415 276 420 268 428 260 C 490 195 555 147 625 115 C 694 83 766 68 842 68 C 927 68 1007 83 1081 114 C 1155 144 1222 194 1280 262 L 1438 262 C 1399 212 1356 170 1310 134 C 1264 98 1215 69 1164 46 C 1113 22 1060 5 1006 -6 C 951 -17 896 -23 842 -23 C 784 -23 726 -16 668 -2 C 610 12 555 32 503 58 C 451 84 402 116 357 154 C 312 192 273 234 241 281 C 208 328 182 379 164 435 C 145 490 136 549 137 612 C 137 676 146 737 165 793 C 183 849 209 901 242 948 C 275 995 314 1037 359 1074 C 404 1111 453 1142 505 1168 C 557 1194 612 1213 669 1227 C 726 1240 784 1247 842 1247 C 904 1247 965 1240 1025 1226 C 1084 1212 1140 1191 1192 1165 C 1244 1138 1291 1105 1334 1067 C 1377 1028 1414 984 1445 935 C 1476 885 1500 831 1518 773 C 1535 714 1544 651 1544 584 L 426 584 C 422 584 419 581 416 577 C 413 573 412 569 412 565 L 412 317 Z" unicode="" />
<glyph horiz-adv-x="1733" d="M 227 1446 L 379 1446 L 371 1352 L 371 573 L 193 573 L 193 1262 L 197 1292 L 190 1292 L 55 1235 L 55 1384 L 227 1446 Z M 1219 1446 L 429 0 L 252 0 L 1045 1446 L 1219 1446 Z M 1002 732 C 1014 750 1029 769 1049 788 C 1068 806 1091 823 1118 838 C 1144 853 1174 865 1208 875 C 1242 884 1279 889 1319 889 C 1354 889 1389 884 1423 876 C 1457 867 1488 854 1515 836 C 1542 818 1564 795 1581 768 C 1597 740 1606 708 1606 672 C 1606 647 1602 625 1595 606 C 1588 587 1579 570 1568 556 C 1556 541 1543 529 1529 519 C 1515 509 1500 502 1485 496 L 1485 486 C 1503 482 1521 476 1539 468 C 1557 459 1574 447 1589 431 C 1604 415 1616 395 1626 372 C 1636 349 1641 322 1641 291 C 1641 241 1628 196 1604 157 C 1579 118 1544 85 1500 59 C 1455 33 1402 13 1341 0 C 1279 -13 1212 -20 1139 -20 C 1117 -20 1099 -19 1085 -18 C 1071 -17 1059 -16 1049 -14 L 1038 140 C 1050 138 1065 138 1082 138 C 1098 138 1118 138 1141 138 C 1247 138 1327 152 1381 181 C 1435 209 1462 247 1462 295 C 1462 311 1459 326 1453 338 C 1447 350 1438 361 1428 369 C 1418 377 1406 382 1393 386 C 1379 390 1366 392 1352 392 C 1348 392 1342 391 1336 391 C 1330 391 1321 390 1310 388 C 1299 386 1285 384 1267 381 C 1249 377 1227 373 1200 367 L 1172 500 L 1286 519 C 1302 521 1319 526 1337 532 C 1355 538 1371 547 1385 557 C 1399 567 1411 580 1420 595 C 1429 609 1434 626 1434 646 C 1434 676 1422 700 1400 718 C 1377 736 1347 746 1309 746 C 1293 746 1278 744 1264 740 C 1250 736 1235 731 1221 723 C 1207 715 1192 705 1177 693 C 1161 681 1144 666 1126 650 L 1002 732 Z" unicode="" />
<glyph horiz-adv-x="2007" d="M 86 1251 C 96 1275 110 1300 128 1325 C 145 1350 166 1373 192 1393 C 218 1413 248 1430 284 1443 C 320 1455 362 1462 410 1462 C 451 1462 490 1456 526 1445 C 562 1433 593 1417 619 1395 C 645 1373 666 1347 682 1315 C 697 1283 705 1246 705 1206 C 705 1162 693 1118 670 1076 C 647 1033 609 989 555 944 L 311 721 L 709 721 L 709 573 L 94 573 L 94 723 L 365 977 C 386 995 406 1014 425 1033 C 444 1051 461 1070 475 1088 C 489 1106 500 1123 508 1141 C 516 1159 520 1176 520 1194 C 520 1208 517 1223 511 1237 C 505 1251 497 1264 486 1276 C 475 1288 462 1297 446 1304 C 430 1311 413 1315 393 1315 C 362 1315 333 1305 306 1285 C 278 1265 253 1234 231 1190 L 86 1251 Z M 1493 1446 L 703 0 L 526 0 L 1319 1446 L 1493 1446 Z M 1276 733 C 1288 751 1303 770 1323 789 C 1342 807 1365 824 1392 839 C 1418 854 1448 866 1482 876 C 1516 885 1553 890 1593 890 C 1628 890 1663 885 1697 877 C 1731 868 1762 855 1789 837 C 1816 819 1838 796 1855 769 C 1871 741 1880 709 1880 673 C 1880 648 1876 626 1869 607 C 1862 588 1853 571 1842 557 C 1830 542 1817 530 1803 520 C 1789 510 1774 503 1759 497 L 1759 487 C 1777 483 1795 477 1813 469 C 1831 460 1848 448 1863 432 C 1878 416 1890 396 1900 373 C 1910 350 1915 323 1915 292 C 1915 242 1902 197 1878 158 C 1853 119 1818 86 1774 60 C 1729 34 1676 14 1615 1 C 1553 -12 1486 -19 1413 -19 C 1391 -19 1373 -18 1359 -17 C 1345 -16 1333 -15 1323 -13 L 1312 141 C 1324 139 1339 139 1356 139 C 1372 139 1392 139 1415 139 C 1521 139 1601 153 1655 182 C 1709 210 1736 248 1736 296 C 1736 312 1733 327 1727 339 C 1721 351 1712 362 1702 370 C 1692 378 1680 383 1667 387 C 1653 391 1640 393 1626 393 C 1622 393 1616 392 1610 392 C 1604 392 1595 391 1584 389 C 1573 387 1559 385 1541 382 C 1523 378 1501 374 1474 368 L 1446 501 L 1560 520 C 1576 522 1593 527 1611 533 C 1629 539 1645 548 1659 558 C 1673 568 1685 581 1694 596 C 1703 610 1708 627 1708 647 C 1708 677 1696 701 1674 719 C 1651 737 1621 747 1583 747 C 1567 747 1552 745 1538 741 C 1524 737 1509 732 1495 724 C 1481 716 1466 706 1451 694 C 1435 682 1418 667 1400 651 L 1276 733 Z" unicode="" />
<glyph horiz-adv-x="1767" d="M 227 1446 L 379 1446 L 371 1352 L 371 573 L 193 573 L 193 1262 L 197 1292 L 190 1292 L 55 1235 L 55 1384 L 227 1446 Z M 1219 1446 L 429 0 L 252 0 L 1045 1446 L 1219 1446 Z M 1165 468 C 1155 470 1144 476 1131 485 C 1117 493 1104 505 1092 520 C 1080 535 1069 554 1060 576 C 1051 598 1047 623 1047 653 C 1047 683 1053 713 1066 741 C 1079 769 1098 793 1124 815 C 1150 837 1182 854 1220 867 C 1258 879 1302 886 1352 886 C 1401 886 1445 879 1483 867 C 1521 854 1554 837 1580 815 C 1606 793 1625 769 1639 741 C 1652 713 1659 683 1659 653 C 1659 623 1654 598 1645 576 C 1636 554 1625 535 1612 520 C 1599 505 1586 493 1572 485 C 1558 476 1547 470 1538 468 L 1538 458 C 1550 456 1564 450 1580 441 C 1596 432 1612 419 1627 402 C 1642 385 1655 364 1665 340 C 1675 315 1681 286 1681 253 C 1681 209 1673 171 1657 138 C 1641 105 1619 77 1591 55 C 1563 33 1528 16 1488 4 C 1447 -7 1402 -13 1352 -13 C 1301 -13 1255 -7 1215 4 C 1174 16 1139 33 1111 55 C 1082 77 1060 105 1045 138 C 1029 171 1022 209 1022 253 C 1022 286 1027 315 1037 340 C 1047 364 1060 385 1075 402 C 1090 419 1106 432 1122 441 C 1138 450 1153 456 1165 458 L 1165 468 Z M 1215 634 C 1215 599 1226 571 1250 550 C 1274 528 1308 518 1352 518 C 1397 518 1431 528 1454 550 C 1477 571 1489 599 1489 634 C 1489 668 1477 696 1454 719 C 1431 741 1397 753 1352 753 C 1308 753 1274 741 1250 719 C 1226 696 1215 668 1215 634 Z M 1198 264 C 1198 244 1200 226 1206 209 C 1212 192 1221 177 1234 165 C 1246 153 1262 143 1282 136 C 1301 129 1324 126 1352 126 C 1379 126 1402 129 1422 136 C 1441 143 1457 153 1469 165 C 1481 177 1490 192 1496 209 C 1502 226 1505 244 1505 264 C 1505 301 1493 331 1469 355 C 1445 379 1406 391 1352 391 C 1298 391 1259 379 1235 355 C 1210 331 1198 301 1198 264 Z" unicode="" />
<glyph horiz-adv-x="2015" d="M 66 1308 C 78 1326 93 1345 113 1364 C 132 1382 155 1399 182 1414 C 208 1429 238 1441 272 1451 C 306 1460 343 1465 383 1465 C 418 1465 453 1460 487 1452 C 521 1443 552 1430 579 1412 C 606 1394 628 1371 645 1344 C 661 1316 670 1284 670 1248 C 670 1223 666 1201 659 1182 C 652 1163 643 1146 632 1132 C 620 1117 607 1105 593 1095 C 579 1085 564 1078 549 1072 L 549 1062 C 567 1058 585 1052 603 1044 C 621 1035 638 1023 653 1007 C 668 991 680 971 690 948 C 700 925 705 898 705 867 C 705 817 692 772 668 733 C 643 694 608 661 564 635 C 519 609 466 589 405 576 C 343 562 276 556 203 556 C 181 556 163 556 149 557 C 135 558 123 560 113 562 L 102 716 C 114 714 129 714 146 714 C 162 714 182 714 205 714 C 311 714 391 728 445 757 C 499 785 526 823 526 871 C 526 887 523 902 517 914 C 511 926 502 937 492 945 C 482 953 470 958 457 962 C 443 966 430 968 416 968 C 412 968 406 967 400 967 C 394 967 385 966 374 964 C 363 962 349 960 331 957 C 313 953 291 949 264 943 L 236 1076 L 350 1095 C 366 1097 383 1102 401 1108 C 419 1114 435 1123 449 1133 C 463 1143 475 1156 484 1171 C 493 1185 498 1202 498 1222 C 498 1252 486 1276 464 1294 C 441 1312 411 1322 373 1322 C 357 1322 342 1320 328 1316 C 314 1312 299 1307 285 1299 C 271 1291 256 1281 241 1269 C 225 1257 208 1242 190 1226 L 66 1308 Z M 1466 1446 L 676 0 L 499 0 L 1292 1446 L 1466 1446 Z M 1413 468 C 1403 470 1392 476 1379 485 C 1365 493 1352 505 1340 520 C 1328 535 1317 554 1308 576 C 1299 598 1295 623 1295 653 C 1295 683 1301 713 1314 741 C 1327 769 1346 793 1372 815 C 1398 837 1430 854 1468 867 C 1506 879 1550 886 1600 886 C 1649 886 1693 879 1731 867 C 1769 854 1802 837 1828 815 C 1854 793 1873 769 1887 741 C 1900 713 1907 683 1907 653 C 1907 623 1902 598 1893 576 C 1884 554 1873 535 1860 520 C 1847 505 1834 493 1820 485 C 1806 476 1795 470 1786 468 L 1786 458 C 1798 456 1812 450 1828 441 C 1844 432 1860 419 1875 402 C 1890 385 1903 364 1913 340 C 1923 315 1929 286 1929 253 C 1929 209 1921 171 1905 138 C 1889 105 1867 77 1839 55 C 1811 33 1776 16 1736 4 C 1695 -7 1650 -13 1600 -13 C 1549 -13 1503 -7 1463 4 C 1422 16 1387 33 1359 55 C 1330 77 1308 105 1293 138 C 1277 171 1270 209 1270 253 C 1270 286 1275 315 1285 340 C 1295 364 1308 385 1323 402 C 1338 419 1354 432 1370 441 C 1386 450 1401 456 1413 458 L 1413 468 Z M 1463 634 C 1463 599 1474 571 1498 550 C 1522 528 1556 518 1600 518 C 1645 518 1679 528 1702 550 C 1725 571 1737 599 1737 634 C 1737 668 1725 696 1702 719 C 1679 741 1645 753 1600 753 C 1556 753 1522 741 1498 719 C 1474 696 1463 668 1463 634 Z M 1446 264 C 1446 244 1448 226 1454 209 C 1460 192 1469 177 1482 165 C 1494 153 1510 143 1530 136 C 1549 129 1572 126 1600 126 C 1627 126 1650 129 1670 136 C 1689 143 1705 153 1717 165 C 1729 177 1738 192 1744 209 C 1750 226 1753 244 1753 264 C 1753 301 1741 331 1717 355 C 1693 379 1654 391 1600 391 C 1546 391 1507 379 1483 355 C 1458 331 1446 301 1446 264 Z" unicode="" />
<glyph horiz-adv-x="2015" d="M 670 1446 L 657 1298 L 283 1298 L 268 1096 C 297 1118 326 1134 354 1144 C 382 1154 411 1159 440 1159 C 482 1159 520 1152 553 1140 C 585 1128 613 1110 636 1087 C 658 1064 675 1036 687 1004 C 699 972 705 936 705 897 C 705 835 693 783 669 739 C 645 695 612 660 569 632 C 526 604 475 583 415 570 C 355 557 289 551 217 551 C 195 551 178 551 166 552 C 153 553 141 555 131 557 L 123 711 C 134 709 147 709 163 709 C 178 709 196 709 217 709 C 272 709 319 713 359 722 C 399 730 431 742 457 758 C 483 774 502 793 514 815 C 526 837 532 863 532 891 C 532 907 530 922 526 938 C 522 953 516 967 507 979 C 497 991 484 1000 468 1008 C 452 1016 431 1020 406 1020 C 370 1020 337 1013 307 1000 C 277 986 247 966 215 938 L 115 979 L 147 1446 L 670 1446 Z M 1466 1446 L 676 0 L 499 0 L 1292 1446 L 1466 1446 Z M 1413 468 C 1403 470 1392 476 1379 485 C 1365 493 1352 505 1340 520 C 1328 535 1317 554 1308 576 C 1299 598 1295 623 1295 653 C 1295 683 1301 713 1314 741 C 1327 769 1346 793 1372 815 C 1398 837 1430 854 1468 867 C 1506 879 1550 886 1600 886 C 1649 886 1693 879 1731 867 C 1769 854 1802 837 1828 815 C 1854 793 1873 769 1887 741 C 1900 713 1907 683 1907 653 C 1907 623 1902 598 1893 576 C 1884 554 1873 535 1860 520 C 1847 505 1834 493 1820 485 C 1806 476 1795 470 1786 468 L 1786 458 C 1798 456 1812 450 1828 441 C 1844 432 1860 419 1875 402 C 1890 385 1903 364 1913 340 C 1923 315 1929 286 1929 253 C 1929 209 1921 171 1905 138 C 1889 105 1867 77 1839 55 C 1811 33 1776 16 1736 4 C 1695 -7 1650 -13 1600 -13 C 1549 -13 1503 -7 1463 4 C 1422 16 1387 33 1359 55 C 1330 77 1308 105 1293 138 C 1277 171 1270 209 1270 253 C 1270 286 1275 315 1285 340 C 1295 364 1308 385 1323 402 C 1338 419 1354 432 1370 441 C 1386 450 1401 456 1413 458 L 1413 468 Z M 1463 634 C 1463 599 1474 571 1498 550 C 1522 528 1556 518 1600 518 C 1645 518 1679 528 1702 550 C 1725 571 1737 599 1737 634 C 1737 668 1725 696 1702 719 C 1679 741 1645 753 1600 753 C 1556 753 1522 741 1498 719 C 1474 696 1463 668 1463 634 Z M 1446 264 C 1446 244 1448 226 1454 209 C 1460 192 1469 177 1482 165 C 1494 153 1510 143 1530 136 C 1549 129 1572 126 1600 126 C 1627 126 1650 129 1670 136 C 1689 143 1705 153 1717 165 C 1729 177 1738 192 1744 209 C 1750 226 1753 244 1753 264 C 1753 301 1741 331 1717 355 C 1693 379 1654 391 1600 391 C 1546 391 1507 379 1483 355 C 1458 331 1446 301 1446 264 Z" unicode="" />
<glyph horiz-adv-x="1860" d="M 674 1446 L 674 1323 C 643 1290 611 1252 579 1210 C 547 1167 516 1116 487 1057 C 457 998 431 929 407 850 C 383 771 364 679 350 573 L 160 573 C 169 653 185 729 207 799 C 229 869 255 933 285 993 C 315 1053 347 1108 381 1158 C 415 1208 448 1255 481 1298 L 68 1298 L 68 1446 L 674 1446 Z M 1311 1446 L 521 0 L 344 0 L 1137 1446 L 1311 1446 Z M 1257 468 C 1247 470 1236 476 1223 485 C 1209 493 1196 505 1184 520 C 1172 535 1161 554 1152 576 C 1143 598 1139 623 1139 653 C 1139 683 1145 713 1158 741 C 1171 769 1190 793 1216 815 C 1242 837 1274 854 1312 867 C 1350 879 1394 886 1444 886 C 1493 886 1537 879 1575 867 C 1613 854 1646 837 1672 815 C 1698 793 1717 769 1731 741 C 1744 713 1751 683 1751 653 C 1751 623 1746 598 1737 576 C 1728 554 1717 535 1704 520 C 1691 505 1678 493 1664 485 C 1650 476 1639 470 1630 468 L 1630 458 C 1642 456 1656 450 1672 441 C 1688 432 1704 419 1719 402 C 1734 385 1747 364 1757 340 C 1767 315 1773 286 1773 253 C 1773 209 1765 171 1749 138 C 1733 105 1711 77 1683 55 C 1655 33 1620 16 1580 4 C 1539 -7 1494 -13 1444 -13 C 1393 -13 1347 -7 1307 4 C 1266 16 1231 33 1203 55 C 1174 77 1152 105 1137 138 C 1121 171 1114 209 1114 253 C 1114 286 1119 315 1129 340 C 1139 364 1152 385 1167 402 C 1182 419 1198 432 1214 441 C 1230 450 1245 456 1257 458 L 1257 468 Z M 1307 634 C 1307 599 1318 571 1342 550 C 1366 528 1400 518 1444 518 C 1489 518 1523 528 1546 550 C 1569 571 1581 599 1581 634 C 1581 668 1569 696 1546 719 C 1523 741 1489 753 1444 753 C 1400 753 1366 741 1342 719 C 1318 696 1307 668 1307 634 Z M 1290 264 C 1290 244 1292 226 1298 209 C 1304 192 1313 177 1326 165 C 1338 153 1354 143 1374 136 C 1393 129 1416 126 1444 126 C 1471 126 1494 129 1514 136 C 1533 143 1549 153 1561 165 C 1573 177 1582 192 1588 209 C 1594 226 1597 244 1597 264 C 1597 301 1585 331 1561 355 C 1537 379 1498 391 1444 391 C 1390 391 1351 379 1327 355 C 1302 331 1290 301 1290 264 Z" unicode="" />
<glyph horiz-adv-x="1206" d="M 492 1407 C 531 1407 570 1403 608 1396 C 646 1388 682 1378 717 1365 C 751 1351 783 1335 813 1315 C 843 1295 869 1273 893 1249 C 953 1184 999 1096 1029 984 C 1059 872 1075 733 1075 567 C 1075 463 1063 373 1041 299 C 1018 224 986 163 945 115 C 904 67 855 32 797 10 C 739 -11 674 -23 604 -23 C 532 -23 467 -13 409 6 C 350 25 300 55 258 95 C 216 135 183 187 160 249 C 136 311 125 386 125 473 C 125 534 134 591 153 645 C 172 698 199 744 234 784 C 269 823 312 854 362 877 C 412 899 469 911 532 911 C 584 911 632 906 675 896 C 718 886 755 873 786 858 L 834 831 C 826 902 815 959 799 1002 C 783 1044 761 1079 735 1106 C 719 1122 700 1137 680 1149 C 660 1161 638 1170 615 1178 C 592 1185 568 1190 543 1194 C 518 1197 493 1199 469 1200 C 465 1200 461 1200 457 1200 C 453 1200 448 1200 442 1200 C 436 1200 428 1199 419 1199 C 410 1199 399 1198 387 1198 L 387 1384 C 397 1392 407 1398 415 1402 C 423 1405 432 1407 444 1407 L 492 1407 Z M 600 715 C 519 715 459 692 420 647 C 381 601 362 536 362 451 C 362 266 441 174 600 174 C 640 174 674 181 704 196 C 734 210 759 231 779 257 C 799 283 813 314 823 350 C 833 386 838 425 838 469 C 838 547 818 608 779 651 C 740 693 680 715 600 715 Z" unicode="" />
<glyph horiz-adv-x="1561" d="M 922 1446 L 1440 170 L 1440 0 L 123 0 L 123 166 L 639 1446 L 922 1446 Z M 717 1034 L 383 199 L 1176 199 L 848 1034 L 791 1204 L 774 1204 L 717 1034 Z" unicode="" />
<glyph horiz-adv-x="1640" d="M 1556 1446 L 1556 1225 L 1372 1225 L 1372 -236 L 1133 -236 L 1133 1225 L 506 1225 L 506 -236 L 266 -236 L 266 1225 L 82 1225 L 82 1446 L 1556 1446 Z" unicode="" />
<glyph horiz-adv-x="1559" d="M 1405 1446 L 1405 1231 L 596 1231 L 446 1241 L 446 1217 L 596 1135 L 1165 682 L 1165 530 L 592 78 L 442 -4 L 442 -29 L 592 -20 L 1405 -20 L 1405 -236 L 162 -236 L 162 29 L 825 555 L 897 600 L 897 621 L 825 670 L 162 1186 L 162 1446 L 1405 1446 Z" unicode="" />
<glyph horiz-adv-x="1206" d="M 1200 694 L 1200 485 L 8 485 L 8 694 L 1200 694 Z" unicode="" />
<glyph horiz-adv-x="401" d="M 684 1446 L -106 0 L -283 0 L 510 1446 L 684 1446 Z" unicode="" />
<glyph horiz-adv-x="563" d="M 440 723 L 440 412 L 121 412 L 121 723 L 440 723 Z" unicode="" />
<glyph horiz-adv-x="1511" d="M 508 1102 L 758 395 L 1255 1878 L 1501 1878 L 825 0 L 651 0 L 313 897 L 53 897 L 53 1102 L 508 1102 Z" unicode="" />
<glyph horiz-adv-x="2075" d="M 610 1016 C 632 1016 655 1013 678 1007 C 701 1001 725 992 750 979 C 775 965 802 948 830 927 C 858 905 889 879 922 848 L 1038 735 L 1153 848 C 1185 879 1216 905 1244 927 C 1272 948 1298 965 1324 979 C 1349 992 1373 1001 1396 1007 C 1419 1013 1442 1016 1466 1016 L 1575 1016 C 1628 1016 1677 1006 1722 986 C 1767 966 1806 939 1838 905 C 1870 871 1896 833 1914 789 C 1932 745 1942 699 1942 651 L 1942 537 C 1942 489 1932 444 1914 400 C 1896 356 1870 317 1838 283 C 1806 249 1767 222 1722 202 C 1677 182 1628 172 1575 172 L 1466 172 C 1442 172 1419 175 1396 181 C 1373 187 1349 196 1324 210 C 1298 223 1272 240 1244 262 C 1216 284 1185 310 1153 342 L 1038 453 L 922 342 C 889 310 858 284 830 262 C 802 240 775 223 750 210 C 725 196 701 187 678 181 C 655 175 632 172 610 172 L 500 172 C 447 172 398 182 353 202 C 308 222 269 249 237 283 C 204 317 178 356 160 400 C 142 444 133 489 133 537 L 133 651 C 133 699 142 745 160 789 C 178 833 204 871 237 905 C 269 939 308 966 353 986 C 398 1006 447 1016 500 1016 L 610 1016 Z M 1186 596 L 1296 485 C 1315 464 1333 447 1351 434 C 1369 420 1385 410 1401 402 C 1416 394 1430 388 1444 385 C 1458 382 1471 381 1483 381 L 1559 381 C 1581 381 1603 385 1623 394 C 1643 403 1660 415 1675 430 C 1690 445 1702 462 1711 482 C 1719 501 1724 521 1724 543 L 1724 647 C 1724 667 1719 687 1711 706 C 1702 725 1690 742 1675 757 C 1660 772 1643 784 1623 793 C 1603 802 1581 807 1559 807 L 1483 807 C 1471 807 1458 805 1444 802 C 1430 799 1416 794 1401 786 C 1385 778 1369 768 1351 755 C 1333 741 1315 725 1296 705 L 1186 596 Z M 352 543 C 352 521 356 501 365 482 C 373 462 385 445 400 430 C 415 415 433 403 453 394 C 473 385 494 381 518 381 L 592 381 C 604 381 616 382 630 385 C 644 388 658 394 674 402 C 690 410 706 420 724 434 C 741 447 760 464 780 485 L 889 594 L 780 705 C 760 725 741 741 724 755 C 706 768 690 778 674 786 C 658 794 644 799 630 802 C 616 805 604 807 592 807 L 518 807 C 494 807 473 802 453 793 C 433 784 415 772 400 757 C 385 742 373 725 365 706 C 356 687 352 667 352 647 L 352 543 Z" unicode="" />
<glyph horiz-adv-x="868" d="M 735 1597 C 748 1597 759 1595 768 1592 C 777 1588 787 1583 799 1575 L 799 1405 L 674 1405 C 658 1405 644 1401 630 1394 C 616 1387 603 1378 593 1366 C 582 1354 574 1340 568 1324 C 562 1308 559 1292 559 1276 L 559 -59 C 559 -105 550 -147 532 -187 C 514 -226 491 -261 461 -293 C 431 -323 398 -346 360 -363 C 322 -380 282 -389 240 -389 L 131 -389 C 117 -389 106 -387 98 -384 C 89 -380 79 -375 68 -367 L 68 -197 L 195 -197 C 210 -197 224 -193 238 -186 C 252 -178 264 -169 274 -157 C 284 -145 292 -131 298 -115 C 304 -99 307 -84 307 -68 L 307 1268 C 307 1312 315 1353 332 1393 C 349 1432 373 1467 403 1497 C 432 1528 466 1552 504 1570 C 542 1588 583 1597 627 1597 L 735 1597 Z" unicode="" />
<glyph horiz-adv-x="1206" d="M 59 897 C 81 917 106 936 132 953 C 158 969 184 983 212 995 C 240 1007 267 1016 295 1022 C 322 1028 349 1032 375 1032 C 413 1032 447 1028 475 1022 C 503 1015 528 1007 550 997 C 572 987 593 976 613 964 C 633 952 654 942 677 932 C 699 922 725 913 753 907 C 781 900 814 897 854 897 C 904 897 954 909 1005 933 C 1055 957 1103 990 1149 1032 L 1149 813 C 1126 793 1102 776 1076 761 C 1050 745 1023 732 996 721 C 968 709 941 701 913 695 C 885 689 859 686 834 686 C 794 686 761 689 733 695 C 705 701 680 709 658 719 C 635 728 614 738 594 749 C 574 760 553 770 531 780 C 509 789 483 797 455 803 C 427 809 393 813 354 813 C 302 813 252 801 202 779 C 152 756 105 725 59 686 L 59 897 Z M 59 367 C 105 408 156 440 212 464 C 268 488 323 500 375 500 C 413 500 447 496 475 490 C 503 483 528 475 550 465 C 572 455 593 445 613 433 C 633 421 654 411 677 401 C 699 391 725 383 753 377 C 781 370 814 367 854 367 C 904 367 954 378 1005 402 C 1055 426 1103 458 1149 500 L 1149 281 C 1126 261 1102 244 1076 229 C 1050 213 1023 200 996 189 C 968 177 941 169 913 163 C 885 157 859 154 834 154 C 794 154 761 157 733 163 C 705 169 680 177 658 187 C 635 196 614 206 594 217 C 574 228 553 238 531 248 C 509 257 483 265 455 271 C 427 277 393 281 354 281 C 302 281 252 269 202 246 C 152 223 105 192 59 154 L 59 367 Z" unicode="" />
<glyph horiz-adv-x="1206" d="M 59 963 L 727 963 L 862 1182 L 1073 1182 L 938 963 L 1149 963 L 1149 756 L 811 756 L 606 424 L 1149 424 L 1149 217 L 479 217 L 346 0 L 133 0 L 266 217 L 59 217 L 59 424 L 395 424 L 600 756 L 59 756 L 59 963 Z" unicode="" />
<glyph horiz-adv-x="1206" d="M 1149 1309 L 1149 1075 L 502 856 L 373 811 L 373 786 L 502 745 L 1149 530 L 1149 295 L 59 725 L 59 872 L 1149 1309 Z M 1149 207 L 1149 0 L 59 0 L 59 207 L 1149 207 Z" unicode="" />
<glyph horiz-adv-x="1206" d="M 1149 872 L 1149 725 L 59 295 L 59 530 L 705 745 L 836 786 L 836 811 L 705 856 L 59 1075 L 59 1309 L 1149 872 Z M 1149 207 L 1149 0 L 59 0 L 59 207 L 1149 207 Z" unicode="" />
<glyph horiz-adv-x="1292" d="M 713 1389 L 1186 782 L 1186 608 L 713 0 L 578 0 L 104 608 L 104 782 L 578 1389 L 713 1389 Z M 317 711 L 317 680 L 633 276 L 657 276 L 971 680 L 971 711 L 657 1114 L 633 1114 L 317 711 Z" unicode="" />
<glyph horiz-adv-x="1272" d="M 184 1065 L 184 1245 C 184 1285 190 1323 203 1359 C 215 1394 234 1425 259 1451 C 283 1477 314 1497 351 1512 C 387 1526 430 1534 479 1534 C 520 1534 555 1531 584 1526 C 612 1521 631 1515 641 1509 L 621 1341 C 608 1344 592 1347 572 1350 C 552 1352 534 1354 518 1354 C 478 1354 449 1345 433 1329 C 416 1313 408 1283 408 1239 L 408 1065 L 815 1065 L 815 1245 C 815 1285 821 1323 833 1359 C 845 1394 864 1425 888 1451 C 912 1477 943 1497 980 1512 C 1016 1526 1059 1534 1108 1534 C 1150 1534 1185 1531 1213 1526 C 1241 1521 1261 1515 1272 1509 L 1249 1341 C 1237 1344 1222 1347 1202 1350 C 1182 1352 1164 1354 1147 1354 C 1107 1354 1078 1345 1061 1329 C 1044 1313 1036 1283 1036 1239 L 1036 1065 L 1270 1065 L 1270 891 L 1042 891 L 1042 0 L 815 0 L 815 891 L 414 891 L 414 0 L 184 0 L 184 891 L 12 891 L 12 1065 L 184 1065 Z" unicode="" />
<glyph horiz-adv-x="1196" d="M 184 1065 L 184 1245 C 184 1285 190 1323 203 1359 C 215 1394 234 1425 259 1451 C 283 1477 314 1497 351 1512 C 387 1526 430 1534 479 1534 C 520 1534 555 1531 584 1526 C 612 1521 631 1515 641 1509 L 621 1341 C 608 1344 592 1347 572 1350 C 552 1352 534 1354 518 1354 C 478 1354 449 1345 433 1329 C 416 1313 408 1283 408 1239 L 408 1065 L 641 1065 L 641 891 L 414 891 L 414 0 L 184 0 L 184 891 L 12 891 L 12 1065 L 184 1065 Z M 1032 1065 L 1032 0 L 805 0 L 805 1065 L 1032 1065 Z M 1042 1507 L 1042 1292 L 795 1292 L 795 1507 L 1042 1507 Z" unicode="" />
<glyph horiz-adv-x="1196" d="M 184 1065 L 184 1245 C 184 1285 190 1323 203 1359 C 215 1394 234 1425 259 1451 C 283 1477 314 1497 351 1512 C 387 1526 430 1534 479 1534 C 520 1534 555 1531 584 1526 C 612 1521 631 1515 641 1509 L 621 1341 C 608 1344 592 1347 572 1350 C 552 1352 534 1354 518 1354 C 478 1354 449 1345 433 1329 C 416 1313 408 1283 408 1239 L 408 1065 L 641 1065 L 641 891 L 414 891 L 414 0 L 184 0 L 184 891 L 12 891 L 12 1065 L 184 1065 Z M 1032 1507 L 1032 0 L 805 0 L 805 1507 L 1032 1507 Z" unicode="" />
<glyph horiz-adv-x="1827" d="M 184 891 L 12 891 L 12 1065 L 184 1065 L 184 1245 C 184 1285 190 1323 203 1359 C 215 1394 234 1425 259 1451 C 283 1477 314 1497 351 1512 C 387 1526 430 1534 479 1534 C 520 1534 555 1531 584 1526 C 612 1521 631 1515 641 1509 L 621 1341 C 608 1344 592 1347 572 1350 C 552 1352 534 1354 518 1354 C 478 1354 449 1345 433 1329 C 416 1313 408 1283 408 1239 L 408 1065 L 815 1065 L 815 1245 C 815 1285 821 1323 833 1359 C 845 1394 864 1425 888 1451 C 912 1477 943 1497 980 1512 C 1016 1526 1059 1534 1108 1534 C 1150 1534 1185 1531 1213 1526 C 1241 1521 1261 1515 1272 1509 L 1249 1341 C 1237 1344 1222 1347 1202 1350 C 1182 1352 1164 1354 1147 1354 C 1107 1354 1078 1345 1061 1329 C 1044 1313 1036 1283 1036 1239 L 1036 1065 L 1270 1065 L 1270 891 L 1042 891 L 1042 0 L 815 0 L 815 891 L 414 891 L 414 0 L 184 0 L 184 891 Z M 1434 1065 L 1663 1065 L 1663 0 L 1434 0 L 1434 1065 Z M 1423 1507 L 1673 1507 L 1673 1292 L 1423 1292 L 1423 1507 Z" unicode="" />
<glyph horiz-adv-x="1827" d="M 184 1065 L 184 1245 C 184 1285 190 1323 203 1359 C 215 1394 234 1425 259 1451 C 283 1477 314 1497 351 1512 C 387 1526 430 1534 479 1534 C 520 1534 555 1531 584 1526 C 612 1521 631 1515 641 1509 L 621 1341 C 608 1344 592 1347 572 1350 C 552 1352 534 1354 518 1354 C 478 1354 449 1345 433 1329 C 416 1313 408 1283 408 1239 L 408 1065 L 815 1065 L 815 1245 C 815 1285 821 1323 833 1359 C 845 1394 864 1425 888 1451 C 912 1477 943 1497 980 1512 C 1016 1526 1059 1534 1108 1534 C 1150 1534 1185 1531 1213 1526 C 1241 1521 1261 1515 1272 1509 L 1249 1341 C 1237 1344 1222 1347 1202 1350 C 1182 1352 1164 1354 1147 1354 C 1107 1354 1078 1345 1061 1329 C 1044 1313 1036 1283 1036 1239 L 1036 1065 L 1270 1065 L 1270 891 L 1042 891 L 1042 0 L 815 0 L 815 891 L 414 891 L 414 0 L 184 0 L 184 891 L 12 891 L 12 1065 L 184 1065 Z M 1663 1507 L 1663 0 L 1434 0 L 1434 1507 L 1663 1507 Z" unicode="" />
</font>
</defs>
</svg>
